<?xml version="1.0" encoding="utf-8"?>
<!-- Generator: Adobe Illustrator 16.0.0, SVG Export Plug-In . SVG Version: 6.00 Build 0)  -->
<!DOCTYPE svg PUBLIC "-//W3C//DTD SVG 1.1//EN" "http://www.w3.org/Graphics/SVG/1.1/DTD/svg11.dtd">
<svg version="1.1" id="Layer_1" xmlns="http://www.w3.org/2000/svg" xmlns:xlink="http://www.w3.org/1999/xlink" x="0px" y="0px"
	 width="200px" height="200px" viewBox="0 0 200 200" enable-background="new 0 0 200 200" xml:space="preserve">
<g>
	<g>
		<g>
			<linearGradient id="SVGID_1_" gradientUnits="userSpaceOnUse" x1="100" y1="197.6279" x2="100" y2="17.2636">
				<stop  offset="0" style="stop-color:#F2453F"/>
				<stop  offset="1" style="stop-color:#F2B730"/>
			</linearGradient>
			<path fill="url(#SVGID_1_)" d="M109.538,105.842v-4.104c4.435-0.908,7.624-4.816,7.629-9.34v-3.811
				c3.155,0,5.721-2.564,5.721-5.725V65.698c-0.007-5.265-4.274-9.529-9.536-9.534H79.029c-1.055,0-1.911,0.856-1.911,1.907
				c0,2.921,0.746,5.788,2.173,8.335c-2.317,1.219-3.483,3.867-2.841,6.403l1.709,6.787c-1.229,1.741-1.374,4.024-0.395,5.914
				c0.99,1.892,2.945,3.082,5.078,3.076v3.811c0.002,4.523,3.193,8.432,7.627,9.34v4.104c-12.904,1.005-22.863,11.754-22.888,24.692
				v38.136c0,1.057,0.856,1.913,1.903,1.913h61.022c1.062,0,1.909-0.856,1.909-1.913v-38.136
				C132.402,117.596,122.438,106.847,109.538,105.842z M116.69,118.383l-4.396,2.941c-0.477,0.312-0.781,0.829-0.84,1.393
				c-0.054,0.568,0.144,1.138,0.552,1.534l2.283,2.293l-9.455,7.356l8.391-19.817c0.229-0.581,0.161-1.247-0.189-1.771l-1.598-2.391
				c0.62,0.116,1.225,0.259,1.816,0.426L116.69,118.383z M87.712,121.324l-4.403-2.941l3.431-8.035
				c0.598-0.167,1.195-0.31,1.823-0.426l-1.603,2.391c-0.354,0.523-0.419,1.185-0.188,1.771l8.394,19.817l-9.456-7.356l2.287-2.293
				c0.398-0.396,0.604-0.966,0.548-1.534c-0.059-0.563-0.362-1.08-0.84-1.397L87.712,121.324z M105.718,101.927v5.057l-5.724,7.151
				l-5.714-7.151v-5.057H105.718z M92.516,110.876l4.766,5.961l-4.065,3.058l-2.51-6.295L92.516,110.876z M99.994,119.567
				l5.275,3.952l-5.275,11.858l-5.263-11.858L99.994,119.567z M106.781,119.888l-4.062-3.051l4.764-5.961l1.816,2.714
				L106.781,119.888z M117.167,84.771v-3.817c1.054,0,1.903,0.851,1.903,1.909C119.07,83.914,118.221,84.771,117.167,84.771z
				 M113.352,59.98c3.16,0,5.719,2.557,5.719,5.718v11.795c-0.609-0.229-1.255-0.345-1.903-0.35v-1.909
				c0-1.052-0.851-1.908-1.912-1.908c-2.656-0.155-4.955-1.896-5.812-4.413c-0.207-0.627-0.735-1.104-1.373-1.255
				c-0.645-0.154-1.322,0.041-1.787,0.507c-2.661,2.661-9.57,3.253-12.002,3.253c-6.634-0.005-12.254-4.874-13.208-11.438H113.352z
				 M82.843,70.826v6.317c-0.454,0.005-0.908,0.062-1.34,0.166l-1.355-5.426c-0.15-0.576-0.018-1.172,0.345-1.637
				c0.281-0.341,0.672-0.564,1.103-0.64C81.997,70.033,82.409,70.441,82.843,70.826z M80.935,82.862
				c0-1.059,0.851-1.909,1.908-1.909v3.817C81.785,84.771,80.935,83.914,80.935,82.862z M86.647,92.397V73.423
				c2.368,1.19,4.984,1.805,7.633,1.812c0.908,0,8.013-0.092,12.674-2.839c1.402,2.35,3.725,4.006,6.397,4.563v15.438
				c0,3.154-2.563,5.719-5.72,5.719H92.376C89.211,98.116,86.647,95.552,86.647,92.397z M71.394,130.534
				c0.018-7.393,3.913-14.232,10.273-18.008l-2.479,5.817c-0.362,0.844-0.069,1.826,0.688,2.338l3.788,2.523l-2.161,2.167
				c-0.396,0.386-0.598,0.919-0.558,1.472c0.023,0.552,0.3,1.058,0.73,1.391l16.418,12.771v25.763H82.843v-36.233h-3.813v36.233
				h-7.636V130.534z M128.606,166.768h-7.628v-36.233h-3.812v36.233h-15.259v-25.763l16.427-12.776
				c0.438-0.339,0.695-0.845,0.735-1.392c0.04-0.552-0.167-1.085-0.557-1.472l-2.167-2.16l3.781-2.523
				c0.765-0.512,1.051-1.494,0.695-2.338l-2.482-5.817c6.363,3.775,10.259,10.615,10.266,18.008V166.768z"/>
			<linearGradient id="SVGID_2_" gradientUnits="userSpaceOnUse" x1="105.7207" y1="197.5439" x2="105.7207" y2="17.3059">
				<stop  offset="0" style="stop-color:#F2453F"/>
				<stop  offset="1" style="stop-color:#F2B730"/>
			</linearGradient>
			<path fill="url(#SVGID_2_)" d="M104.368,80.402c0.368,0.35,0.853,0.545,1.35,0.551c0.133,0,0.254-0.018,0.391-0.034
				c0.115-0.023,0.229-0.063,0.339-0.114c0.116-0.042,0.226-0.098,0.323-0.172c0.121-0.081,0.213-0.155,0.311-0.23
				c0.163-0.185,0.298-0.397,0.396-0.634c0.095-0.224,0.15-0.47,0.155-0.724c0-1.045-0.856-1.901-1.914-1.901
				c-1.047,0-1.908,0.856-1.908,1.901c0.012,0.254,0.063,0.5,0.16,0.724C104.063,80.005,104.2,80.218,104.368,80.402z"/>
			<linearGradient id="SVGID_3_" gradientUnits="userSpaceOnUse" x1="94.2832" y1="197.5312" x2="94.2832" y2="17.3128">
				<stop  offset="0" style="stop-color:#F2453F"/>
				<stop  offset="1" style="stop-color:#F2B730"/>
			</linearGradient>
			<path fill="url(#SVGID_3_)" d="M94.28,80.953c0.506,0.007,0.994-0.19,1.351-0.551c0.362-0.357,0.564-0.846,0.558-1.357
				c0.007-0.247-0.041-0.493-0.156-0.724c-0.102-0.23-0.229-0.443-0.401-0.626c-0.764-0.708-1.937-0.708-2.702,0
				c-0.166,0.183-0.304,0.396-0.4,0.626c-0.099,0.23-0.145,0.477-0.152,0.724c-0.004,0.512,0.197,1,0.553,1.357
				C93.286,80.763,93.769,80.96,94.28,80.953z"/>
		</g>
	</g>
	<g>
		<path opacity="0.5" fill="#707070" enable-background="new    " d="M168.368,64.05c0.747,1.66,1.201,3.482,1.201,5.414
			c0,2.863-0.932,5.501-2.475,7.674c5.185,10.201,8.128,21.725,8.128,33.935c0,41.474-33.742,75.22-75.229,75.22
			c-41.471,0-75.216-33.746-75.216-75.22c0-12.692,3.174-24.652,8.748-35.148c-1.068-1.92-1.688-4.115-1.688-6.46
			c0-6.075,4.092-11.208,9.667-12.8v-2.178c-0.554-0.156-1.08-0.376-1.604-0.605C25.713,68.784,16.974,88.92,16.974,111.072
			c0,45.779,37.244,83.025,83.021,83.025c45.785,0,83.032-37.246,83.032-83.025C183.026,93.627,177.602,77.424,168.368,64.05z"/>
		<path opacity="0.5" fill="#707070" enable-background="new    " d="M160.47,54.278c-0.172,0.059-0.333,0.138-0.506,0.189v2.214
			c1.86,0.539,3.53,1.505,4.961,2.741C163.508,57.646,162.022,55.928,160.47,54.278z"/>
	</g>
	<linearGradient id="SVGID_4_" gradientUnits="userSpaceOnUse" x1="100.7227" y1="190.2705" x2="100.7226" y2="14.1312">
		<stop  offset="0" style="stop-color:#F2453F"/>
		<stop  offset="1" style="stop-color:#F2B730"/>
	</linearGradient>
	<path fill="url(#SVGID_4_)" d="M146.642,23.511h-17.639c-0.173,0.005-0.346,0.035-0.524,0.035c-0.177,0-0.355-0.03-0.528-0.035
		h-26.722c-0.166,0.005-0.35,0.035-0.528,0.035c-0.184,0-0.357-0.03-0.528-0.035H73.456c-0.166,0.005-0.351,0.035-0.534,0.035
		c-0.179,0-0.345-0.03-0.523-0.035H54.805v91.855h13.564c3.725-5.841,9.513-10.284,16.354-12.216
		c-0.504-0.361-0.973-0.763-1.418-1.188H68.209V36.914h3.685c0.344,0.018,0.684,0.035,1.028,0.035c0.339,0,0.679-0.018,1.021-0.035
		h25.734c0.337,0.018,0.679,0.035,1.023,0.035c0.333,0,0.672-0.018,1.012-0.035h25.744c0.34,0.018,0.681,0.035,1.022,0.035
		c0.347,0,0.68-0.018,1.021-0.035h3.738v3.874c-0.015,0.288-0.023,0.581-0.023,0.892c0,0.299,0.009,0.592,0.023,0.896v25.998
		c-0.015,0.293-0.023,0.591-0.023,0.891c0,0.306,0.009,0.599,0.023,0.896v25.998c-0.015,0.298-0.023,0.597-0.023,0.884
		c0,0.305,0.009,0.593,0.023,0.892v3.828H116.7c-0.446,0.426-0.915,0.827-1.418,1.188c6.84,1.932,12.629,6.375,16.354,12.216h15.006
		V97.771c0-0.185-0.022-0.345-0.022-0.529c0-0.167,0.022-0.352,0.022-0.535V69.986c0-0.173-0.022-0.339-0.022-0.522
		s0.022-0.356,0.022-0.517V42.214c0-0.173-0.022-0.352-0.022-0.534c0-0.185,0.022-0.34,0.022-0.518V23.511z"/>
	<linearGradient id="SVGID_5_" gradientUnits="userSpaceOnUse" x1="100.7041" y1="190.2666" x2="100.7041" y2="14.127">
		<stop  offset="0" style="stop-color:#F2453F"/>
		<stop  offset="1" style="stop-color:#F2B730"/>
	</linearGradient>
	<path fill="url(#SVGID_5_)" d="M165.892,41.689c0-5.304-4.282-9.619-9.603-9.637v-8.507c5.32-0.03,9.603-4.329,9.603-9.639
		c0-5.317-4.302-9.646-9.635-9.646c-5.31,0-9.615,4.315-9.638,9.623h-8.513c0-5.317-4.305-9.623-9.628-9.623
		c-5.312,0-9.627,4.315-9.627,9.623h-8.513c-0.023-5.317-4.334-9.623-9.639-9.623c-5.316,0-9.609,4.306-9.633,9.623H82.55
		c-0.018-5.317-4.314-9.623-9.628-9.623c-5.315,0-9.62,4.315-9.627,9.623h-8.524c-0.006-5.317-4.312-9.623-9.621-9.623
		c-5.329,0-9.633,4.328-9.633,9.646c0,5.316,4.304,9.639,9.633,9.639h0.028v8.507h-0.028c-5.329,0-9.633,4.316-9.633,9.637
		c0,5.317,4.304,9.628,9.633,9.628h0.028v8.52h-0.028c-5.329,0-9.633,4.3-9.633,9.627c0,5.316,4.304,9.633,9.633,9.633
		c0.01,0,0.01,0,0.01,0l0.019,8.519c0,0-0.019-0.006-0.028-0.006c-5.329,0-9.633,4.316-9.633,9.633c0,5.322,4.304,9.64,9.633,9.64
		c0.01,0,0.01,0,0.01,0l0.019,8.512c0,0-0.019-0.007-0.028-0.007c-5.329,0-9.633,4.318-9.633,9.64c0,5.318,4.304,9.634,9.633,9.634
		c5.31,0,9.621-4.315,9.621-9.634v-0.021h8.513v0.021c0,1.277,0.261,2.483,0.709,3.593c0.184-2.649,0.733-5.206,1.61-7.628h-2.319
		h-8.513h-3.997v4.014v0.125c-0.066,3.053-2.567,5.529-5.624,5.529c-3.104,0-5.615-2.523-5.615-5.633
		c0-3.08,2.458-5.574,5.535-5.622h0.108h3.994v-4.011v-8.512v-4.014h-3.994h-0.108c-3.073-0.04-5.535-2.545-5.535-5.626
		c0-3.069,2.458-5.575,5.535-5.627h0.108h3.994v-4v-8.519v-4.012h-3.994h-0.139c-3.068-0.052-5.505-2.558-5.505-5.621
		c0-3.047,2.437-5.546,5.471-5.621h0.173h3.994v-4.006v-8.52v-4.006h-3.994h-0.108c-3.073-0.034-5.535-2.546-5.535-5.622
		c0-3.057,2.437-5.557,5.471-5.626h0.173h3.994v-4.011v-8.507v-4.012h-3.994h-0.139c-3.068-0.07-5.505-2.559-5.505-5.627
		c0-3.099,2.511-5.621,5.615-5.621c3.086,0,5.614,2.516,5.624,5.609l0.014,3.994h3.983h8.524h4l0.011-3.994
		c0.007-3.094,2.53-5.609,5.616-5.609c3.099,0,5.615,2.516,5.628,5.609l0.01,3.994h3.99h8.518h3.992l0.008-3.994
		c0.018-3.094,2.529-5.609,5.633-5.609c3.094,0,5.611,2.516,5.621,5.609v3.994h4.018h8.513h3.994l0.013-3.994
		c0-3.094,2.529-5.609,5.62-5.609s5.619,2.516,5.624,5.609l0.009,3.994h3.995h8.513h3.988l0.026-3.994
		c0.014-3.094,2.521-5.609,5.623-5.609c3.087,0,5.628,2.522,5.628,5.621c0,3.092-2.511,5.622-5.609,5.627l-3.995,0.01v4.002v8.507
		v3.988l3.995,0.022c3.099,0.006,5.609,2.535,5.609,5.626c0,3.088-2.511,5.611-5.609,5.622l-3.995,0.012v3.994v8.52v3.987
		l3.995,0.012c3.099,0.018,5.609,2.541,5.609,5.628c0,3.099-2.511,5.615-5.609,5.621l-3.995,0.023v3.988v8.513v4l3.995,0.006
		c3.099,0.011,5.609,2.534,5.609,5.627c0,3.103-2.511,5.615-5.609,5.626l-3.995,0.013v4.001v8.512v4.006l3.995,0.005
		c3.099,0,5.609,2.531,5.609,5.622c0,3.109-2.541,5.633-5.628,5.633c-3.102,0-5.623-2.523-5.623-5.654v-4.014h-4.015h-8.513h-3.704
		c1.083,2.994,1.688,6.209,1.692,9.543v0.327c1.244-1.626,2.012-3.634,2.012-5.835v-0.017l8.513-0.005v0.021
		c0,5.318,4.311,9.634,9.638,9.634c5.317,0,9.635-4.315,9.635-9.634c0-5.316-4.3-9.615-9.603-9.633v-8.512
		c5.303-0.006,9.603-4.317,9.603-9.64c0-5.305-4.3-9.616-9.603-9.633v-8.513c5.32-0.012,9.603-4.316,9.603-9.633
		c0-5.312-4.282-9.615-9.603-9.627v-8.52C161.609,51.307,165.892,47.007,165.892,41.689z"/>
</g>
</svg>
