<?xml version="1.0" encoding="utf-8"?>
<!-- Generator: Adobe Illustrator 16.0.0, SVG Export Plug-In . SVG Version: 6.00 Build 0)  -->
<!DOCTYPE svg PUBLIC "-//W3C//DTD SVG 1.1//EN" "http://www.w3.org/Graphics/SVG/1.1/DTD/svg11.dtd">
<svg version="1.1" id="Layer_1" xmlns="http://www.w3.org/2000/svg" xmlns:xlink="http://www.w3.org/1999/xlink" x="0px" y="0px"
	 width="200px" height="200px" viewBox="0 0 200 200" enable-background="new 0 0 200 200" xml:space="preserve">
<linearGradient id="SVGID_1_" gradientUnits="userSpaceOnUse" x1="66.4707" y1="190.8008" x2="66.4707" y2="-5.291">
	<stop  offset="0" style="stop-color:#F2453F"/>
	<stop  offset="1" style="stop-color:#F2B730"/>
</linearGradient>
<path fill="url(#SVGID_1_)" d="M75.056,91.055H34.088V26.275l11.362,0.006c0.258,0.021,0.518,0.029,0.781-0.006l19.896,0.01
	c0.203,0.019,0.426,0.027,0.717-0.01l19.839,0.006c0.267,0.024,0.564,0.026,0.769-0.006h11.401l0.003,30.947
	c0.533-0.004,1.069-0.006,1.605-0.01l-0.003-32.543l-13.095,0.005c-0.238,0.024-0.305,0.022-0.611,0.004l-19.983-0.006
	c-0.153,0.015-0.257,0.021-0.338,0.021v0.804l-0.295-0.818l-19.983-0.004c-0.263,0.026-0.291,0.024-0.623,0.004L32.481,24.67v67.991
	h42.574V91.055z"/>
<linearGradient id="SVGID_2_" gradientUnits="userSpaceOnUse" x1="66.4551" y1="190.8008" x2="66.4551" y2="-5.291">
	<stop  offset="0" style="stop-color:#F2453F"/>
	<stop  offset="1" style="stop-color:#F2B730"/>
</linearGradient>
<path fill="url(#SVGID_2_)" d="M91.246,17.448l0.006,2.961h12.246l0.019-2.961c0-2.296,1.869-4.172,4.177-4.172
	c2.29,0,4.172,1.876,4.172,4.179c0,2.289-1.862,4.171-4.159,4.177l-2.974,0.007v12.245l2.974,0.013
	c2.297,0.006,4.159,1.875,4.159,4.171c0,2.297-1.862,4.172-4.159,4.179l-2.974,0.006v12.251l2.974,0.006
	c1.961,0.01,3.532,1.405,3.968,3.231c1.023-0.01,2.046-0.007,3.068-0.013c-0.468-3.484-3.413-6.179-7.036-6.192v-6.316
	c3.952-0.012,7.133-3.199,7.133-7.151c0-3.933-3.181-7.139-7.133-7.145v-6.317c3.952-0.019,7.133-3.212,7.133-7.15
	c0-3.946-3.192-7.158-7.146-7.158c-3.951,0-7.145,3.199-7.163,7.133h-6.316c0-3.939-3.193-7.133-7.146-7.133
	c-3.939,0-7.145,3.199-7.145,7.133h-6.316c-0.014-3.939-3.219-7.133-7.146-7.133c-3.952,0-7.146,3.193-7.157,7.133h-6.317
	c-0.013-3.939-3.199-7.133-7.145-7.133c-3.952,0-7.145,3.199-7.151,7.133h-6.33c0-3.939-3.192-7.133-7.145-7.133
	c-3.939,0-7.145,3.212-7.145,7.158c0,3.945,3.205,7.15,7.145,7.15h0.032v6.317h-0.032c-3.939,0-7.145,3.199-7.145,7.145
	c0,3.952,3.205,7.151,7.145,7.151h0.032v6.316h-0.032c-3.939,0-7.145,3.193-7.145,7.146c0,3.945,3.205,7.151,7.145,7.151h0.024
	l0.008,6.323h-0.032c-3.939,0-7.145,3.192-7.145,7.145s3.205,7.158,7.145,7.158h0.024l0.008,6.315l-0.032-0.006
	c-3.939,0-7.145,3.205-7.145,7.158c0,3.945,3.205,7.139,7.145,7.139c3.952,0,7.145-3.193,7.145-7.139v-0.026h6.323v0.026
	c0,3.945,3.206,7.139,7.158,7.139c3.945,0,7.145-3.193,7.145-7.139c0-0.013-0.006-0.026-0.006-0.026h6.323v0.026
	c0,3.945,3.199,7.139,7.157,7.139c3.939,0,7.146-3.193,7.146-7.139v-0.026h1.583v-2.973h-1.583l-2.98,0.013v2.986
	c0,2.295-1.869,4.171-4.165,4.171c-2.314,0-4.185-1.876-4.185-4.197v-2.973H50.021v3.074c-0.051,2.265-1.9,4.096-4.178,4.096
	c-2.271,0-4.122-1.825-4.171-4.077v-3.093H29.407v3.074c-0.05,2.265-1.913,4.096-4.19,4.096c-2.302,0-4.159-1.876-4.159-4.171
	c0-2.29,1.825-4.146,4.103-4.179h3.055v-12.27H25.16c-2.27-0.031-4.103-1.889-4.103-4.178c0-2.283,1.825-4.141,4.103-4.178h3.055
	V62.858h-3.073c-2.271-0.037-4.084-1.9-4.084-4.178c0-2.258,1.813-4.115,4.06-4.166h3.098V42.246H25.16
	c-2.27-0.026-4.103-1.889-4.103-4.179c0-2.265,1.813-4.121,4.06-4.171h3.098V21.632h-3.073c-2.271-0.049-4.084-1.9-4.084-4.177
	c0-2.303,1.857-4.179,4.159-4.179c2.303,0,4.171,1.876,4.19,4.172l0.007,2.961h12.244l0.014-2.961
	c0.005-2.296,1.874-4.172,4.171-4.172c2.289,0,4.165,1.876,4.178,4.172l0.006,2.961h12.239l0.012-2.961
	c0.007-2.296,1.883-4.172,4.185-4.172c2.289,0,4.165,1.876,4.165,4.172v2.961h12.27l0.006-2.961c0-2.296,1.876-4.172,4.166-4.172
	C89.364,13.276,91.24,15.152,91.246,17.448z"/>
<linearGradient id="SVGID_3_" gradientUnits="userSpaceOnUse" x1="52.6523" y1="190.8008" x2="52.6523" y2="-5.291">
	<stop  offset="0" style="stop-color:#F2453F"/>
	<stop  offset="1" style="stop-color:#F2B730"/>
</linearGradient>
<path fill="url(#SVGID_3_)" d="M52.655,52.162c-4.831,0-8.757-3.923-8.757-8.75c0-4.825,3.926-8.752,8.757-8.752
	c4.827,0,8.751,3.927,8.751,8.752C61.406,48.239,57.482,52.162,52.655,52.162z M52.655,36.444c-3.846,0-6.976,3.126-6.976,6.968
	s3.13,6.97,6.976,6.97c3.842,0,6.969-3.128,6.969-6.97S56.497,36.444,52.655,36.444z"/>
<linearGradient id="SVGID_4_" gradientUnits="userSpaceOnUse" x1="66" y1="190.8008" x2="66" y2="-5.291">
	<stop  offset="0" style="stop-color:#F2453F"/>
	<stop  offset="1" style="stop-color:#F2B730"/>
</linearGradient>
<path fill="url(#SVGID_4_)" d="M90.199,58.801H95v-29H37v48.188l17.014-14.302l11.107,9.535l16.764-23.54L90.199,58.801z
	 M79.534,47.684L64.742,68.799l-8.48-7.358l-1.932-1.682l-2.244,1.676L40,71.527V32.801h52v23.32l-8.017-8.764l-2.427-2.685
	L79.534,47.684z"/>
<linearGradient id="SVGID_5_" gradientUnits="userSpaceOnUse" x1="131.4707" y1="190.8008" x2="131.4707" y2="-5.291">
	<stop  offset="0" style="stop-color:#F2453F"/>
	<stop  offset="1" style="stop-color:#F2B730"/>
</linearGradient>
<path fill="url(#SVGID_5_)" d="M129.649,84.5v-1.688l1.938,0.766c-0.019,0.031-0.019,0.057-0.019,0.057v0.037v0.063L129.649,84.5z
	 M128.414,90.767c-0.527,0.188-0.936,0.615-1.129,1.117h-12.622l6.462-2.598c0.344,0.383,0.833,0.628,1.393,0.628
	c1.028,0,1.837-0.835,1.837-1.863c0-0.025,0-0.045,0-0.075l4.06-1.625V90.767z M125.277,79.727c0.006-0.02,0.006-0.057,0.006-0.081
	c0-0.246-0.038-0.458-0.126-0.659l2.942-2.528c0.088,0.057,0.2,0.106,0.314,0.151v4.372L125.277,79.727z M122.518,86.188
	c-0.227,0-0.465,0.051-0.646,0.119l-2.39-2.829c0.169-0.288,0.269-0.614,0.269-0.96c0-1.01-0.827-1.856-1.85-1.856
	c-0.239,0-0.458,0.056-0.665,0.132l-3.714-4.454l8.067,3.25c0,0.006-0.019,0.03-0.019,0.03v0.038c0,1.035,0.821,1.863,1.868,1.863
	c0.527,0,1.036-0.264,1.381-0.646l3.595,1.438v2.703l-4.511,1.812C123.57,86.432,123.057,86.188,122.518,86.188 M117.455,84.324
	c0.145,0.032,0.282,0.069,0.445,0.069c0.206,0,0.433-0.044,0.64-0.125l2.377,2.835c-0.175,0.275-0.269,0.589-0.269,0.947v0.006
	c0,0.025,0,0.051,0,0.082l-7.642,3.099L117.455,84.324z M112.117,76.597l4.177,4.992c-0.163,0.271-0.257,0.584-0.257,0.929v0.032
	c0,0.407,0.15,0.803,0.389,1.104l-4.348,6.743V76.609C112.078,76.609,112.11,76.609,112.117,76.597 M127.297,75.518l-2.948,2.521
	c-0.276-0.163-0.597-0.264-0.91-0.264c-0.564,0-1.065,0.264-1.405,0.646l-7.338-2.923h12.582
	C127.285,75.505,127.285,75.505,127.297,75.518 M133.438,81.803c-0.553,0-1.054,0.251-1.387,0.621l-2.402-0.953v-4.861
	c0.722-0.283,1.223-0.941,1.223-1.764c0-1.028-0.815-1.85-1.844-1.85c-0.81,0-1.499,0.532-1.751,1.248h-14.069
	c-0.251-0.716-0.929-1.248-1.744-1.248c-1.022,0-1.851,0.821-1.851,1.85v0.006c0,0.829,0.515,1.487,1.229,1.758v14.176
	c-0.715,0.258-1.217,0.929-1.217,1.731l0,0c0,1.041,0.815,1.863,1.838,1.863c0.815,0,1.493-0.527,1.757-1.254h14.057
	c0.252,0.745,0.948,1.254,1.751,1.254c1.041,0,1.857-0.847,1.857-1.863c0-0.803-0.509-1.492-1.236-1.75v-4.918l2.384-0.966
	c0.346,0.39,0.834,0.64,1.405,0.64c1.022,0,1.862-0.834,1.862-1.856C135.301,82.637,134.461,81.803,133.438,81.803 M181.847,88.364
	c-0.346-1.305-1.205-2.403-2.364-3.067c-1.154-0.678-2.541-0.859-3.847-0.509c-1.285,0.352-2.39,1.205-3.055,2.353l-0.84,1.475
	c-0.815-0.458-1.832-0.188-2.296,0.608l-4.278,7.295l-1.474-0.84c-0.39-0.226-0.841-0.295-1.28-0.176
	c-0.433,0.119-0.803,0.407-1.022,0.79c-0.457,0.81-0.182,1.839,0.621,2.297l1.461,0.847l-14.314,24.822l-3.544,9.446l-1.688,3.155
	c-0.979,1.713-0.872,3.846,0.27,5.458l-3.789,4.654l-1.06-2.666c-0.49-1.186-1.582-2.002-2.861-2.102
	c-1.279-0.101-2.496,0.533-3.154,1.631l-0.603,1.029l-0.583-6.744c-0.132-1.593-1.355-2.873-2.942-3.073
	c-1.593-0.183-3.1,0.765-3.601,2.283l-4.146,12.434c-0.302,0.878,0.182,1.831,1.061,2.126c0.169,0.075,0.338,0.119,0.52,0.132
	c0.715,0,1.368-0.458,1.601-1.142l4.12-12.434l0.603,6.838c0.12,1.455,1.167,2.673,2.585,3.005c1.437,0.332,2.904-0.308,3.663-1.556
	l0.621-1.035l1.048,2.647c0.445,1.123,1.449,1.913,2.635,2.095c1.186,0.169,2.377-0.301,3.124-1.229l3.927-4.975
	c0.433,0.12,0.878,0.17,1.336,0.17c1.801,0.012,3.482-0.929,4.391-2.497l1.682-2.804l6.43-7.804l14.466-25.129l1.48,0.84
	c0.382,0.226,0.671,0.596,0.784,1.035c0.119,0.427,0.056,0.891-0.17,1.279l-6.737,11.674c-0.263,0.377-0.345,0.854-0.244,1.299
	c0.113,0.452,0.389,0.834,0.784,1.08c0.389,0.219,0.847,0.281,1.279,0.162c0.439-0.113,0.803-0.401,1.023-0.79l6.749-11.681
	c0.672-1.153,0.854-2.54,0.501-3.833c-0.344-1.304-1.197-2.401-2.358-3.067l-1.462-0.853l4.203-7.289
	c0.465-0.803,0.195-1.825-0.602-2.296l0.847-1.468C182.028,91.093,182.217,89.676,181.847,88.364z M175.499,88.835
	c0.212-0.39,0.583-0.678,1.028-0.791c0.426-0.112,0.891-0.044,1.273,0.17c0.389,0.22,0.678,0.59,0.784,1.022
	c0.112,0.433,0.057,0.891-0.157,1.28l-0.841,1.467l-2.941-1.681L175.499,88.835z M152.526,135.888l-0.841-0.495l-2.495-1.449
	l2.401-6.397l5.301,3.061L152.526,135.888z M147.472,140.757c-0.716-0.503-0.929-1.456-0.509-2.209l0.841-1.474l2.936,1.687
	l-0.848,1.45c-0.238,0.413-0.627,0.709-1.091,0.809C148.343,141.12,147.854,141.025,147.472,140.757z M158.806,127.847l-5.827-3.376
	l13.486-23.354l5.835,3.362L158.806,127.847z M173.974,101.569l-5.833-3.362l3.368-5.841l5.834,3.375L173.974,101.569z
	 M107.5,139.903l-5.96,5.953l-3.581-3.57c-0.66-0.651-1.713-0.651-2.371,0c-0.321,0.32-0.509,0.747-0.509,1.198
	c0,0.445,0.188,0.879,0.509,1.192l3.568,3.575c0.634,0.627,1.493,0.979,2.384,0.979c0.897,0.006,1.75-0.353,2.384-0.979l5.959-5.966
	c0.572-0.664,0.527-1.674-0.1-2.289C109.168,139.376,108.164,139.338,107.5,139.903z M87.646,144.445
	c0,7.91,6.411,14.32,14.327,14.32c7.91,0,14.321-6.41,14.321-14.32c0-0.936-0.752-1.688-1.681-1.688s-1.688,0.753-1.688,1.688
	c0,6.047-4.906,10.952-10.953,10.952c-6.053,0-10.952-4.905-10.952-10.952c0-6.048,4.899-10.959,10.952-10.959
	c2.377,0,4.674,0.765,6.568,2.189c0.746,0.558,1.8,0.407,2.364-0.34c0.559-0.74,0.408-1.794-0.338-2.353
	c-4.342-3.261-10.15-3.775-14.999-1.354C90.713,134.057,87.646,139.019,87.646,144.445z M146.624,99.781H94.854
	c-0.929,0-1.682,0.759-1.682,1.687c0,0.935,0.753,1.688,1.682,1.688h51.771c0.935,0,1.688-0.754,1.688-1.688
	C148.312,100.54,147.559,99.781,146.624,99.781z M129.774,111.581c0-0.929-0.759-1.688-1.687-1.688H94.383
	c-0.923,0-1.681,0.76-1.681,1.688c0,0.94,0.758,1.681,1.681,1.681h33.705C129.016,113.262,129.774,112.521,129.774,111.581z
	 M146.624,109.893h-11.787c-0.935,0-1.687,0.76-1.687,1.688c0,0.94,0.752,1.681,1.687,1.681h11.787c0.935,0,1.688-0.74,1.688-1.681
	C148.312,110.652,147.559,109.893,146.624,109.893z M111.238,121.692c0.928,0,1.688-0.753,1.688-1.688
	c0-0.928-0.76-1.681-1.688-1.681H94.383c-0.923,0-1.681,0.753-1.681,1.681c0,0.935,0.758,1.688,1.681,1.688H111.238z
	 M117.982,121.692h11.792c0.929,0,1.682-0.753,1.682-1.688c0-0.928-0.753-1.681-1.682-1.681h-11.792
	c-0.936,0-1.688,0.753-1.688,1.681C116.294,120.939,117.047,121.692,117.982,121.692z M156.736,141.91
	c-0.935,0-1.682,0.759-1.682,1.688v16.855c0,0.929-0.752,1.688-1.681,1.688H85.971c-0.94,0-1.688-0.759-1.688-1.688V69.451
	c0-0.928,0.747-1.681,1.688-1.681h67.403c0.929,0,1.681,0.753,1.681,1.681v31.647c0,0.935,0.747,1.687,1.682,1.687
	s1.688-0.752,1.688-1.687V69.451c0-2.791-2.265-5.05-5.05-5.05H85.971c-2.798,0-5.062,2.259-5.062,5.05v91.002
	c0,2.792,2.265,5.05,5.062,5.05h67.403c2.785,0,5.05-2.258,5.05-5.05v-16.855C158.424,142.669,157.671,141.91,156.736,141.91z"/>
<g>
	<path opacity="0.5" fill="#707070" enable-background="new    " d="M24,69.966v-1.947c-1-0.048-0.457-0.13-0.715-0.188
		c-0.333,0.847-0.67,1.7-0.974,2.56C22.842,70.229,23,70.075,24,69.966z"/>
	<path opacity="0.5" fill="#707070" enable-background="new    " d="M24,90.578v-1.935c-2-0.489-4.494-1.521-5.542-2.883
		c-0.424,2.767-0.727,5.577-0.877,8.422C18.72,92.447,21,91.149,24,90.578z"/>
	<path opacity="0.5" fill="#707070" enable-background="new    " d="M95.552,13.806c0.346,0.801,0.647,0.995,0.841,2.995h1.964
		c0.21-2,0.549-2.275,0.94-3.157C98.04,13.698,96.794,13.699,95.552,13.806z"/>
	<g>
		<path opacity="0.5" fill="#707070" enable-background="new    " d="M177.609,78.111c1.825,0.103,3.623,0.58,5.203,1.508
			c1.826,1.045,3.312,2.632,4.332,4.492c-6.173-35.584-34.404-63.688-70.069-69.638c0.335,0.92,0.562,1.902,0.562,2.981
			c0,1.828-0.637,3.527-1.587,4.989C145.721,27.516,169.687,49.51,177.609,78.111z"/>
		<path opacity="0.5" fill="#707070" enable-background="new    " d="M131.713,169.801c-8.896,4-18.586,5.959-28.742,5.959
			c-38.921,0-71.208-28.648-76.621-66.086c-0.268,0.025-0.524,0.181-0.8,0.181c-3.315,0-6.11-1.774-7.754-4.435
			c3.443,43.986,40.311,78.344,85.175,78.344c16.99,0,32.823-4.963,46.144-13.963H131.713z"/>
		<path opacity="0.5" fill="#707070" enable-background="new    " d="M187.809,93.969c0.271,1.792-0.041,3.68-1.009,5.354
			l-1.446,2.509c0.78,1.11,1.371,2.368,1.731,3.727c0.796,2.929,0.376,6.16-1.173,8.823l-6.734,11.664
			c-1.063,1.885-2.917,3.318-5.069,3.874c-0.1,0.027-0.399,0.034-0.501,0.06c-2.285,5.159-4.607,10.023-8.607,14.521v12.534
			c15-15.282,23.24-35.775,23.24-58.289c0-2.008-0.038-3.98-0.174-5.95C187.958,93.191,187.959,93.586,187.809,93.969z"/>
	</g>
</g>
</svg>
