<?xml version="1.0" encoding="utf-8"?>
<!-- Generator: Adobe Illustrator 16.0.0, SVG Export Plug-In . SVG Version: 6.00 Build 0)  -->
<!DOCTYPE svg PUBLIC "-//W3C//DTD SVG 1.1//EN" "http://www.w3.org/Graphics/SVG/1.1/DTD/svg11.dtd">
<svg version="1.1" id="Layer_1" xmlns="http://www.w3.org/2000/svg" xmlns:xlink="http://www.w3.org/1999/xlink" x="0px" y="0px"
	 width="200px" height="200px" viewBox="0 0 200 200" enable-background="new 0 0 200 200" xml:space="preserve">
<linearGradient id="SVGID_1_" gradientUnits="userSpaceOnUse" x1="165.5508" y1="196.8135" x2="165.5508" y2="0.7217">
	<stop  offset="0" style="stop-color:#F2453F"/>
	<stop  offset="1" style="stop-color:#F2B730"/>
</linearGradient>
<path fill="url(#SVGID_1_)" d="M164.189,71.728l0.289,0.239c0.106,0.067,0.226,0.131,0.345,0.175
	c0.119,0.05,0.238,0.101,0.364,0.112c0.125,0.013,0.238,0.032,0.357,0.038c0.508,0.007,1.003-0.194,1.355-0.564
	c0.363-0.345,0.564-0.834,0.558-1.355c0-0.244-0.057-0.495-0.15-0.721c-0.101-0.226-0.232-0.434-0.407-0.628
	c-0.459-0.433-1.086-0.633-1.713-0.515c-0.126,0.013-0.245,0.057-0.364,0.114c-0.119,0.043-0.238,0.105-0.345,0.175l-0.289,0.226
	c-0.169,0.194-0.301,0.402-0.395,0.628c-0.2,0.458-0.2,0.991,0,1.462C163.889,71.338,164.021,71.552,164.189,71.728z"/>
<linearGradient id="SVGID_2_" gradientUnits="userSpaceOnUse" x1="154.0879" y1="196.8135" x2="154.0879" y2="0.7217">
	<stop  offset="0" style="stop-color:#F2453F"/>
	<stop  offset="1" style="stop-color:#F2B730"/>
</linearGradient>
<path fill="url(#SVGID_2_)" d="M152.735,71.728c0.182,0.176,0.396,0.32,0.628,0.414c0.226,0.101,0.47,0.145,0.727,0.15
	c0.509-0.006,0.992-0.207,1.355-0.564c0.164-0.176,0.307-0.39,0.402-0.614c0.094-0.232,0.144-0.49,0.156-0.741
	c-0.013-0.118-0.025-0.25-0.044-0.376c-0.019-0.119-0.057-0.238-0.112-0.345c-0.045-0.12-0.107-0.238-0.171-0.345l-0.231-0.283
	c-0.546-0.545-1.374-0.708-2.082-0.4c-0.232,0.094-0.446,0.231-0.628,0.4c-0.088,0.095-0.169,0.194-0.231,0.283
	c-0.076,0.106-0.133,0.225-0.17,0.345c-0.062,0.106-0.101,0.226-0.119,0.345c-0.019,0.132-0.031,0.258-0.044,0.376
	c0,0.251,0.056,0.509,0.163,0.741C152.428,71.338,152.566,71.552,152.735,71.728z"/>
<g>
	<linearGradient id="SVGID_3_" gradientUnits="userSpaceOnUse" x1="105" y1="196.8135" x2="105" y2="0.7217">
		<stop  offset="0" style="stop-color:#F2453F"/>
		<stop  offset="1" style="stop-color:#F2B730"/>
	</linearGradient>
	<path fill="url(#SVGID_3_)" d="M115.583,92.688v-4.562c4.938-1.016,8.474-5.352,8.474-10.378V75.63
		c3.514,0,6.376-2.849,6.376-6.355c0-3.515-2.862-6.357-6.376-6.357h4.246v-4.239h-4.246v-2.116h6.376v-4.239h-6.376v-19.07
		c0-1.171-0.946-2.115-2.11-2.115H88.055c-1.178,0-2.13,0.944-2.13,2.115v19.07h-6.351v4.239h6.351v2.116h-4.233v4.239h4.233
		c-3.509,0-6.351,2.843-6.351,6.357c0,3.507,2.842,6.355,6.351,6.355v2.118c0.02,5.026,3.554,9.362,8.479,10.378v4.562
		c-14.335,1.108-25.397,13.061-25.419,27.424v36.023c0,1.164,0.946,2.115,2.11,2.115h67.797c1.172,0,2.124-0.951,2.124-2.115
		v-36.023C140.988,105.748,129.926,93.796,115.583,92.688z M123.535,106.618l-4.891,3.261c-0.521,0.35-0.863,0.926-0.931,1.555
		c-0.056,0.625,0.171,1.254,0.623,1.706l2.541,2.54l-10.515,8.179l9.315-22.021c0.269-0.643,0.179-1.383-0.199-1.958l-1.78-2.657
		c0.693,0.121,1.362,0.285,2.028,0.465L123.535,106.618z M91.349,109.879l-4.896-3.261l3.808-8.932
		c0.665-0.186,1.335-0.344,2.021-0.472l-1.773,2.657c-0.383,0.582-0.459,1.313-0.205,1.965l9.315,22.021l-10.501-8.186l2.542-2.533
		c0.444-0.452,0.663-1.081,0.603-1.706c-0.062-0.629-0.398-1.205-0.933-1.555H91.349z M111.35,88.337v5.617l-6.35,7.932
		l-6.356-7.932v-5.617H111.35z M96.685,98.275l5.295,6.63l-4.521,3.385l-2.795-6.98L96.685,98.275z M105,107.934l5.85,4.385
		L105,125.496l-5.862-13.178L105,107.934z M112.535,108.29l-4.521-3.391l5.302-6.631l2.008,3.028L112.535,108.29z M126.187,69.274
		c0,1.165-0.951,2.116-2.13,2.116v-4.24C125.235,67.15,126.187,68.102,126.187,69.274z M90.164,35.367h29.665v16.955H90.164V35.367z
		 M83.808,69.274c0-1.173,0.952-2.124,2.117-2.124v4.24C84.76,71.391,83.808,70.439,83.808,69.274z M90.164,77.748V62.917h2.123
		c-0.026,3.097,2.15,5.775,5.192,6.364c3.055,0.582,6.069-1.083,7.206-3.974c1.123-2.883,0.021-6.172-2.624-7.788
		c-2.63-1.629-6.054-1.144-8.13,1.158h-3.768v-2.116h29.665v2.116h-3.773c-2.055-2.252-5.418-2.72-8.015-1.109
		c-2.589,1.604-3.657,4.828-2.555,7.678c1.11,2.837,4.082,4.48,7.076,3.911c2.993-0.567,5.164-3.192,5.137-6.24h2.13v14.831
		c0,3.506-2.849,6.355-6.355,6.355H96.528C93.015,84.104,90.164,81.254,90.164,77.748z M96.528,62.917
		c0-1.171,0.951-2.115,2.115-2.115s2.11,0.944,2.11,2.115s-0.946,2.118-2.11,2.118S96.528,64.088,96.528,62.917z M113.474,62.917
		c0,1.171-0.953,2.118-2.124,2.118c-1.164,0-2.109-0.947-2.109-2.118s0.945-2.115,2.109-2.115
		C112.521,60.802,113.474,61.746,113.474,62.917z M73.226,120.111c0.006-8.204,4.342-15.813,11.403-20l-2.76,6.451
		c-0.397,0.938-0.068,2.043,0.774,2.61l4.205,2.796l-2.404,2.403c-0.438,0.439-0.657,1.028-0.623,1.645
		c0.041,0.602,0.343,1.171,0.822,1.549l18.233,14.178v22.27H85.925v-33.901h-4.233v33.901h-8.466V120.111z M136.775,154.013h-8.473
		v-33.901h-4.246v33.901h-16.947v-22.27l18.255-14.193c0.487-0.375,0.773-0.932,0.822-1.548c0.027-0.608-0.192-1.205-0.624-1.63
		l-2.418-2.409l4.212-2.797c0.856-0.569,1.179-1.672,0.769-2.604l-2.754-6.464c7.069,4.199,11.398,11.809,11.404,20.013V154.013z"/>
</g>
<g>
	<path opacity="0.5" fill="#707070" enable-background="new    " d="M139.939,162.813c-10.372,5.715-22.279,8.977-34.938,8.977
		s-24.565-3.262-34.938-8.977h-13.71c13.5,10.343,30.363,16.507,48.648,16.507c18.284,0,35.146-6.164,48.646-16.507H139.939z"/>
</g>
<path opacity="0.5" fill="#707070" enable-background="new    " d="M158.139,39.702c0.156-0.012,0.29-0.017,0.435-0.025
	c-14.209-12.805-32.981-20.638-53.571-20.638c-19.368,0-37.128,6.932-50.997,18.409c2.716,0.751,5.209,2.036,7.348,3.754
	c12.16-9.177,27.276-14.633,43.649-14.633c16.834,0,32.329,5.778,44.656,15.427C152.262,40.767,155.113,39.966,158.139,39.702z"/>
<linearGradient id="SVGID_4_" gradientUnits="userSpaceOnUse" x1="40.4082" y1="196.8135" x2="40.4082" y2="0.7217">
	<stop  offset="0" style="stop-color:#F2453F"/>
	<stop  offset="1" style="stop-color:#F2B730"/>
</linearGradient>
<path fill="url(#SVGID_4_)" d="M65,156.135v-1.321h-2v-32h-4v32H43v-21.077l17.076-13.123c0.446-0.352,0.814-0.873,0.852-1.424
	c0.037-0.57-0.126-1.123-0.528-1.512l-2.202-2.227l3.901-2.586c0.784-0.531,1.099-1.541,0.722-2.408l-2.538-5.973
	c2.695,1.604,4.954,3.752,6.686,6.251c0.468-1.45,1.042-2.854,1.71-4.207c-1.563-1.841-3.389-3.479-5.462-4.835
	c2.377-2.809,3.688-6.373,3.688-10.061c0-1.068-0.113-2.146-0.332-3.193c3.921-2.947,6.245-7.57,6.245-12.477
	C72.798,70.359,70,65.203,65,62.395v-5.34c0-9.031-7.363-16.348-16.383-16.365c-2.541,0.012-5.047,0.766-7.174,2.158
	c-2.126-1.393-4.617-2.146-7.151-2.158c-4.348,0-8.476,1.719-11.543,4.785C19.682,48.543,18,52.715,18,57.055v5.34
	c-5,2.809-7.857,7.965-7.869,13.568c-0.019,4.906,2.256,9.529,6.183,12.477c-0.226,1.047-0.337,2.125-0.349,3.193
	c0.012,3.688,1.256,7.252,3.621,10.061C12.402,106.393,8,114.391,8,122.99v33.303c0,1.086,1.004,1.521,2.09,1.521H65.9
	C65.634,157.813,65,156.883,65,156.135z M54.057,113.52c-0.482,0.326-0.796,0.846-0.859,1.436c-0.062,0.59,0.145,1.166,0.564,1.574
	l2.353,2.352l-9.717,7.561l8.625-20.355c0.238-0.604,0.157-1.281-0.2-1.82l-1.638-2.453c0.634,0.113,1.255,0.264,1.863,0.434
	l3.538,8.256L54.057,113.52z M28.789,113.813h0.013l-4.517-3.164l3.519-8.33c0.621-0.17,1.23-0.356,1.876-0.481l-1.644,2.446
	c-0.363,0.533-0.433,1.207-0.2,1.803l8.619,20.354l-9.711-7.558l2.347-2.353c0.42-0.414,0.621-0.844,0.564-1.428
	C29.599,114.513,29.284,113.813,28.789,113.813z M31.869,105.582l1.875-2.783l4.894,6.121l-4.178,3.125L31.869,105.582z
	 M33.732,75.963c2.805,0.119,5.485-0.691,7.769-2.303c2.277,1.611,4.939,2.422,7.731,2.303C51.245,75.994,53,75.605,55,74.826v8.977
	c0,3.244-2.486,6.011-5.729,6.011H33.588c-3.236,0-5.588-2.767-5.588-6.011V77.92v-3.094C30,75.605,31.719,75.994,33.732,75.963z
	 M27.71,70.084c0-0.488,2.089-1.963,5.878-1.963c3.802,0,5.884,1.475,5.884,1.963c0,0.49-2.082,1.957-5.884,1.957
	C29.799,72.041,27.71,70.574,27.71,70.084z M43.393,70.084c0-0.488,2.076-1.963,5.878-1.963c3.789,0,5.878,1.475,5.878,1.963
	c0,0.49-2.089,1.957-5.878,1.957C45.469,72.041,43.393,70.574,43.393,70.084z M36,98.783v-4.97h11v4.97l-5.5,7.352L36,98.783z
	 M49.126,102.785l1.856,2.785l-2.585,6.475l-4.171-3.137L49.126,102.785z M48.574,44.609C55.43,44.615,61,50.188,61,57.055v5.189
	c0,0.338-0.006,0.684-0.043,1.016c-0.133,0.852,0.325,1.693,1.109,2.051c3.914,1.82,6.509,5.641,6.779,9.949
	c0.251,4.309-1.875,8.412-5.551,10.67c-0.753,0.477-1.104,1.393-0.827,2.246c1.254,4.078,0.081,8.525-2.873,11.598
	C56.91,98.57,54,97.836,51,97.611v-4.209c5-0.936,8-4.951,8-9.6v-3.926c3,0,5.884-2.629,5.884-5.871
	c0-3.244-2.884-5.885-5.884-5.885v-3.92c0-9.166-7.017-16.793-16.15-17.559C44.468,45.344,46.49,44.623,48.574,44.609z M59,75.963
	v-3.922c1,0,1.97,0.879,1.97,1.965C60.97,75.078,60,75.963,59,75.963z M55,64.201v1.141c-2-0.777-3.791-1.16-5.804-1.141
	c-2.792-0.119-5.527,0.695-7.805,2.309c-2.283-1.613-4.874-2.428-7.677-2.309C31.701,64.182,30,64.564,28,65.342v-1.141
	c0-7.572,5.936-13.701,13.5-13.713C49.07,50.5,55,56.629,55,64.201z M19.562,85.93c-3.663-2.258-5.796-6.361-5.545-10.67
	c0.263-4.309,2.86-8.129,6.769-9.949c0.784-0.357,1.316-1.199,1.191-2.051C21.932,62.928,22,62.582,22,62.244v-5.189
	c0-3.305,1.225-6.473,3.557-8.801c2.328-2.332,5.462-3.645,8.768-3.645c2.077,0.014,4.156,0.734,5.769,2.033
	C30.966,47.408,24,55.035,24,64.201v3.92c-3,0-5.884,2.641-5.884,5.885c0,3.242,2.884,5.871,5.884,5.871v3.926
	c0,4.648,3,8.664,8,9.6v4.215c-3,0.219-5.978,0.953-8.656,2.156c-2.114-2.182-3.378-5.1-3.371-8.141c0-1.174,0.137-2.34,0.469-3.457
	C20.705,87.322,20.321,86.406,19.562,85.93z M24,72.041v3.922c-1,0-1.963-0.885-1.963-1.957C22.037,72.92,23,72.041,24,72.041z
	 M39,154.813H24v-32h-4v32h-8V122.99c0-7.596,4.038-14.629,10.568-18.506l-2.536,5.973c-0.376,0.867-0.062,1.877,0.722,2.408
	l3.893,2.586l-2.232,2.232c-0.395,0.395-0.602,0.947-0.564,1.512c0.032,0.559,0.066,1.08,0.519,1.432L39,133.736V154.813z
	 M36.009,115.783l5.42-4.064l5.414,4.064l-5.414,12.17L36.009,115.783z"/>
<g>
	<linearGradient id="SVGID_5_" gradientUnits="userSpaceOnUse" x1="164.1445" y1="196.8135" x2="164.1445" y2="0.7217">
		<stop  offset="0" style="stop-color:#F2453F"/>
		<stop  offset="1" style="stop-color:#F2B730"/>
	</linearGradient>
	<path fill="url(#SVGID_5_)" d="M178.006,95.715c1.801-2.34,2.994-5.193,2.994-8.148V64.646c0-5.809-2.512-11.366-6.765-15.338
		c-4.234-4.008-9.909-6.04-15.729-5.62C147.328,44.66,139,54.101,139,65.317v22.249c0,2.955,0.871,5.809,2.664,8.148
		c-1.947,0.922-3.773,2.087-5.376,3.431c0.859,0.932,1.638,1.914,2.38,2.942c2.712-2.291,6.012-3.922,9.701-4.61l-1.606,2.409
		c-0.356,0.515-0.429,1.179-0.19,1.763l11.484,26.811c0.314,0.696,0.99,1.136,1.749,1.136c0.753,0,1.442-0.439,1.743-1.136
		l11.492-26.811c0.226-0.584,0.163-1.248-0.188-1.763l-1.835-2.409C180.979,99.322,188,108.004,188,118.136v36.678h-7v-18.632
		c5-6.003,5-14.804,0-20.813v-2.555h-4v3.414c0,0.603,0.292,1.161,0.774,1.531c1.719,1.292,3.056,5.375,3.056,8.022
		c0,2.642-1.338,6.725-3.057,8.018c-0.482,0.357-0.773,0.929-0.773,1.53v19.484h-32v1.321c0,0.748-0.635,1.679-0.901,1.679h46.281
		c1.054,0,1.62-0.429,1.62-1.476v-38.202C192,108.55,186.676,99.823,178.006,95.715z M150.496,101.167l1.826-2.717l4.767,5.978
		l-4.065,3.049L150.496,101.167z M154.09,85.813c-3.167,0-6.09-2.719-6.09-5.881V66.813h23v13.119c0,3.162-2.293,5.881-5.455,5.881
		H154.09z M166,89.813v4.735l-5.994,7.157L154,94.549v-4.735H166z M159.823,122.978l-5.287-11.868l5.287-3.959l5.276,3.959
		L159.823,122.978z M166.611,107.477l-4.065-3.061l4.768-5.979l1.807,2.729L166.611,107.477z M177,87.566
		c0,2.51-1.171,4.925-2.921,6.699C172.473,93.814,171,93.532,169,93.4v-4.724c4-1.523,6-4.949,6-8.744V64.646
		c0-1.048-0.748-1.832-1.814-1.832H171v-4h-4v4h-9v-6h-4v6h-2v-4h-4v4h-1.551c-1.06,0-1.449,0.784-1.449,1.832v15.287
		c0,3.795,2,7.221,5,8.744V93.4c-1,0.132-2.977,0.414-4.57,0.865c-1.762-1.774-2.43-4.189-2.43-6.699V65.317
		c-1-9.216,6.64-16.995,15.817-17.822c4.761-0.339,9.349,1.324,12.823,4.591c3.476,3.263,5.359,7.805,5.359,12.56V87.566z"/>
</g>
</svg>
