<?xml version="1.0" encoding="utf-8"?>
<!-- Generator: Adobe Illustrator 23.0.0, SVG Export Plug-In . SVG Version: 6.00 Build 0)  -->
<svg version="1.1" id="Layer_1" xmlns="http://www.w3.org/2000/svg" xmlns:xlink="http://www.w3.org/1999/xlink" x="0px" y="0px"
	 viewBox="0 0 200 30" style="enable-background:new 0 0 200 30;" xml:space="preserve">
<style type="text/css">
	.st0{fill:url(#SVGID_1_);}
	.st1{fill:#FFFFFF;}
</style>
<g>
	
		<linearGradient id="SVGID_1_" gradientUnits="userSpaceOnUse" x1="0" y1="17" x2="200" y2="17" gradientTransform="matrix(1 0 0 -1 0 32)">
		<stop  offset="0" style="stop-color:#A8AC2E"/>
		<stop  offset="1" style="stop-color:#A8AC2E"/>
	</linearGradient>
	<path class="st0" d="M200,15c0,8.3-7,15-15.5,15H15.5C7,30,0,23.3,0,15l0,0C0,6.7,7,0,15.5,0h168.9C193,0,200,6.7,200,15L200,15z"
		/>
</g>
<g>
	<g>
		<path class="st1" d="M32.7,21.4V8.6h3.5c1,0,1.9,0.2,2.7,0.7s1.4,1.1,1.9,2s0.7,1.8,0.7,2.8v1.7c0,1.1-0.2,2-0.7,2.9
			s-1.1,1.5-1.9,2s-1.7,0.7-2.7,0.7L32.7,21.4L32.7,21.4z M33.2,9.1v11.8h3.1c0.9,0,1.7-0.2,2.4-0.7s1.3-1,1.7-1.8s0.6-1.7,0.6-2.6
			v-1.6c0-1-0.2-1.8-0.6-2.6s-1-1.4-1.7-1.8s-1.5-0.7-2.4-0.7C36.3,9.1,33.2,9.1,33.2,9.1z"/>
		<path class="st1" d="M36.3,21.9h-3.6c-0.3,0-0.5-0.2-0.5-0.5V8.6c0-0.3,0.2-0.5,0.5-0.5h3.5c1.1,0,2.1,0.3,2.9,0.8
			c0.9,0.5,1.6,1.2,2.1,2.2C41.7,12,42,13,42,14.1v1.7c0,1.1-0.2,2.2-0.7,3.1c-0.5,0.9-1.2,1.7-2.1,2.2
			C38.3,21.6,37.3,21.9,36.3,21.9C36.3,21.9,36.3,21.9,36.3,21.9z M33.7,20.4h2.6c0.8,0,1.5-0.2,2.2-0.6s1.2-0.9,1.5-1.6
			c0.4-0.7,0.6-1.5,0.6-2.4v-1.6c0-0.9-0.2-1.7-0.6-2.4c-0.4-0.7-0.9-1.2-1.5-1.6c-0.6-0.4-1.4-0.6-2.2-0.6h-2.6L33.7,20.4
			L33.7,20.4z"/>
	</g>
	<g>
		<path class="st1" d="M45.3,21.4h-0.5V8.6h0.5V21.4z"/>
		<path class="st1" d="M45.3,21.9h-0.5c-0.3,0-0.5-0.2-0.5-0.5V8.6c0-0.3,0.2-0.5,0.5-0.5h0.5c0.3,0,0.5,0.2,0.5,0.5v12.8
			C45.8,21.7,45.6,21.9,45.3,21.9z"/>
	</g>
	<g>
		<path class="st1" d="M56.8,18.3c0-0.5-0.1-1-0.4-1.4s-0.7-0.7-1.2-1s-1.4-0.6-2.5-0.9s-1.9-0.6-2.5-0.9s-1-0.7-1.2-1.1
			s-0.4-0.9-0.4-1.5c0-0.9,0.4-1.7,1.2-2.3s1.8-0.9,3.1-0.9c0.8,0,1.6,0.2,2.2,0.5s1.2,0.8,1.5,1.3s0.5,1.2,0.5,2h-0.5
			c0-1-0.4-1.7-1.1-2.4S54,8.9,52.9,8.9c-1.1,0-2,0.3-2.7,0.8s-1,1.1-1,1.9c0,0.8,0.3,1.4,0.9,1.9s1.6,0.9,3,1.2s2.4,0.8,3,1.3
			c0.8,0.6,1.2,1.4,1.2,2.4c0,0.6-0.2,1.2-0.5,1.7s-0.9,0.9-1.5,1.1s-1.4,0.4-2.3,0.4c-0.9,0-1.8-0.2-2.5-0.5s-1.3-0.7-1.7-1.3
			s-0.6-1.2-0.6-2h0.5c0,1,0.4,1.9,1.2,2.4s1.8,0.9,3.1,0.9c1.1,0,2-0.3,2.8-0.8S56.8,19.2,56.8,18.3z"/>
		<path class="st1" d="M53,22.1c-1,0-1.9-0.2-2.7-0.5c-0.8-0.3-1.5-0.9-1.9-1.5c-0.4-0.6-0.6-1.4-0.6-2.3c0-0.3,0.2-0.5,0.5-0.5h0.5
			c0.3,0,0.5,0.2,0.5,0.5c0,0.9,0.3,1.6,1,2c0.7,0.5,1.6,0.8,2.8,0.8c1,0,1.8-0.2,2.5-0.7c0.6-0.4,0.9-0.9,0.9-1.6
			c0-0.4-0.1-0.8-0.3-1.1c-0.2-0.3-0.6-0.6-1-0.8c-0.5-0.3-1.3-0.6-2.4-0.9c-1.2-0.3-2-0.6-2.6-1c-0.6-0.4-1.1-0.8-1.4-1.3
			c-0.3-0.5-0.5-1.1-0.5-1.8c0-1.1,0.5-2,1.4-2.7c0.9-0.6,2-1,3.4-1c0.9,0,1.7,0.2,2.4,0.5c0.7,0.4,1.3,0.9,1.7,1.5
			c0.4,0.7,0.6,1.4,0.6,2.2c0,0.3-0.2,0.5-0.5,0.5h-0.5c-0.3,0-0.5-0.2-0.5-0.5c0-0.8-0.3-1.5-0.9-2c-0.6-0.5-1.4-0.8-2.4-0.8
			c-1,0-1.8,0.2-2.4,0.7c-0.6,0.4-0.8,0.9-0.8,1.5c0,0.6,0.2,1.1,0.7,1.5c0.5,0.4,1.5,0.8,2.8,1.2c1.5,0.4,2.5,0.8,3.2,1.3
			c1,0.7,1.4,1.7,1.4,2.8c0,0.8-0.2,1.4-0.6,2c-0.4,0.6-1,1-1.8,1.3C54.7,21.9,53.8,22.1,53,22.1z"/>
	</g>
	<g>
		<path class="st1" d="M68.5,17.5c-0.1,1.3-0.6,2.3-1.4,3s-1.9,1.1-3.2,1.1c-0.9,0-1.7-0.2-2.4-0.7s-1.2-1.1-1.6-2s-0.6-1.8-0.6-2.9
			v-2c0-1.1,0.2-2.1,0.6-2.9s0.9-1.5,1.6-2s1.5-0.7,2.4-0.7c1.3,0,2.4,0.4,3.2,1.1s1.2,1.7,1.4,3H68c-0.1-1.2-0.5-2.1-1.2-2.7
			s-1.6-0.9-2.9-0.9c-1.2,0-2.2,0.5-3,1.4s-1.1,2.2-1.1,3.8V16c0,1,0.2,1.9,0.5,2.7s0.8,1.4,1.5,1.8s1.4,0.6,2.2,0.6
			c1.2,0,2.2-0.3,2.9-0.9s1.1-1.5,1.2-2.7L68.5,17.5L68.5,17.5z"/>
		<path class="st1" d="M63.9,22.1c-1,0-1.9-0.3-2.7-0.8c-0.8-0.5-1.4-1.2-1.8-2.2c-0.4-0.9-0.6-2-0.6-3.1v-2c0-1.2,0.2-2.2,0.6-3.1
			c0.4-0.9,1-1.7,1.8-2.2c0.8-0.5,1.7-0.8,2.7-0.8c1.5,0,2.6,0.4,3.5,1.2c0.9,0.8,1.4,1.9,1.5,3.3c0,0.1,0,0.3-0.1,0.4
			S68.6,13,68.5,13H68c-0.3,0-0.5-0.2-0.5-0.4c-0.1-1-0.5-1.8-1.1-2.4c-0.6-0.5-1.4-0.8-2.5-0.8c-1.1,0-2,0.4-2.6,1.2
			c-0.7,0.8-1,2-1,3.5V16c0,0.9,0.2,1.8,0.5,2.5c0.3,0.7,0.7,1.2,1.3,1.6c0.6,0.4,1.2,0.6,1.9,0.6c1.1,0,1.9-0.3,2.5-0.8
			c0.6-0.5,0.9-1.3,1.1-2.4c0-0.3,0.2-0.4,0.5-0.4h0.5c0.1,0,0.3,0.1,0.4,0.2s0.1,0.2,0.1,0.4c-0.1,1.4-0.6,2.6-1.5,3.4
			C66.6,21.7,65.4,22.1,63.9,22.1z"/>
	</g>
	<g>
		<path class="st1" d="M80.5,16c0,1.1-0.2,2.1-0.6,2.9s-1,1.5-1.7,2s-1.6,0.7-2.5,0.7c-1.4,0-2.6-0.5-3.5-1.5s-1.3-2.4-1.3-4.1V14
			c0-1.1,0.2-2.1,0.6-2.9s1-1.5,1.7-2s1.6-0.7,2.5-0.7c1,0,1.8,0.2,2.5,0.7s1.3,1.1,1.7,2s0.6,1.8,0.6,2.9V16z M80,14
			c0-1.5-0.4-2.8-1.2-3.7S77,8.9,75.7,8.9c-1.3,0-2.4,0.5-3.2,1.4s-1.2,2.2-1.2,3.8V16c0,1,0.2,1.9,0.5,2.7s0.9,1.4,1.5,1.8
			s1.4,0.6,2.3,0.6c1.3,0,2.4-0.5,3.2-1.4s1.2-2.2,1.2-3.8L80,14L80,14z"/>
		<path class="st1" d="M75.7,22.1c-1.6,0-2.9-0.6-3.9-1.7c-1-1.1-1.5-2.6-1.5-4.5V14c0-1.2,0.2-2.2,0.6-3.1c0.4-0.9,1.1-1.7,1.9-2.2
			c0.8-0.5,1.8-0.8,2.8-0.8c1,0,2,0.3,2.8,0.8c0.8,0.5,1.4,1.3,1.9,2.2c0.4,0.9,0.6,2,0.6,3.1V16c0,1.2-0.2,2.2-0.6,3.2
			c-0.4,0.9-1.1,1.7-1.9,2.2C77.7,21.8,76.8,22.1,75.7,22.1z M75.7,9.4c-1.2,0-2.1,0.4-2.8,1.2c-0.7,0.8-1.1,2-1.1,3.5V16
			c0,0.9,0.2,1.8,0.5,2.5c0.3,0.7,0.8,1.2,1.3,1.6c0.6,0.4,1.3,0.6,2,0.6c1.2,0,2.1-0.4,2.8-1.2c0.7-0.8,1.1-2,1.1-3.5V14
			c0-1.4-0.4-2.6-1.1-3.4C77.8,9.8,76.9,9.4,75.7,9.4z"/>
	</g>
	<g>
		<path class="st1" d="M86.6,20.1l0.3,0.8l0.3-0.8l4.3-11.5h0.5l-4.8,12.8h-0.6L81.8,8.6h0.5L86.6,20.1z"/>
		<path class="st1" d="M87.2,21.9h-0.6c-0.2,0-0.4-0.1-0.5-0.3L81.3,8.8c-0.1-0.2,0-0.3,0.1-0.5c0.1-0.1,0.2-0.2,0.4-0.2h0.5
			c0.2,0,0.4,0.1,0.5,0.3l4.1,11l4.1-11c0.1-0.2,0.3-0.3,0.5-0.3h0.5c0.2,0,0.3,0.1,0.4,0.2s0.1,0.3,0.1,0.5l-4.8,12.8
			C87.6,21.8,87.4,21.9,87.2,21.9z"/>
	</g>
	<g>
		<path class="st1" d="M100.9,15.1h-6.4v5.9h7.3v0.5H94V8.6h7.8v0.5h-7.3v5.5h6.4V15.1z"/>
		<path class="st1" d="M101.8,21.9H94c-0.3,0-0.5-0.2-0.5-0.5V8.6c0-0.3,0.2-0.5,0.5-0.5h7.8c0.3,0,0.5,0.2,0.5,0.5v0.5
			c0,0.3-0.2,0.5-0.5,0.5H95v4.5h5.9c0.3,0,0.5,0.2,0.5,0.5v0.5c0,0.3-0.2,0.5-0.5,0.5H95v4.9h6.8c0.3,0,0.5,0.2,0.5,0.5v0.5
			C102.3,21.7,102.1,21.9,101.8,21.9z"/>
	</g>
	<g>
		<path class="st1" d="M109.1,15.9h-4.4v5.5h-0.5V8.6h4.1c1.3,0,2.3,0.3,3.1,1s1.1,1.6,1.1,2.7c0,0.9-0.3,1.6-0.8,2.3
			s-1.2,1.1-2.1,1.2l3.4,5.5v0.1h-0.5L109.1,15.9z M104.7,15.4h4c1,0,1.8-0.3,2.4-0.9s0.9-1.4,0.9-2.3c0-1-0.3-1.8-1-2.4
			s-1.6-0.9-2.8-0.9h-3.6V15.4z"/>
		<path class="st1" d="M113,21.9h-0.5c-0.2,0-0.3-0.1-0.4-0.2l-3.3-5.2h-3.7v5c0,0.3-0.2,0.5-0.5,0.5h-0.5c-0.3,0-0.5-0.2-0.5-0.5
			V8.6c0-0.3,0.2-0.5,0.5-0.5h4.1c1.4,0,2.5,0.4,3.4,1.1c0.9,0.8,1.3,1.8,1.3,3.1c0,1-0.3,1.9-0.9,2.6c-0.5,0.6-1,1-1.7,1.2l3.1,4.9
			c0.1,0.1,0.1,0.2,0.1,0.3v0.1C113.5,21.7,113.3,21.9,113,21.9z M105.2,14.9h3.5c0.9,0,1.5-0.2,2-0.8c0.5-0.5,0.8-1.1,0.8-1.9
			c0-0.9-0.3-1.5-0.8-2c-0.6-0.5-1.4-0.7-2.4-0.7h-3.1C105.2,9.6,105.2,14.9,105.2,14.9z"/>
	</g>
	<g>
		<path class="st1" d="M121,8.6l5.3,12.1l5.3-12.1h0.7v12.8h-0.5V9.3l-5.3,12.1h-0.4l-5.3-12v12h-0.5V8.6H121z"/>
		<path class="st1" d="M132.3,21.9h-0.5c-0.3,0-0.5-0.2-0.5-0.5v-9.7l-4.4,9.9c-0.1,0.2-0.3,0.3-0.5,0.3h-0.4
			c-0.2,0-0.4-0.1-0.5-0.3l-4.3-9.9v9.6c0,0.3-0.2,0.5-0.5,0.5h-0.5c-0.3,0-0.5-0.2-0.5-0.5V8.6c0-0.3,0.2-0.5,0.5-0.5h0.7
			c0.2,0,0.4,0.1,0.5,0.3l4.8,11.1l4.8-11.1c0.1-0.2,0.3-0.3,0.5-0.3h0.7c0.3,0,0.5,0.2,0.5,0.5v12.8
			C132.8,21.7,132.5,21.9,132.3,21.9z"/>
	</g>
	<g>
		<path class="st1" d="M144.8,16c0,1.1-0.2,2.1-0.6,2.9s-1,1.5-1.7,2s-1.6,0.7-2.5,0.7c-1.4,0-2.6-0.5-3.5-1.5s-1.3-2.4-1.3-4.1V14
			c0-1.1,0.2-2.1,0.6-2.9s1-1.5,1.7-2s1.6-0.7,2.5-0.7c1,0,1.8,0.2,2.5,0.7s1.3,1.1,1.7,2s0.6,1.8,0.6,2.9L144.8,16L144.8,16z
			 M144.4,14c0-1.5-0.4-2.8-1.2-3.7s-1.8-1.4-3.2-1.4c-1.3,0-2.4,0.5-3.2,1.4s-1.2,2.2-1.2,3.8V16c0,1,0.2,1.9,0.5,2.7
			s0.9,1.4,1.5,1.8s1.4,0.6,2.3,0.6c1.3,0,2.4-0.5,3.2-1.4s1.2-2.2,1.2-3.8V14z"/>
		<path class="st1" d="M140,22.1c-1.6,0-2.9-0.6-3.9-1.7c-1-1.1-1.5-2.6-1.5-4.5V14c0-1.2,0.2-2.2,0.6-3.1c0.4-0.9,1.1-1.7,1.9-2.2
			c0.8-0.5,1.8-0.8,2.8-0.8c1,0,2,0.3,2.8,0.8c0.8,0.5,1.4,1.3,1.9,2.2c0.4,0.9,0.6,2,0.6,3.1V16c0,1.2-0.2,2.2-0.6,3.2
			c-0.4,0.9-1.1,1.7-1.9,2.2C142,21.8,141.1,22.1,140,22.1z M140,9.4c-1.2,0-2.1,0.4-2.8,1.2c-0.7,0.8-1.1,2-1.1,3.5V16
			c0,0.9,0.2,1.8,0.5,2.5c0.3,0.7,0.8,1.2,1.3,1.6c0.6,0.4,1.3,0.6,2,0.6c1.2,0,2.1-0.4,2.8-1.2c0.7-0.8,1.1-2,1.1-3.5V14
			c0-1.4-0.4-2.6-1.1-3.4C142.1,9.8,141.2,9.4,140,9.4z"/>
	</g>
	<g>
		<path class="st1" d="M152.6,15.9h-4.4v5.5h-0.5V8.6h4.1c1.3,0,2.3,0.3,3.1,1s1.1,1.6,1.1,2.7c0,0.9-0.3,1.6-0.8,2.3
			s-1.2,1.1-2.1,1.2l3.4,5.5v0.1H156L152.6,15.9z M148.2,15.4h4c1,0,1.8-0.3,2.4-0.9s0.9-1.4,0.9-2.3c0-1-0.3-1.8-1-2.4
			s-1.6-0.9-2.8-0.9h-3.6L148.2,15.4L148.2,15.4z"/>
		<path class="st1" d="M156.5,21.9H156c-0.2,0-0.3-0.1-0.4-0.2l-3.3-5.2h-3.7v5c0,0.3-0.2,0.5-0.5,0.5h-0.5c-0.3,0-0.5-0.2-0.5-0.5
			V8.6c0-0.3,0.2-0.5,0.5-0.5h4.1c1.4,0,2.5,0.4,3.4,1.1c0.9,0.8,1.3,1.8,1.3,3.1c0,1-0.3,1.9-0.9,2.6c-0.5,0.6-1,1-1.7,1.2L157,21
			c0.1,0.1,0.1,0.2,0.1,0.3v0.1C157,21.7,156.8,21.9,156.5,21.9z M148.7,14.9h3.5c0.9,0,1.5-0.2,2-0.8c0.5-0.5,0.8-1.1,0.8-1.9
			c0-0.9-0.3-1.5-0.8-2c-0.6-0.5-1.4-0.7-2.4-0.7h-3.1L148.7,14.9L148.7,14.9z"/>
	</g>
	<g>
		<path class="st1" d="M166.4,15.1H160v5.9h7.3v0.5h-7.8V8.6h7.8v0.5H160v5.5h6.4V15.1z"/>
		<path class="st1" d="M167.3,21.9h-7.8c-0.3,0-0.5-0.2-0.5-0.5V8.6c0-0.3,0.2-0.5,0.5-0.5h7.8c0.3,0,0.5,0.2,0.5,0.5v0.5
			c0,0.3-0.2,0.5-0.5,0.5h-6.8v4.5h5.9c0.3,0,0.5,0.2,0.5,0.5v0.5c0,0.3-0.2,0.5-0.5,0.5h-5.9v4.9h6.8c0.3,0,0.5,0.2,0.5,0.5v0.5
			C167.8,21.7,167.6,21.9,167.3,21.9z"/>
	</g>
</g>
</svg>
