<?xml version="1.0" encoding="utf-8"?>
<!-- Generator: Adobe Illustrator 16.0.0, SVG Export Plug-In . SVG Version: 6.00 Build 0)  -->
<!DOCTYPE svg PUBLIC "-//W3C//DTD SVG 1.1//EN" "http://www.w3.org/Graphics/SVG/1.1/DTD/svg11.dtd">
<svg version="1.1" id="Layer_1" xmlns="http://www.w3.org/2000/svg" xmlns:xlink="http://www.w3.org/1999/xlink" x="0px" y="0px"
	 width="200px" height="200px" viewBox="0 0 200 200" enable-background="new 0 0 200 200" xml:space="preserve">
<g>
	
		<linearGradient id="Path_29-2_1_" gradientUnits="userSpaceOnUse" x1="-1134.228" y1="476.0234" x2="-1134.1606" y2="480.8655" gradientTransform="matrix(37.6032 0 0 -31.4029 42771.2305 15126.7158)">
		<stop  offset="0" style="stop-color:#F2453F"/>
		<stop  offset="1" style="stop-color:#F2B730"/>
	</linearGradient>
	<path id="Path_29-2" fill="url(#Path_29-2_1_)" d="M173.473,117.638c-1.034,0.006-2.058,0.2-3.022,0.576L150.783,94.74
		c0.798-1.331,1.218-2.843,1.224-4.386v-0.088c-0.006-1.906-0.646-3.764-1.818-5.263l21.365-33.105
		c0.627,0.144,1.261,0.219,1.9,0.219c4.83,0,8.738-3.915,8.732-8.738V43.31c0.075-4.824-3.777-8.788-8.601-8.863
		c-4.817-0.069-8.788,3.776-8.857,8.601c-0.007,0.113-0.007,0.219,0,0.332c0,0.138,0.031,0.27,0.038,0.401l-36.666,14.773
		c-3.18-3.606-8.688-3.945-12.289-0.766c-1.895,1.675-2.966,4.078-2.947,6.605c0,0.101,0.03,0.208,0.03,0.32L76.838,79.261
		c-3.155-3.663-8.682-4.077-12.351-0.922c-3.664,3.158-4.078,8.691-0.923,12.354c3.155,3.664,8.688,4.077,12.352,0.922
		c0.313-0.264,0.602-0.552,0.872-0.859l31.791,12.748c0,0.132-0.031,0.251-0.031,0.377c-0.02,4.805,3.864,8.713,8.669,8.732
		c2.535,0.006,4.943-1.086,6.605-2.999l40.969,16.416c0,0.126-0.037,0.251-0.037,0.377c-0.094,4.823,3.738,8.807,8.562,8.901
		c4.824,0.094,8.808-3.745,8.901-8.563c0-0.112,0-0.226,0-0.338v-0.075c-0.007-4.806-3.902-8.694-8.707-8.694
		C173.498,117.638,173.486,117.638,173.473,117.638z M166.178,49.477l-20.877,32.359c-1.681-0.433-3.45-0.32-5.062,0.319
		l-11.166-13.333c0.809-1.336,1.236-2.866,1.248-4.429v-0.075c0-0.119-0.038-0.232-0.038-0.345L166.178,49.477z M125.968,104.194
		c0-0.106,0.032-0.214,0.032-0.32v-0.081c0.024-4.788-3.84-8.689-8.626-8.715c-2.541-0.02-4.962,1.085-6.618,3.011L78.958,85.343
		c0-0.119,0.044-0.227,0.044-0.352v-0.075c0-0.088-0.024-0.163-0.024-0.244l36.082-14.569c1.644,1.907,4.033,3.005,6.549,3.011
		c1.029-0.013,2.051-0.207,3.017-0.57l11.179,13.346c-2.496,4.09-1.204,9.428,2.886,11.919c2.309,1.411,5.145,1.662,7.659,0.677
		l17.482,20.878L125.968,104.194z"/>
	
		<linearGradient id="Path_30-2_1_" gradientUnits="userSpaceOnUse" x1="-1134.9521" y1="476.1787" x2="-1134.9779" y2="481.321" gradientTransform="matrix(37.5705 0 0 -31.4022 42719.0781 15139.6777)">
		<stop  offset="0" style="stop-color:#F2453F"/>
		<stop  offset="0.198" style="stop-color:#F15D3C"/>
		<stop  offset="1" style="stop-color:#F2B730"/>
	</linearGradient>
	<path id="Path_30-2" fill="url(#Path_30-2_1_)" d="M129.719,120.642c-2.521,0-4.924,1.11-6.567,3.03l-36.063-14.56
		c0-0.1,0.025-0.201,0.025-0.319c0.037-4.806-3.833-8.734-8.639-8.771c-2.521-0.019-4.924,1.054-6.593,2.948L35.224,88.172
		c0-0.132,0.037-0.258,0.037-0.39c0.106-4.817-3.707-8.816-8.525-8.929c-4.823-0.113-8.819,3.71-8.933,8.527
		c0,0.107,0,0.214,0,0.326v0.075c-0.019,4.806,3.864,8.714,8.67,8.727c0.658,0.006,1.317-0.069,1.957-0.213l21.378,33.122
		c-1.167,1.506-1.807,3.355-1.812,5.264v0.075c0.006,1.549,0.426,3.067,1.223,4.391l-19.672,23.479
		c-0.966-0.376-1.994-0.571-3.03-0.577c-4.805-0.019-8.713,3.858-8.731,8.663c0,0.013,0,0.019,0,0.031v0.068
		c-0.094,4.818,3.739,8.802,8.562,8.896c4.824,0.094,8.808-3.738,8.896-8.562c0.006-0.114,0.006-0.227,0-0.334
		c0-0.124-0.032-0.25-0.032-0.375l40.963-16.423c3.143,3.625,8.632,4.021,12.265,0.884c1.912-1.662,3.01-4.077,2.998-6.618
		c0-0.131-0.031-0.244-0.038-0.369l31.798-12.747c3.161,3.619,8.656,3.989,12.276,0.827c1.9-1.662,2.986-4.064,2.979-6.586
		C138.445,124.582,134.55,120.66,129.719,120.642z M70.91,113.227L59.738,126.57c-1.612-0.646-3.381-0.76-5.062-0.32L33.799,93.886
		l35.906,14.492c0,0.12-0.037,0.232-0.037,0.346v0.075C69.675,110.36,70.106,111.891,70.91,113.227z M89.222,142.51
		c-3.125-3.626-8.601-4.04-12.233-0.916c-1.925,1.656-3.029,4.077-3.017,6.625v0.062c0,0.113,0.031,0.214,0.031,0.327
		l-37.845,15.174l17.482-20.876c4.46,1.737,9.484-0.477,11.222-4.943c0.979-2.516,0.729-5.345-0.67-7.646l11.172-13.355
		c0.96,0.37,1.976,0.564,3.011,0.57c2.516-0.006,4.899-1.11,6.543-3.017L121,129.073c0,0.088-0.02,0.169-0.02,0.25v0.076
		c0,0.119,0.025,0.231,0.032,0.352L89.222,142.51z"/>
	<path id="Path_33" opacity="0.5" fill="#707070" enable-background="new    " d="M26.535,74.198c2.365,0,4.686,0.621,6.731,1.813
		c13.16-37.557,54.273-57.335,91.836-44.175c8.487,2.974,16.347,7.509,23.166,13.374l7.709-3.111
		c-31.879-30.217-82.213-28.868-112.43,3.005c-7.898,8.331-13.896,18.273-17.584,29.138C26.159,74.249,26.341,74.198,26.535,74.198z
		"/>
	<path id="Path_31-2" opacity="0.5" fill="#707070" enable-background="new    " d="M29.521,106.892l-3.62-5.616
		c-1.442-0.081-2.86-0.395-4.196-0.928c0.069,16.568,5.345,32.696,15.074,46.107l4.962-5.922
		C34.891,130.535,30.682,118.955,29.521,106.892z"/>
	<path id="Path_32-2" opacity="0.5" fill="#707070" enable-background="new    " d="M171.059,61.571l-4.674,7.232
		c6.574,13.697,8.638,29.129,5.884,44.066l0.045,0.057c0.395-0.032,0.764-0.12,1.166-0.12c2.133,0.019,4.234,0.54,6.123,1.531
		C182.951,96.289,179.928,77.637,171.059,61.571z"/>
	<path id="Path_34-2" opacity="0.5" fill="#707070" enable-background="new    " d="M163.831,135.841
		c-19.559,34.125-62.879,46.251-97.312,27.237l-8.676,3.488c36.74,24.031,86.009,13.725,110.04-23.016
		c0.854-1.312,1.675-2.647,2.452-4.002C167.859,138.953,165.607,137.667,163.831,135.841z"/>
</g>
</svg>
