<?xml version="1.0" encoding="utf-8"?>
<!-- Generator: Adobe Illustrator 16.0.0, SVG Export Plug-In . SVG Version: 6.00 Build 0)  -->
<!DOCTYPE svg PUBLIC "-//W3C//DTD SVG 1.1//EN" "http://www.w3.org/Graphics/SVG/1.1/DTD/svg11.dtd">
<svg version="1.1" id="Layer_1" xmlns="http://www.w3.org/2000/svg" xmlns:xlink="http://www.w3.org/1999/xlink" x="0px" y="0px"
	 width="200px" height="200px" viewBox="0 0 200 200" enable-background="new 0 0 200 200" xml:space="preserve">
<g>
	<g>
		<linearGradient id="SVGID_1_" gradientUnits="userSpaceOnUse" x1="122.498" y1="185.7861" x2="122.498" y2="13.2173">
			<stop  offset="0" style="stop-color:#F2453F"/>
			<stop  offset="1" style="stop-color:#F2B730"/>
		</linearGradient>
		<path fill="url(#SVGID_1_)" d="M184.557,105.699l-11.414-11.412c3.679-0.193,7.304-1.691,10.106-4.494
			c6.023-6.023,6.023-15.824,0-21.846c-3.806-3.807-9.119-5.205-14.037-4.201c0.208-1.012,0.315-2.051,0.315-3.107
			c0-4.123-1.608-8.002-4.523-10.918c-2.917-2.916-6.794-4.523-10.919-4.523s-8.002,1.607-10.917,4.523
			c-2.803,2.803-4.298,6.422-4.493,10.098l-11.419-11.42c-2.076-2.074-4.835-3.217-7.771-3.217c-2.932,0-5.691,1.143-7.767,3.217
			l-8.67,8.67c-0.996,0.996-0.996,2.609,0,3.605l28.124,28.125l0,0l6.492,6.49l2.417,2.416H59.776c-1.407,0-2.549,1.141-2.549,2.551
			v63.869c0,6.396,5.206,11.6,11.603,11.6h69.605c6.396,0,11.603-5.203,11.603-11.6v-18.996c0-1.408-1.142-2.551-2.552-2.551
			c-1.407,0-2.55,1.143-2.55,2.551v18.996c0,3.584-2.915,6.5-6.501,6.5H115.36H91.905H68.83c-3.587,0-6.502-2.916-6.502-6.5v-61.32
			h29.577h5.098h47.934v47.767c0,1.408,1.143,2.549,2.55,2.549s2.552-1.141,2.552-2.549v-42.909l22.243,22.244
			c0.478,0.479,1.127,0.746,1.803,0.746s1.324-0.268,1.803-0.746l8.67-8.67C188.841,116.951,188.841,109.982,184.557,105.699z
			 M179.644,71.553c4.035,4.035,4.035,10.6,0,14.633c-3.262,3.264-8.18,3.887-12.075,1.873c1.322-0.469,2.562-1.232,3.617-2.287
			c3.806-3.807,3.806-9.998,0-13.803c-1.056-1.057-2.295-1.818-3.617-2.289C171.464,67.668,176.382,68.291,179.644,71.553z
			 M167.58,75.574c1.817,1.816,1.817,4.775,0,6.592c-1.702,1.703-4.405,1.809-6.235,0.322l-3.637-3.637l2.927-2.926c0,0,0,0,0-0.002
			l0.354-0.35C162.806,73.756,165.763,73.756,167.58,75.574z M157.029,72.318l-2.927,2.928l-3.257-3.258
			c-0.598-0.738-0.923-1.648-0.923-2.611c0-1.111,0.432-2.156,1.22-2.943c0.786-0.787,1.83-1.219,2.942-1.219
			s2.156,0.432,2.944,1.219C158.651,68.057,158.651,70.697,157.029,72.318z M146.773,53.326c1.952-1.953,4.55-3.027,7.312-3.027
			s5.359,1.074,7.313,3.027c1.952,1.953,3.027,4.551,3.027,7.312c0,2.01-0.57,3.934-1.634,5.584
			c-0.449-1.24-1.166-2.402-2.157-3.395c-1.749-1.75-4.076-2.713-6.55-2.713s-4.801,0.963-6.55,2.713
			c-0.974,0.973-1.703,2.127-2.159,3.385C142.814,62.213,143.278,56.82,146.773,53.326z M108.459,58.871l6.865-6.867
			c1.112-1.111,2.591-1.723,4.161-1.723c1.574,0,3.052,0.611,4.164,1.723l18.934,18.934c0.188,0.211,0.381,0.418,0.583,0.619
			l0.822,0.822l-11.01,11.012L108.459,58.871z M145.959,96.371l-9.375-9.375l11.012-11.01l4.687,4.688c0,0,0,0,0.002,0l4.687,4.688
			L145.959,96.371z M180.951,117.631l-6.867,6.865l-24.046-24.047v-0.193c0-0.23-0.034-0.449-0.091-0.662l10.629-10.627l0.827,0.826
			c0.203,0.203,0.41,0.398,0.622,0.588l18.926,18.924C183.244,111.602,183.244,115.334,180.951,117.631z"/>
	</g>
</g>
<g>
	<linearGradient id="Path_2934_1_" gradientUnits="userSpaceOnUse" x1="105.9062" y1="223.0303" x2="105.9062" y2="-69.3395">
		<stop  offset="0" style="stop-color:#F2453F"/>
		<stop  offset="1" style="stop-color:#F2B730"/>
	</linearGradient>
	<path id="Path_2934" fill="url(#Path_2934_1_)" d="M125.387,133.805c-0.942,0.002-1.84,0.416-2.466,1.126l-4.235-1.705v-8.651
		c1.717-0.607,2.617-2.49,2.011-4.207c-0.604-1.715-2.487-2.617-4.206-2.012c-0.953,0.336-1.695,1.087-2.022,2.043H89.517
		c-0.583-1.721-2.449-2.643-4.173-2.059c-1.339,0.457-2.236,1.722-2.231,3.132v0.029c0.007,1.389,0.883,2.619,2.191,3.08v25.144
		c-1.299,0.468-2.169,1.702-2.169,3.086v0.031c0,1.811,1.477,3.281,3.293,3.276c1.398,0,2.642-0.889,3.094-2.212h24.951
		c0.595,1.717,2.474,2.626,4.19,2.028c1.721-0.598,2.628-2.477,2.029-4.192c-0.324-0.948-1.064-1.688-2.007-2.021v-8.745l4.22-1.703
		c1.189,1.38,3.268,1.537,4.648,0.346c1.383-1.189,1.534-3.271,0.347-4.651c-0.628-0.727-1.548-1.145-2.51-1.143 M114.488,122.671
		l-5.214,4.479c-1.355-0.802-3.089-0.516-4.109,0.681l-13.019-5.22h22.326c0,0.018,0,0.04,0,0.06 M87.539,124.581l7.427,8.858
		c-0.301,0.503-0.461,1.079-0.472,1.667v0.021c0.011,0.72,0.249,1.416,0.688,1.986l-7.695,11.935v-24.449L87.539,124.581
		 M97.032,138.314c0.254,0.062,0.518,0.096,0.78,0.096c0.398,0,0.795-0.076,1.167-0.219l4.215,5.033
		c-0.305,0.507-0.468,1.087-0.472,1.672v0.035c0,0.042,0,0.086,0,0.128l-13.562,5.474L97.032,138.314z M105.985,141.6
		c-0.388,0.004-0.771,0.074-1.134,0.215l-4.227-5.036c0.935-1.551,0.434-3.57-1.116-4.505c-0.521-0.312-1.108-0.472-1.712-0.472
		c-0.396,0-0.793,0.076-1.163,0.224l-6.623-7.883l14.3,5.729c0,0.048-0.019,0.088-0.019,0.13v0.023
		c-0.006,1.808,1.457,3.282,3.271,3.286c0.956,0.003,1.865-0.413,2.49-1.136l6.385,2.557v4.771l-8.009,3.232
		c-0.619-0.72-1.52-1.136-2.473-1.14 M110.868,130.137c0.006-0.048,0.006-0.099,0-0.144c0-0.399-0.075-0.796-0.223-1.169
		l5.214-4.472c0.174,0.105,0.362,0.189,0.555,0.257v7.768L110.868,130.137z M116.438,149.731c-0.932,0.331-1.659,1.06-1.993,1.983
		H92.087l11.457-4.629c0.619,0.708,1.519,1.111,2.459,1.111c1.823-0.002,3.299-1.482,3.299-3.306
		c-0.003-0.037-0.009-0.079-0.021-0.117l7.197-2.908L116.438,149.731z M118.639,138.61v-3l3.416,1.37c0,0.048,0,0.089,0,0.128v0.03
		c0,0.035,0,0.064,0,0.1L118.639,138.61z"/>
</g>
<path opacity="0.5" fill="#707070" enable-background="new    " d="M88.462,60.771c0,0.098,0.017,0.207,0.017,0.362V80.26
	c0,0.108,0.018,0.219,0.018,0.373v14.7h1.711V47.182h-66.14v66.137h30.156c0.021-0.553,0.041-1.12,0.061-1.695H25.755V48.862h11.518
	c0.241,0.026,0.489,0.026,0.735,0H56.77c0.241,0.02,0.479,0.02,0.72,0h18.698c0.247,0.017,0.499,0.017,0.746,0h11.528V60.771z"/>
<path id="Path_99_2_" opacity="0.5" fill="#707070" enable-background="new    " d="M81.577,55.807v22.051l-7.74-8.299l-2.351-2.541
	l-2.011,2.846L55.494,89.838l-7.987-6.976l-1.845-1.587l-1.839,1.581l-11.147,9.539V55.807H81.577z M84.394,52.996H29.86v45.52
	l15.785-13.515l10.383,9.004l15.757-22.534l12.612,13.534L84.394,52.996z"/>
<path id="Path_100_2_" opacity="0.5" fill="#707070" enable-background="new    " d="M44.071,79.18
	c-4.943,0.005-8.948-4.007-8.953-8.949c0-4.942,4.004-8.947,8.946-8.953c4.941,0,8.953,4.005,8.953,8.947c0,0.006,0,0.006,0,0.012
	C53.007,75.173,49.006,79.166,44.071,79.18z M44.071,64.301c-3.27,0-5.926,2.653-5.926,5.93c0,3.275,2.656,5.926,5.926,5.926
	c3.274,0,5.924-2.65,5.93-5.92c-0.006-3.275-2.655-5.924-5.93-5.931V64.301z"/>
<path opacity="0.5" fill="#707070" enable-background="new    " d="M92.499,44v-2.737c0-2.176,1-3.934,4-3.931v0.002
	c2,0.007,3.746,2.164,3.746,4.342C100.237,43.848,98.288,46,96.115,46h-2.616v11h2.611c2.178,0,3.947,1.813,3.947,3.998
	c0,2.183-1.77,4.002-3.947,4.002h-2.611v12h2.611c2.178,0,3.947,1.815,3.947,4c0,2.184-1.77,4-3.947,4h-2.611v10.333h8.173
	c-1.197-1.416-2.999-2.316-5.173-2.316V87.04c3-0.172,6.614-3.344,6.442-7.073c-0.161-3.495-3.442-6.283-6.442-6.449v-5.981
	c4,0,6.763-3.028,6.763-6.771c0-3.734-2.763-6.767-6.763-6.767v-5.962c4,0,6.586-3.03,6.586-6.77c0-3.734-3.116-6.766-6.852-6.766
	l-0.132,0.381c-3.729,0-6.801,3.117-6.812,7.117h-5.982c-0.224-4-3.425-6.577-7.154-6.359C72.729,35.846,69.997,38,69.798,42H63.82
	c0-4-3.034-6.766-6.769-6.76c-3.735,0-6.76,2.76-6.764,6.76h-5.901c-0.172-4-3.339-6.617-7.074-6.445
	C33.825,35.719,31.032,38,30.864,42h-5.97c-0.007-4-3.045-7.133-6.78-7.125c-3.734,0.008-6.764,2.838-6.753,6.578
	C11.368,45.184,14.396,48,18.125,48h0.374v6h-0.368c-3.734,0-6.77,3.264-6.77,6.998c0,3.742,3.035,7.002,6.77,7.002h0.368v6h-0.368
	c-3.734,0-6.62,3.084-6.442,6.814C11.851,84.307,14.643,87,18.131,87h0.368v6h-0.368c-3.734,0-6.763,3.262-6.763,6.998
	c0,3.74,3.028,7.002,6.763,7.002h0.368v6h-0.368c-3.734,0-6.763,2.787-6.763,6.525c0,3.736,3.328,6.643,7.062,6.643
	c3.74,0,7.068-3.149,7.068-6.886V120h5v-0.718c0,3.736,2.898,6.902,6.633,7.075c3.736,0.172,7.05-2.713,7.221-6.441
	c0.013-0.214,0.146-0.426,0.146-0.634V120h6v-0.718c0,2.391,1.34,4.486,3.281,5.688c0.062-1.661,0.122-3.071,0.156-3.978
	c-0.27-0.51-0.438-1.076-0.438-1.687V117h-12v2.244c0,2.177-1.816,3.947-3.998,3.947c-2.18,0-4.002-1.771-4.002-3.947V117h-11v2.23
	c0,2.18-2.025,3.92-4.203,3.892c-2.18-0.028-4.027-1.438-3.993-3.614c0.029-2.133,1.645-3.508,3.782-3.508h3.414v-12h-3.42
	c-2.178,0-3.953-1.806-3.959-3.989C14.114,97.833,15.872,96,18.057,96h3.442V85h-3.403c-2.184,0-3.912-1.905-3.866-4.083
	C14.274,78.813,15.954,77,18.057,77h3.442V65h-3.42c-2.178,0-3.953-1.803-3.965-3.986C14.107,58.83,15.872,57,18.057,57h3.442V46
	h-3.414c-2.178,0-3.919-2.215-3.885-4.393s2.033-4.115,4.209-4.081c2.156,0.035,4.09,1.593,4.09,3.745V44h11v-2.737
	c0-2.179,1.822-3.948,4-3.948c2.184,0,4,1.77,4,3.948V44h12v-2.729c0-2.181,1.818-3.951,3.998-3.951
	c2.184,0,4.002,1.771,4.002,3.951V44h11v-2.737c0-2.179,1.821-3.942,3.999-3.942s4.001,1.764,4.001,3.942V44H92.499z"/>
<g>
	<path opacity="0.5" fill="#707070" enable-background="new    " d="M180.858,96.345l2.42,2.419
		c-0.019-1.257-0.058-2.509-0.132-3.753C182.411,95.504,181.651,95.958,180.858,96.345z"/>
	<path opacity="0.5" fill="#707070" enable-background="new    " d="M47.274,37.433c1.691-3.687,5.39-6.185,9.777-6.185
		c2.655,0,5.051,0.919,6.908,2.455c10.716-5.848,22.997-9.175,36.042-9.175c18.366,0,35.214,6.599,48.314,17.54
		c1.845-0.57,3.783-0.871,5.769-0.871c1.946,0,3.849,0.284,5.66,0.833c-15.148-15.604-36.325-25.329-59.743-25.329
		c-20.334,0-38.98,7.33-53.459,19.474C46.813,36.574,47.059,36.994,47.274,37.433z"/>
	<path opacity="0.5" fill="#707070" enable-background="new    " d="M53,164.125v-5.132c-10.314-8.231-18.424-19.101-23.309-31.582
		c-0.848-0.77-1.592-1.648-2.174-2.634c-1.23,2.109-3.154,3.751-5.445,4.645c6.217,16.41,17.469,30.357,31.871,39.948
		C53.345,167.718,53,165.955,53,164.125z"/>
	<path opacity="0.5" fill="#707070" enable-background="new    " d="M174.074,134.652c-1.73,0-3.422-0.699-4.641-1.918l-0.979-0.979
		c-3.623,7.778-8.53,14.838-14.454,20.908v10.695c9.248-7.893,16.747-17.764,21.846-28.959
		C175.271,134.562,174.676,134.652,174.074,134.652z"/>
	<path opacity="0.5" fill="#707070" enable-background="new    " d="M76.842,180c7.358,2.133,15.123,3.299,23.16,3.299
		s15.802-1.166,23.159-3.299H76.842z"/>
</g>
</svg>
