<?xml version="1.0" encoding="utf-8"?>
<!-- Generator: Adobe Illustrator 16.0.0, SVG Export Plug-In . SVG Version: 6.00 Build 0)  -->
<!DOCTYPE svg PUBLIC "-//W3C//DTD SVG 1.1//EN" "http://www.w3.org/Graphics/SVG/1.1/DTD/svg11.dtd">
<svg version="1.1" id="Layer_1" xmlns="http://www.w3.org/2000/svg" xmlns:xlink="http://www.w3.org/1999/xlink" x="0px" y="0px"
	 width="200px" height="30px" viewBox="0 0 200 30" enable-background="new 0 0 200 30" xml:space="preserve">
<g>
	<linearGradient id="SVGID_1_" gradientUnits="userSpaceOnUse" x1="0" y1="15" x2="200" y2="15">
		<stop  offset="0" style="stop-color:#A8AC2E"/>
		<stop  offset="1" style="stop-color:#A8AC2E"/>
	</linearGradient>
	<path fill="url(#SVGID_1_)" d="M200,15c0,8.285-6.955,15-15.537,15H15.539C6.955,30,0,23.285,0,15l0,0C0,6.716,6.955,0,15.539,0
		h168.924C193.045,0,200,6.716,200,15L200,15z"/>
</g>
<g>
	<g>
		<path fill="#FFFFFF" d="M38.107,8.602h0.475v8.912c0,1.236-0.337,2.223-1.011,2.958s-1.567,1.103-2.681,1.103
			c-1.195,0-2.109-0.318-2.742-0.957s-0.949-1.553-0.949-2.742h0.475c0,1.043,0.268,1.841,0.804,2.395s1.34,0.83,2.413,0.83
			c0.938,0,1.704-0.312,2.298-0.939s0.901-1.48,0.918-2.559V8.602z"/>
		<path fill="#FFFFFF" d="M34.891,22.074c-1.329,0-2.371-0.372-3.097-1.105c-0.726-0.732-1.094-1.773-1.094-3.094
			c0-0.276,0.224-0.5,0.5-0.5h0.475c0.276,0,0.5,0.224,0.5,0.5c0,0.903,0.223,1.592,0.664,2.047
			c0.436,0.449,1.126,0.678,2.053,0.678c0.802,0,1.436-0.256,1.936-0.783c0.51-0.538,0.766-1.265,0.781-2.223V8.602
			c0-0.276,0.224-0.5,0.5-0.5h0.475c0.276,0,0.5,0.224,0.5,0.5v8.912c0,1.36-0.384,2.469-1.142,3.296
			C37.171,21.648,36.145,22.074,34.891,22.074z"/>
	</g>
	<g>
		<path fill="#FFFFFF" d="M51.115,15.959c0,1.107-0.198,2.087-0.593,2.939s-0.959,1.512-1.692,1.978s-1.576,0.698-2.531,0.698
			c-1.441,0-2.607-0.512-3.498-1.537s-1.336-2.408-1.336-4.148v-1.846c0-1.102,0.198-2.08,0.593-2.936s0.961-1.517,1.696-1.982
			s1.578-0.699,2.527-0.699c0.955,0,1.8,0.233,2.536,0.699s1.302,1.128,1.701,1.986s0.598,1.836,0.598,2.932V15.959z M50.641,14.025
			c0-1.547-0.393-2.788-1.178-3.723S47.617,8.9,46.281,8.9c-1.318,0-2.37,0.465-3.155,1.394s-1.178,2.192-1.178,3.792v1.873
			c0,1.02,0.177,1.92,0.532,2.702s0.86,1.384,1.516,1.806S45.42,21.1,46.299,21.1c1.336,0,2.394-0.465,3.173-1.396
			s1.169-2.203,1.169-3.814V14.025z"/>
		<path fill="#FFFFFF" d="M46.299,22.074c-1.586,0-2.891-0.575-3.875-1.709c-0.968-1.114-1.458-2.62-1.458-4.477v-1.846
			c0-1.169,0.215-2.228,0.64-3.146c0.435-0.94,1.068-1.679,1.882-2.195c0.814-0.515,1.754-0.776,2.794-0.776
			c1.046,0,1.989,0.262,2.803,0.776c0.814,0.517,1.449,1.256,1.887,2.198c0.427,0.921,0.644,1.979,0.644,3.143v1.916
			c0,1.175-0.215,2.235-0.64,3.149c-0.435,0.938-1.066,1.674-1.877,2.189C48.289,21.813,47.347,22.074,46.299,22.074z M46.281,9.4
			c-1.174,0-2.082,0.397-2.773,1.217c-0.703,0.831-1.06,1.998-1.06,3.469v1.873c0,0.942,0.164,1.782,0.487,2.496
			c0.316,0.698,0.752,1.219,1.331,1.591c0.571,0.367,1.255,0.554,2.032,0.554c1.192,0,2.104-0.398,2.79-1.217
			c0.698-0.835,1.052-2.011,1.052-3.494v-1.863c0-1.419-0.357-2.563-1.061-3.401C48.388,9.801,47.473,9.4,46.281,9.4z"/>
	</g>
	<g>
		<path fill="#FFFFFF" d="M54.868,21.398h-0.475V8.602h0.475V21.398z"/>
		<path fill="#FFFFFF" d="M54.868,21.898h-0.475c-0.276,0-0.5-0.224-0.5-0.5V8.602c0-0.276,0.224-0.5,0.5-0.5h0.475
			c0.276,0,0.5,0.224,0.5,0.5v12.797C55.368,21.675,55.145,21.898,54.868,21.898z"/>
	</g>
	<g>
		<path fill="#FFFFFF" d="M67.955,21.398H67.48L59.219,9.41v11.988h-0.483V8.602h0.483l8.262,11.963V8.602h0.475V21.398z"/>
		<path fill="#FFFFFF" d="M67.955,21.898H67.48c-0.165,0-0.318-0.081-0.412-0.216l-7.35-10.666v10.382c0,0.276-0.224,0.5-0.5,0.5
			h-0.483c-0.276,0-0.5-0.224-0.5-0.5V8.602c0-0.276,0.224-0.5,0.5-0.5h0.483c0.164,0,0.318,0.081,0.412,0.216l7.35,10.644V8.602
			c0-0.276,0.224-0.5,0.5-0.5h0.475c0.276,0,0.5,0.224,0.5,0.5v12.797C68.455,21.675,68.231,21.898,67.955,21.898z"/>
	</g>
	<g>
		<path fill="#FFFFFF" d="M84.839,15.959c0,1.107-0.198,2.087-0.593,2.939s-0.959,1.512-1.692,1.978s-1.576,0.698-2.531,0.698
			c-1.441,0-2.607-0.512-3.498-1.537s-1.336-2.408-1.336-4.148v-1.846c0-1.102,0.198-2.08,0.593-2.936s0.961-1.517,1.696-1.982
			s1.578-0.699,2.527-0.699c0.955,0,1.8,0.233,2.536,0.699s1.302,1.128,1.701,1.986s0.598,1.836,0.598,2.932V15.959z M84.364,14.025
			c0-1.547-0.393-2.788-1.178-3.723S81.341,8.9,80.005,8.9c-1.318,0-2.37,0.465-3.155,1.394s-1.178,2.192-1.178,3.792v1.873
			c0,1.02,0.177,1.92,0.532,2.702s0.86,1.384,1.516,1.806s1.424,0.633,2.303,0.633c1.336,0,2.394-0.465,3.173-1.396
			s1.169-2.203,1.169-3.814V14.025z"/>
		<path fill="#FFFFFF" d="M80.022,22.074c-1.586,0-2.891-0.575-3.875-1.709c-0.968-1.114-1.458-2.62-1.458-4.477v-1.846
			c0-1.169,0.215-2.228,0.64-3.146c0.435-0.94,1.068-1.679,1.882-2.195c0.814-0.515,1.754-0.776,2.794-0.776
			c1.046,0,1.989,0.262,2.803,0.776c0.814,0.517,1.449,1.256,1.887,2.198c0.427,0.921,0.644,1.979,0.644,3.143v1.916
			c0,1.175-0.215,2.235-0.64,3.149c-0.435,0.938-1.066,1.674-1.877,2.189C82.012,21.813,81.07,22.074,80.022,22.074z M80.005,9.4
			c-1.174,0-2.082,0.397-2.773,1.217c-0.703,0.831-1.06,1.998-1.06,3.469v1.873c0,0.942,0.164,1.782,0.487,2.496
			c0.316,0.698,0.752,1.219,1.331,1.591c0.571,0.367,1.255,0.554,2.032,0.554c1.192,0,2.104-0.398,2.79-1.217
			c0.698-0.835,1.052-2.011,1.052-3.494v-1.863c0-1.419-0.357-2.563-1.061-3.401C82.112,9.801,81.196,9.4,80.005,9.4z"/>
	</g>
	<g>
		<path fill="#FFFFFF" d="M96.379,8.602v8.666c0,1.354-0.393,2.41-1.178,3.169s-1.849,1.138-3.19,1.138s-2.405-0.379-3.19-1.138
			s-1.181-1.804-1.187-3.134V8.602h0.475v8.648c0,1.184,0.356,2.121,1.068,2.812s1.657,1.037,2.834,1.037s2.121-0.346,2.83-1.037
			s1.063-1.631,1.063-2.82V8.602H96.379z"/>
		<path fill="#FFFFFF" d="M92.011,22.074c-1.47,0-2.66-0.43-3.538-1.278c-0.882-0.853-1.333-2.027-1.339-3.491V8.602
			c0-0.276,0.224-0.5,0.5-0.5h0.475c0.276,0,0.5,0.224,0.5,0.5v8.648c0,1.053,0.3,1.855,0.916,2.454
			c0.621,0.603,1.434,0.896,2.486,0.896c1.052,0,1.863-0.293,2.481-0.896c0.614-0.599,0.913-1.404,0.913-2.462V8.602
			c0-0.276,0.224-0.5,0.5-0.5h0.475c0.276,0,0.5,0.224,0.5,0.5v8.666c0,1.488-0.448,2.676-1.33,3.528
			C94.671,21.645,93.481,22.074,92.011,22.074z"/>
	</g>
	<g>
		<path fill="#FFFFFF" d="M104.632,15.924h-4.438v5.475h-0.475V8.602h4.078c1.283,0,2.305,0.332,3.062,0.994
			c0.76,0.662,1.139,1.561,1.139,2.697c0,0.873-0.271,1.637-0.812,2.29c-0.543,0.653-1.232,1.06-2.07,1.218l3.419,5.475v0.123
			h-0.501L104.632,15.924z M100.193,15.449h4.034c0.984,0,1.78-0.299,2.386-0.896c0.607-0.598,0.91-1.352,0.91-2.26
			c0-0.996-0.336-1.781-1.006-2.355c-0.672-0.574-1.59-0.861-2.756-0.861h-3.568V15.449z"/>
		<path fill="#FFFFFF" d="M108.534,21.898h-0.501c-0.173,0-0.333-0.089-0.425-0.236l-3.255-5.238h-3.66v4.975
			c0,0.276-0.224,0.5-0.5,0.5h-0.475c-0.276,0-0.5-0.224-0.5-0.5V8.602c0-0.276,0.224-0.5,0.5-0.5h4.078
			c1.401,0,2.543,0.376,3.392,1.117c0.869,0.758,1.31,1.792,1.31,3.074c0,0.988-0.312,1.866-0.928,2.609
			c-0.463,0.557-1.024,0.958-1.677,1.2l3.064,4.908c0.05,0.079,0.076,0.171,0.076,0.265v0.123
			C109.034,21.675,108.811,21.898,108.534,21.898z M100.693,14.949h3.534c0.856,0,1.521-0.246,2.034-0.752
			c0.513-0.505,0.762-1.127,0.762-1.904c0-0.851-0.271-1.496-0.831-1.976c-0.575-0.492-1.394-0.741-2.431-0.741h-3.068V14.949z"/>
	</g>
	<g>
		<path fill="#FFFFFF" d="M119.213,20.15l0.255,0.773l0.255-0.773l4.298-11.549h0.519l-4.781,12.797h-0.58l-4.781-12.797h0.519
			L119.213,20.15z"/>
		<path fill="#FFFFFF" d="M119.758,21.898h-0.58c-0.209,0-0.396-0.13-0.469-0.325l-4.781-12.797
			c-0.057-0.153-0.035-0.325,0.058-0.46c0.094-0.135,0.247-0.215,0.411-0.215h0.519c0.209,0,0.396,0.13,0.469,0.325l4.084,10.976
			l4.084-10.976c0.073-0.195,0.26-0.325,0.469-0.325h0.519c0.164,0,0.317,0.08,0.411,0.215c0.093,0.135,0.114,0.307,0.058,0.46
			l-4.781,12.797C120.153,21.769,119.967,21.898,119.758,21.898z"/>
	</g>
	<g>
		<path fill="#FFFFFF" d="M127.422,21.398h-0.475V8.602h0.475V21.398z"/>
		<path fill="#FFFFFF" d="M127.422,21.898h-0.475c-0.276,0-0.5-0.224-0.5-0.5V8.602c0-0.276,0.224-0.5,0.5-0.5h0.475
			c0.276,0,0.5,0.224,0.5,0.5v12.797C127.922,21.675,127.698,21.898,127.422,21.898z"/>
	</g>
	<g>
		<path fill="#FFFFFF" d="M138.953,18.332c0-0.545-0.127-1.007-0.383-1.385c-0.254-0.378-0.656-0.712-1.203-1.002
			c-0.549-0.29-1.376-0.588-2.483-0.893s-1.938-0.611-2.491-0.922c-0.555-0.311-0.96-0.672-1.218-1.082s-0.387-0.908-0.387-1.494
			c0-0.932,0.393-1.686,1.178-2.263s1.808-0.866,3.067-0.866c0.82,0,1.557,0.16,2.211,0.479c0.652,0.319,1.158,0.768,1.516,1.345
			s0.536,1.229,0.536,1.955h-0.475c0-0.955-0.352-1.744-1.055-2.368S136.152,8.9,135.033,8.9c-1.125,0-2.035,0.251-2.729,0.752
			c-0.695,0.501-1.042,1.129-1.042,1.885c0,0.768,0.302,1.387,0.905,1.855s1.6,0.883,2.988,1.243s2.405,0.778,3.05,1.253
			c0.82,0.604,1.23,1.412,1.23,2.426c0,0.645-0.182,1.214-0.545,1.709s-0.879,0.877-1.547,1.146s-1.418,0.404-2.25,0.404
			c-0.926,0-1.758-0.153-2.496-0.461s-1.294-0.746-1.665-1.314c-0.373-0.568-0.559-1.238-0.559-2.012h0.475
			c0,1.049,0.393,1.863,1.178,2.443s1.808,0.869,3.067,0.869c1.119,0,2.042-0.256,2.769-0.769S138.953,19.152,138.953,18.332z"/>
		<path fill="#FFFFFF" d="M135.095,22.074c-0.988,0-1.894-0.168-2.688-0.499c-0.83-0.346-1.466-0.852-1.892-1.503
			c-0.424-0.646-0.64-1.416-0.64-2.285c0-0.276,0.224-0.5,0.5-0.5h0.475c0.276,0,0.5,0.224,0.5,0.5c0,0.889,0.319,1.557,0.975,2.041
			c0.693,0.512,1.625,0.771,2.771,0.771c1.009,0,1.844-0.228,2.48-0.677c0.591-0.417,0.878-0.938,0.878-1.591
			c0-0.448-0.097-0.81-0.297-1.104c-0.207-0.308-0.551-0.59-1.023-0.841c-0.516-0.272-1.317-0.559-2.382-0.852
			c-1.161-0.319-2.013-0.637-2.604-0.969c-0.623-0.349-1.094-0.771-1.396-1.252c-0.308-0.488-0.464-1.081-0.464-1.76
			c0-1.095,0.465-1.991,1.382-2.666c0.869-0.639,2.001-0.963,3.363-0.963c0.892,0,1.709,0.179,2.431,0.53
			c0.736,0.36,1.315,0.875,1.721,1.53s0.611,1.401,0.611,2.219c0,0.276-0.224,0.5-0.5,0.5h-0.475c-0.276,0-0.5-0.224-0.5-0.5
			c0-0.812-0.29-1.465-0.887-1.994c-0.614-0.546-1.399-0.811-2.401-0.811c-1.013,0-1.832,0.221-2.436,0.657
			c-0.562,0.405-0.835,0.889-0.835,1.479c0,0.61,0.232,1.089,0.712,1.461c0.546,0.424,1.49,0.812,2.808,1.153
			c1.463,0.38,2.517,0.816,3.221,1.335c0.951,0.7,1.434,1.651,1.434,2.828c0,0.75-0.216,1.425-0.642,2.005
			c-0.417,0.568-1.011,1.011-1.763,1.314C136.808,21.926,135.987,22.074,135.095,22.074z"/>
	</g>
	<g>
		<path fill="#FFFFFF" d="M142.759,21.398h-0.475V8.602h0.475V21.398z"/>
		<path fill="#FFFFFF" d="M142.759,21.898h-0.475c-0.276,0-0.5-0.224-0.5-0.5V8.602c0-0.276,0.224-0.5,0.5-0.5h0.475
			c0.276,0,0.5,0.224,0.5,0.5v12.797C143.259,21.675,143.035,21.898,142.759,21.898z"/>
	</g>
	<g>
		<path fill="#FFFFFF" d="M155.688,15.959c0,1.107-0.197,2.087-0.594,2.939c-0.395,0.853-0.959,1.512-1.691,1.978
			s-1.576,0.698-2.531,0.698c-1.441,0-2.607-0.512-3.498-1.537s-1.336-2.408-1.336-4.148v-1.846c0-1.102,0.197-2.08,0.594-2.936
			c0.395-0.855,0.961-1.517,1.695-1.982c0.736-0.466,1.578-0.699,2.527-0.699c0.955,0,1.801,0.233,2.535,0.699
			c0.736,0.466,1.303,1.128,1.701,1.986s0.598,1.836,0.598,2.932V15.959z M155.213,14.025c0-1.547-0.393-2.788-1.178-3.723
			S152.189,8.9,150.854,8.9c-1.318,0-2.37,0.465-3.155,1.394s-1.178,2.192-1.178,3.792v1.873c0,1.02,0.177,1.92,0.532,2.702
			c0.354,0.782,0.859,1.384,1.516,1.806s1.424,0.633,2.303,0.633c1.336,0,2.394-0.465,3.173-1.396s1.169-2.203,1.169-3.814V14.025z"
			/>
		<path fill="#FFFFFF" d="M150.871,22.074c-1.587,0-2.891-0.575-3.876-1.709c-0.968-1.114-1.458-2.62-1.458-4.477v-1.846
			c0-1.171,0.216-2.229,0.64-3.146c0.434-0.939,1.066-1.678,1.882-2.194c0.814-0.516,1.755-0.777,2.795-0.777
			c1.047,0,1.99,0.262,2.803,0.777c0.814,0.515,1.449,1.254,1.887,2.197c0.428,0.921,0.645,1.979,0.645,3.143v1.916
			c0,1.177-0.216,2.236-0.641,3.15c-0.433,0.936-1.064,1.672-1.876,2.188C152.86,21.813,151.919,22.074,150.871,22.074z
			 M150.854,9.4c-1.174,0-2.081,0.397-2.773,1.217c-0.703,0.831-1.06,1.998-1.06,3.469v1.873c0,0.944,0.164,1.783,0.487,2.495
			c0.312,0.689,0.759,1.225,1.331,1.592c0.571,0.367,1.255,0.554,2.032,0.554c1.191,0,2.104-0.398,2.789-1.217
			c0.698-0.835,1.053-2.011,1.053-3.494v-1.863c0-1.419-0.356-2.563-1.061-3.401C152.96,9.801,152.045,9.4,150.854,9.4z"/>
	</g>
	<g>
		<path fill="#FFFFFF" d="M167.834,21.398h-0.475L159.098,9.41v11.988h-0.483V8.602h0.483l8.262,11.963V8.602h0.475V21.398z"/>
		<path fill="#FFFFFF" d="M167.834,21.898h-0.475c-0.164,0-0.318-0.081-0.412-0.216l-7.35-10.666v10.382c0,0.276-0.224,0.5-0.5,0.5
			h-0.483c-0.276,0-0.5-0.224-0.5-0.5V8.602c0-0.276,0.224-0.5,0.5-0.5h0.483c0.164,0,0.318,0.081,0.411,0.216l7.351,10.644V8.602
			c0-0.276,0.224-0.5,0.5-0.5h0.475c0.276,0,0.5,0.224,0.5,0.5v12.797C168.334,21.675,168.11,21.898,167.834,21.898z"/>
	</g>
</g>
</svg>
