<?xml version="1.0" encoding="utf-8"?>
<!-- Generator: Adobe Illustrator 16.0.0, SVG Export Plug-In . SVG Version: 6.00 Build 0)  -->
<!DOCTYPE svg PUBLIC "-//W3C//DTD SVG 1.1//EN" "http://www.w3.org/Graphics/SVG/1.1/DTD/svg11.dtd">
<svg version="1.1" id="Layer_1" xmlns="http://www.w3.org/2000/svg" xmlns:xlink="http://www.w3.org/1999/xlink" x="0px" y="0px"
	 width="200px" height="200px" viewBox="0 0 200 200" enable-background="new 0 0 200 200" xml:space="preserve">
<g>
	<path id="Path_36_1_" opacity="0.5" fill="#707070" enable-background="new    " d="M176.649,115.288l-3.666,1.48
		c-1.44,5.852-3.613,11.498-6.475,16.805v12.357c0.251,0.157,0.48,0.32,0.716,0.502c6.342-8.656,10.861-18.512,13.289-28.962
		C179.137,116.913,177.838,116.178,176.649,115.288z"/>
	<path id="Path_37_1_" opacity="0.5" fill="#707070" enable-background="new    " d="M168.943,61.053
		c-0.759,0.74-1.571,1.424-2.428,2.051v2.233c3.689,6.869,6.239,14.291,7.543,21.98l2.68,1.066c1.414-1.078,2.988-1.919,4.67-2.502
		c-1.67-9.729-5.147-19.058-10.25-27.507C170.499,59.328,169.759,60.219,168.943,61.053z"/>
	<path id="Path_38_1_" opacity="0.5" fill="#707070" enable-background="new    " d="M122.263,169.035
		c-12.712,3.581-26.167,3.581-38.882,0H63.909c24.17,13.562,53.659,13.562,77.826,0H122.263z"/>
	<path id="Path_39_1_" opacity="0.5" fill="#707070" enable-background="new    " d="M69.592,27.806c3.4,0,6.688,1.242,9.24,3.488
		c13.904-4.912,28.982-5.438,43.189-1.499c2.184-1.312,4.68-2.001,7.224-1.995c3.528,0.013,6.929,1.336,9.531,3.72
		c0.11-0.107,0.194-0.226,0.308-0.339c0.621-0.615,1.277-1.192,1.966-1.725c-22.804-12.464-50.254-13.022-73.546-1.487
		C68.194,27.863,68.893,27.812,69.592,27.806z"/>
	<path id="Path_40_1_" opacity="0.5" fill="#707070" enable-background="new    " d="M32.958,119.058v-1.122
		c-0.396-1.462-0.73-2.942-1.035-4.434c-6.523-4.241-8.371-12.967-4.128-19.491c0.891-1.373,2.021-2.578,3.325-3.569
		c0.288-2.221,0.646-4.409,1.126-6.567c-2.701-1.688-4.765-4.228-5.862-7.22c-4.711,15.757-4.416,32.588,0.841,48.175
		C28.542,122.396,30.531,120.394,32.958,119.058z"/>
	<g id="Group_16_1_" transform="translate(12.042 13.313)">
		
			<linearGradient id="Path_41_2_" gradientUnits="userSpaceOnUse" x1="-541.5029" y1="475.8267" x2="-541.4708" y2="481.7565" gradientTransform="matrix(43.0555 0 0 -34.0677 23432.8379 16423.5195)">
			<stop  offset="0" style="stop-color:#F2453F"/>
			<stop  offset="1" style="stop-color:#F2B730"/>
		</linearGradient>
		<path id="Path_41_1_" fill="url(#Path_41_2_)" d="M175.601,75.103c-3.531,0.013-6.894,1.549-9.214,4.215l-15.877-6.36V49.139
			c-2.466,1.098-5.139,1.668-7.842,1.674l0,0c-0.125,0-0.251,0-0.376-0.025v18.869l-19.772-7.929l-11.191,11.203
			c2.747-0.495,5.244-1.9,7.085-3.995l23.879,9.578v17.854l-29.941,12.073c-2.317-2.685-5.689-4.24-9.24-4.247
			c-1.462,0.013-2.906,0.289-4.271,0.803l-8.932-10.655l-5.834,5.84l8.45,10.086c-1.135,1.894-1.744,4.059-1.75,6.267v0.087
			c0,0.176,0.037,0.339,0.043,0.516l-39.723,16.021l-0.981,0.984c1.016,2.428,1.53,5.031,1.506,7.66l42.279-17.057
			c4.498,5.1,12.276,5.589,17.373,1.092c2.669-2.353,4.188-5.747,4.169-9.303c0-0.151-0.044-0.302-0.044-0.446l26.898-10.858v29.389
			c-3.479,1.224-6.217,3.959-7.453,7.434h-83.21c-0.04,2.848-0.708,5.652-1.95,8.218h85.136c2.227,6.43,9.239,9.83,15.669,7.603
			c6.424-2.232,9.824-9.246,7.597-15.669c-1.229-3.544-4.008-6.336-7.546-7.585v-32.7l15.808-6.379
			c2.315,2.704,5.696,4.267,9.259,4.278c6.826,0,12.357-5.532,12.357-12.357S182.427,75.103,175.601,75.103z M163.306,87.893
			l-12.796,5.17V81.802l12.809,5.144c0,0.157-0.06,0.32-0.06,0.483v0.112c0.016,0.119,0.034,0.239,0.065,0.358L163.306,87.893z"/>
	</g>
	
		<linearGradient id="Path_42_2_" gradientUnits="userSpaceOnUse" x1="-525.2412" y1="487.7109" x2="-525.2091" y2="493.6465" gradientTransform="matrix(27.369 0 0 -27.242 14467.5469 13467.1094)">
		<stop  offset="0" style="stop-color:#F2453F"/>
		<stop  offset="1" style="stop-color:#F2B730"/>
	</linearGradient>
	<path id="Path_42_1_" fill="url(#Path_42_2_)" d="M51.746,137.181V52.459H69.33c0.376,0.038,0.752,0.038,1.122,0h28.834
		c0.367,0.038,0.74,0.038,1.107,0h28.818c0.375,0.038,0.756,0.038,1.132,0h6.424l0.106-0.106c-0.367-0.866-0.668-1.756-0.903-2.667
		h-5.627l-0.567,0.044c-0.129,0-0.248,0-0.571-0.044l-29.015,0.025c-0.311,0.019-0.624,0.013-0.932-0.025H70.452l-0.583,0.044
		c-0.101,0-0.214,0-0.556-0.044H48.97v86.597C49.915,136.516,50.842,136.816,51.746,137.181z"/>
	
		<linearGradient id="Path_43_2_" gradientUnits="userSpaceOnUse" x1="-527.9453" y1="489.7383" x2="-527.9131" y2="495.6778" gradientTransform="matrix(33.8154 0 0 -33.803 17935.7188 16747.9062)">
		<stop  offset="0" style="stop-color:#F2453F"/>
		<stop  offset="1" style="stop-color:#F2B730"/>
	</linearGradient>
	<path id="Path_43_1_" fill="url(#Path_43_2_)" d="M39.947,120.181c-5.715-0.025-10.369,4.592-10.395,10.312
		c-0.013,3.293,1.546,6.405,4.196,8.362c1.807-1.186,3.805-2.058,5.909-2.566c-3.174-0.145-5.627-2.822-5.488-5.996
		c0.135-3.03,2.604-5.439,5.639-5.489h4.78v-18.44h-4.733c-3.177,0.013-5.762-2.554-5.773-5.728
		c-0.013-3.181,2.553-5.766,5.727-5.777h4.78V76.422h-4.755c-3.181-0.075-5.696-2.71-5.621-5.891
		c0.076-3.073,2.547-5.545,5.621-5.614h4.755v-18.43h-4.755c-3.181-0.063-5.705-2.697-5.64-5.872
		c0.066-3.181,2.698-5.708,5.878-5.64c3.124,0.063,5.627,2.61,5.64,5.734v4.61H64.11v-4.61c0.007-3.187,2.588-5.759,5.771-5.759
		c3.174,0.006,5.749,2.579,5.752,5.759v4.617h18.401v-4.611c0-3.18,2.575-5.758,5.756-5.758c3.18,0,5.758,2.578,5.758,5.758
		l0.035,4.611h18.401V40.71c0.075-3.18,2.709-5.689,5.884-5.615c3.073,0.069,5.545,2.541,5.614,5.615v1.675
		c0.332-2.729,1.242-5.357,2.672-7.709c-3.325-4.661-9.798-5.752-14.459-2.428c-2.729,1.944-4.351,5.087-4.353,8.437h-9.127
		c0-5.739-4.648-10.394-10.389-10.394c-5.739,0-10.388,4.655-10.388,10.394h-9.184c-0.003-5.733-4.654-10.375-10.388-10.375
		c-5.728,0.006-10.363,4.648-10.369,10.375h-9.175c-0.024-5.739-4.695-10.363-10.428-10.344
		c-5.734,0.025-10.363,4.698-10.339,10.432c0.025,5.721,4.674,10.344,10.395,10.337h0.028v9.165h-0.028
		c-5.733,0-10.382,4.648-10.382,10.382c0,5.733,4.648,10.382,10.382,10.382h0.028v9.183h-0.028
		c-5.733-0.012-10.395,4.63-10.407,10.363c-0.009,5.74,4.63,10.395,10.37,10.407h0.037h0.028v9.176L39.947,120.181z"/>
	
		<linearGradient id="Path_44_2_" gradientUnits="userSpaceOnUse" x1="-494.0566" y1="465.8447" x2="-494.0245" y2="471.7804" gradientTransform="matrix(7.976 0 0 -7.976 4020.2344 3819.6172)">
		<stop  offset="0" style="stop-color:#F2453F"/>
		<stop  offset="1" style="stop-color:#F2B730"/>
	</linearGradient>
	<path id="Path_44_1_" fill="url(#Path_44_2_)" d="M79.774,68.393c-5.543-0.007-10.037,4.485-10.043,10.03
		c-0.004,5.539,4.488,10.036,10.03,10.043c5.545,0,10.04-4.491,10.043-10.03c-0.007-5.546-4.495-10.037-10.037-10.043
		 M79.767,91.238c-7.072-0.006-12.803-5.745-12.797-12.821c0.01-7.076,5.749-12.804,12.822-12.797
		c7.069,0.006,12.797,5.745,12.797,12.815C92.564,85.499,86.836,91.226,79.767,91.238"/>
	<g id="Group_17_2_" transform="translate(1.496 2.661)">
		
			<linearGradient id="Path_45_1_" gradientUnits="userSpaceOnUse" x1="-531.7714" y1="488.6788" x2="-531.7393" y2="494.609" gradientTransform="matrix(44.6575 0 0 -44.655 23844.8438 22062.5449)">
			<stop  offset="0" style="stop-color:#F2453F"/>
			<stop  offset="1" style="stop-color:#F2B730"/>
		</linearGradient>
		<path id="Path_45_2_" fill="url(#Path_45_1_)" d="M164.848,30.421c-6.438-6.467-16.899-6.493-23.371-0.057
			c-5.285,5.263-6.392,13.412-2.703,19.892l-87.727,87.751c-7.954-4.523-18.066-1.737-22.582,6.217
			c-4.518,7.954-1.732,18.065,6.223,22.582c7.95,4.523,18.06,1.737,22.579-6.216c2.882-5.075,2.882-11.292,0-16.366l87.74-87.727
			c7.929,4.523,18.025,1.763,22.548-6.172c3.701-6.48,2.597-14.635-2.694-19.904H164.848z"/>
	</g>
	
		<linearGradient id="Path_46_2_" gradientUnits="userSpaceOnUse" x1="-522.3892" y1="485.2959" x2="-522.3571" y2="491.2274" gradientTransform="matrix(22.594 0 0 -21.772 11896.5 10729.4219)">
		<stop  offset="0" style="stop-color:#F2453F"/>
		<stop  offset="1" style="stop-color:#F2B730"/>
	</linearGradient>
	<path id="Path_46_1_" fill="url(#Path_46_2_)" d="M62.561,122.915V63.342h63.328l4.626-4.629H57.95v69.922L62.561,122.915z"/>
</g>
</svg>
