<?xml version="1.0" encoding="utf-8"?>
<!-- Generator: Adobe Illustrator 23.0.0, SVG Export Plug-In . SVG Version: 6.00 Build 0)  -->
<svg version="1.1" id="Livello_1" xmlns="http://www.w3.org/2000/svg" xmlns:xlink="http://www.w3.org/1999/xlink" x="0px" y="0px"
	 viewBox="0 0 87.5 32.5" style="enable-background:new 0 0 87.5 32.5;" xml:space="preserve">
<style type="text/css">
	.st0{opacity:0.5;}
	.st1{fill:#5D5D5D;}
	.st2{display:none;}
</style>
<g id="Layer_1">
	<g id="Layer_4_2_" class="st0">
		<g>
			<g>
				<g>
					<path class="st1" d="M49.8,3.6c0,1.6-0.1,3.2-0.1,4.8c0,0.8,0,1.6,0,2.4c0.1-0.1,0.2-0.1,0.3-0.1c1.3-0.6,2.6-0.9,4-0.7
						c2,0.3,3.4,1.4,4.4,3.1c0.7,1.3,1,2.7,1,4.2c0,1.5-0.3,3-1,4.3c-1.1,2.1-2.9,3.2-5.2,3.7c-1.4,0.3-2.7,0.3-4.1,0.2
						c-1.3-0.1-2.5-0.4-3.8-0.6c-0.1,0-0.1,0-0.1,0c0-0.7,0-1.5,0-2.2c0-1.2,0.1-2.4,0.1-3.5c0-2.9,0-5.7,0-8.6
						c0-1.1-0.1-2.2-0.2-3.4c-0.1-1.1-0.6-1.5-1.6-1.6c-0.1,0-0.2,0-0.4-0.1c0-0.2,0-0.4,0-0.6c0.5-0.1,1-0.2,1.5-0.3
						c1.7-0.3,3.3-0.6,5-1c0,0,0.1,0,0.1-0.1C49.7,3.6,49.8,3.6,49.8,3.6z M49.7,18.1C49.7,18.1,49.7,18.1,49.7,18.1
						c0.1,1.1,0.1,2.3,0.1,3.4c0,0.9,0,1.8,0.1,2.7c0,0.1,0.1,0.2,0.1,0.3c0.9,0.2,1.7,0.2,2.5-0.4c0.6-0.5,1-1,1.3-1.7
						c0.6-1.2,0.8-2.5,0.9-3.8c0.1-1.4,0.1-2.7-0.3-4c-0.1-0.4-0.3-0.8-0.5-1.2c-0.8-1.5-2.1-2-3.8-1.5c-0.2,0.1-0.3,0.2-0.3,0.4
						C49.7,14.1,49.7,16.1,49.7,18.1z"/>
					<path class="st1" d="M1.1,4.1c5.8,0,11.5,0,17.3,0c0.1,0,0.3,0,0.4,0c0,0.4,0,0.9,0,1.3c0,1.5,0.1,3,0.1,4.5
						c0,0.1-0.1,0.2-0.1,0.2c-0.3,0.1-0.6,0.2-0.9,0.3c-0.1-0.4-0.3-0.8-0.4-1.1c-0.4-1-0.9-1.9-1.7-2.6c-0.7-0.6-1.5-1-2.4-1
						c-1.4-0.1-2.7,0-4.1,0C9.1,8.4,9,11.2,9,14.1c0.6,0,1.3,0,1.9,0c0.2,0,0.5,0,0.7,0c0.9-0.1,1.5-0.6,1.8-1.4
						c0.2-0.4,0.3-0.9,0.5-1.3c0.1-0.2,0.1-0.3,0.3-0.2c0.2,0,0.4,0,0.6,0c0,2.4,0,4.7,0,7.1c-0.3,0-0.5,0-0.7,0
						c-0.1,0-0.1-0.1-0.2-0.2c-0.2-0.4-0.3-0.9-0.5-1.3c-0.4-1-1.2-1.4-2.2-1.4c-0.7,0-1.4,0-2.2,0c0,0.1,0,0.2,0,0.3
						c0.1,2,0.1,3.9,0.2,5.9c0,0.4,0.1,0.7,0.2,1c0.3,1.1,0.9,1.6,2.1,1.7c0.3,0,0.6,0.1,0.9,0.1c0,0.3,0,0.5,0,0.9
						c-3.8,0-7.5,0-11.3,0c0-0.3,0-0.6,0-0.9c0.3,0,0.7-0.1,1-0.1c0.8-0.1,1.4-0.6,1.7-1.4c0.1-0.5,0.3-1,0.3-1.5
						c0.1-1.7,0.2-3.4,0.2-5.2c0-2.5-0.1-5.1-0.2-7.6c0-0.7-0.1-1.3-0.3-2C3.7,6,3.3,5.4,2.6,5.2C2.1,5.1,1.6,5.1,1.1,5
						C1.1,4.7,1.1,4.4,1.1,4.1z"/>
					<path class="st1" d="M86.7,21.1c-0.1,0.4-0.2,0.8-0.3,1.1c-0.5,1.5-1.6,2.4-3.1,2.9c-1.2,0.4-2.4,0.5-3.6,0.5
						c-1.5-0.1-3-0.3-4.5-0.8c-0.3-0.1-0.4-0.2-0.4-0.5c0-1.2-0.1-2.5-0.1-3.7c0-0.2,0.1-0.3,0.3-0.3c0.2,0,0.3-0.1,0.5-0.1
						c0.3,0.6,0.5,1.2,0.8,1.7c0.5,0.9,1.1,1.7,2,2.1c0.9,0.4,1.7,0.5,2.6,0.2c0.9-0.3,1.3-1,1.5-1.8c0.1-0.9-0.2-1.6-0.9-2
						c-0.7-0.4-1.5-0.7-2.3-1.1c-0.7-0.3-1.4-0.6-2-0.9c-2.7-1.5-2.6-5-0.9-6.7c1-1,2.2-1.5,3.6-1.7c1.9-0.2,3.7,0,5.4,0.6
						c0.3,0.1,0.4,0.2,0.4,0.5c0,1.1,0.1,2.1,0.1,3.2c0,0.3,0,0.4-0.3,0.4c-0.1,0-0.3,0.1-0.4,0.1c-0.1-0.3-0.2-0.7-0.4-1
						c-0.3-0.7-0.7-1.4-1.2-1.9c-0.7-0.6-1.5-0.9-2.4-0.9c-0.9,0.1-1.6,0.6-1.8,1.4c-0.3,0.9-0.1,1.7,0.6,2.3
						c0.7,0.6,1.6,0.9,2.4,1.3c0.7,0.3,1.4,0.6,2,0.9c1.2,0.6,2.1,1.5,2.3,3c0,0,0,0.1,0,0.1C86.7,20.3,86.7,20.7,86.7,21.1z"/>
					<path class="st1" d="M16.4,17.7c0-1.9,0.5-3.7,1.6-5.2c1.3-1.6,3-2.5,5-2.8c1.2-0.1,2.4-0.1,3.6,0.2c2,0.5,3.5,1.7,4.3,3.6
						c1.2,2.6,1.2,5.3-0.1,7.9c-1.1,2.2-2.9,3.5-5.4,3.9c-1.5,0.3-3,0.2-4.5-0.3c-2.3-0.8-3.7-2.4-4.3-4.7
						C16.6,19.5,16.5,18.6,16.4,17.7C16.4,17.8,16.4,17.8,16.4,17.7z M27.1,17.5c0-0.4-0.1-1.2-0.1-2c-0.1-1-0.3-2.1-0.8-3
						c-0.2-0.4-0.4-0.7-0.7-1c-0.9-1-2.3-0.9-3.1,0.1c-0.5,0.6-0.7,1.4-0.9,2.2c-0.3,1.6-0.3,3.2-0.3,4.8c0,1.1,0.1,2.1,0.4,3.2
						c0.2,0.8,0.5,1.6,1.1,2.3c0.9,1,2.4,1,3.2-0.2c0.3-0.4,0.5-1,0.7-1.5C27,20.8,27,19.3,27.1,17.5z"/>
					<path class="st1" d="M74.2,16.9c-3.1,0-6.3,0-9.4,0c-0.1,0.8,0,1.5,0.2,2.2c0.4,1.6,1.1,3,2.7,3.7c1.9,0.9,3.9,0.8,5.7-0.4
						c0.1,0,0.1-0.1,0.2-0.1c0.1,0.1,0.2,0.2,0.2,0.3c0.1,0.1,0.1,0.2,0.2,0.3c-0.3,0.3-0.6,0.6-0.9,0.9c-1.4,1.2-3.1,1.8-4.9,1.9
						c-1.4,0.1-2.7-0.2-3.9-0.8c-1.9-0.9-3.2-2.4-3.8-4.4c-0.7-2.4-0.5-4.8,0.8-7c1.2-2.1,3.1-3.3,5.5-3.6c1-0.1,1.9-0.1,2.9,0.1
						c1.5,0.4,2.7,1.3,3.5,2.7C74,13.9,74.2,15.4,74.2,16.9z M64.9,15.9c1.6,0,3.1-0.1,4.7-0.1c0-0.6,0-1.1-0.1-1.6
						c-0.1-0.9-0.2-1.7-0.6-2.5c-0.6-1.1-1.6-1.3-2.5-0.4c-0.5,0.5-0.7,1-1,1.6C65.1,13.8,64.9,14.8,64.9,15.9z"/>
					<path class="st1" d="M31.5,11.6C31.5,11.6,31.5,11.6,31.5,11.6C31.4,11,31.4,11,32,10.9c2-0.4,4-0.8,5.9-1.2c0.1,0,0.2,0,0.2,0
						c0,1.1,0,2.2,0,3.4c0.1-0.2,0.1-0.3,0.2-0.4c0.7-1.4,1.7-2.4,3.3-2.9c1-0.3,2.1-0.2,2.8,0.3c-0.5,1.4-1.1,2.7-1.6,4.1
						c-0.7-0.4-1.4-0.7-2.2-0.8c-0.7-0.1-1.4,0-2.1,0.4c-0.3,0.2-0.5,0.4-0.5,0.7c-0.1,2.6-0.1,5.3,0.1,7.9c0,0.2,0.1,0.5,0.1,0.7
						c0.2,0.7,0.6,1,1.3,1c0.4,0,0.7,0.1,1.1,0.1c0,0.1,0,0.3,0,0.4c0,0.1,0,0.3,0,0.4c-3.1,0-6.2,0-9.3,0c0-0.2,0-0.5,0-0.7
						c0-0.1,0.1-0.1,0.2-0.2c0.2,0,0.3,0,0.5-0.1c0.7-0.1,1.1-0.4,1.3-1.1c0.1-0.4,0.2-0.9,0.2-1.3c0.1-2.8,0.2-5.5,0-8.3
						c0-0.2,0-0.4-0.1-0.5c-0.2-0.9-0.6-1.2-1.5-1.3C31.8,11.7,31.6,11.6,31.5,11.6z"/>
				</g>
			</g>
			<g>
				<path class="st1" d="M63.1,8c0.3,0,0.5-0.1,0.5-0.1c0.1-0.1,0.1-0.2,0.1-0.5V4.3c0-0.3,0-0.4-0.1-0.5c-0.1-0.1-0.3-0.1-0.5-0.1
					V3.5h2v0.1c-0.3,0-0.5,0.1-0.5,0.1c-0.1,0.1-0.1,0.2-0.1,0.5v3.1c0,0.3,0,0.4,0.1,0.5c0.1,0.1,0.3,0.1,0.5,0.1v0.1h-2V8z"/>
				<path class="st1" d="M65.4,3.5h3.9l0,1.2h-0.2C69.1,4.3,69,4.1,68.9,4c-0.1-0.1-0.4-0.2-0.8-0.2h-0.4v3.5c0,0.3,0,0.4,0.1,0.5
					c0.1,0.1,0.3,0.1,0.5,0.1v0.1h-2V8c0.3,0,0.5-0.1,0.5-0.1C67,7.7,67,7.6,67,7.3V3.8h-0.4c-0.4,0-0.6,0.1-0.8,0.2
					c-0.1,0.1-0.2,0.4-0.3,0.7h-0.2L65.4,3.5z"/>
				<path class="st1" d="M69.1,8.1V8c0.2,0,0.3-0.1,0.4-0.2c0.1-0.1,0.2-0.4,0.5-0.9l1.4-3.4h0.1l1.7,3.9c0.1,0.3,0.2,0.4,0.3,0.5
					c0.1,0.1,0.2,0.1,0.3,0.1v0.1h-1.8V8c0.2,0,0.3,0,0.4-0.1c0.1,0,0.1-0.1,0.1-0.2c0,0,0-0.1,0-0.2c0-0.1-0.1-0.2-0.1-0.3
					l-0.3-0.7h-1.8C70.2,7,70.1,7.3,70,7.4C70,7.5,70,7.6,70,7.7c0,0.1,0,0.2,0.1,0.2c0.1,0,0.2,0,0.3,0.1v0.1H69.1L69.1,8.1z
					 M72,6.3l-0.8-1.9l-0.8,1.9H72z"/>
				<path class="st1" d="M74,8c0.3,0,0.4-0.1,0.5-0.1c0.1-0.1,0.1-0.2,0.1-0.5V4.3c0-0.2,0-0.4-0.1-0.5c-0.1-0.1-0.2-0.1-0.5-0.1
					V3.5H76v0.1c-0.3,0-0.4,0.1-0.5,0.1c-0.1,0.1-0.1,0.2-0.1,0.4v3.3c0,0.1,0,0.1,0,0.2c0,0,0.1,0.1,0.2,0.1c0.1,0,0.1,0,0.2,0
					c0.1,0,0.2,0,0.3,0c0.6,0,1-0.1,1.2-0.2c0.2-0.1,0.4-0.4,0.6-0.8h0.2l-0.3,1.2H74L74,8L74,8z"/>
				<path class="st1" d="M78.3,8c0.3,0,0.5-0.1,0.5-0.1c0.1-0.1,0.1-0.2,0.1-0.5V4.3c0-0.3,0-0.4-0.1-0.5c-0.1-0.1-0.3-0.1-0.5-0.1
					V3.5h2v0.1c-0.3,0-0.5,0.1-0.5,0.1S79.6,4,79.6,4.3v3.1c0,0.3,0,0.4,0.1,0.5C79.9,7.9,80,7.9,80.3,8v0.1h-2V8z"/>
				<path class="st1" d="M80.6,8.1V8c0.2,0,0.3-0.1,0.4-0.2c0.1-0.1,0.2-0.4,0.5-0.9l1.4-3.4H83l1.7,3.9c0.1,0.3,0.2,0.4,0.3,0.5
					c0.1,0.1,0.2,0.1,0.3,0.1v0.1h-1.8V8c0.2,0,0.3,0,0.4-0.1c0.1,0,0.1-0.1,0.1-0.2c0,0,0-0.1,0-0.2c0-0.1-0.1-0.2-0.1-0.3
					l-0.3-0.7h-1.8c-0.2,0.5-0.3,0.7-0.3,0.8c0,0.1-0.1,0.2-0.1,0.2c0,0.1,0,0.2,0.1,0.2c0.1,0,0.2,0,0.3,0.1v0.1H80.6L80.6,8.1z
					 M83.5,6.3l-0.8-1.9l-0.8,1.9H83.5z"/>
			</g>
		</g>
	</g>
</g>
<g id="Layer_2" class="st2">
</g>
</svg>
