<?xml version="1.0" encoding="utf-8"?>
<!-- Generator: Adobe Illustrator 23.0.0, SVG Export Plug-In . SVG Version: 6.00 Build 0)  -->
<svg version="1.1" id="Livello_1" xmlns="http://www.w3.org/2000/svg" xmlns:xlink="http://www.w3.org/1999/xlink" x="0px" y="0px"
	 viewBox="0 0 148.3 32.5" style="enable-background:new 0 0 148.3 32.5;" xml:space="preserve">
<style type="text/css">
	.st0{opacity:0.5;}
	.st1{fill:#5D5D5D;}
	.st2{display:none;}
</style>
<g id="Layer_1">
	<g class="st0">
		<path class="st1" d="M6.3,21.3V3.7H5L1,5.3v0.8l1.2,1v14.1c0,1.1-0.1,1.6-1.2,1.6v1.4h6.6v-1.4C6.4,22.8,6.3,22.4,6.3,21.3"/>
		<path class="st1" d="M19.3,21.1V15c0-2.8-2.1-4.3-5.6-4.3c-2.9,0-4.7,1.2-4.7,3.2c0,1.1,0.7,2.1,2.1,2.1c1.2,0,1.7-0.7,1.7-1.6
			c0-1.2-1.2-1.1-1.2-1.5c0-0.4,0.5-0.6,1.3-0.6c1.2,0,2.3,0.4,2.3,1.8v2.1l-2.6,1c-2.8,1.1-4.1,2.2-4.1,4.1c0,2.2,1.6,3.4,3.6,3.4
			c1.2,0,2.6-0.7,3.3-1.9c0.2,1.2,1.3,1.9,2.6,1.9c1.4,0,2.3-0.6,2.7-1.1v-1.5c-0.2,0.1-0.5,0.2-0.8,0.2
			C19.5,22.2,19.3,21.8,19.3,21.1 M15.2,20.8c0,0.8-0.8,1.6-1.6,1.6c-0.8,0-1.2-0.7-1.2-1.6c0-1.4,0.5-2,1.6-2.5l1.2-0.6L15.2,20.8
			L15.2,20.8z"/>
		<path class="st1" d="M41,19.1c-0.6-3-1.6-4.1-3.9-4.7c3.4-0.9,4.5-2.4,4.5-4.8c0-3.2-2.4-5.2-7.4-5.2h-7.7v1.4
			c1.6,0.1,1.8,0.6,1.8,1.9V21c0,1.3-0.4,1.7-1.8,1.9v1.4h8.2v-1.4c-1.3-0.1-1.7-0.6-1.7-1.9v-6.1h0.5c1,0,1.9,0.3,2.1,1.1
			c0.4,1.4,0.2,4.1,1,6.3c0.6,1.6,2.2,2.1,4.1,2.1c1.4,0,2.1-0.4,2.5-0.6l-0.1-1.4C42.1,22.6,41.7,22.2,41,19.1 M33.5,13.3h-0.3V5.7
			h0.2c2.6,0,3.3,1.1,3.3,4C36.7,12.5,36,13.3,33.5,13.3"/>
		<path class="st1" d="M50.3,22c-1.5,0-2.6-1.1-2.8-4.6H54v-1c0-3.7-1.9-5.7-4.9-5.7c-3.2,0-5.8,2.7-5.8,7.2c0,4.2,2.6,6.8,6.1,6.8
			c2.3,0,4.1-1.6,4.8-3.6l-1.4-0.8C52.2,21.3,51.5,22,50.3,22 M48.9,12.1c0.8,0,1.3,0.8,1.4,3.3c0,0.1,0,0.2,0,0.4h-2.9v0
			C47.4,13,47.9,12.1,48.9,12.1"/>
		<path class="st1" d="M63.7,10.6c-1.5,0-2.6,0.6-3.5,1.9v-1.9h-1.4l-4,1.6v0.8l1.2,1v11.7c0,1.1-0.1,1.6-1.3,1.6v1.4h6.7v-1.4
			c-1.2-0.1-1.3-0.5-1.3-1.6v-1.6c0.6,0.2,1.1,0.3,1.8,0.3c3.4,0,5.7-2.6,5.7-7.6C67.8,12.8,66,10.6,63.7,10.6 M61.6,23.1
			c-0.9,0-1.4-0.7-1.4-2.3V15c0-1.1,0.5-1.6,1.4-1.6c1.3,0,1.8,1.6,1.8,5.1C63.4,21.7,62.9,23.1,61.6,23.1"/>
		<path class="st1" d="M80.7,20.3v-9.7h-1.4l-3.9,1v1.2c1.2,0.4,1.2,0.7,1.2,2.1v5.4c0,1-0.7,1.7-1.6,1.7c-0.8,0-1.2-0.6-1.2-1.6
			v-9.9h-1.4l-3.9,1v1.2c1.1,0.2,1.2,0.6,1.2,2.1v4.9c0,3.2,1.3,4.7,3.5,4.7c1.4,0,2.6-0.7,3.3-2v1.8h0.8l4.5-0.6v-1.4
			C80.7,22.3,80.7,21.8,80.7,20.3"/>
		<path class="st1" d="M90.7,10.6c-1.3,0-2.5,0.8-3.3,1.8V3.7H86L82,5.3v0.8l1.2,1v15.5c1.2,1,3.2,1.8,5.6,1.8c3.6,0,6-2.6,6-7.6
			C94.9,12.8,93.1,10.6,90.7,10.6 M88.7,23.1c-1,0-1.3-0.7-1.3-2.3V15c0-1.1,0.5-1.6,1.3-1.6c1.3,0,1.8,1.6,1.8,5.1
			C90.5,21.7,90,23.1,88.7,23.1"/>
		<path class="st1" d="M104,10.6c-1.4,0-2.5,0.8-3.3,1.8V3.7h-1.4l-3.9,1.6v0.8l1.2,1v15.5c1.2,1,3.2,1.8,5.6,1.8c3.6,0,6-2.6,6-7.6
			C108.2,12.8,106.4,10.6,104,10.6 M102,23.1c-1,0-1.3-0.7-1.3-2.3V15c0-1.1,0.5-1.6,1.3-1.6c1.3,0,1.8,1.6,1.8,5.1
			C103.8,21.7,103.3,23.1,102,23.1"/>
		<path class="st1" d="M114.4,21.3V3.7h-1.4l-4,1.6v0.8l1.2,1v14.1c0,1.1-0.1,1.6-1.2,1.6v1.4h6.6v-1.4
			C114.5,22.8,114.4,22.4,114.4,21.3"/>
		<path class="st1" d="M119.9,8.6c1.2,0,2.3-0.9,2.3-2.2c0-1.2-1-2.2-2.3-2.2c-1.3,0-2.3,1-2.3,2.2C117.7,7.6,118.7,8.6,119.9,8.6"
			/>
		<path class="st1" d="M121.9,21.3V10.6h-1.4l-4,1.6v0.8l1.2,1v7.2c0,1.1-0.1,1.6-1.2,1.6v1.4h6.6v-1.4
			C122,22.8,121.9,22.4,121.9,21.3"/>
		<path class="st1" d="M130.3,14.4c0,0.8,0.6,1.5,1.8,1.5c1.3,0,2-1,2-2.1c0-2-1.7-3.2-4-3.2c-3.5,0-6.4,2.5-6.4,7.4
			c0,3.9,2.2,6.5,5.6,6.5c2.5,0,4-1.5,4.8-3.4l-1.5-0.9c-0.6,1.2-1.4,1.8-2.3,1.8c-1.9,0-2.6-2.3-2.6-5.5c0-3.3,1.2-4.4,2.5-4.4
			c0.8,0,1.3,0.2,1.3,0.6C131.5,13.1,130.3,13.1,130.3,14.4"/>
		<path class="st1" d="M146.7,22.2c-0.5,0-0.7-0.3-0.7-1.1V15c0-2.8-2.1-4.3-5.6-4.3c-2.9,0-4.7,1.2-4.7,3.2c0,1.1,0.7,2.1,2.1,2.1
			c1.2,0,1.7-0.7,1.7-1.6c0-1.2-1.1-1.1-1.1-1.5c0-0.4,0.5-0.6,1.3-0.6c1.2,0,2.3,0.4,2.3,1.8v2.1l-2.6,1c-2.8,1.1-4.1,2.2-4.1,4.1
			c0,2.2,1.6,3.4,3.6,3.4c1.2,0,2.6-0.7,3.3-1.9c0.2,1.2,1.3,1.9,2.6,1.9c1.4,0,2.3-0.6,2.7-1.1v-1.5
			C147.3,22.1,146.9,22.2,146.7,22.2 M141.9,20.8c0,0.8-0.8,1.6-1.6,1.6c-0.9,0-1.2-0.7-1.2-1.6c0-1.4,0.5-2,1.6-2.5l1.2-0.6V20.8z"
			/>
		<path class="st1" d="M6.3,21.3V3.7H5L1,5.3v0.8l1.2,1v14.1c0,1.1-0.1,1.6-1.2,1.6v1.4h6.6v-1.4C6.4,22.8,6.3,22.4,6.3,21.3"/>
		<path class="st1" d="M19.3,21.1V15c0-2.8-2.1-4.3-5.6-4.3c-2.9,0-4.7,1.2-4.7,3.2c0,1.1,0.7,2.1,2.1,2.1c1.2,0,1.7-0.7,1.7-1.6
			c0-1.2-1.2-1.1-1.2-1.5c0-0.4,0.5-0.6,1.3-0.6c1.2,0,2.3,0.4,2.3,1.8v2.1l-2.6,1c-2.8,1.1-4.1,2.2-4.1,4.1c0,2.2,1.6,3.4,3.6,3.4
			c1.2,0,2.6-0.7,3.3-1.9c0.2,1.2,1.3,1.9,2.6,1.9c1.4,0,2.3-0.6,2.7-1.1v-1.5c-0.2,0.1-0.5,0.2-0.8,0.2
			C19.5,22.2,19.3,21.8,19.3,21.1 M15.2,20.8c0,0.8-0.8,1.6-1.6,1.6c-0.8,0-1.2-0.7-1.2-1.6c0-1.4,0.5-2,1.6-2.5l1.2-0.6L15.2,20.8
			L15.2,20.8z"/>
		<path class="st1" d="M41,19.1c-0.6-3-1.6-4.1-3.9-4.7c3.4-0.9,4.5-2.4,4.5-4.8c0-3.2-2.4-5.2-7.4-5.2h-7.7v1.4
			c1.6,0.1,1.8,0.6,1.8,1.9V21c0,1.3-0.4,1.7-1.8,1.9v1.4h8.2v-1.4c-1.3-0.1-1.7-0.6-1.7-1.9v-6.1h0.5c1,0,1.9,0.3,2.1,1.1
			c0.4,1.4,0.2,4.1,1,6.3c0.6,1.6,2.2,2.1,4.1,2.1c1.4,0,2.1-0.4,2.5-0.6l-0.1-1.4C42.1,22.6,41.7,22.2,41,19.1 M33.5,13.3h-0.3V5.7
			h0.2c2.6,0,3.3,1.1,3.3,4C36.7,12.5,36,13.3,33.5,13.3"/>
		<path class="st1" d="M50.3,22c-1.5,0-2.6-1.1-2.8-4.6H54v-1c0-3.7-1.9-5.7-4.9-5.7c-3.2,0-5.8,2.7-5.8,7.2c0,4.2,2.6,6.8,6.1,6.8
			c2.3,0,4.1-1.6,4.8-3.6l-1.4-0.8C52.2,21.3,51.5,22,50.3,22 M48.9,12.1c0.8,0,1.3,0.8,1.4,3.3c0,0.1,0,0.2,0,0.4h-2.9v0
			C47.4,13,47.9,12.1,48.9,12.1"/>
		<path class="st1" d="M63.7,10.6c-1.5,0-2.6,0.6-3.5,1.9v-1.9h-1.4l-4,1.6v0.8l1.2,1v11.7c0,1.1-0.1,1.6-1.3,1.6v1.4h6.7v-1.4
			c-1.2-0.1-1.3-0.5-1.3-1.6v-1.6c0.6,0.2,1.1,0.3,1.8,0.3c3.4,0,5.7-2.6,5.7-7.6C67.8,12.8,66,10.6,63.7,10.6 M61.6,23.1
			c-0.9,0-1.4-0.7-1.4-2.3V15c0-1.1,0.5-1.6,1.4-1.6c1.3,0,1.8,1.6,1.8,5.1C63.4,21.7,62.9,23.1,61.6,23.1"/>
		<path class="st1" d="M80.7,20.3v-9.7h-1.4l-3.9,1v1.2c1.2,0.4,1.2,0.7,1.2,2.1v5.4c0,1-0.7,1.7-1.6,1.7c-0.8,0-1.2-0.6-1.2-1.6
			v-9.9h-1.4l-3.9,1v1.2c1.1,0.2,1.2,0.6,1.2,2.1v4.9c0,3.2,1.3,4.7,3.5,4.7c1.4,0,2.6-0.7,3.3-2v1.8h0.8l4.5-0.6v-1.4
			C80.7,22.3,80.7,21.8,80.7,20.3"/>
		<path class="st1" d="M90.7,10.6c-1.3,0-2.5,0.8-3.3,1.8V3.7H86L82,5.3v0.8l1.2,1v15.5c1.2,1,3.2,1.8,5.6,1.8c3.6,0,6-2.6,6-7.6
			C94.9,12.8,93.1,10.6,90.7,10.6 M88.7,23.1c-1,0-1.3-0.7-1.3-2.3V15c0-1.1,0.5-1.6,1.3-1.6c1.3,0,1.8,1.6,1.8,5.1
			C90.5,21.7,90,23.1,88.7,23.1"/>
		<path class="st1" d="M104,10.6c-1.4,0-2.5,0.8-3.3,1.8V3.7h-1.4l-3.9,1.6v0.8l1.2,1v15.5c1.2,1,3.2,1.8,5.6,1.8c3.6,0,6-2.6,6-7.6
			C108.2,12.8,106.4,10.6,104,10.6 M102,23.1c-1,0-1.3-0.7-1.3-2.3V15c0-1.1,0.5-1.6,1.3-1.6c1.3,0,1.8,1.6,1.8,5.1
			C103.8,21.7,103.3,23.1,102,23.1"/>
		<path class="st1" d="M114.4,21.3V3.7h-1.4l-4,1.6v0.8l1.2,1v14.1c0,1.1-0.1,1.6-1.2,1.6v1.4h6.6v-1.4
			C114.5,22.8,114.4,22.4,114.4,21.3"/>
		<path class="st1" d="M119.9,8.6c1.2,0,2.3-0.9,2.3-2.2c0-1.2-1-2.2-2.3-2.2c-1.3,0-2.3,1-2.3,2.2C117.7,7.6,118.7,8.6,119.9,8.6"
			/>
		<path class="st1" d="M121.9,21.3V10.6h-1.4l-4,1.6v0.8l1.2,1v7.2c0,1.1-0.1,1.6-1.2,1.6v1.4h6.6v-1.4
			C122,22.8,121.9,22.4,121.9,21.3"/>
		<path class="st1" d="M130.3,14.4c0,0.8,0.6,1.5,1.8,1.5c1.3,0,2-1,2-2.1c0-2-1.7-3.2-4-3.2c-3.5,0-6.4,2.5-6.4,7.4
			c0,3.9,2.2,6.5,5.6,6.5c2.5,0,4-1.5,4.8-3.4l-1.5-0.9c-0.6,1.2-1.4,1.8-2.3,1.8c-1.9,0-2.6-2.3-2.6-5.5c0-3.3,1.2-4.4,2.5-4.4
			c0.8,0,1.3,0.2,1.3,0.6C131.5,13.1,130.3,13.1,130.3,14.4"/>
		<path class="st1" d="M146.7,22.2c-0.5,0-0.7-0.3-0.7-1.1V15c0-2.8-2.1-4.3-5.6-4.3c-2.9,0-4.7,1.2-4.7,3.2c0,1.1,0.7,2.1,2.1,2.1
			c1.2,0,1.7-0.7,1.7-1.6c0-1.2-1.1-1.1-1.1-1.5c0-0.4,0.5-0.6,1.3-0.6c1.2,0,2.3,0.4,2.3,1.8v2.1l-2.6,1c-2.8,1.1-4.1,2.2-4.1,4.1
			c0,2.2,1.6,3.4,3.6,3.4c1.2,0,2.6-0.7,3.3-1.9c0.2,1.2,1.3,1.9,2.6,1.9c1.4,0,2.3-0.6,2.7-1.1v-1.5
			C147.3,22.1,146.9,22.2,146.7,22.2 M141.9,20.8c0,0.8-0.8,1.6-1.6,1.6c-0.9,0-1.2-0.7-1.2-1.6c0-1.4,0.5-2,1.6-2.5l1.2-0.6V20.8z"
			/>
	</g>
</g>
<g id="Layer_2" class="st2">
</g>
</svg>
