<?xml version="1.0" encoding="utf-8"?>
<!-- Generator: Adobe Illustrator 23.0.0, SVG Export Plug-In . SVG Version: 6.00 Build 0)  -->
<svg version="1.1" id="Livello_1" xmlns="http://www.w3.org/2000/svg" xmlns:xlink="http://www.w3.org/1999/xlink" x="0px" y="0px"
	 viewBox="0 0 96.5 32.5" style="enable-background:new 0 0 96.5 32.5;" xml:space="preserve">
<style type="text/css">
	.st0{opacity:0.5;}
	.st1{fill:#5D5D5D;}
	.st2{display:none;}
</style>
<g id="Layer_1">
	<g class="st0">
		<g>
			<path class="st1" d="M37,20l1.5,4.4h0L40,20h2v6.5h-1.3v-4.6h0L39,26.5h-1.1l-1.6-4.5h0v4.5H35V20H37z"/>
			<path class="st1" d="M44.6,20v6.5h-1.4V20H44.6z"/>
			<path class="st1" d="M49.1,20l2.4,6.5H50L49.5,25h-2.4l-0.5,1.4h-1.4l2.4-6.5H49.1z M49.2,24l-0.8-2.4h0L47.5,24
				C47.5,24,49.2,24,49.2,24z"/>
			<path class="st1" d="M54.1,20l1.5,4.4h0L57,20h2v6.5h-1.3v-4.6h0l-1.6,4.6H55l-1.6-4.5h0v4.5h-1.3V20H54.1z"/>
			<path class="st1" d="M61.7,20v6.5h-1.4V20H61.7z"/>
		</g>
		<g>
			<path class="st1" d="M7.2,13.7H3.4l-1,2.2H0.9l4.4-9.6l4.3,9.6H8.2L7.2,13.7z M6.7,12.4L5.4,9.4L4,12.4H6.7z"/>
			<path class="st1" d="M10.5,10.2h1.3v0.5c0.2-0.3,0.5-0.4,0.6-0.5c0.2-0.1,0.4-0.1,0.7-0.1c0.3,0,0.7,0.1,1.1,0.3l-0.6,1.2
				c-0.3-0.2-0.5-0.3-0.7-0.3c-0.7,0-1.1,0.5-1.1,1.6v2.9h-1.3L10.5,10.2L10.5,10.2z"/>
			<path class="st1" d="M16.8,11.4v4.4h-1.3v-4.4h-0.6v-1.2h0.6V8.1h1.3v2.1h1v1.2L16.8,11.4L16.8,11.4z"/>
			<path class="st1" d="M22.6,15.9v-9h1.9c0.9,0,1.6,0.1,2.1,0.3c0.6,0.2,1.1,0.5,1.5,0.9c0.9,0.8,1.4,2,1.4,3.3
				c0,1.4-0.5,2.5-1.5,3.4c-0.5,0.4-1,0.7-1.5,0.9c-0.5,0.2-1.2,0.3-2.1,0.3L22.6,15.9L22.6,15.9z M24,14.6h0.6
				c0.6,0,1.1-0.1,1.5-0.2c0.4-0.1,0.8-0.4,1.1-0.6c0.7-0.6,1-1.4,1-2.4c0-1-0.3-1.8-1-2.4c-0.6-0.5-1.5-0.8-2.6-0.8H24L24,14.6
				L24,14.6z"/>
			<path class="st1" d="M36.2,13.4h-4.1c0,0.5,0.2,0.8,0.5,1.1c0.3,0.3,0.6,0.4,1,0.4c0.3,0,0.6-0.1,0.8-0.2
				c0.2-0.2,0.4-0.4,0.7-0.9l1.1,0.6c-0.2,0.3-0.4,0.5-0.5,0.7c-0.2,0.2-0.4,0.4-0.6,0.5c-0.2,0.1-0.5,0.2-0.7,0.3s-0.5,0.1-0.8,0.1
				c-0.8,0-1.5-0.3-2-0.8c-0.5-0.5-0.8-1.3-0.8-2.2c0-0.9,0.2-1.6,0.7-2.2c0.5-0.5,1.2-0.8,2-0.8c0.8,0,1.5,0.3,2,0.8
				c0.5,0.5,0.7,1.3,0.7,2.2L36.2,13.4z M34.9,12.3c-0.2-0.7-0.6-1-1.3-1c-0.2,0-0.3,0-0.4,0.1c-0.1,0-0.3,0.1-0.4,0.2
				c-0.1,0.1-0.2,0.2-0.3,0.3c-0.1,0.1-0.1,0.3-0.2,0.4C32.2,12.3,34.9,12.3,34.9,12.3z"/>
			<path class="st1" d="M42,10.5v1.7c-0.3-0.4-0.6-0.6-0.8-0.8c-0.2-0.1-0.5-0.2-0.8-0.2c-0.5,0-0.9,0.2-1.2,0.5
				c-0.3,0.3-0.5,0.8-0.5,1.3c0,0.5,0.2,1,0.5,1.3c0.3,0.3,0.7,0.5,1.2,0.5c0.3,0,0.6-0.1,0.8-0.2c0.2-0.1,0.5-0.4,0.8-0.8v1.7
				c-0.5,0.3-1.1,0.4-1.6,0.4c-0.9,0-1.6-0.3-2.2-0.9c-0.6-0.6-0.9-1.3-0.9-2.1c0-0.8,0.3-1.6,0.9-2.1c0.6-0.6,1.3-0.9,2.2-0.9
				C41,10.1,41.5,10.2,42,10.5z"/>
			<path class="st1" d="M48.5,13.4h-4.1c0,0.5,0.2,0.8,0.5,1.1c0.3,0.3,0.6,0.4,1,0.4c0.3,0,0.6-0.1,0.8-0.2
				c0.2-0.2,0.4-0.4,0.7-0.9l1.1,0.6c-0.2,0.3-0.4,0.5-0.5,0.7c-0.2,0.2-0.4,0.4-0.6,0.5c-0.2,0.1-0.5,0.2-0.7,0.3s-0.5,0.1-0.8,0.1
				c-0.8,0-1.5-0.3-2-0.8C43.3,14.7,43,14,43,13.1c0-0.9,0.2-1.6,0.7-2.2c0.5-0.5,1.2-0.8,2-0.8c0.8,0,1.5,0.3,2,0.8
				c0.5,0.5,0.7,1.3,0.7,2.2L48.5,13.4z M47.1,12.3c-0.2-0.7-0.6-1-1.3-1c-0.2,0-0.3,0-0.4,0.1s-0.3,0.1-0.4,0.2
				c-0.1,0.1-0.2,0.2-0.3,0.3c-0.1,0.1-0.1,0.3-0.2,0.4C44.5,12.3,47.1,12.3,47.1,12.3z"/>
			<path class="st1" d="M49.9,10.2h1.3v0.5c0.5-0.5,1-0.7,1.5-0.7c0.7,0,1.2,0.2,1.5,0.6c0.3,0.4,0.5,0.9,0.5,1.7v3.5h-1.3v-3.2
				c0-0.6-0.1-0.9-0.2-1.2c-0.2-0.2-0.4-0.3-0.8-0.3c-0.4,0-0.7,0.1-0.9,0.4c-0.2,0.3-0.3,0.8-0.3,1.5v2.7h-1.3L49.9,10.2L49.9,10.2
				z"/>
			<path class="st1" d="M57.8,11.4v4.4h-1.3v-4.4h-0.6v-1.2h0.6V8.1h1.3v2.1h1v1.2L57.8,11.4L57.8,11.4z"/>
			<path class="st1" d="M59.7,10.2H61v0.5c0.2-0.3,0.5-0.4,0.6-0.5c0.2-0.1,0.4-0.1,0.7-0.1c0.3,0,0.7,0.1,1.1,0.3l-0.6,1.2
				c-0.2-0.2-0.5-0.3-0.7-0.3c-0.7,0-1.1,0.5-1.1,1.6v2.9h-1.3C59.7,15.9,59.7,10.2,59.7,10.2z"/>
			<path class="st1" d="M68.3,10.2h1.3v5.7h-1.3v-0.6c-0.5,0.5-1.1,0.8-1.7,0.8c-0.8,0-1.4-0.3-1.9-0.9c-0.5-0.6-0.8-1.3-0.8-2.2
				c0-0.9,0.3-1.6,0.8-2.1c0.5-0.6,1.1-0.9,1.9-0.9c0.7,0,1.3,0.3,1.8,0.8V10.2z M65.2,13c0,0.5,0.1,1,0.4,1.3
				c0.3,0.3,0.7,0.5,1.1,0.5c0.5,0,0.9-0.2,1.2-0.5c0.3-0.3,0.4-0.8,0.4-1.3c0-0.5-0.1-1-0.4-1.3c-0.3-0.3-0.7-0.5-1.2-0.5
				c-0.4,0-0.8,0.2-1.1,0.5C65.3,12.1,65.2,12.5,65.2,13z"/>
			<path class="st1" d="M72.6,6.1v9.8h-1.3V6.1H72.6z"/>
			<path class="st1" d="M74,7.9c0-0.2,0.1-0.4,0.3-0.6C74.4,7.1,74.6,7,74.9,7c0.2,0,0.4,0.1,0.6,0.3c0.2,0.2,0.2,0.4,0.2,0.6
				c0,0.2-0.1,0.4-0.2,0.6c-0.2,0.2-0.4,0.3-0.6,0.3c-0.2,0-0.4-0.1-0.6-0.3C74.1,8.3,74,8.1,74,7.9z M75.5,10.2v5.7h-1.3v-5.7
				C74.2,10.2,75.5,10.2,75.5,10.2z"/>
			<path class="st1" d="M79.1,14.7h3.4v1.2h-6l3.7-4.4h-2.9v-1.2h5.5L79.1,14.7z"/>
			<path class="st1" d="M88.8,13.4h-4.1c0,0.5,0.2,0.8,0.5,1.1c0.3,0.3,0.6,0.4,1,0.4c0.3,0,0.6-0.1,0.8-0.2
				c0.2-0.2,0.4-0.4,0.7-0.9l1.1,0.6c-0.2,0.3-0.4,0.5-0.5,0.7c-0.2,0.2-0.4,0.4-0.6,0.5c-0.2,0.1-0.5,0.2-0.7,0.3
				c-0.3,0.1-0.5,0.1-0.8,0.1c-0.8,0-1.5-0.3-2-0.8c-0.5-0.5-0.8-1.3-0.8-2.2c0-0.9,0.3-1.6,0.7-2.2c0.5-0.5,1.2-0.8,2-0.8
				c0.8,0,1.5,0.3,2,0.8c0.5,0.5,0.7,1.3,0.7,2.2L88.8,13.4z M87.5,12.3c-0.2-0.7-0.6-1-1.3-1c-0.2,0-0.3,0-0.4,0.1
				c-0.1,0-0.3,0.1-0.4,0.2c-0.1,0.1-0.2,0.2-0.3,0.3c-0.1,0.1-0.1,0.3-0.2,0.4C84.8,12.3,87.5,12.3,87.5,12.3z"/>
			<path class="st1" d="M94.4,6.1h1.3v9.8h-1.3v-0.6c-0.5,0.5-1.1,0.8-1.8,0.8c-0.8,0-1.4-0.3-1.9-0.9C90.2,14.6,90,13.9,90,13
				c0-0.8,0.3-1.6,0.8-2.1c0.5-0.6,1.1-0.9,1.9-0.9c0.7,0,1.3,0.3,1.8,0.8L94.4,6.1L94.4,6.1z M91.3,13c0,0.5,0.1,1,0.4,1.3
				c0.3,0.3,0.7,0.5,1.1,0.5c0.5,0,0.9-0.2,1.2-0.5c0.3-0.3,0.4-0.8,0.4-1.3c0-0.5-0.1-1-0.4-1.3c-0.3-0.3-0.7-0.5-1.2-0.5
				c-0.5,0-0.8,0.2-1.1,0.5C91.5,12.1,91.3,12.5,91.3,13z"/>
		</g>
	</g>
</g>
<g id="Layer_2" class="st2">
</g>
</svg>
