<?xml version="1.0" encoding="utf-8"?>
<!-- Generator: Adobe Illustrator 23.0.0, SVG Export Plug-In . SVG Version: 6.00 Build 0)  -->
<svg version="1.1" id="Livello_1" xmlns="http://www.w3.org/2000/svg" xmlns:xlink="http://www.w3.org/1999/xlink" x="0px" y="0px"
	 viewBox="0 0 105.4 32.5" style="enable-background:new 0 0 105.4 32.5;" xml:space="preserve">
<style type="text/css">
	.st0{opacity:0.5;}
	.st1{fill:#5D5D5D;}
	.st2{display:none;}
</style>
<g id="Layer_1">
	<g class="st0">
		<g>
			<path class="st1" d="M40.4,22.3c-0.3-0.5-0.6-1-0.9-1.5c-1.3-2.2-2.6-4.4-3.8-6.6c-0.9-1.6-1.8-3.2-2.7-4.7
				c-0.7-1.2-1.4-2.3-2-3.5c-0.7-1.1-1.3-2.3-2-3.4c-0.2-0.3-0.4-0.6-0.6-1c-2.6,4.5-5.2,9-7.8,13.5c-2.6-4.5-5.2-9-7.8-13.5
				c0,0.1-0.1,0.1-0.1,0.2c-0.4,0.6-0.8,1.3-1.1,2c-0.8,1.3-1.5,2.6-2.3,3.9c-0.8,1.4-1.6,2.8-2.4,4.2c-0.9,1.5-1.8,3.1-2.7,4.6
				c-0.8,1.4-1.6,2.8-2.4,4.1c-0.3,0.6-0.7,1.1-1,1.7c-0.1,0.1-0.1,0.3,0,0.4c0.5,1,1.1,1.9,1.6,2.9C3,26.4,3.5,27.3,4,28.2
				c0.3,0.5,0.6,1.1,1,1.7c2.6-4.5,5.2-9,7.8-13.5c2.6,4.5,5.2,9,7.8,13.5c2.6-4.5,5.2-9,7.8-13.5c2.6,4.5,5.2,9,7.8,13.5
				c0.1-0.1,0.1-0.1,0.1-0.2c0.6-1.1,1.2-2.2,1.9-3.3c0.7-1.3,1.5-2.6,2.2-3.9C40.5,22.5,40.5,22.4,40.4,22.3 M36.2,16.3
				c1.1,1.9,2.2,3.8,3.3,5.8h-6.6C34,20.2,35.1,18.3,36.2,16.3 M28.4,2.8c1.1,1.9,2.2,3.8,3.3,5.8h-6.7C26.2,6.6,27.3,4.7,28.4,2.8
				 M23.9,22.1h-6.6c1.1-1.9,2.2-3.8,3.3-5.8C21.7,18.3,22.8,20.2,23.9,22.1 M20,15.3h-6.7c1.1-1.9,2.2-3.8,3.3-5.8
				C17.8,11.5,18.9,13.4,20,15.3 M12.8,2.8c1.1,1.9,2.2,3.8,3.3,5.8H9.5C10.6,6.6,11.7,4.7,12.8,2.8 M5,16.3
				c1.1,1.9,2.2,3.8,3.3,5.8H1.7C2.8,20.2,3.9,18.2,5,16.3 M5,28.5c-1.1-1.9-2.2-3.8-3.3-5.8h6.7C7.2,24.7,6.1,26.6,5,28.5
				 M8.9,21.8c-1.1-1.9-2.2-3.8-3.3-5.8h6.7C11.1,17.9,10,19.8,8.9,21.8 M5.6,15.3c1.1-1.9,2.2-3.8,3.3-5.8c1.1,1.9,2.2,3.8,3.3,5.8
				H5.6z M12.8,15c-1.1-1.9-2.2-3.8-3.3-5.8h6.6C15,11.2,13.9,13.1,12.8,15 M13.4,16H20c-1.1,1.9-2.2,3.8-3.3,5.8
				C15.6,19.8,14.5,17.9,13.4,16 M20.6,28.5c-1.1-1.9-2.2-3.8-3.3-5.8h6.7C22.8,24.7,21.7,26.6,20.6,28.5 M24.5,21.8
				c-1.1-1.9-2.2-3.8-3.3-5.8h6.7C26.7,17.9,25.6,19.8,24.5,21.8 M21.2,15.3c1.1-1.9,2.2-3.8,3.3-5.8c1.1,1.9,2.2,3.8,3.3,5.8H21.2z
				 M25.1,9.3h6.6c-1.1,1.9-2.2,3.8-3.3,5.7C27.3,13.1,26.2,11.2,25.1,9.3 M32.3,9.6c1.1,1.9,2.2,3.8,3.3,5.8H29
				C30.1,13.4,31.2,11.5,32.3,9.6 M29,16h6.7c-1.1,1.9-2.2,3.8-3.3,5.8C31.2,19.8,30.1,17.9,29,16 M36.2,28.5
				c-1.1-1.9-2.2-3.8-3.3-5.8h6.6C38.4,24.7,37.4,26.6,36.2,28.5"/>
			<path class="st1" d="M40.4,22.3c-0.3-0.5-0.6-1-0.9-1.5c-1.3-2.2-2.6-4.4-3.8-6.6c-0.9-1.6-1.8-3.2-2.7-4.7
				c-0.7-1.2-1.4-2.3-2-3.5c-0.7-1.1-1.3-2.3-2-3.4c-0.2-0.3-0.4-0.6-0.6-1c-2.6,4.5-5.2,9-7.8,13.5c-2.6-4.5-5.2-9-7.8-13.5
				c0,0.1-0.1,0.1-0.1,0.2c-0.4,0.6-0.8,1.3-1.1,2c-0.8,1.3-1.5,2.6-2.3,3.9c-0.8,1.4-1.6,2.8-2.4,4.2c-0.9,1.5-1.8,3.1-2.7,4.6
				c-0.8,1.4-1.6,2.8-2.4,4.1c-0.3,0.6-0.7,1.1-1,1.7c-0.1,0.1-0.1,0.3,0,0.4c0.5,1,1.1,1.9,1.6,2.9C3,26.4,3.5,27.3,4,28.2
				c0.3,0.5,0.6,1.1,1,1.7c2.6-4.5,5.2-9,7.8-13.5c2.6,4.5,5.2,9,7.8,13.5c2.6-4.5,5.2-9,7.8-13.5c2.6,4.5,5.2,9,7.8,13.5
				c0.1-0.1,0.1-0.1,0.1-0.2c0.6-1.1,1.2-2.2,1.9-3.3c0.7-1.3,1.5-2.6,2.2-3.9C40.5,22.5,40.5,22.4,40.4,22.3z M36.2,16.3
				c1.1,1.9,2.2,3.8,3.3,5.8h-6.6C34,20.2,35.1,18.3,36.2,16.3z M28.4,2.8c1.1,1.9,2.2,3.8,3.3,5.8h-6.7C26.2,6.6,27.3,4.7,28.4,2.8
				z M23.9,22.1h-6.6c1.1-1.9,2.2-3.8,3.3-5.8C21.7,18.3,22.8,20.2,23.9,22.1z M20,15.3h-6.7c1.1-1.9,2.2-3.8,3.3-5.8
				C17.8,11.5,18.9,13.4,20,15.3z M12.8,2.8c1.1,1.9,2.2,3.8,3.3,5.8H9.5C10.6,6.6,11.7,4.7,12.8,2.8z M5,16.3
				c1.1,1.9,2.2,3.8,3.3,5.8H1.7C2.8,20.2,3.9,18.2,5,16.3z M5,28.5c-1.1-1.9-2.2-3.8-3.3-5.8h6.7C7.2,24.7,6.1,26.6,5,28.5z
				 M8.9,21.8c-1.1-1.9-2.2-3.8-3.3-5.8h6.7C11.1,17.9,10,19.8,8.9,21.8z M5.6,15.3c1.1-1.9,2.2-3.8,3.3-5.8
				c1.1,1.9,2.2,3.8,3.3,5.8H5.6z M12.8,15c-1.1-1.9-2.2-3.8-3.3-5.8h6.6C15,11.2,13.9,13.1,12.8,15z M13.4,16H20
				c-1.1,1.9-2.2,3.8-3.3,5.8C15.6,19.8,14.5,17.9,13.4,16z M20.6,28.5c-1.1-1.9-2.2-3.8-3.3-5.8h6.7C22.8,24.7,21.7,26.6,20.6,28.5
				z M24.5,21.8c-1.1-1.9-2.2-3.8-3.3-5.8h6.7C26.7,17.9,25.6,19.8,24.5,21.8z M21.2,15.3c1.1-1.9,2.2-3.8,3.3-5.8
				c1.1,1.9,2.2,3.8,3.3,5.8H21.2z M25.1,9.3h6.6c-1.1,1.9-2.2,3.8-3.3,5.7C27.3,13.1,26.2,11.2,25.1,9.3z M32.3,9.6
				c1.1,1.9,2.2,3.8,3.3,5.8H29C30.1,13.4,31.2,11.5,32.3,9.6z M29,16h6.7c-1.1,1.9-2.2,3.8-3.3,5.8C31.2,19.8,30.1,17.9,29,16z
				 M36.2,28.5c-1.1-1.9-2.2-3.8-3.3-5.8h6.6C38.4,24.7,37.4,26.6,36.2,28.5z"/>
			<path class="st1" d="M50.1,6.4c0,0.1-0.1,0.3-0.2,0.6c-0.1-0.3-0.2-0.5-0.2-0.6l-0.8-2.2h-1.6v5.2h1.5v-2l0.6,1.8h1l0.6-1.8v2
				h1.5V4.2h-1.6L50.1,6.4z"/>
			<path class="st1" d="M57.4,4.2H56l-1.9,5.2h1.6L56,8.4h1.4l0.4,1.1h1.6L57.4,4.2z M57.1,7.2h-0.9l0.3-0.8
				c0.1-0.2,0.1-0.4,0.2-0.6c0.1,0.2,0.1,0.4,0.2,0.6L57.1,7.2z"/>
			<polygon class="st1" points="64.5,8.2 62.3,8.2 62.3,4.2 60.9,4.2 60.9,9.5 64.5,9.5 			"/>
			<polygon class="st1" points="66.9,9.5 68.4,9.5 68.4,5.5 69.8,5.5 69.8,4.2 65.5,4.2 65.5,5.5 66.9,5.5 			"/>
			<path class="st1" d="M99.7,8.6c0-0.1,0.1-0.2,0.1-0.3c0.1-0.2,0.1-0.3,0.1-0.5l0-0.1l-0.8-0.1l0,0.1c0,0.1,0,0.2,0,0.2
				c0-0.1-0.1-0.1-0.1-0.2c-0.1-0.1-0.2-0.2-0.3-0.3c-0.1-0.1-0.1-0.1-0.2-0.2c-0.1-0.1-0.1-0.1-0.1-0.2c0-0.1,0-0.1,0-0.1
				c0,0,0-0.1,0.2-0.1c0.1,0,0.3,0.1,0.4,0.2L99,7.1l0.7-0.3l0-0.1c-0.1-0.2-0.2-0.4-0.4-0.5C99.1,6.1,98.8,6,98.6,6
				c-0.3,0-0.6,0.1-0.7,0.2c-0.2,0.2-0.3,0.4-0.3,0.6c0,0.2,0.1,0.3,0.2,0.5c-0.4,0.3-0.6,0.6-0.6,1c0,0.3,0.1,0.5,0.3,0.8
				c0.2,0.2,0.5,0.3,0.9,0.3c0.3,0,0.6-0.1,0.8-0.2l0.1,0.2h1.1L99.7,8.6z M98.1,8.6C98.1,8.5,98,8.5,98,8.4c0-0.1,0.1-0.3,0.2-0.4
				l0.5,0.6C98.5,8.7,98.2,8.7,98.1,8.6"/>
			<path class="st1" d="M51,15.8c0.1-0.1,0.1-0.2,0.2-0.2c0.1-0.2,0.2-0.4,0.2-0.7c0-0.5-0.2-0.8-0.5-1.1c-0.3-0.3-0.8-0.4-1.4-0.4
				h-2.2v5.2h2.4c0.6,0,1-0.2,1.3-0.5c0.3-0.3,0.5-0.7,0.5-1.2c0-0.3-0.1-0.6-0.3-0.9C51.2,15.9,51.1,15.8,51,15.8 M48.8,15.2v-0.6
				h0.6c0.4,0,0.4,0.2,0.4,0.3c0,0.1-0.1,0.2-0.1,0.2c-0.1,0.1-0.2,0.1-0.4,0.1H48.8z M50,16.9c0,0.1,0,0.2-0.1,0.3
				c-0.1,0.1-0.2,0.1-0.3,0.1h-0.8v-0.8h0.8c0.2,0,0.3,0,0.4,0.1C50,16.7,50,16.8,50,16.9"/>
			<polygon class="st1" points="57.1,17.3 54.9,17.3 54.9,13.3 53.4,13.3 53.4,18.5 57.1,18.5 			"/>
			<path class="st1" d="M62.6,17.9c0.4-0.5,0.7-1.2,0.7-2c0-0.8-0.2-1.5-0.7-2c-0.4-0.5-1-0.8-1.8-0.8s-1.3,0.3-1.8,0.8
				c-0.4,0.5-0.7,1.2-0.7,2s0.2,1.5,0.7,2c0.4,0.5,1,0.8,1.8,0.8C61.5,18.6,62.1,18.4,62.6,17.9 M61.5,17c-0.2,0.2-0.4,0.3-0.7,0.3
				s-0.5-0.1-0.7-0.3c-0.2-0.3-0.3-0.6-0.3-1.1c0-0.5,0.1-0.8,0.3-1.1c0.2-0.2,0.4-0.3,0.6-0.3c0.3,0,0.5,0.1,0.7,0.3
				c0.2,0.3,0.3,0.6,0.3,1.1C61.7,16.4,61.6,16.8,61.5,17"/>
			<path class="st1" d="M68,18.5c0.2-0.1,0.4-0.1,0.6-0.3c0.2-0.1,0.3-0.2,0.4-0.4c0.1-0.1,0.2-0.3,0.3-0.4c0.1-0.1,0.1-0.2,0.2-0.4
				l0.1-0.2l-1.4-0.4l-0.1,0.2c-0.1,0.2-0.2,0.3-0.3,0.5c-0.2,0.1-0.3,0.2-0.5,0.2c-0.3,0-0.5-0.1-0.7-0.4c-0.2-0.3-0.3-0.6-0.3-1.1
				c0-0.4,0.1-0.8,0.3-1.1c0.2-0.2,0.4-0.4,0.7-0.4c0.2,0,0.3,0,0.5,0.1c0.1,0.1,0.2,0.2,0.3,0.4l0.1,0.2l1.3-0.4l-0.1-0.2
				c-0.2-0.4-0.4-0.7-0.8-1c-0.4-0.3-0.8-0.4-1.3-0.4c-0.7,0-1.3,0.3-1.8,0.7c-0.5,0.5-0.7,1.2-0.7,2c0,0.8,0.2,1.5,0.7,2
				c0.5,0.5,1.1,0.7,1.8,0.7C67.6,18.6,67.8,18.6,68,18.5"/>
			<polygon class="st1" points="76.1,18.5 73.9,15.7 76.1,13.3 74.2,13.3 72.8,14.9 72.8,13.3 71.3,13.3 71.3,18.5 72.8,18.5 
				72.8,16.9 73,16.7 74.3,18.5 			"/>
			<path class="st1" d="M80.2,18.5c0.2-0.1,0.4-0.1,0.6-0.3c0.2-0.1,0.3-0.2,0.4-0.4c0.1-0.1,0.2-0.3,0.3-0.4
				c0.1-0.1,0.1-0.2,0.2-0.4l0.1-0.2l-1.4-0.4l-0.1,0.2c-0.1,0.2-0.2,0.3-0.3,0.5c-0.2,0.1-0.3,0.2-0.5,0.2c-0.3,0-0.5-0.1-0.7-0.4
				c-0.2-0.3-0.3-0.6-0.3-1.1c0-0.4,0.1-0.8,0.3-1.1c0.2-0.2,0.4-0.4,0.7-0.4c0.2,0,0.3,0,0.5,0.1c0.1,0.1,0.2,0.2,0.3,0.4l0.1,0.2
				l1.3-0.4l-0.1-0.2c-0.2-0.4-0.4-0.7-0.8-1c-0.4-0.3-0.8-0.4-1.3-0.4c-0.7,0-1.3,0.3-1.8,0.7c-0.5,0.5-0.7,1.2-0.7,2
				c0,0.8,0.2,1.5,0.7,2c0.5,0.5,1.1,0.7,1.8,0.7C79.7,18.6,80,18.6,80.2,18.5"/>
			<polygon class="st1" points="86.2,15.2 84.9,15.2 84.9,13.3 83.5,13.3 83.5,18.5 84.9,18.5 84.9,16.5 86.2,16.5 86.2,18.5 
				87.7,18.5 87.7,13.3 86.2,13.3 			"/>
			<path class="st1" d="M103.2,13.3v2.1c0,0.1,0,0.3,0,0.4l-1.4-2.5h-1.4v5.2h1.5v-2.1c0-0.1,0-0.2,0-0.4l1.4,2.5h1.4v-5.2
				L103.2,13.3L103.2,13.3z"/>
			<path class="st1" d="M49.1,23.6c0.3,0,0.6,0.1,0.8,0.4l0.1,0.1l1.3-0.4l-0.1-0.2c-0.2-0.4-0.4-0.7-0.8-0.9
				c-0.4-0.2-0.8-0.3-1.3-0.3c-0.6,0-1.1,0.1-1.4,0.4c-0.4,0.3-0.6,0.7-0.6,1.2c0,0.6,0.3,1,0.9,1.3c0.2,0.1,0.5,0.2,1,0.4
				c0.3,0.1,0.5,0.2,0.6,0.3c0.1,0.1,0.1,0.1,0.1,0.3c0,0.1,0,0.2-0.1,0.2c-0.2,0.1-0.6,0.2-1,0c-0.2-0.1-0.3-0.2-0.4-0.4l-0.1-0.2
				l-1.3,0.4l0.1,0.2c0.2,0.4,0.5,0.7,0.9,1c0.4,0.2,0.9,0.4,1.4,0.4c0.6,0,1.1-0.1,1.5-0.4c0.4-0.3,0.6-0.7,0.6-1.2
				c0-0.2,0-0.4-0.1-0.6c-0.1-0.2-0.2-0.4-0.4-0.5c-0.1-0.1-0.3-0.2-0.5-0.3c-0.2-0.1-0.3-0.1-0.5-0.2c0,0-0.1,0-0.3-0.1
				c-0.1,0-0.2-0.1-0.3-0.1c-0.1,0-0.1,0-0.2-0.1c-0.1,0-0.2-0.1-0.2-0.1c0,0-0.1-0.1-0.1-0.1c0,0,0,0,0-0.1c0,0,0-0.1,0-0.1
				c0-0.1,0-0.1,0.1-0.2C48.8,23.6,49,23.6,49.1,23.6"/>
			<path class="st1" d="M55.8,25.6c0,0.8-0.3,0.9-0.7,0.9s-0.7-0.1-0.7-0.9v-3.2H53v3.2c0,0.7,0.2,1.3,0.6,1.6
				c0.4,0.4,0.9,0.5,1.6,0.5c0.7,0,1.2-0.2,1.6-0.6c0.4-0.4,0.5-0.9,0.5-1.6v-3.2h-1.5L55.8,25.6L55.8,25.6z"/>
			<path class="st1" d="M62.2,24.6c0,0.1-0.1,0.3-0.2,0.6c-0.1-0.3-0.2-0.5-0.2-0.6L61,22.4h-1.6v5.2h1.5v-2l0.6,1.8h1l0.6-1.8v2
				h1.5v-5.2H63L62.2,24.6z"/>
			<path class="st1" d="M69.6,24.6c0,0.1-0.1,0.3-0.2,0.6c-0.1-0.3-0.2-0.5-0.2-0.6l-0.8-2.2h-1.6v5.2h1.5v-2l0.6,1.8h1l0.6-1.8v2
				H72v-5.2h-1.6L69.6,24.6z"/>
			<polygon class="st1" points="78.1,23.7 79.5,23.7 79.5,27.6 80.9,27.6 80.9,23.7 82.3,23.7 82.3,22.4 78.1,22.4 			"/>
			<rect x="85.7" y="8.3" class="st1" width="1.1" height="1.1"/>
			<rect x="91.7" y="8.3" class="st1" width="1.1" height="1.1"/>
			<path class="st1" d="M72.5,8.4H74l0.4,1.1h1.6L74,4.2h-1.4l-1.9,5.2h1.6L72.5,8.4z M73.1,6.4c0.1-0.2,0.1-0.4,0.2-0.6
				c0.1,0.2,0.1,0.4,0.2,0.6l0.3,0.8h-0.9L73.1,6.4z"/>
			<path class="st1" d="M85.3,9.5l-1.9-5.2h-1.4L80,9.5h1.6l0.4-1.1h1.4l0.4,1.1H85.3z M83.1,7.2h-0.9l0.3-0.8
				c0.1-0.2,0.1-0.4,0.2-0.6c0.1,0.2,0.1,0.4,0.2,0.6L83.1,7.2z"/>
			<path class="st1" d="M91.1,13.3l-1.9,5.2h1.6l0.4-1.1h1.4l0.4,1.1h1.6l-1.9-5.2H91.1z M92.3,16.3h-0.9l0.3-0.8
				c0.1-0.2,0.1-0.4,0.2-0.6c0.1,0.2,0.1,0.4,0.2,0.6L92.3,16.3z"/>
			<polygon class="st1" points="90.7,9.5 90.7,8.2 90.1,8.2 90.1,5.5 90.7,5.5 90.7,4.2 90.1,4.2 88.7,4.2 88.1,4.2 88.1,5.5 
				88.7,5.5 88.7,8.2 88.1,8.2 88.1,9.5 88.7,9.5 90.1,9.5 			"/>
			<polygon class="st1" points="96.7,13.3 96.1,13.3 96.1,14.6 96.7,14.6 96.7,17.3 96.1,17.3 96.1,18.5 96.7,18.5 98.2,18.5 
				98.8,18.5 98.8,17.3 98.2,17.3 98.2,14.6 98.8,14.6 98.8,13.3 98.2,13.3 			"/>
			<polygon class="st1" points="74.3,22.4 73.7,22.4 73.7,23.7 74.3,23.7 74.3,26.3 73.7,26.3 73.7,27.6 74.3,27.6 75.8,27.6 
				76.4,27.6 76.4,26.3 75.8,26.3 75.8,23.7 76.4,23.7 76.4,22.4 75.8,22.4 			"/>
		</g>
	</g>
</g>
<g id="Layer_2" class="st2">
</g>
</svg>
