<?xml version="1.0" encoding="utf-8"?>
<!-- Generator: Adobe Illustrator 23.0.0, SVG Export Plug-In . SVG Version: 6.00 Build 0)  -->
<svg version="1.1" id="Livello_1" xmlns="http://www.w3.org/2000/svg" xmlns:xlink="http://www.w3.org/1999/xlink" x="0px" y="0px"
	 viewBox="0 0 104.5 32.5" style="enable-background:new 0 0 104.5 32.5;" xml:space="preserve">
<style type="text/css">
	.st0{opacity:0.5;}
	.st1{fill:#5D5D5D;}
	.st2{display:none;}
</style>
<g id="Layer_1">
	<g class="st0">
		<g>
			<g>
				<g>
					<path class="st1" d="M23.1,6.9c-0.1-0.2-0.2-0.3-0.5-0.3c-0.5,0-0.7,0.6-0.8,1.6h1.4C23.2,7.6,23.2,7.2,23.1,6.9z"/>
					<path class="st1" d="M0.8,0.8v14.7h56.9V0.8H0.8z M19,12.5h-1.1c-0.8,0-1.3,0-1.5,0l-0.2,0l-0.3,0c0,0,0,0-0.1,0
						c-0.1,0-0.1,0-0.2,0c-0.1,0-0.1-0.1-0.1-0.2c0-0.1,0.1-0.2,0.2-0.2h0.4c0.2,0,0.2-0.1,0.2-0.1c0,0,0.1-0.3,0.1-1.3v-2
						c0-1.1-0.1-1.4-0.1-1.5C16.2,7.1,16,7,15.7,7c-0.3,0-0.5,0.1-0.7,0.4c-0.1,0.1-0.1,0.3-0.1,0.9v3.8c0,0,0.1,0.1,0.4,0.1
						c0.2,0,0.2,0.1,0.2,0.2c0,0.1,0,0.2-0.3,0.2l-0.2,0c0,0-0.1,0-0.3,0h-0.6l-0.8,0l-0.8,0h-0.4c-0.3,0-0.3-0.1-0.3-0.2
						c0-0.1,0-0.1,0.1-0.1c0,0,0.1,0,0.2,0c0.5,0,0.5,0,0.6,0c0,0,0,0,0-0.2c0-0.1,0-0.4,0-1.6v-5c0-1.2,0-1.6,0-1.7
						c0-0.1-0.2-0.1-0.4-0.1c-0.2,0-0.4,0-0.4-0.1c0,0.5,0.1,1.1,0.2,1.8c0,0.2,0,0.3,0,0.3c0,0.1-0.1,0.2-0.2,0.2
						c-0.2,0-0.3-0.2-0.4-0.6c-0.2-0.7-0.4-1.1-0.6-1.4c-0.3-0.2-0.7-0.4-1.3-0.4H9v8.3c0,0.1,0,0.3,0.1,0.3c0.1,0,0.2,0.1,0.9,0.2
						c0.2,0,0.3,0.2,0.3,0.2c0,0.1,0,0.3-0.3,0.3c0,0-0.1,0-0.2,0c-0.1,0-0.2,0-0.3,0l-1.4,0l-2.3,0.1c-0.3,0-0.3-0.2-0.3-0.2
						c0-0.2,0.1-0.2,0.1-0.2c0,0,0.1,0,0.5,0c0.2,0,0.7-0.1,0.7-0.3c0-0.1,0-0.6,0-2.8V3.3H6.4c-0.7,0-1.2,0.2-1.5,0.4
						C4.6,4,4.4,4.5,4.3,5.1C4.2,5.6,4.1,5.8,3.9,5.8c-0.1,0-0.2-0.1-0.2-0.3c0-0.1,0-0.5,0.1-0.8C3.8,3.9,3.9,3.3,3.9,3l0-0.1h1.3
						c0,0,0.3,0,1,0c0.6,0,1.4,0,2.3,0c0.5,0,1,0,1.4,0c0.4,0,0.8,0,1.1,0c0.3,0,0.5,0,0.7,0l0.1,0l0,0.1c0,0.1,0,0.1,0,0.2
						c0.1-0.1,0.3-0.1,0.5-0.1c0.7,0,1.4-0.2,2-0.4c0.1,0,0.2-0.1,0.3-0.1c0.2,0,0.3,0.2,0.3,0.9V7c0.2-0.2,0.4-0.4,0.6-0.5
						c0.3-0.1,0.6-0.2,1-0.2c1,0,1.6,0.4,1.8,1.2c0.1,0.2,0.1,0.6,0.1,1.2v3.2c0,0.3,0.1,0.3,0.1,0.3c0,0,0.1,0.1,0.5,0.1
						c0.2,0,0.3,0.1,0.3,0.2C19.3,12.5,19.2,12.5,19,12.5z M24.8,11.6c-0.5,0.7-1.2,1.1-2.1,1.1c-0.9,0-1.7-0.3-2.4-0.9
						c-0.6-0.6-0.9-1.4-0.9-2.3c0-0.9,0.3-1.7,0.9-2.3c0.6-0.6,1.3-0.9,2.2-0.9c0.6,0,1.1,0.1,1.6,0.4c0.5,0.3,0.8,0.7,0.9,1.3
						c0,0.2,0.1,0.4,0.1,0.6l0,0.1l-0.1,0c-0.2,0-1.1,0-2.6,0.1c-0.2,0-0.5,0-0.8,0c0,0.3,0,0.5,0,0.7c0,1,0.2,1.8,0.6,2.2
						c0.2,0.2,0.5,0.4,0.9,0.4c0.3,0,0.6-0.1,0.9-0.3c0.3-0.2,0.5-0.5,0.6-0.8c0.1-0.2,0.2-0.3,0.3-0.3c0.1,0,0.2,0.1,0.2,0.2
						C25.2,11,25,11.3,24.8,11.6z M41.8,8.1c-0.2,0.2-0.4,0.3-0.7,0.3c-0.7,0-0.9-0.4-0.9-0.8c0-0.2,0.1-0.4,0.2-0.5c0,0,0,0,0,0
						s0,0-0.1,0c-0.3,0-0.4,0.2-0.6,0.6c-0.1,0.3-0.1,0.9-0.1,2v2.2c0,0.2,0,0.3,0.2,0.3c0.1,0,0.3,0,0.5,0c0.2,0,0.3,0.1,0.3,0.2
						c0,0.1-0.1,0.2-0.2,0.2h-3.6c-0.1,0-0.2,0-0.2-0.1c0,0-0.1,0.1-0.1,0.1c0,0-0.1,0-0.6,0c-0.1,0-0.3,0-0.6,0c-0.7,0-1.1,0-1.4,0
						c-0.3,0-0.6,0-0.8,0c-0.5,0-0.8,0-0.9,0c-0.1,0-0.5,0-0.5-0.3c0-0.2,0.2-0.3,0.9-0.3c0.1,0,0.2,0,0.3,0c0,0,0.1,0,0.1,0
						c0,0,0-0.1-0.2-0.5l-0.3-0.9c-0.1-0.2-0.2-0.6-0.3-1h-1.2c-0.4,0-0.7,0-1.1,0c-0.1,0.2-0.2,0.6-0.4,1.1l-0.3,0.9
						c0,0.1-0.1,0.2-0.1,0.3c0,0,0,0.1,0.2,0.2c0,0,0.1,0,0.7,0c0.3,0,0.3,0.1,0.3,0.2c0,0.1,0,0.2-0.4,0.2h-2.4
						c-0.3,0-0.3-0.2-0.3-0.2c0-0.2,0.2-0.2,0.5-0.2c0.4,0,0.6-0.1,0.6-0.2c0.1-0.1,0.2-0.3,0.5-1.1c0.2-0.5,0.4-1.1,0.8-2l1.7-4.6
						c0.1-0.2,0.2-0.5,0.3-0.9c0.1-0.5,0.2-0.5,0.3-0.5c0.1,0,0.2,0,0.4,0.7c0.2,0.5,1,2.7,2.4,6.4c0.2,0.5,0.4,1,0.5,1.5
						c0.2,0.5,0.3,0.7,0.4,0.7c0.1,0,0.2,0.1,0.6,0.1c0,0,0.1,0,0.1,0c0.1,0,0.2,0.1,0.3,0.1c0,0,0.1,0,0.2,0c0.5,0,0.6-0.1,0.6-0.1
						c0,0,0.1-0.1,0.1-0.5l0-3.7c0-0.4-0.1-0.5-0.1-0.6c0-0.1-0.2-0.1-0.5-0.2c-0.4,0-0.4,0-0.4-0.1c0,0-0.1-0.1-0.1-0.2
						c0-0.1,0.1-0.2,0.2-0.2h0.5c0.7,0,1.4-0.1,2.2-0.4l0.1,0l0,0.1c0,0.2,0,0.4,0,0.7V7c0.2-0.2,0.3-0.4,0.4-0.5
						c0.2-0.2,0.6-0.3,0.9-0.3c0.3,0,0.6,0.1,0.8,0.3C42,6.8,42.1,7,42.1,7.4C42.1,7.7,42,7.9,41.8,8.1z M46.6,12
						c-0.5,0.4-1.1,0.7-1.9,0.7c-0.8,0-1.3-0.2-1.5-0.6C43,12,43,11.8,43,11.7c0-0.1,0-0.4,0-0.9v-0.7c0-0.2,0-0.4,0-0.5l0-0.3
						l0-2.2c0-0.2,0-0.2,0-0.2c0,0-0.1,0-0.3,0c-0.2,0-0.5,0-0.5-0.2c0-0.1,0-0.2,0.2-0.2c0.8,0,1.5-0.5,2.1-1.4
						c0.1-0.2,0.2-0.2,0.3-0.2c0.1,0,0.2,0,0.2,0.3c0,1,0,1.2,0.1,1.2c0,0,0.1,0.1,0.6,0.1c0.4,0,0.6,0,0.8,0c0,0,0.1,0,0.1,0
						c0.1,0,0.2,0.1,0.2,0.2c0,0.2-0.1,0.3-0.3,0.3c-0.4,0-0.8,0-1.2,0h0V7c0,2.4,0,3.9,0,4.3c0.1,0.5,0.2,0.7,0.6,0.7
						c0.1,0,0.3-0.1,0.7-0.4c0.2-0.2,0.3-0.2,0.4-0.2c0.1,0,0.2,0.1,0.2,0.2C46.9,11.7,46.8,11.9,46.6,12z"/>
					<path class="st1" d="M31.3,6.6c0-0.1-0.1-0.3-0.2-0.5C31,6.5,30.8,7,30.7,7.5c-0.2,0.7-0.4,1.1-0.5,1.5h2c0,0,0-0.1,0-0.1
						C31.8,7.8,31.5,7.1,31.3,6.6z"/>
				</g>
				<g>
					<path class="st1" d="M17.3,27.1c0,0.8,0.3,0.8,0.6,0.8c0.2,0,0.3-0.1,0.4-0.3c0.1-0.3,0.1-0.7,0.1-1.3v-0.5
						C17.8,25.9,17.3,26.4,17.3,27.1z"/>
					<path class="st1" d="M51.7,19.6c-0.4,0-0.6,0.1-0.7,0.1c-0.1,0.1-0.2,0.3-0.2,0.5v7c0,0.8,0.1,0.9,0.1,0.9c0,0,0.2,0.1,0.7,0.1
						c1.9,0,2.8-1.5,2.8-4.5c0-1.5-0.2-2.6-0.7-3.3C53.3,19.9,52.6,19.6,51.7,19.6z"/>
					<path class="st1" d="M38.4,23.2c-0.1-0.2-0.3-0.3-0.5-0.3c-0.5,0-0.8,0.5-0.9,1.6h1.5C38.5,23.9,38.5,23.4,38.4,23.2z"/>
					<path class="st1" d="M59.8,27.1c0,0.8,0.3,0.8,0.6,0.8c0.2,0,0.3-0.1,0.4-0.3c0.1-0.3,0.1-0.7,0.1-1.3v-0.5
						C60.2,25.9,59.8,26.4,59.8,27.1z"/>
					<path class="st1" d="M0.8,17.2v14.5h62.9c-0.1-0.1-0.1-0.3-0.1-0.5c0-0.4,0.2-0.8,0.9-0.8c0.2,0,0.4,0.1,0.5,0.2
						c0,0,0.1,0.1,0.3,0.4c0,0,0.1,0.1,0.2,0.1c0.1,0,0.3-0.1,0.4-0.4c0.2-0.3,0.4-0.9,0.7-1.7c-0.1-0.2-0.2-0.5-0.4-0.9
						c-0.3-0.7-0.7-1.7-1.1-2.7c-0.1-0.3-0.4-0.9-0.8-1.8c-0.2-0.4-0.3-0.5-0.3-0.5c0,0-0.2-0.1-0.6-0.1v0c-0.2,0-0.3-0.2-0.3-0.2
						s0-0.2,0.3-0.2h3.5c0.3,0,0.3,0.2,0.3,0.2c0,0.2-0.3,0.3-0.5,0.3c0,0-0.1,0-0.1,0l-0.1,0c-0.2,0-0.3,0-0.3,0.1
						c0,0.1,0,0.2,0.1,0.4c0.1,0.3,0.2,0.4,0.2,0.5c0.4,1.1,0.8,1.9,1.1,2.6c1-2.5,1.2-3.2,1.2-3.4l0,0c0,0-0.1,0-0.2,0
						c-0.6,0-0.8-0.1-0.8-0.2c0-0.1,0.1-0.2,0.3-0.2c0.1,0,0.2,0,0.3,0c0.2,0,0.4,0,0.7,0c0,0,0.2,0,0.4,0c0.3,0,0.4-0.1,0.5-0.1H70
						c0.2,0,0.2,0.1,0.2,0.2c0,0.2-0.1,0.2-0.1,0.3c0,0-0.1,0-0.4,0c-0.2,0-0.3,0-0.4,0l-0.1,0.1l-0.2,0.5c-0.1,0.2-0.3,0.7-0.5,1.3
						c0,0-0.2,0.5-0.6,1.7c-0.9,2.6-1.5,4.1-1.8,4.6c-0.1,0.2-0.2,0.3-0.3,0.5h10.8V17.2H0.8L0.8,17.2z M14.7,28.8H10
						c-0.3,0-0.3-0.2-0.3-0.2s0-0.2,0.3-0.2h0.6c0.5,0,0.6-0.1,0.7-0.2c0,0,0.1-0.1,0.1-0.8v-6.8c-0.4,0.7-0.6,1.7-1,3L9,27.8
						c-0.2,0.7-0.3,0.9-0.5,0.9c-0.2,0-0.3-0.3-0.4-0.5l-0.9-2.6c-0.2-0.6-0.6-2-1.6-4.6v6.4c0,0.5,0,0.7,0,0.7c0,0,0,0.1,0.1,0.1
						c0.1,0.1,0.3,0.1,0.6,0.1h0.1c0,0,0.1,0,0.1,0c0.1,0,0.5,0,0.5,0.3c0,0.1,0,0.2-0.3,0.2l-1.3-0.1c-0.2,0-0.5,0-0.7,0
						c-0.4,0-0.6,0-0.8,0c-0.3,0-0.4-0.1-0.4-0.2c0-0.1,0.1-0.2,0.4-0.2c0.5,0,0.6,0,0.7,0c0.2,0,0.4-0.1,0.4-0.2
						c0-0.1,0.1-0.2,0.1-0.7v-6.6c0-1-0.1-1.2-0.1-1.2c0,0-0.2-0.1-1-0.1c-0.3,0-0.3-0.2-0.3-0.3c0-0.1,0-0.3,0.4-0.3h3.1
						c0,0,0.1,0,0.2,0.1c0,0,0.1,0.1,0.1,0.1c0.7,2.3,1.4,4.3,1.9,6l1.8-6c0,0,0.1-0.1,0.1-0.1h3.5c0.3,0,0.4,0.1,0.4,0.3
						c0,0.1-0.1,0.3-0.3,0.3h-0.3c-0.5,0-0.7,0-0.8,0.1c-0.1,0.1-0.2,0.2-0.2,0.4v7.7c0,0.3,0.1,0.4,0.2,0.5c0.2,0,0.4,0.1,0.8,0.1
						c0,0,0.1,0,0.1,0c0.2,0,0.6,0,0.6,0.2C15.1,28.7,15.1,28.8,14.7,28.8z M18.9,28.6c-0.2-0.1-0.3-0.3-0.3-0.6
						c-0.4,0.6-1,0.9-1.7,0.9c-0.4,0-0.8-0.1-1.1-0.4c-0.3-0.3-0.4-0.6-0.4-1c0-1.2,1.1-1.9,3-2.1v-0.2c0-1.1,0-1.5,0-1.7l0-0.1
						c-0.1-0.4-0.4-0.6-0.9-0.6c-0.3,0-0.5,0.1-0.7,0.2c-0.2,0.1-0.2,0.3-0.2,0.4c0,0,0,0,0.2,0.1c0.3,0,0.6,0.2,0.6,0.7
						c0,0.2-0.1,0.4-0.2,0.6c-0.2,0.2-0.4,0.2-0.6,0.2c-0.3,0-0.6-0.1-0.8-0.3c-0.2-0.2-0.3-0.4-0.3-0.7c0-0.4,0.2-0.8,0.7-1.2
						c0.4-0.3,1-0.5,1.7-0.5c1,0,1.7,0.2,2.2,0.5c0.3,0.3,0.5,0.8,0.5,1.6v2.3c0,0.6,0,0.7,0,0.8c0.1,0.5,0.2,0.5,0.3,0.5
						c0.1,0,0.3-0.1,0.5-0.3c0.2-0.2,0.4-0.1,0.4,0.1c0,0.1-0.1,0.2-0.3,0.4c-0.4,0.4-1,0.6-1.6,0.6C19.4,28.9,19.1,28.8,18.9,28.6z
						 M26.1,24.6c-0.7,0-0.9-0.4-0.9-0.8c0-0.2,0.1-0.4,0.2-0.5c0,0,0,0,0,0c0,0,0,0-0.1,0c-0.3,0-0.5,0.2-0.6,0.6
						c-0.1,0.2-0.2,0.7-0.2,2V28c0,0.2,0.1,0.3,0.3,0.3c0.1,0,0.4,0,0.6,0c0.2,0,0.3,0.1,0.3,0.2c0,0.1-0.1,0.2-0.2,0.2h-3.7
						c-0.3,0-0.3-0.2-0.3-0.2c0-0.1,0-0.2,0.3-0.2c0.5,0,0.6-0.1,0.6-0.1c0,0,0.1-0.1,0.1-0.5l0-3.7c0-0.4-0.1-0.5-0.1-0.6
						c-0.1-0.1-0.2-0.1-0.5-0.2c-0.4,0-0.4,0-0.4,0c0,0-0.1,0-0.1-0.2c0-0.1,0.1-0.2,0.2-0.2H22c0.7,0,1.5-0.2,2.3-0.4
						c0,0,0.1,0,0.1,0c0,0,0,0,0,0.1c0.1,0.2,0.1,0.4,0.1,0.7v0.1c0.2-0.2,0.3-0.4,0.4-0.5c0.2-0.2,0.6-0.3,0.9-0.3
						c0.3,0,0.6,0.1,0.9,0.3c0.2,0.2,0.3,0.5,0.3,0.8c0,0.3-0.1,0.5-0.3,0.7C26.6,24.5,26.3,24.6,26.1,24.6z M34.4,28.8h-3
						c-0.3,0-0.3-0.1-0.3-0.2c0-0.2,0.3-0.2,0.5-0.2c0.1,0,0.1,0,0.1,0c0,0-0.1-0.2-0.6-1c-0.1-0.2-0.3-0.4-0.5-0.8
						c-0.1-0.2-0.2-0.4-0.4-0.7v1.6c0,0.6,0,0.8,0,0.8c0,0,0,0.1,0.2,0.1h0.3c0.2,0,0.3,0.1,0.3,0.2c0,0.1-0.1,0.2-0.3,0.2h-3.3
						c-0.3,0-0.3-0.2-0.3-0.2c0-0.2,0.3-0.2,0.5-0.2c0.3,0,0.4,0,0.5,0c0,0,0.1-0.2,0.1-0.6v-7.2c0-0.5-0.1-0.6-0.1-0.6
						c0,0-0.1-0.1-0.5-0.1c0,0-0.1,0-0.1,0l0,0c-0.3,0-0.4-0.1-0.4-0.2c0-0.2,0.1-0.2,0.1-0.2c0,0,0.1,0,0.4,0c0.9,0,1.6-0.1,2-0.3
						c0.1-0.1,0.3-0.1,0.4-0.1c0.1,0,0.1,0,0.1,0.1c0,0.1,0.1,0.4,0.1,0.8l0.1,1.5V25c0-0.1,0.3-0.3,0.5-0.6
						c0.1-0.2,0.3-0.4,0.6-0.7c0.4-0.4,0.5-0.6,0.6-0.7c-0.1,0-0.2,0-0.5,0c-0.1,0-0.4,0-0.4-0.2c0,0,0-0.2,0.3-0.2h2.2
						c0.1,0,0.4,0,0.4,0.2c0,0.1-0.2,0.2-0.7,0.3c-0.2,0-0.4,0.1-0.6,0.2c-0.3,0.3-0.6,0.6-1.1,1.1l1.6,2.3c0.1,0.1,0.2,0.3,0.4,0.6
						c0,0,0.1,0.1,0.2,0.3l0.4,0.5c0.1,0.2,0.2,0.2,0.2,0.3c0,0,0.1,0,0.3,0c0.3,0,0.4,0.1,0.4,0.2C35,28.8,34.8,28.8,34.4,28.8z
						 M40.2,27.8c-0.5,0.7-1.3,1.1-2.2,1.1c-1,0-1.8-0.3-2.4-0.9c-0.6-0.6-1-1.4-1-2.3c0-0.9,0.3-1.7,0.9-2.3
						c0.6-0.6,1.4-0.9,2.3-0.9c0.6,0,1.2,0.1,1.6,0.4c0.5,0.3,0.8,0.7,1,1.3c0,0.2,0.1,0.4,0.1,0.6c0,0.1,0,0.1-0.1,0.1
						c-0.2,0-1.1,0-2.6,0.1c-0.2,0-0.5,0-0.8,0c0,0.3,0,0.5,0,0.7c0,1,0.2,1.8,0.7,2.2c0.3,0.2,0.6,0.4,0.9,0.4
						c0.3,0,0.6-0.1,0.9-0.3c0.3-0.2,0.5-0.5,0.7-0.8c0.1-0.2,0.2-0.3,0.3-0.3c0.1,0,0.2,0.1,0.2,0.2C40.6,27.2,40.4,27.5,40.2,27.8
						z M45.4,28.3c-0.5,0.4-1.2,0.7-2,0.7c-0.8,0-1.3-0.2-1.6-0.6c-0.1-0.2-0.2-0.3-0.2-0.4c0-0.1,0-0.4,0-0.9v-0.7
						c0-0.2,0-0.4,0-0.5l0-0.3l0-2.2c0-0.2,0-0.2,0-0.2c0,0-0.1,0-0.4,0c-0.2,0-0.5,0-0.5-0.2c0-0.1,0-0.2,0.2-0.2
						c0.9,0,1.6-0.5,2.2-1.4c0.1-0.2,0.2-0.2,0.3-0.2c0.1,0,0.2,0,0.2,0.3c0,1,0.1,1.2,0.1,1.2c0,0,0.1,0.1,0.6,0.1
						c0.4,0,0.7,0,0.8,0c0.1,0,0.3,0,0.3,0.2c0,0.2-0.1,0.3-0.3,0.3c-0.4,0-0.8,0-1.3,0h-0.1v0.1c0,2.4,0,3.9,0,4.3
						c0.1,0.5,0.3,0.7,0.7,0.7c0.1,0,0.3-0.1,0.7-0.4c0.2-0.2,0.3-0.2,0.4-0.2c0.1,0,0.2,0.1,0.2,0.2C45.7,27.9,45.6,28.1,45.4,28.3
						z M56.4,26.6c-0.5,0.8-1.3,1.4-2.3,1.8c-0.7,0.3-1.7,0.4-3,0.4h-3.5c-0.3,0-0.3-0.2-0.3-0.2c0-0.2,0.3-0.3,0.4-0.3
						c0,0,0,0,0.1,0l0.1,0c0.4,0,0.5-0.1,0.6-0.1c0,0,0-0.1,0-0.8v-7c0-0.5,0-0.6,0-0.7c-0.1-0.1-0.2-0.2-0.5-0.2l-0.1,0
						c-0.1,0-0.2,0-0.3-0.1c-0.1,0-0.1-0.1-0.1-0.2c0-0.1,0-0.3,0.3-0.3h0.3c0.5,0,1.1,0,1.7,0c0.8,0,1.3,0,1.8,0
						c1.7,0,3.1,0.4,4,1.1c1.2,0.9,1.8,2.1,1.8,3.7C57.1,24.9,56.9,25.8,56.4,26.6z M63.3,28.1c0.1,0,0.3-0.1,0.5-0.3
						c0.2-0.2,0.4-0.1,0.4,0.1c0,0.1-0.1,0.2-0.3,0.4c-0.4,0.4-1,0.6-1.6,0.6c-0.4,0-0.7-0.1-0.9-0.3c-0.2-0.1-0.3-0.3-0.3-0.6
						c-0.4,0.6-1,0.9-1.7,0.9c-0.4,0-0.8-0.1-1.1-0.4c-0.3-0.3-0.4-0.6-0.4-1c0-1.2,1.1-1.9,3.1-2.1v-0.2c0-1.1,0-1.5-0.1-1.6l0-0.1
						c-0.1-0.4-0.4-0.6-0.9-0.6c-0.3,0-0.5,0.1-0.7,0.2c-0.2,0.1-0.2,0.3-0.2,0.4c0,0,0,0,0.2,0.1c0.3,0,0.6,0.2,0.6,0.7
						c0,0.2-0.1,0.4-0.2,0.6c-0.2,0.2-0.4,0.2-0.6,0.2c-0.3,0-0.6-0.1-0.8-0.3c-0.2-0.2-0.3-0.4-0.3-0.7c0-0.4,0.2-0.8,0.7-1.2
						c0.4-0.3,1-0.5,1.7-0.5c1,0,1.7,0.2,2.1,0.5c0.3,0.3,0.5,0.8,0.5,1.6v2.3c0,0.5,0,0.7,0,0.8C63,28.1,63.2,28.1,63.3,28.1z"/>
				</g>
			</g>
		</g>
		<g>
			<path class="st1" d="M83.2,21.6c0.4,0,0.7,0.1,0.9,0.2c0.2,0.1,0.4,0.2,0.6,0.4c0.2,0.2,0.3,0.4,0.3,0.6c0.1,0.2,0.1,0.4,0.1,0.7
				c0,0.2,0,0.5-0.1,0.7c-0.1,0.2-0.2,0.4-0.3,0.6c-0.2,0.2-0.4,0.3-0.6,0.4c-0.3,0.1-0.6,0.2-0.9,0.2h-1.3v2h-1.3v-5.7L83.2,21.6
				L83.2,21.6z M82.9,24.3c0.1,0,0.3,0,0.4,0c0.1,0,0.2-0.1,0.4-0.1c0.1-0.1,0.2-0.1,0.2-0.3c0.1-0.1,0.1-0.3,0.1-0.4s0-0.3-0.1-0.4
				c-0.1-0.1-0.1-0.2-0.2-0.3s-0.2-0.1-0.4-0.1c-0.1,0-0.3,0-0.4,0h-1v1.7L82.9,24.3L82.9,24.3z"/>
			<path class="st1" d="M88.2,21.6l2.1,5.7h-1.3l-0.4-1.3h-2.1l-0.4,1.3h-1.3l2.2-5.7H88.2z M88.3,25.1L87.6,23h0l-0.7,2.1H88.3z"/>
			<path class="st1" d="M93.9,21.6c0.3,0,0.5,0,0.7,0.1c0.2,0.1,0.4,0.2,0.5,0.3c0.1,0.1,0.3,0.3,0.3,0.5c0.1,0.2,0.1,0.4,0.1,0.6
				c0,0.3-0.1,0.6-0.2,0.9s-0.4,0.4-0.7,0.6v0c0.2,0,0.3,0.1,0.4,0.2c0.1,0.1,0.2,0.2,0.2,0.3c0.1,0.1,0.1,0.3,0.1,0.4
				c0,0.1,0,0.3,0.1,0.4c0,0.1,0,0.2,0,0.3c0,0.1,0,0.2,0,0.4c0,0.1,0,0.2,0.1,0.4c0,0.1,0.1,0.2,0.1,0.3h-1.3
				c-0.1-0.2-0.1-0.4-0.1-0.6c0-0.3,0-0.5-0.1-0.7c0-0.3-0.1-0.5-0.3-0.7c-0.1-0.1-0.4-0.2-0.7-0.2h-1.3v2.2h-1.3v-5.7L93.9,21.6
				L93.9,21.6z M93.5,24.2c0.3,0,0.5-0.1,0.6-0.2c0.1-0.1,0.2-0.3,0.2-0.6c0-0.3-0.1-0.5-0.2-0.6c-0.1-0.1-0.4-0.2-0.6-0.2h-1.4v1.6
				C92.1,24.2,93.5,24.2,93.5,24.2z"/>
			<path class="st1" d="M97.9,21.6v5.7h-1.3v-5.7H97.9z"/>
			<path class="st1" d="M99.9,25.9c0.1,0.1,0.2,0.2,0.3,0.3c0.1,0.1,0.2,0.1,0.4,0.2c0.2,0,0.3,0.1,0.5,0.1c0.1,0,0.2,0,0.4,0
				s0.2-0.1,0.4-0.1c0.1-0.1,0.2-0.1,0.3-0.2c0.1-0.1,0.1-0.2,0.1-0.4c0-0.2-0.1-0.3-0.1-0.4c-0.1-0.1-0.2-0.2-0.4-0.2
				c-0.2-0.1-0.3-0.1-0.5-0.2c-0.2,0-0.4-0.1-0.6-0.2c-0.2-0.1-0.4-0.1-0.6-0.2c-0.2-0.1-0.4-0.2-0.5-0.3c-0.2-0.1-0.3-0.3-0.4-0.5
				c-0.1-0.2-0.1-0.4-0.1-0.7c0-0.3,0.1-0.5,0.2-0.8c0.1-0.2,0.3-0.4,0.5-0.5s0.4-0.2,0.7-0.3s0.5-0.1,0.8-0.1c0.3,0,0.6,0,0.9,0.1
				c0.3,0.1,0.5,0.2,0.7,0.3c0.2,0.1,0.4,0.3,0.5,0.6c0.1,0.2,0.2,0.5,0.2,0.8H102c0-0.2,0-0.3-0.1-0.4c-0.1-0.1-0.1-0.2-0.2-0.3
				c-0.1-0.1-0.2-0.1-0.3-0.1c-0.1,0-0.3,0-0.4,0c-0.1,0-0.2,0-0.3,0c-0.1,0-0.2,0.1-0.3,0.1s-0.1,0.1-0.2,0.2
				c-0.1,0.1-0.1,0.2-0.1,0.3c0,0.1,0,0.2,0.1,0.3c0,0.1,0.1,0.1,0.3,0.2c0.1,0.1,0.3,0.1,0.5,0.2c0.2,0.1,0.5,0.1,0.9,0.2
				c0.1,0,0.3,0.1,0.4,0.1c0.2,0.1,0.4,0.1,0.6,0.3c0.2,0.1,0.3,0.3,0.5,0.5c0.1,0.2,0.2,0.5,0.2,0.8c0,0.3-0.1,0.5-0.2,0.7
				c-0.1,0.2-0.3,0.4-0.5,0.6c-0.2,0.2-0.4,0.3-0.7,0.4c-0.3,0.1-0.6,0.1-1,0.1c-0.3,0-0.6,0-0.9-0.1s-0.6-0.2-0.8-0.4
				s-0.4-0.4-0.5-0.6c-0.1-0.3-0.2-0.6-0.2-0.9h1.2C99.8,25.6,99.9,25.8,99.9,25.9z"/>
		</g>
	</g>
</g>
<g id="Layer_2" class="st2">
</g>
</svg>
