<?xml version="1.0" encoding="utf-8"?>
<!-- Generator: Adobe Illustrator 23.0.0, SVG Export Plug-In . SVG Version: 6.00 Build 0)  -->
<svg version="1.1" id="Livello_1" xmlns="http://www.w3.org/2000/svg" xmlns:xlink="http://www.w3.org/1999/xlink" x="0px" y="0px"
	 viewBox="0 0 79.9 32.5" style="enable-background:new 0 0 79.9 32.5;" xml:space="preserve">
<style type="text/css">
	.st0{opacity:0.5;}
	.st1{fill:#5D5D5D;}
	.st2{display:none;}
</style>
<g id="Layer_1">
	<g class="st0">
		<path class="st1" d="M11.7,9.4c0,2.8,0,5.5,0,8.3c0,0.3-0.2,0.5-0.4,0.6c-0.6,0.3-1.3,0.6-2,1c-0.2,0.1-0.4,0.2-0.7,0.3
			c-0.2,0.1-0.4-0.1-0.4-0.4c0-0.3,0-0.6,0-0.9c0-4.6,0-9.1,0-13.7c0-0.5,0-1.1,0.2-1.6c0.2-0.8,0.7-1.4,1.4-1.8
			c0.4-0.2,0.9-0.4,1.4-0.5c0.4-0.1,0.5,0,0.5,0.4C11.7,3.9,11.7,6.6,11.7,9.4z"/>
		<path class="st1" d="M15.9,13.1c0,0.7-0.2,1.2-0.6,1.7c-0.7,0.9-1.5,1.7-2.4,2.4c-0.1,0.1-0.2,0.1-0.3,0.1c-0.1,0-0.1-0.2-0.1-0.3
			c0-2.5,0-5,0-7.4c0-0.8,0-1.5,0-2.3c0-0.6,0.1-1.1,0.3-1.6c0.3-0.7,0.8-1.3,1.5-1.6C14.6,4,15,3.9,15.4,3.8
			c0.3-0.1,0.5,0.1,0.5,0.4C15.9,5,15.8,12,15.9,13.1z"/>
		<path class="st1" d="M7.3,14.2c0,1.8,0,3.6,0,5.4c0,0.2-0.1,0.4-0.3,0.4c-0.6,0.1-1.2,0.3-1.9,0.4c-0.3,0.1-0.6,0.1-0.8,0.1
			c-0.3,0-0.4-0.1-0.4-0.4c0-2.9,0-5.7,0-8.6c0-1.1,0.6-2,1.5-2.6c0.4-0.3,0.9-0.5,1.4-0.5c0.3,0,0.4,0.1,0.4,0.4
			C7.3,10.5,7.3,12.3,7.3,14.2L7.3,14.2z"/>
		<path class="st1" d="M5.2,21.9c-0.6,0-1.3,0-1.9-0.1c-0.6-0.1-1.3-0.4-1.9-0.5c-0.1,0-0.1-0.1-0.2-0.2c0,0,0-0.1,0-0.2
			c0,0,0.1-0.1,0.2-0.1c1.4,0.4,2.7,0.3,4.1,0.1c0.6-0.1,1.2-0.2,1.9-0.4c0.5-0.1,0.9-0.2,1.4-0.4c0.6-0.2,1.1-0.5,1.6-0.7
			c0.5-0.3,1.1-0.6,1.6-0.8c1-0.6,1.9-1.2,2.6-2c0.6-0.6,1.1-1.2,1.5-1.9c0.7-1.1,1-2.4,0.6-3.7c-0.1-0.3-0.3-0.5-0.4-0.8
			c0-0.1-0.1-0.2-0.1-0.2c0-0.2,0-0.3,0.1-0.5c0.1,0,0.3,0,0.4,0.1c0.6,0.4,1.2,0.8,1.5,1.5c0.5,0.9,0.6,1.8,0.3,2.8
			c-0.5,1.6-1.5,2.9-2.7,4c-0.9,0.8-1.9,1.5-3,2.1c-0.6,0.3-1.3,0.6-2,0.9c-0.7,0.3-1.4,0.5-2.1,0.7c-0.9,0.2-1.9,0.4-2.9,0.4
			C5.5,21.8,5.3,21.8,5.2,21.9C5.2,21.8,5.2,21.9,5.2,21.9z"/>
		<path class="st1" d="M11.7,24.6c0,1,0,1.9,0,2.9c0,1-0.5,1.8-1.3,2.5c-0.5,0.4-1,0.6-1.6,0.7c-0.4,0.1-0.6-0.1-0.6-0.5
			c0-0.1,0-0.3,0-0.4c0-2.3,0-4.5,0-6.8c0-0.8,0-0.8,0.8-1.1c0.7-0.2,1.4-0.5,2.2-0.7c0.4-0.1,0.5-0.1,0.5,0.4
			C11.7,22.5,11.7,23.6,11.7,24.6C11.7,24.6,11.7,24.6,11.7,24.6z"/>
		<path class="st1" d="M3.9,25.3c0-0.8,0-1.7,0-2.5c0-0.3,0.1-0.4,0.4-0.4c0.8,0.1,1.7,0,2.5-0.1c0.4,0,0.5,0.1,0.5,0.5
			c0,0.7,0,1.4,0,2.1c0,0.7-0.1,1.3-0.4,1.8c-0.4,0.5-0.8,1-1.5,1.2c-0.3,0.1-0.7,0.2-1,0.3c-0.4,0-0.5-0.1-0.4-0.4
			C4,26.9,4,26.1,3.9,25.3C3.9,25.3,3.9,25.3,3.9,25.3z"/>
		<path class="st1" d="M12.5,22.8c0-0.6,0-1.3,0-1.9c0-0.2,0.1-0.4,0.2-0.4c0.4-0.2,0.8-0.4,1.1-0.6c0.5-0.3,1-0.7,1.5-1
			c0.1-0.1,0.1-0.1,0.2-0.2c0.2-0.1,0.4,0,0.4,0.2c0,1,0,2.1-0.1,3.1c0,1.2-0.6,2.1-1.7,2.7c-0.3,0.2-0.7,0.3-1.1,0.4
			c-0.4,0.1-0.6-0.1-0.6-0.5C12.5,24,12.5,23.4,12.5,22.8C12.5,22.8,12.5,22.8,12.5,22.8z"/>
		<g>
			<path class="st1" d="M78.4,12.6c0,1.2,0,2.3,0,3.5c0,0.2-0.1,0.3-0.2,0.5c-0.1,0.2-0.2,0.3-0.2,0.5c-0.2,0.8-0.6,1.4-1.1,2
				c-0.6,0.6-1.3,1-2.2,1.3c-1.2,0.4-2.4,0.3-3.6,0.2c-1.6-0.1-2.9-0.9-3.8-2.3c-0.6-1-0.8-2-0.8-3.1c0-1.6,0-3.2,0-4.8
				c0-0.9,0.1-1.9,0.5-2.7c0.4-0.9,0.9-1.6,1.8-2.1c0.9-0.5,1.9-0.7,2.9-0.7c0.5,0,1,0,1.6,0c0.9,0,1.8,0.2,2.6,0.6
				c0.7,0.3,1.3,0.8,1.7,1.5c0.2,0.4,0.5,0.8,0.6,1.3c0.1,0.2,0.2,0.4,0.3,0.6c0.1,0.1,0.1,0.2,0.1,0.4
				C78.4,10.2,78.4,11.4,78.4,12.6L78.4,12.6z M76.7,12.6L76.7,12.6c0-0.7,0-1.4,0-2.1c0-1.1-0.1-2.2-0.8-3.1
				c-0.4-0.5-0.8-0.8-1.4-1c-0.5-0.1-1-0.2-1.5-0.2c-0.9-0.1-1.8-0.1-2.7,0.2c-0.6,0.2-1.1,0.5-1.4,0.9C68.3,8.1,68,9,68,10
				c0,1.8,0,3.5,0,5.3c0,0.8,0.2,1.5,0.6,2.1c0.6,0.9,1.4,1.5,2.5,1.6c1.1,0.1,2.1,0.2,3.1-0.2c0.7-0.2,1.3-0.6,1.7-1.2
				c0.6-0.8,0.7-1.7,0.7-2.6C76.7,14.2,76.7,13.4,76.7,12.6z"/>
			<path class="st1" d="M33.8,20.5c-1.2,0-2.5,0-3.7,0c-0.7,0-1.3-0.6-1.3-1.3c0-4.4,0-8.8,0-13.1c0-0.7,0.5-1.4,1.3-1.3
				c2.4,0,4.9,0,7.3,0c0.3,0,0.5,0.1,0.7,0.2c0.4,0.3,0.4,1-0.2,1.2c-0.2,0.1-0.4,0.1-0.6,0.1c-2.2,0-4.5,0-6.7,0
				c-0.2,0-0.3,0.1-0.3,0.3c0,0.1,0,0.2,0,0.4c0,1.5,0,2.9,0,4.4c0,0.4,0,0.4,0.4,0.4c1.8,0,3.7,0,5.5,0c0.5,0,0.8,0.2,0.8,0.6
				c0,0.5-0.3,0.8-0.7,0.8c-0.6,0-1.1,0-1.7,0c-1.3,0-2.6,0-3.9,0c-0.3,0-0.4,0.1-0.4,0.4c0,1.7,0,3.5,0,5.2c0,0.5,0,0.5,0.5,0.5
				c2.2,0,4.5,0,6.7,0c0.5,0,0.8,0.3,0.8,0.6c0.1,0.5-0.3,0.8-0.8,0.8C36.3,20.5,35.1,20.5,33.8,20.5z"/>
			<path class="st1" d="M53.8,12.8c0-2.2,0-4.5,0-6.7c0-0.5,0.2-0.9,0.7-1.2c0.1-0.1,0.3-0.1,0.4-0.1c1.8,0,3.6,0,5.4,0
				c0.7,0,1.3,0.3,1.9,0.7c0.6,0.4,1,0.8,1.4,1.4c0.5,0.8,0.6,1.6,0.5,2.5c-0.1,1.1-0.7,2.1-1.6,2.8c-0.7,0.6-1.6,0.9-2.5,0.9
				c-1.4,0-2.9,0-4.3,0c-0.5,0-0.5,0-0.5,0.5c0,1.8,0,3.7,0,5.5c0,0.3,0,0.6,0,0.9c-0.1,0.4-0.4,0.6-0.8,0.6c-0.3,0-0.6-0.3-0.7-0.7
				c0-0.2,0-0.5,0-0.7C53.8,17,53.8,14.9,53.8,12.8C53.8,12.8,53.8,12.8,53.8,12.8z M57.9,11.7L57.9,11.7c0.7,0,1.5,0,2.2,0
				c0.4,0,0.8-0.2,1.2-0.4c0.6-0.3,0.9-0.8,1.2-1.4c0.3-0.8,0.2-1.6-0.2-2.3c-0.5-0.9-1.4-1.4-2.4-1.4c-1.4,0-2.8,0-4.2,0
				c-0.3,0-0.4,0.1-0.4,0.4c0,1.6,0,3.1,0,4.7c0,0.3,0,0.4,0.4,0.4C56.4,11.7,57.1,11.7,57.9,11.7z"/>
			<path class="st1" d="M50.2,20.5c-0.3,0-0.5-0.2-0.7-0.4c-0.7-1.1-1.4-2.1-2.1-3.2c-0.6-0.9-1.1-1.8-1.7-2.7
				c-0.1-0.2-0.3-0.2-0.4,0c-0.5,0.8-1,1.6-1.6,2.4c-0.4,0.6-0.8,1.3-1.2,1.9c-0.3,0.5-0.7,1.1-1.1,1.6c-0.3,0.4-0.8,0.5-1.2,0.2
				c-0.3-0.2-0.4-0.6-0.1-0.9c0.5-0.7,1-1.5,1.5-2.2c0.4-0.6,0.8-1.3,1.2-1.9c0.4-0.6,0.8-1.2,1.2-1.7c0.1-0.2,0.3-0.4,0.4-0.6
				c0.1-0.2,0.1-0.4-0.1-0.6c-0.3-0.5-0.7-1-1-1.6c-0.5-0.8-1-1.5-1.5-2.3c-0.4-0.6-0.8-1.3-1.2-1.9c-0.1-0.2-0.3-0.4-0.4-0.6
				c-0.3-0.5-0.3-0.8,0.2-1.1c0.3-0.2,0.8,0,1,0.3c0.3,0.5,0.6,0.9,0.9,1.4c0.4,0.7,0.9,1.3,1.3,2c0.5,0.8,1,1.6,1.5,2.4
				c0,0.1,0,0.2,0.1,0.2c0,0.1,0.1,0.1,0.2,0.1c0.1,0,0.2-0.1,0.2-0.1c0.4-0.7,0.8-1.4,1.3-2c0.4-0.6,0.8-1.2,1.2-1.8
				c0.5-0.7,0.9-1.5,1.4-2.2c0.2-0.3,0.6-0.4,0.9-0.3C50.9,5,51.1,5.4,51,5.7c-0.1,0.2-0.2,0.4-0.3,0.6c-0.5,0.8-1,1.5-1.5,2.3
				c-0.6,0.9-1.1,1.8-1.7,2.7c-0.2,0.4-0.5,0.7-0.7,1.1c-0.2,0.2-0.1,0.5,0,0.7c0.2,0.3,0.4,0.7,0.7,1c0.4,0.7,0.9,1.3,1.3,2
				c0.4,0.6,0.7,1.2,1.1,1.8c0.3,0.5,0.6,1,1,1.5c0.2,0.3,0.3,0.5,0.1,0.8C50.8,20.3,50.6,20.5,50.2,20.5z"/>
			<path class="st1" d="M51.4,25.2c0-0.7,0-1.3,0-2c0-0.4,0.2-0.6,0.6-0.6c0.5,0,1,0,1.4,0c0.7,0,1.5,0.6,1.5,1.3c0,0.8,0,1.6,0,2.5
				c0,0.7-0.9,1.4-1.6,1.4c-0.4,0-0.9,0-1.3,0c-0.4,0-0.6-0.2-0.6-0.7C51.4,26.4,51.4,25.8,51.4,25.2C51.4,25.2,51.4,25.2,51.4,25.2
				z M54.4,25.2L54.4,25.2c0-0.3,0-0.7,0-1c0-0.6-0.5-1-1-1c-0.3,0-0.6,0-0.9,0c-0.3,0-0.4,0-0.4,0.4c0,1.1,0,2.2,0,3.2
				c0,0.2,0.1,0.3,0.3,0.3c0.3,0,0.7,0,1,0c0.5,0.1,1.1-0.4,1.1-1C54.4,25.8,54.4,25.5,54.4,25.2z"/>
			<path class="st1" d="M32.7,25.1c0.1-0.5,0.1-0.9,0.2-1.4c0.1-0.7,0.6-1,1.2-1.1c0.6-0.1,1.3-0.1,1.8,0.3c0.3,0.2,0.6,0.5,0.6,1
				c0,0.9,0,1.7,0,2.6c0,0.5-0.3,0.8-0.7,1c-0.8,0.4-1.6,0.4-2.3,0c-0.5-0.3-0.7-0.8-0.8-1.4C32.8,25.7,32.8,25.4,32.7,25.1
				C32.8,25.1,32.7,25.1,32.7,25.1z M33.3,25.1C33.3,25.1,33.4,25.2,33.3,25.1c0.1,0.3,0,0.6,0.1,0.9c0,0.6,0.4,1.2,1.1,1.1
				c0.2,0,0.4,0,0.6,0c0.5,0,0.8-0.3,0.9-0.7c0-0.8,0-1.6,0-2.5c0-0.4-0.3-0.7-0.7-0.7c-0.3,0-0.7,0-1,0c-0.3,0-0.6,0.2-0.7,0.5
				C33.4,24.2,33.4,24.7,33.3,25.1z"/>
			<path class="st1" d="M73.4,25.1c0,0.3,0,0.7,0,1c0.1,0.8-0.9,1.6-1.6,1.5c-0.4,0-0.9,0-1.3-0.2c-0.6-0.3-0.9-0.8-0.9-1.4
				c-0.1-0.6-0.1-1.3,0-1.9c0.1-1,0.7-1.6,1.7-1.6c0.4,0,0.9,0,1.3,0.2c0.4,0.3,0.7,0.6,0.8,1.1C73.4,24.3,73.3,24.7,73.4,25.1
				C73.4,25.1,73.4,25.1,73.4,25.1z M72.8,25.2c0-0.4,0-0.7,0-1.1c0-0.5-0.4-0.9-0.9-0.9c-0.2,0-0.5,0-0.7,0c-0.5,0-0.9,0.4-1,0.9
				c0,0.7,0,1.4,0,2.1c0,0.5,0.5,0.9,1,0.9c0.3,0,0.5,0,0.8,0c0.4,0,0.8-0.4,0.9-0.9C72.8,25.9,72.8,25.5,72.8,25.2z"/>
			<path class="st1" d="M55.9,25.2c0-0.6,0-1.3,0-1.9c0-0.4,0.2-0.6,0.6-0.6c0.7,0,1.4,0,2.1,0c0.2,0,0.4,0.1,0.4,0.3
				c0,0.3-0.2,0.3-0.4,0.3c-0.6,0-1.2,0-1.8,0c-0.3,0-0.4,0.1-0.4,0.4c0,0.3,0,0.6,0,0.9c0,0.2,0.1,0.3,0.3,0.3c0.4,0,0.8,0,1.2,0
				c0.1,0,0.2,0,0.3,0c0.1,0.1,0.2,0.2,0.3,0.3c0,0-0.2,0.2-0.3,0.2c-0.5,0-1,0-1.5,0c-0.3,0-0.4,0.1-0.4,0.4c0,0.4,0,0.7,0,1.1
				c0,0.2,0.1,0.3,0.3,0.3c0.6,0,1.1,0,1.7,0c0.1,0,0.2,0,0.3,0c0.1,0,0.2,0.2,0.2,0.2c0,0.1-0.1,0.2-0.2,0.3c0,0-0.1,0-0.1,0
				c-0.8,0-1.5,0-2.3,0c-0.4,0-0.5-0.2-0.5-0.6C55.9,26.5,55.9,25.8,55.9,25.2L55.9,25.2z"/>
			<path class="st1" d="M48.3,27.4c-0.1,0.1-0.1,0.3-0.2,0.3c-0.2,0.1-0.3-0.1-0.4-0.3c-0.1-0.3-0.2-0.6-0.3-0.9
				c-0.1-0.1-0.2-0.2-0.3-0.3c-0.5,0-1,0-1.5,0c-0.1,0-0.2,0.1-0.2,0.1c-0.1,0.3-0.2,0.6-0.3,0.8c0,0.1,0,0.2-0.1,0.2
				c-0.1,0.1-0.3,0.3-0.4,0.3c-0.2,0-0.2-0.2-0.2-0.4c0-0.1,0-0.2,0-0.3c0.2-0.7,0.5-1.5,0.7-2.2c0.1-0.4,0.2-0.9,0.4-1.3
				c0.1-0.3,0.2-0.6,0.5-0.8c0.3-0.2,0.7,0,0.9,0.3c0.2,0.3,0.2,0.6,0.3,0.9c0.1,0.4,0.3,0.9,0.4,1.3c0.1,0.4,0.2,0.8,0.4,1.2
				C48.1,26.7,48.2,27,48.3,27.4z M46.4,25.7L46.4,25.7c0.1,0,0.3,0,0.4,0c0.3,0,0.4-0.1,0.3-0.4c-0.2-0.6-0.4-1.2-0.5-1.8
				c0-0.1-0.1-0.2-0.2-0.3c-0.1,0.1-0.2,0.1-0.2,0.2c-0.1,0.3-0.1,0.5-0.2,0.8c-0.1,0.4-0.2,0.7-0.3,1.1c-0.1,0.3,0,0.4,0.3,0.3
				C46.1,25.7,46.2,25.7,46.4,25.7z"/>
			<path class="st1" d="M38.5,27.1c0.2,0,0.4,0,0.7,0c0.7,0,1-0.7,0.8-1.2c0-0.1-0.2-0.3-0.4-0.3c-0.3-0.1-0.6-0.2-0.9-0.2
				c-0.8-0.2-1.5-0.6-1.3-1.6c0.1-0.4,0.3-0.7,0.6-0.9c0.7-0.4,1.5-0.2,2.2-0.2c0.2,0,0.3,0.1,0.3,0.3c0,0.2-0.1,0.3-0.3,0.3
				c-0.5,0-0.9,0-1.4,0c-0.1,0-0.3,0-0.4,0.1c-0.3,0.2-0.5,0.6-0.3,1c0.1,0.3,0.4,0.4,0.7,0.4c0.5,0.1,1.1,0.2,1.6,0.5
				c0.8,0.6,0.5,1.9-0.2,2.2c-0.3,0.1-0.6,0.2-0.9,0.2c-0.4,0-0.9,0-1.3,0c-0.2,0-0.3,0-0.4-0.3c0-0.2,0.1-0.3,0.3-0.3
				C37.9,27.1,38.2,27.1,38.5,27.1C38.5,27.1,38.5,27.1,38.5,27.1z"/>
			<path class="st1" d="M66.9,27.1c0.2,0,0.5,0,0.7,0c0.4,0,0.7-0.3,0.8-0.8c0.1-0.3-0.1-0.7-0.5-0.8c-0.2-0.1-0.5-0.1-0.7-0.2
				c-0.5-0.1-0.9-0.2-1.2-0.6c-0.6-0.6-0.3-1.6,0.4-2c0.7-0.4,1.5-0.2,2.2-0.2c0.2,0,0.3,0.1,0.3,0.3c0,0.1-0.2,0.3-0.3,0.3
				c-0.5,0-1,0-1.4,0c-0.2,0-0.5,0.1-0.6,0.3c-0.2,0.2-0.3,0.4-0.2,0.7c0.1,0.3,0.3,0.5,0.6,0.6c0.4,0.1,0.7,0.1,1.1,0.2
				c0.7,0.2,1.1,0.7,1,1.5c-0.1,0.9-0.6,1.3-1.5,1.3c-0.4,0-0.9,0-1.3,0c-0.2,0-0.4,0-0.4-0.3c0-0.3,0.2-0.3,0.4-0.3
				C66.4,27.1,66.6,27.1,66.9,27.1L66.9,27.1L66.9,27.1z"/>
			<path class="st1" d="M28.9,25.2c0-0.4,0-0.8,0.1-1.2c0.1-0.9,0.7-1.3,1.6-1.4c0.4,0,0.8,0,1.1,0c0.2,0,0.4,0.1,0.4,0.3
				c0,0.2-0.2,0.3-0.4,0.3c-0.4,0-0.7,0-1.1,0c-0.6,0-1.1,0.2-1.1,0.9c0,0.8,0,1.5,0.1,2.3c0.1,0.5,0.4,0.7,1,0.7c0.4,0,0.7,0,1.1,0
				s0.5,0.1,0.5,0.3c0,0.3-0.3,0.3-0.5,0.3c-0.3,0-0.6,0-1,0c-1,0.1-1.8-0.7-1.8-1.8C28.9,25.7,28.9,25.4,28.9,25.2
				C28.9,25.2,28.9,25.2,28.9,25.2z"/>
			<path class="st1" d="M43.2,25.4c0,0.6,0,1.2,0,1.8c0,0.1,0,0.2,0,0.3c-0.1,0.1-0.2,0.2-0.3,0.2c-0.1,0-0.2-0.2-0.2-0.3
				c0-0.2,0-0.4,0-0.5c0-1.1,0-2.2,0-3.4c0-0.2-0.1-0.3-0.3-0.3c-0.3,0-0.6,0-0.9,0c-0.2,0-0.3-0.1-0.3-0.3c0-0.2,0.1-0.3,0.4-0.3
				c1,0,2,0,2.9,0c0.2,0,0.4,0.1,0.4,0.3c0,0.2-0.2,0.3-0.4,0.3c-0.3,0-0.6,0-0.8,0c-0.2,0-0.3,0.1-0.3,0.3
				C43.2,24.1,43.2,24.7,43.2,25.4C43.2,25.4,43.2,25.4,43.2,25.4z"/>
			<path class="st1" d="M74.3,25.1c0-0.6,0-1.3,0-1.9c0-0.1,0-0.3,0-0.3c0.1-0.1,0.2-0.2,0.3-0.2c0.1,0,0.2,0.1,0.2,0.2
				c0,0.1,0,0.2,0,0.3c0,1.2,0,2.5,0,3.7c0,0.2,0.1,0.3,0.3,0.3c0.5,0,1,0,1.5,0c0.1,0,0.3,0,0.3,0c0.1,0,0.2,0.2,0.2,0.3
				c0,0.1-0.1,0.2-0.2,0.3c-0.1,0-0.2,0-0.3,0c-0.6,0-1.2,0-1.8,0c-0.5,0-0.7-0.2-0.7-0.7C74.3,26.4,74.3,25.7,74.3,25.1L74.3,25.1z
				"/>
			<path class="st1" d="M59.9,25.1c0-0.7,0-1.3,0-2c0-0.2,0-0.5,0.3-0.5c0.2,0,0.4,0.2,0.4,0.5c0,1.2,0,2.5,0,3.7
				c0,0.2,0.1,0.3,0.3,0.3c0.5,0,0.9,0,1.4,0c0.1,0,0.1,0,0.2,0c0.2,0,0.4,0,0.4,0.3c0,0.3-0.2,0.3-0.4,0.3c-0.2,0-0.4,0-0.6,0
				c-0.4,0-0.9,0-1.3,0c-0.5,0-0.6-0.1-0.6-0.6C59.9,26.4,59.9,25.7,59.9,25.1L59.9,25.1z"/>
		</g>
	</g>
</g>
<g id="Layer_2" class="st2">
</g>
</svg>
