<?xml version="1.0" encoding="utf-8"?>
<!-- Generator: Adobe Illustrator 16.0.0, SVG Export Plug-In . SVG Version: 6.00 Build 0)  -->
<!DOCTYPE svg PUBLIC "-//W3C//DTD SVG 1.1//EN" "http://www.w3.org/Graphics/SVG/1.1/DTD/svg11.dtd">
<svg version="1.1" id="Layer_1" xmlns="http://www.w3.org/2000/svg" xmlns:xlink="http://www.w3.org/1999/xlink" x="0px" y="0px"
	 width="200px" height="35px" viewBox="0 0 200 35" enable-background="new 0 0 200 35" xml:space="preserve">
<g>
	<g>
		<g>
			<path fill="#7F7F7F" d="M119.219,3.719l-0.979,3.635h-1.039l-0.65-2.367l-0.636,2.367h-1.036l-0.979-3.635h0.979l0.558,2.502
				l0.671-2.502h0.935l0.637,2.502l0.586-2.502H119.219z"/>
			<path fill="#7F7F7F" d="M121.811,7.354h-2.129V6.709h0.596V4.363h-0.596V3.719h2.129v0.645h-0.596v2.346h0.596V7.354z"/>
			<path fill="#7F7F7F" d="M125.879,7.354h-0.903l-1.543-2.494v2.494h-0.859V3.719h1.12l1.326,2.082V3.719h0.859V7.354z"/>
			<path fill="#7F7F7F" d="M130.113,7.354h-0.903l-1.543-2.494v2.494h-0.859V3.719h1.12l1.326,2.082V3.719h0.859V7.354z"/>
			<path fill="#7F7F7F" d="M133.67,7.354h-2.63V3.719h2.63v0.703h-1.697v0.627h1.574v0.703h-1.574V6.65h1.697V7.354z"/>
			<path fill="#7F7F7F" d="M137.957,7.354h-1.146l-0.988-1.332h-0.435v1.332h-0.933V3.719h1.572c0.215,0,0.399,0.012,0.554,0.037
				c0.155,0.023,0.3,0.076,0.436,0.158c0.137,0.082,0.245,0.188,0.325,0.316c0.081,0.129,0.121,0.291,0.121,0.486
				c0,0.27-0.062,0.488-0.187,0.657c-0.125,0.169-0.303,0.31-0.533,0.423L137.957,7.354z M136.494,4.832
				c0-0.092-0.019-0.17-0.056-0.234s-0.102-0.116-0.192-0.154c-0.064-0.025-0.138-0.041-0.223-0.047s-0.184-0.009-0.295-0.009h-0.34
				v0.979h0.288c0.149,0,0.275-0.008,0.376-0.022s0.186-0.048,0.254-0.101c0.065-0.05,0.112-0.105,0.143-0.166
				C136.479,5.016,136.494,4.935,136.494,4.832z"/>
		</g>
	</g>
	<path opacity="0.5" fill="#808080" d="M182.675,33.814H51.75v-0.5h130.925c3.617,0,6.56-2.943,6.56-6.561V12.805
		c0-3.617-2.942-6.561-6.56-6.561h-41.997v-0.5h41.997c3.893,0,7.06,3.167,7.06,7.061v13.949
		C189.734,30.647,186.567,33.814,182.675,33.814z"/>
	<rect x="57.069" y="5.744" opacity="0.5" fill="#808080" width="54.061" height="0.5"/>
	<path opacity="0.5" fill="#808080" d="M34.525,33.814H17.327c-3.894,0-7.062-3.167-7.062-7.061V12.805
		c0-3.894,3.168-7.061,7.062-7.061h11.208v0.5H17.327c-3.618,0-6.562,2.943-6.562,6.561v13.949c0,3.617,2.943,6.561,6.562,6.561
		h17.198V33.814z"/>
	<g>
		<g>
			<linearGradient id="SVGID_1_" gradientUnits="userSpaceOnUse" x1="199.5" y1="18.626" x2="18.4828" y2="18.626">
				<stop  offset="0" style="stop-color:#A8AC2E"/>
				<stop  offset="1" style="stop-color:#A8AC2E"/>
			</linearGradient>
			<path fill="url(#SVGID_1_)" d="M159.586,17.888c0.251,0,0.444,0.071,0.58,0.212c0.137,0.143,0.207,0.32,0.207,0.535
				c0,0.211-0.07,0.383-0.207,0.523c-0.136,0.137-0.329,0.206-0.58,0.206c-0.24,0-0.432-0.067-0.57-0.205
				c-0.14-0.136-0.21-0.312-0.21-0.524c0-0.215,0.065-0.393,0.206-0.535C159.146,17.959,159.338,17.888,159.586,17.888z"/>
			<g>
				<linearGradient id="SVGID_2_" gradientUnits="userSpaceOnUse" x1="199.5" y1="15.2764" x2="18.4828" y2="15.2764">
					<stop  offset="0" style="stop-color:#A8AC2E"/>
					<stop  offset="1" style="stop-color:#A8AC2E"/>
				</linearGradient>
				<path fill="url(#SVGID_2_)" d="M78.542,19.305v-8.056h2.764c0.909,0,1.603,0.183,2.077,0.547s0.717,0.911,0.717,1.633
					c0,0.369-0.103,0.7-0.301,0.995c-0.199,0.295-0.49,0.523-0.877,0.687c0.438,0.118,0.773,0.341,1.012,0.667
					c0.24,0.326,0.357,0.718,0.357,1.176c0,0.755-0.242,1.338-0.729,1.741c-0.484,0.406-1.178,0.61-2.08,0.61H78.542z
					 M79.941,14.639h1.375c0.434,0,0.773-0.098,1.02-0.295c0.244-0.196,0.366-0.477,0.366-0.838c0-0.398-0.111-0.686-0.341-0.862
					c-0.226-0.178-0.578-0.267-1.056-0.267h-1.364V14.639z M79.941,15.67v2.517h1.557c0.439,0,0.779-0.108,1.027-0.327
					c0.249-0.217,0.371-0.52,0.371-0.906c0-0.838-0.43-1.265-1.283-1.283H79.941z"/>
				<linearGradient id="SVGID_3_" gradientUnits="userSpaceOnUse" x1="199.5" y1="15.2764" x2="18.4826" y2="15.2764">
					<stop  offset="0" style="stop-color:#A8AC2E"/>
					<stop  offset="1" style="stop-color:#A8AC2E"/>
				</linearGradient>
				<path fill="url(#SVGID_3_)" d="M87.089,18.187h3.659v1.118h-5.055v-8.056h1.396V18.187z"/>
				<linearGradient id="SVGID_4_" gradientUnits="userSpaceOnUse" x1="199.5" y1="15.2764" x2="18.4828" y2="15.2764">
					<stop  offset="0" style="stop-color:#A8AC2E"/>
					<stop  offset="1" style="stop-color:#A8AC2E"/>
				</linearGradient>
				<path fill="url(#SVGID_4_)" d="M98.25,15.485c0,0.79-0.135,1.483-0.408,2.081c-0.274,0.595-0.664,1.052-1.17,1.371
					c-0.51,0.318-1.094,0.478-1.752,0.478c-0.655,0-1.238-0.159-1.746-0.478c-0.51-0.319-0.906-0.776-1.185-1.365
					s-0.421-1.271-0.425-2.041v-0.453c0-0.787,0.141-1.48,0.422-2.081c0.273-0.602,0.669-1.062,1.176-1.38
					c0.508-0.32,1.09-0.479,1.746-0.479c0.658,0,1.236,0.156,1.745,0.473c0.507,0.313,0.899,0.769,1.175,1.36
					c0.275,0.591,0.418,1.28,0.422,2.066V15.485z M96.852,15.066c0-0.894-0.171-1.578-0.51-2.053
					c-0.335-0.478-0.815-0.714-1.434-0.714c-0.604,0-1.079,0.236-1.422,0.712c-0.34,0.473-0.514,1.145-0.519,2.01v0.464
					c0,0.887,0.171,1.57,0.516,2.053c0.346,0.485,0.823,0.726,1.437,0.726c0.619,0,1.097-0.236,1.428-0.709
					c0.336-0.472,0.504-1.161,0.504-2.069V15.066z"/>
				<linearGradient id="SVGID_5_" gradientUnits="userSpaceOnUse" x1="199.5" y1="15.2764" x2="18.4829" y2="15.2764">
					<stop  offset="0" style="stop-color:#A8AC2E"/>
					<stop  offset="1" style="stop-color:#A8AC2E"/>
				</linearGradient>
				<path fill="url(#SVGID_5_)" d="M105.789,16.682c-0.078,0.858-0.396,1.528-0.951,2.011c-0.552,0.482-1.287,0.723-2.207,0.723
					c-0.641,0-1.209-0.153-1.694-0.457c-0.489-0.304-0.867-0.736-1.132-1.296c-0.265-0.561-0.404-1.213-0.416-1.953v-0.754
					c0-0.759,0.135-1.429,0.404-2.008s0.656-1.025,1.16-1.34c0.502-0.312,1.085-0.469,1.745-0.469c0.888,0,1.604,0.24,2.146,0.721
					c0.543,0.48,0.857,1.164,0.945,2.046h-1.394c-0.065-0.579-0.233-0.997-0.505-1.255c-0.273-0.256-0.67-0.383-1.192-0.383
					c-0.608,0-1.077,0.223-1.403,0.667c-0.325,0.444-0.493,1.096-0.502,1.957v0.716c0,0.87,0.158,1.534,0.469,1.991
					c0.314,0.458,0.77,0.687,1.369,0.687c0.55,0,0.965-0.124,1.24-0.371c0.274-0.246,0.449-0.658,0.524-1.232H105.789z"/>
				<linearGradient id="SVGID_6_" gradientUnits="userSpaceOnUse" x1="199.5" y1="15.2764" x2="18.4828" y2="15.2764">
					<stop  offset="0" style="stop-color:#A8AC2E"/>
					<stop  offset="1" style="stop-color:#A8AC2E"/>
				</linearGradient>
				<path fill="url(#SVGID_6_)" d="M109.352,15.824l-0.91,0.968v2.513h-1.399v-8.056h1.399v3.778l0.772-0.959l2.358-2.819h1.693
					l-2.993,3.567l3.165,4.488h-1.661L109.352,15.824z"/>
				<linearGradient id="SVGID_7_" gradientUnits="userSpaceOnUse" x1="199.5" y1="15.2764" x2="18.4826" y2="15.2764">
					<stop  offset="0" style="stop-color:#A8AC2E"/>
					<stop  offset="1" style="stop-color:#A8AC2E"/>
				</linearGradient>
				<path fill="url(#SVGID_7_)" d="M120.33,16.682c-0.081,0.858-0.397,1.528-0.951,2.011c-0.553,0.482-1.291,0.723-2.207,0.723
					c-0.645,0-1.207-0.153-1.694-0.457c-0.489-0.304-0.868-0.736-1.132-1.296c-0.268-0.561-0.406-1.213-0.419-1.953v-0.754
					c0-0.759,0.138-1.429,0.407-2.008c0.268-0.579,0.654-1.025,1.156-1.34c0.505-0.312,1.088-0.469,1.748-0.469
					c0.887,0,1.604,0.24,2.145,0.721c0.543,0.48,0.859,1.164,0.947,2.046h-1.393c-0.066-0.579-0.236-0.997-0.506-1.255
					c-0.274-0.256-0.671-0.383-1.193-0.383c-0.61,0-1.076,0.223-1.406,0.667c-0.321,0.444-0.489,1.096-0.5,1.957v0.716
					c0,0.87,0.158,1.534,0.47,1.991c0.31,0.458,0.767,0.687,1.37,0.687c0.549,0,0.963-0.124,1.238-0.371
					c0.277-0.246,0.453-0.658,0.527-1.232H120.33z"/>
				<linearGradient id="SVGID_8_" gradientUnits="userSpaceOnUse" x1="199.5" y1="15.2764" x2="18.4828" y2="15.2764">
					<stop  offset="0" style="stop-color:#A8AC2E"/>
					<stop  offset="1" style="stop-color:#A8AC2E"/>
				</linearGradient>
				<path fill="url(#SVGID_8_)" d="M127.977,19.305h-1.395V15.73h-3.602v3.574h-1.399v-8.056h1.399v3.354h3.602v-3.354h1.395V19.305
					z"/>
				<linearGradient id="SVGID_9_" gradientUnits="userSpaceOnUse" x1="199.5" y1="15.2764" x2="18.4826" y2="15.2764">
					<stop  offset="0" style="stop-color:#A8AC2E"/>
					<stop  offset="1" style="stop-color:#A8AC2E"/>
				</linearGradient>
				<path fill="url(#SVGID_9_)" d="M134.139,17.428h-3.122l-0.653,1.877h-1.452l3.043-8.056h1.257l3.045,8.056h-1.461
					L134.139,17.428z M131.412,16.299h2.333l-1.167-3.34L131.412,16.299z"/>
				<linearGradient id="SVGID_10_" gradientUnits="userSpaceOnUse" x1="199.5" y1="15.2764" x2="18.4827" y2="15.2764">
					<stop  offset="0" style="stop-color:#A8AC2E"/>
					<stop  offset="1" style="stop-color:#A8AC2E"/>
				</linearGradient>
				<path fill="url(#SVGID_10_)" d="M138.647,19.305h-1.394v-8.056h1.394V19.305z"/>
				<linearGradient id="SVGID_11_" gradientUnits="userSpaceOnUse" x1="199.5" y1="15.2764" x2="18.483" y2="15.2764">
					<stop  offset="0" style="stop-color:#A8AC2E"/>
					<stop  offset="1" style="stop-color:#A8AC2E"/>
				</linearGradient>
				<path fill="url(#SVGID_11_)" d="M146.756,19.305h-1.396l-3.592-5.715v5.715h-1.396v-8.056h1.396l3.604,5.736v-5.736h1.385
					V19.305z"/>
				<linearGradient id="SVGID_12_" gradientUnits="userSpaceOnUse" x1="199.5" y1="15.2764" x2="18.4827" y2="15.2764">
					<stop  offset="0" style="stop-color:#A8AC2E"/>
					<stop  offset="1" style="stop-color:#A8AC2E"/>
				</linearGradient>
				<path fill="url(#SVGID_12_)" d="M150.891,17.13c0-0.372,0.102-0.714,0.303-1.026c0.206-0.311,0.605-0.682,1.201-1.109
					c-0.311-0.395-0.531-0.73-0.654-1.006c-0.124-0.279-0.185-0.545-0.185-0.804c0-0.63,0.191-1.129,0.573-1.497
					c0.387-0.365,0.9-0.549,1.549-0.549c0.588,0,1.07,0.173,1.441,0.518c0.377,0.346,0.564,0.771,0.564,1.279
					c0,0.336-0.088,0.646-0.256,0.927c-0.169,0.283-0.447,0.563-0.836,0.845l-0.546,0.396l1.554,1.838
					c0.226-0.443,0.336-0.934,0.336-1.479h1.166c0,0.993-0.23,1.808-0.693,2.441l1.181,1.4h-1.558l-0.455-0.535
					c-0.574,0.429-1.262,0.646-2.055,0.646c-0.798,0-1.438-0.212-1.912-0.634C151.131,18.359,150.891,17.809,150.891,17.13z
					 M153.559,18.343c0.455,0,0.877-0.151,1.269-0.455l-1.758-2.075l-0.17,0.123c-0.443,0.336-0.665,0.719-0.665,1.15
					c0,0.371,0.121,0.674,0.361,0.906C152.832,18.225,153.155,18.343,153.559,18.343z M152.817,13.151
					c0,0.312,0.19,0.699,0.569,1.167l0.615-0.418l0.17-0.139c0.227-0.204,0.343-0.465,0.343-0.781c0-0.209-0.079-0.392-0.24-0.539
					c-0.157-0.15-0.358-0.225-0.601-0.225c-0.264,0-0.47,0.088-0.623,0.268C152.892,12.659,152.817,12.883,152.817,13.151z"/>
				<linearGradient id="SVGID_13_" gradientUnits="userSpaceOnUse" x1="199.5" y1="15.2764" x2="18.4824" y2="15.2764">
					<stop  offset="0" style="stop-color:#A8AC2E"/>
					<stop  offset="1" style="stop-color:#A8AC2E"/>
				</linearGradient>
				<path fill="url(#SVGID_13_)" d="M166.33,17.428h-3.121l-0.65,1.877h-1.457l3.04-8.056h1.259l3.049,8.056h-1.462L166.33,17.428z
					 M163.604,16.299h2.332l-1.164-3.34L163.604,16.299z"/>
				<linearGradient id="SVGID_14_" gradientUnits="userSpaceOnUse" x1="199.5" y1="15.2764" x2="18.4827" y2="15.2764">
					<stop  offset="0" style="stop-color:#A8AC2E"/>
					<stop  offset="1" style="stop-color:#A8AC2E"/>
				</linearGradient>
				<path fill="url(#SVGID_14_)" d="M173.482,19.305h-1.396v-8.056h1.396V19.305z"/>
			</g>
			<linearGradient id="SVGID_15_" gradientUnits="userSpaceOnUse" x1="199.5" y1="18.626" x2="18.4828" y2="18.626">
				<stop  offset="0" style="stop-color:#A8AC2E"/>
				<stop  offset="1" style="stop-color:#A8AC2E"/>
			</linearGradient>
			<path fill="url(#SVGID_15_)" d="M170.115,17.888c0.254,0,0.443,0.071,0.578,0.212c0.137,0.143,0.207,0.32,0.207,0.535
				c0,0.211-0.07,0.383-0.207,0.523c-0.135,0.137-0.324,0.206-0.578,0.206c-0.24,0-0.43-0.067-0.572-0.205
				c-0.138-0.136-0.207-0.312-0.207-0.524c0-0.215,0.067-0.393,0.203-0.535C169.674,17.959,169.867,17.888,170.115,17.888z"/>
			<linearGradient id="SVGID_16_" gradientUnits="userSpaceOnUse" x1="199.5" y1="25.0459" x2="18.4826" y2="25.0459">
				<stop  offset="0" style="stop-color:#A8AC2E"/>
				<stop  offset="1" style="stop-color:#A8AC2E"/>
			</linearGradient>
			<path fill="url(#SVGID_16_)" d="M73.225,25.658H69.98v3.415h-1.399v-8.056h5.117v1.129H69.98v2.396h3.244V25.658z"/>
			<linearGradient id="SVGID_17_" gradientUnits="userSpaceOnUse" x1="199.5" y1="25.0439" x2="18.4828" y2="25.044">
				<stop  offset="0" style="stop-color:#A8AC2E"/>
				<stop  offset="1" style="stop-color:#A8AC2E"/>
			</linearGradient>
			<path fill="url(#SVGID_17_)" d="M81.237,25.255c0,0.789-0.136,1.481-0.412,2.077c-0.272,0.596-0.665,1.055-1.169,1.373
				c-0.506,0.319-1.089,0.479-1.754,0.479c-0.648,0-1.231-0.159-1.744-0.479c-0.511-0.318-0.902-0.773-1.185-1.363
				c-0.277-0.59-0.417-1.272-0.422-2.042v-0.454c0-0.785,0.138-1.479,0.419-2.08c0.278-0.602,0.668-1.061,1.178-1.381
				c0.506-0.318,1.088-0.479,1.747-0.479c0.653,0,1.235,0.159,1.743,0.474c0.506,0.317,0.898,0.77,1.177,1.362
				c0.277,0.59,0.418,1.28,0.422,2.065V25.255z M79.836,24.834c0-0.892-0.168-1.577-0.506-2.053
				c-0.338-0.475-0.813-0.713-1.435-0.713c-0.604,0-1.079,0.236-1.42,0.71c-0.343,0.474-0.516,1.146-0.522,2.011v0.466
				c0,0.887,0.173,1.569,0.516,2.054c0.345,0.482,0.824,0.723,1.434,0.723c0.621,0,1.1-0.234,1.433-0.708
				c0.333-0.472,0.501-1.161,0.501-2.068V24.834z"/>
			<linearGradient id="SVGID_18_" gradientUnits="userSpaceOnUse" x1="199.5" y1="25.0459" x2="18.4829" y2="25.0459">
				<stop  offset="0" style="stop-color:#A8AC2E"/>
				<stop  offset="1" style="stop-color:#A8AC2E"/>
			</linearGradient>
			<path fill="url(#SVGID_18_)" d="M85.589,25.975h-1.56v3.099H82.63v-8.056h2.834c0.929,0,1.646,0.209,2.151,0.625
				c0.506,0.417,0.754,1.021,0.754,1.811c0,0.54-0.128,0.992-0.385,1.354c-0.264,0.364-0.625,0.644-1.09,0.837l1.811,3.356v0.072
				h-1.502L85.589,25.975z M84.029,24.846h1.437c0.474,0,0.842-0.118,1.106-0.357c0.268-0.238,0.402-0.562,0.402-0.976
				c0-0.432-0.126-0.767-0.371-1.001c-0.244-0.237-0.608-0.358-1.096-0.365h-1.479V24.846z"/>
			<linearGradient id="SVGID_19_" gradientUnits="userSpaceOnUse" x1="199.5" y1="25.0459" x2="18.4826" y2="25.0459">
				<stop  offset="0" style="stop-color:#A8AC2E"/>
				<stop  offset="1" style="stop-color:#A8AC2E"/>
			</linearGradient>
			<path fill="url(#SVGID_19_)" d="M97.029,27.195H93.91l-0.652,1.878h-1.456l3.046-8.056h1.254l3.049,8.056h-1.46L97.029,27.195z
				 M94.303,26.066h2.334l-1.169-3.339L94.303,26.066z"/>
			<linearGradient id="SVGID_20_" gradientUnits="userSpaceOnUse" x1="199.5" y1="25.0459" x2="18.4829" y2="25.0459">
				<stop  offset="0" style="stop-color:#A8AC2E"/>
				<stop  offset="1" style="stop-color:#A8AC2E"/>
			</linearGradient>
			<path fill="url(#SVGID_20_)" d="M103.023,25.975h-1.562v3.099h-1.398v-8.056h2.833c0.931,0,1.646,0.209,2.153,0.625
				c0.504,0.417,0.76,1.021,0.76,1.811c0,0.54-0.133,0.992-0.393,1.354c-0.26,0.364-0.622,0.644-1.086,0.837l1.808,3.356v0.072
				h-1.501L103.023,25.975z M101.461,24.846h1.441c0.469,0,0.84-0.118,1.105-0.357c0.268-0.238,0.398-0.562,0.398-0.976
				c0-0.432-0.123-0.767-0.369-1.001c-0.243-0.237-0.609-0.358-1.099-0.365h-1.478V24.846z"/>
			<linearGradient id="SVGID_21_" gradientUnits="userSpaceOnUse" x1="199.5" y1="25.0459" x2="18.4827" y2="25.0459">
				<stop  offset="0" style="stop-color:#A8AC2E"/>
				<stop  offset="1" style="stop-color:#A8AC2E"/>
			</linearGradient>
			<path fill="url(#SVGID_21_)" d="M112.951,22.146h-2.512v6.927h-1.387v-6.927h-2.49v-1.129h6.389V22.146z"/>
			<linearGradient id="SVGID_22_" gradientUnits="userSpaceOnUse" x1="199.5" y1="25.0459" x2="18.4824" y2="25.0459">
				<stop  offset="0" style="stop-color:#A8AC2E"/>
				<stop  offset="1" style="stop-color:#A8AC2E"/>
			</linearGradient>
			<path fill="url(#SVGID_22_)" d="M121.34,27.195h-3.119l-0.652,1.878h-1.457l3.042-8.056h1.257l3.049,8.056h-1.461L121.34,27.195z
				 M118.612,26.066h2.337l-1.17-3.339L118.612,26.066z"/>
			<linearGradient id="SVGID_23_" gradientUnits="userSpaceOnUse" x1="199.5" y1="25.0459" x2="18.4824" y2="25.0459">
				<stop  offset="0" style="stop-color:#A8AC2E"/>
				<stop  offset="1" style="stop-color:#A8AC2E"/>
			</linearGradient>
			<path fill="url(#SVGID_23_)" d="M130.691,27.081l1.237-6.063h1.39l-1.861,8.056h-1.338l-1.53-5.882l-1.567,5.882h-1.346
				l-1.855-8.056h1.387l1.25,6.053l1.539-6.053h1.174L130.691,27.081z"/>
			<linearGradient id="SVGID_24_" gradientUnits="userSpaceOnUse" x1="199.5" y1="25.0459" x2="18.483" y2="25.0459">
				<stop  offset="0" style="stop-color:#A8AC2E"/>
				<stop  offset="1" style="stop-color:#A8AC2E"/>
			</linearGradient>
			<path fill="url(#SVGID_24_)" d="M138.85,27.195h-3.12l-0.652,1.878h-1.455l3.042-8.056h1.258l3.047,8.056h-1.459L138.85,27.195z
				 M136.121,26.066h2.335l-1.165-3.339L136.121,26.066z"/>
			<linearGradient id="SVGID_25_" gradientUnits="userSpaceOnUse" x1="199.5" y1="25.0459" x2="18.4828" y2="25.0459">
				<stop  offset="0" style="stop-color:#A8AC2E"/>
				<stop  offset="1" style="stop-color:#A8AC2E"/>
			</linearGradient>
			<path fill="url(#SVGID_25_)" d="M144.844,25.975h-1.562v3.099h-1.4v-8.056h2.836c0.926,0,1.646,0.209,2.151,0.625
				c0.508,0.417,0.758,1.021,0.758,1.811c0,0.54-0.132,0.992-0.388,1.354c-0.263,0.364-0.624,0.644-1.092,0.837l1.809,3.356v0.072
				h-1.497L144.844,25.975z M143.281,24.846h1.439c0.471,0,0.842-0.118,1.107-0.357c0.266-0.238,0.396-0.562,0.396-0.976
				c0-0.432-0.123-0.767-0.368-1.001c-0.243-0.237-0.61-0.358-1.097-0.365h-1.479V24.846z"/>
			<linearGradient id="SVGID_26_" gradientUnits="userSpaceOnUse" x1="199.5" y1="25.0459" x2="18.4828" y2="25.0459">
				<stop  offset="0" style="stop-color:#A8AC2E"/>
				<stop  offset="1" style="stop-color:#A8AC2E"/>
			</linearGradient>
			<path fill="url(#SVGID_26_)" d="M148.951,29.073v-8.056h2.381c0.713,0,1.344,0.158,1.894,0.475
				c0.553,0.316,0.979,0.769,1.282,1.35c0.304,0.584,0.452,1.25,0.452,2.004v0.404c0,0.763-0.151,1.434-0.454,2.014
				c-0.305,0.578-0.739,1.025-1.302,1.34c-0.563,0.312-1.204,0.47-1.933,0.47H148.951z M150.352,22.146v5.809h0.915
				c0.733,0,1.296-0.23,1.688-0.689c0.392-0.459,0.594-1.117,0.6-1.977V24.84c0-0.873-0.187-1.541-0.567-2.002
				c-0.38-0.463-0.935-0.691-1.655-0.691H150.352z"/>
			<linearGradient id="SVGID_27_" gradientUnits="userSpaceOnUse" x1="199.5" y1="24.9893" x2="18.4827" y2="24.9893">
				<stop  offset="0" style="stop-color:#A8AC2E"/>
				<stop  offset="1" style="stop-color:#A8AC2E"/>
			</linearGradient>
			<path fill="url(#SVGID_27_)" d="M164.377,29.073h-5.415v-0.925l2.683-2.926c0.39-0.434,0.662-0.793,0.828-1.082
				c0.163-0.291,0.246-0.58,0.246-0.871c0-0.385-0.108-0.693-0.326-0.932c-0.214-0.235-0.506-0.353-0.869-0.353
				c-0.436,0-0.774,0.133-1.015,0.397c-0.235,0.266-0.358,0.629-0.358,1.088h-1.345c0-0.487,0.112-0.93,0.334-1.322
				c0.224-0.394,0.542-0.697,0.959-0.914c0.415-0.221,0.895-0.329,1.437-0.329c0.781,0,1.398,0.196,1.85,0.591
				c0.451,0.392,0.678,0.936,0.678,1.628c0,0.403-0.114,0.825-0.34,1.266c-0.229,0.44-0.602,0.94-1.117,1.501l-1.967,2.107h3.738
				V29.073z"/>
			<linearGradient id="SVGID_28_" gradientUnits="userSpaceOnUse" x1="199.5" y1="25.0439" x2="18.4829" y2="25.044">
				<stop  offset="0" style="stop-color:#A8AC2E"/>
				<stop  offset="1" style="stop-color:#A8AC2E"/>
			</linearGradient>
			<path fill="url(#SVGID_28_)" d="M170.651,25.682c0,1.157-0.218,2.031-0.651,2.619s-1.092,0.883-1.979,0.883
				c-0.867,0-1.524-0.287-1.965-0.861c-0.441-0.574-0.666-1.423-0.679-2.547v-1.395c0-1.157,0.22-2.025,0.648-2.605
				c0.437-0.578,1.099-0.87,1.987-0.87c0.879,0,1.535,0.283,1.969,0.847c0.436,0.564,0.659,1.409,0.669,2.535V25.682z
				 M169.307,24.176c0-0.756-0.105-1.309-0.307-1.662c-0.21-0.354-0.537-0.528-0.986-0.528c-0.439,0-0.764,0.168-0.971,0.501
				c-0.207,0.334-0.314,0.854-0.326,1.562v1.827c0,0.75,0.105,1.312,0.316,1.681c0.211,0.368,0.541,0.553,0.988,0.553
				c0.432,0,0.752-0.17,0.959-0.512c0.206-0.34,0.315-0.876,0.326-1.601V24.176z"/>
			<linearGradient id="SVGID_29_" gradientUnits="userSpaceOnUse" x1="199.5" y1="25.0303" x2="18.4829" y2="25.0303">
				<stop  offset="0" style="stop-color:#A8AC2E"/>
				<stop  offset="1" style="stop-color:#A8AC2E"/>
			</linearGradient>
			<path fill="url(#SVGID_29_)" d="M175.48,29.073h-1.338v-6.472l-1.974,0.672v-1.127l3.142-1.158h0.17V29.073z"/>
			<linearGradient id="SVGID_30_" gradientUnits="userSpaceOnUse" x1="199.5" y1="25.0049" x2="18.4827" y2="25.0049">
				<stop  offset="0" style="stop-color:#A8AC2E"/>
				<stop  offset="1" style="stop-color:#A8AC2E"/>
			</linearGradient>
			<path fill="url(#SVGID_30_)" d="M182.092,25.703c-0.449,0.477-0.975,0.714-1.576,0.714c-0.707,0-1.271-0.248-1.693-0.743
				c-0.42-0.496-0.629-1.148-0.629-1.957c0-0.531,0.104-1.013,0.319-1.444c0.215-0.433,0.519-0.766,0.912-1.006
				c0.397-0.239,0.853-0.361,1.372-0.361c0.812,0,1.457,0.304,1.934,0.908c0.473,0.605,0.712,1.415,0.712,2.43v0.376
				c0,1.453-0.328,2.562-0.981,3.325c-0.662,0.763-1.641,1.149-2.94,1.161h-0.163v-1.112h0.195c0.795-0.01,1.404-0.202,1.826-0.571
				C181.803,27.049,182.039,26.479,182.092,25.703z M180.797,25.367c0.27,0,0.523-0.078,0.759-0.235
				c0.233-0.153,0.42-0.368,0.548-0.64v-0.525c0-0.594-0.123-1.071-0.365-1.434c-0.243-0.361-0.559-0.543-0.947-0.543
				c-0.387,0-0.697,0.161-0.928,0.48c-0.229,0.316-0.343,0.721-0.343,1.208c0,0.505,0.114,0.912,0.349,1.224
				C180.102,25.211,180.411,25.367,180.797,25.367z"/>
		</g>
	</g>
	<g>
		<linearGradient id="SVGID_31_" gradientUnits="userSpaceOnUse" x1="199.5" y1="13.3965" x2="18.4827" y2="13.3965">
			<stop  offset="0" style="stop-color:#A8AC2E"/>
			<stop  offset="1" style="stop-color:#A8AC2E"/>
		</linearGradient>
		<path fill="url(#SVGID_31_)" d="M60.611,19.435c-0.262-0.473-0.539-0.938-0.811-1.404c-1.162-2.016-2.323-4.029-3.485-6.043
			c-0.831-1.439-1.661-2.881-2.493-4.318c-0.615-1.066-1.231-2.133-1.848-3.197c-0.595-1.033-1.188-2.066-1.786-3.1
			c-0.163-0.287-0.331-0.574-0.512-0.881c-2.368,4.105-4.722,8.184-7.101,12.305c-2.381-4.125-4.732-8.199-7.098-12.295
			c-0.039,0.059-0.07,0.1-0.094,0.143c-0.342,0.592-0.682,1.186-1.023,1.775c-0.684,1.182-1.371,2.361-2.055,3.543
			C31.572,7.241,30.84,8.522,30.104,9.8c-0.802,1.389-1.607,2.777-2.411,4.168c-0.725,1.254-1.45,2.508-2.172,3.766
			c-0.304,0.525-0.616,1.043-0.905,1.574c-0.059,0.111-0.098,0.297-0.045,0.391c0.483,0.873,0.987,1.734,1.487,2.6
			c0.48,0.832,0.956,1.664,1.438,2.496c0.282,0.488,0.57,0.977,0.877,1.504c2.376-4.117,4.729-8.195,7.1-12.303
			c2.375,4.111,4.73,8.191,7.105,12.307c2.374-4.115,4.727-8.189,7.102-12.307c2.381,4.121,4.733,8.197,7.102,12.299
			c0.05-0.078,0.075-0.113,0.098-0.152c0.569-0.988,1.135-1.977,1.705-2.965c0.678-1.172,1.357-2.342,2.027-3.516
			C60.646,19.603,60.646,19.495,60.611,19.435z M56.783,13.993c1.017,1.758,2.012,3.482,3.022,5.232h-6.039
			C54.771,17.483,55.768,15.755,56.783,13.993z M49.682,1.685c1.021,1.771,2.015,3.492,3.026,5.246h-6.057
			C47.665,5.177,48.66,3.456,49.682,1.685z M45.599,19.228h-6.04c1.008-1.744,1.998-3.467,3.02-5.236
			C43.598,15.761,44.592,17.481,45.599,19.228z M42.057,13.089h-6.059c1.006-1.744,2.002-3.475,3.027-5.25
			C40.049,9.61,41.043,11.333,42.057,13.089z M35.473,1.685c1.019,1.766,2.02,3.494,3.034,5.252h-6.063
			C33.458,5.181,34.455,3.45,35.473,1.685z M28.371,13.991c1.013,1.76,2.009,3.488,3.018,5.234H25.35
			C26.36,17.478,27.361,15.745,28.371,13.991z M28.371,25.106c-1.015-1.762-2.015-3.49-3.029-5.248H31.4
			C30.387,21.612,29.389,23.339,28.371,25.106z M31.924,18.95c-1.018-1.762-2.017-3.494-3.033-5.252h6.063
			C33.942,15.452,32.94,17.187,31.924,18.95z M28.887,13.097c1.012-1.752,2.011-3.48,3.036-5.256
			c1.018,1.766,2.016,3.492,3.035,5.256H28.887z M35.473,12.796c-1.013-1.758-2.008-3.482-3.02-5.234h6.043
			C37.485,9.312,36.488,11.036,35.473,12.796z M35.997,13.692h6.062c-1.012,1.756-2.01,3.484-3.033,5.258
			C38,17.175,37.006,15.448,35.997,13.692z M42.578,25.106c-1.02-1.768-2.017-3.494-3.026-5.248h6.053
			C44.593,21.612,43.598,23.339,42.578,25.106z M46.13,18.95c-1.021-1.77-2.02-3.5-3.032-5.256h6.062
			C48.148,15.448,47.152,17.179,46.13,18.95z M43.095,13.097c1.01-1.752,2.011-3.484,3.033-5.258c1.019,1.766,2.019,3.5,3.033,5.258
			H43.095z M46.662,7.569h6.035c-1.006,1.738-1.996,3.457-3.016,5.227C48.662,11.03,47.672,9.313,46.662,7.569z M53.231,7.841
			c1.024,1.773,2.022,3.502,3.034,5.256h-6.069C51.216,11.331,52.212,9.606,53.231,7.841z M50.2,13.694h6.063
			c-1.01,1.754-2.008,3.479-3.032,5.254C52.212,17.181,51.214,15.454,50.2,13.694z M56.783,25.103
			c-1.016-1.764-2.013-3.488-3.023-5.238h6.05C58.8,21.612,57.8,23.339,56.783,25.103z"/>
		<g>
			<linearGradient id="SVGID_32_" gradientUnits="userSpaceOnUse" x1="199.5" y1="29.4756" x2="18.4829" y2="29.4756">
				<stop  offset="0" style="stop-color:#A8AC2E"/>
				<stop  offset="1" style="stop-color:#A8AC2E"/>
			</linearGradient>
			<path fill="url(#SVGID_32_)" d="M22.361,29.261c-0.018,0.057-0.055,0.154-0.104,0.297c-0.041-0.124-0.074-0.225-0.1-0.297
				l-0.375-1.02h-0.76v2.469h0.688v-0.955l0.303,0.851h0.488l0.299-0.831v0.936h0.691v-2.469h-0.764L22.361,29.261z"/>
			<linearGradient id="SVGID_33_" gradientUnits="userSpaceOnUse" x1="199.5" y1="29.4756" x2="18.4829" y2="29.4756">
				<stop  offset="0" style="stop-color:#A8AC2E"/>
				<stop  offset="1" style="stop-color:#A8AC2E"/>
			</linearGradient>
			<path fill="url(#SVGID_33_)" d="M25.789,28.241h-0.66l-0.916,2.469h0.736l0.168-0.503h0.68l0.168,0.503h0.738L25.789,28.241z
				 M25.668,29.667h-0.424l0.127-0.395c0.029-0.092,0.059-0.186,0.088-0.282c0.021,0.083,0.051,0.177,0.086,0.282L25.668,29.667z"/>
			<linearGradient id="SVGID_34_" gradientUnits="userSpaceOnUse" x1="199.5" y1="29.4756" x2="18.4828" y2="29.4756">
				<stop  offset="0" style="stop-color:#A8AC2E"/>
				<stop  offset="1" style="stop-color:#A8AC2E"/>
			</linearGradient>
			<polygon fill="url(#SVGID_34_)" points="29.162,30.104 28.121,30.104 28.121,28.241 27.428,28.241 27.428,30.71 29.162,30.71 			
				"/>
			<linearGradient id="SVGID_35_" gradientUnits="userSpaceOnUse" x1="199.5" y1="29.4756" x2="18.4828" y2="29.4756">
				<stop  offset="0" style="stop-color:#A8AC2E"/>
				<stop  offset="1" style="stop-color:#A8AC2E"/>
			</linearGradient>
			<polygon fill="url(#SVGID_35_)" points="30.279,30.71 30.969,30.71 30.969,28.85 31.627,28.85 31.627,28.241 29.617,28.241 
				29.617,28.85 30.279,28.85 			"/>
			<linearGradient id="SVGID_36_" gradientUnits="userSpaceOnUse" x1="199.5" y1="29.4756" x2="18.4827" y2="29.4756">
				<stop  offset="0" style="stop-color:#A8AC2E"/>
				<stop  offset="1" style="stop-color:#A8AC2E"/>
			</linearGradient>
			<path fill="url(#SVGID_36_)" d="M38.818,29.394c0.035-0.033,0.064-0.072,0.092-0.114c0.061-0.093,0.092-0.203,0.092-0.325
				c0-0.222-0.08-0.398-0.232-0.525c-0.148-0.126-0.373-0.188-0.662-0.188h-1.023v2.469h1.141c0.26,0,0.473-0.074,0.623-0.219
				c0.158-0.145,0.232-0.333,0.232-0.561c0-0.158-0.041-0.293-0.127-0.402C38.91,29.476,38.865,29.431,38.818,29.394 M37.777,29.144
				V28.85h0.301c0.207,0,0.207,0.089,0.207,0.141c0,0.066-0.027,0.095-0.045,0.11c-0.039,0.029-0.098,0.043-0.17,0.043H37.777z
				 M38.367,29.931c0,0.058-0.018,0.096-0.053,0.123c-0.047,0.035-0.1,0.051-0.16,0.051h-0.377v-0.36h0.365
				c0.078,0,0.135,0.017,0.172,0.052C38.35,29.833,38.367,29.874,38.367,29.931"/>
			<linearGradient id="SVGID_37_" gradientUnits="userSpaceOnUse" x1="199.5" y1="29.4756" x2="18.4828" y2="29.4756">
				<stop  offset="0" style="stop-color:#A8AC2E"/>
				<stop  offset="1" style="stop-color:#A8AC2E"/>
			</linearGradient>
			<polygon fill="url(#SVGID_37_)" points="41.711,30.104 40.67,30.104 40.67,28.241 39.977,28.241 39.977,30.71 41.711,30.71 			
				"/>
			<linearGradient id="SVGID_38_" gradientUnits="userSpaceOnUse" x1="199.5" y1="29.4756" x2="18.4827" y2="29.4756">
				<stop  offset="0" style="stop-color:#A8AC2E"/>
				<stop  offset="1" style="stop-color:#A8AC2E"/>
			</linearGradient>
			<path fill="url(#SVGID_38_)" d="M44.299,30.403c0.207-0.236,0.312-0.547,0.312-0.925c0-0.381-0.105-0.692-0.312-0.928
				c-0.211-0.237-0.49-0.358-0.83-0.358c-0.342,0-0.619,0.121-0.83,0.358c-0.207,0.235-0.312,0.547-0.312,0.928
				c0,0.378,0.105,0.688,0.311,0.923c0.209,0.237,0.486,0.357,0.832,0.357C43.809,30.759,44.088,30.639,44.299,30.403
				 M43.775,29.991c-0.074,0.112-0.172,0.163-0.307,0.163s-0.23-0.051-0.307-0.162c-0.082-0.12-0.125-0.294-0.125-0.514
				s0.043-0.392,0.125-0.514c0.076-0.112,0.172-0.166,0.307-0.166s0.232,0.054,0.307,0.166c0.082,0.122,0.123,0.294,0.123,0.514
				C43.898,29.697,43.857,29.87,43.775,29.991"/>
			<linearGradient id="SVGID_39_" gradientUnits="userSpaceOnUse" x1="199.5" y1="29.4756" x2="18.4829" y2="29.4756">
				<stop  offset="0" style="stop-color:#A8AC2E"/>
				<stop  offset="1" style="stop-color:#A8AC2E"/>
			</linearGradient>
			<path fill="url(#SVGID_39_)" d="M46.879,30.714c0.104-0.03,0.193-0.07,0.268-0.117c0.072-0.047,0.141-0.105,0.201-0.17
				c0.061-0.062,0.109-0.123,0.146-0.183c0.035-0.06,0.064-0.116,0.09-0.178l0.045-0.111l-0.641-0.19l-0.037,0.092
				c-0.031,0.084-0.084,0.154-0.16,0.213c-0.072,0.059-0.152,0.084-0.242,0.084c-0.141,0-0.248-0.055-0.332-0.169
				c-0.09-0.122-0.133-0.296-0.133-0.511c0-0.213,0.043-0.381,0.133-0.505c0.084-0.114,0.188-0.17,0.332-0.17
				c0.09,0,0.16,0.022,0.211,0.063c0.062,0.049,0.117,0.113,0.162,0.193l0.045,0.072l0.607-0.186l-0.049-0.109
				c-0.078-0.184-0.203-0.337-0.369-0.456c-0.172-0.122-0.375-0.185-0.607-0.185c-0.342,0-0.629,0.118-0.848,0.354
				c-0.217,0.232-0.328,0.544-0.328,0.93c0,0.395,0.115,0.709,0.334,0.938c0.223,0.23,0.506,0.346,0.842,0.346
				C46.664,30.759,46.775,30.743,46.879,30.714"/>
			<linearGradient id="SVGID_40_" gradientUnits="userSpaceOnUse" x1="199.5" y1="29.4756" x2="18.4826" y2="29.4756">
				<stop  offset="0" style="stop-color:#A8AC2E"/>
				<stop  offset="1" style="stop-color:#A8AC2E"/>
			</linearGradient>
			<polygon fill="url(#SVGID_40_)" points="50.666,30.71 49.66,29.349 50.695,28.241 49.801,28.241 49.121,28.995 49.121,28.241 
				48.428,28.241 48.428,30.71 49.121,30.71 49.121,29.925 49.211,29.831 49.828,30.71 			"/>
			<linearGradient id="SVGID_41_" gradientUnits="userSpaceOnUse" x1="199.5" y1="29.4756" x2="18.4828" y2="29.4756">
				<stop  offset="0" style="stop-color:#A8AC2E"/>
				<stop  offset="1" style="stop-color:#A8AC2E"/>
			</linearGradient>
			<path fill="url(#SVGID_41_)" d="M52.6,30.714c0.104-0.03,0.195-0.07,0.27-0.117s0.141-0.105,0.201-0.17
				c0.062-0.062,0.109-0.123,0.146-0.183c0.035-0.06,0.066-0.116,0.092-0.178l0.045-0.111l-0.643-0.19l-0.035,0.092
				c-0.031,0.084-0.088,0.154-0.162,0.213c-0.072,0.059-0.15,0.084-0.244,0.084c-0.139,0-0.246-0.055-0.33-0.169
				c-0.088-0.122-0.135-0.296-0.135-0.511c0-0.213,0.045-0.381,0.135-0.505c0.084-0.114,0.189-0.17,0.33-0.17
				c0.092,0,0.16,0.022,0.215,0.063c0.061,0.049,0.115,0.113,0.16,0.193l0.043,0.072l0.609-0.186l-0.047-0.109
				c-0.078-0.184-0.205-0.337-0.373-0.456c-0.17-0.122-0.373-0.185-0.604-0.185c-0.342,0-0.631,0.118-0.85,0.354
				c-0.217,0.232-0.328,0.544-0.328,0.93c0,0.395,0.111,0.709,0.334,0.938c0.223,0.23,0.506,0.346,0.844,0.346
				C52.389,30.759,52.498,30.743,52.6,30.714"/>
			<linearGradient id="SVGID_42_" gradientUnits="userSpaceOnUse" x1="199.5" y1="29.4756" x2="18.4828" y2="29.4756">
				<stop  offset="0" style="stop-color:#A8AC2E"/>
				<stop  offset="1" style="stop-color:#A8AC2E"/>
			</linearGradient>
			<polygon fill="url(#SVGID_42_)" points="55.457,29.146 54.842,29.146 54.842,28.241 54.152,28.241 54.152,30.71 54.842,30.71 
				54.842,29.745 55.457,29.745 55.457,30.71 56.152,30.71 56.152,28.241 55.457,28.241 			"/>
			<linearGradient id="SVGID_43_" gradientUnits="userSpaceOnUse" x1="199.5" y1="29.4756" x2="18.4828" y2="29.4756">
				<stop  offset="0" style="stop-color:#A8AC2E"/>
				<stop  offset="1" style="stop-color:#A8AC2E"/>
			</linearGradient>
			<path fill="url(#SVGID_43_)" d="M63.465,28.241v1.014c0,0.062,0.002,0.125,0.004,0.186l-0.664-1.199h-0.66v2.469h0.695v-0.999
				c0-0.056-0.002-0.112-0.006-0.169l0.672,1.168h0.654v-2.469H63.465L63.465,28.241z"/>
			<linearGradient id="SVGID_44_" gradientUnits="userSpaceOnUse" x1="199.5" y1="29.4756" x2="18.4829" y2="29.4756">
				<stop  offset="0" style="stop-color:#A8AC2E"/>
				<stop  offset="1" style="stop-color:#A8AC2E"/>
			</linearGradient>
			<path fill="url(#SVGID_44_)" d="M32.941,30.207h0.68l0.168,0.503h0.736l-0.916-2.469h-0.658l-0.916,2.469h0.738L32.941,30.207z
				 M33.195,29.272c0.029-0.092,0.055-0.186,0.084-0.282c0.025,0.083,0.055,0.177,0.088,0.282l0.125,0.395h-0.424L33.195,29.272z"/>
			<linearGradient id="SVGID_45_" gradientUnits="userSpaceOnUse" x1="199.5" y1="29.4756" x2="18.4828" y2="29.4756">
				<stop  offset="0" style="stop-color:#A8AC2E"/>
				<stop  offset="1" style="stop-color:#A8AC2E"/>
			</linearGradient>
			<path fill="url(#SVGID_45_)" d="M57.783,28.241l-0.914,2.469h0.736l0.168-0.502h0.68l0.168,0.502h0.736l-0.914-2.469H57.783z
				 M58.324,29.667H57.9l0.127-0.395c0.029-0.092,0.057-0.186,0.086-0.282c0.023,0.083,0.053,0.178,0.086,0.282L58.324,29.667z"/>
			<linearGradient id="SVGID_46_" gradientUnits="userSpaceOnUse" x1="199.5" y1="29.4756" x2="18.4828" y2="29.4756">
				<stop  offset="0" style="stop-color:#A8AC2E"/>
				<stop  offset="1" style="stop-color:#A8AC2E"/>
			</linearGradient>
			<polygon fill="url(#SVGID_46_)" points="60.406,28.241 60.121,28.241 60.121,28.851 60.406,28.851 60.406,30.101 60.121,30.101 
				60.121,30.71 60.406,30.71 61.098,30.71 61.381,30.71 61.381,30.101 61.098,30.101 61.098,28.851 61.381,28.851 61.381,28.241 
				61.098,28.241 			"/>
		</g>
	</g>
	<g>
		<g>
			<path fill="#7F7F7F" d="M38.222,34.509h-0.545l-0.143-0.414h-0.758l-0.143,0.414h-0.531l0.756-2.047h0.607L38.222,34.509z
				 M37.407,33.72l-0.252-0.733l-0.252,0.733H37.407z"/>
			<path fill="#7F7F7F" d="M41.341,32.462l-0.552,2.047h-0.585l-0.366-1.333l-0.357,1.333h-0.584l-0.551-2.047h0.551l0.313,1.409
				l0.378-1.409h0.526l0.358,1.409l0.33-1.409H41.341z"/>
			<path fill="#7F7F7F" d="M43.583,34.509h-0.545l-0.143-0.414h-0.758l-0.143,0.414h-0.531l0.756-2.047h0.607L43.583,34.509z
				 M42.769,33.72l-0.252-0.733l-0.252,0.733H42.769z"/>
			<path fill="#7F7F7F" d="M45.849,34.509h-0.645l-0.558-0.75h-0.244v0.75h-0.525v-2.047h0.886c0.121,0,0.225,0.007,0.312,0.021
				c0.087,0.015,0.169,0.044,0.245,0.09c0.077,0.046,0.138,0.105,0.184,0.178c0.045,0.073,0.067,0.164,0.067,0.274
				c0,0.151-0.035,0.274-0.104,0.37c-0.07,0.095-0.171,0.174-0.301,0.237L45.849,34.509z M45.025,33.089
				c0-0.051-0.011-0.095-0.032-0.132c-0.021-0.036-0.057-0.065-0.108-0.087c-0.036-0.015-0.077-0.023-0.125-0.026
				s-0.104-0.005-0.166-0.005h-0.191v0.551h0.162c0.084,0,0.155-0.004,0.212-0.012c0.057-0.009,0.104-0.027,0.143-0.057
				c0.037-0.028,0.063-0.06,0.081-0.094C45.017,33.192,45.025,33.146,45.025,33.089z"/>
			<path fill="#7F7F7F" d="M48.014,33.487c0,0.19-0.044,0.361-0.131,0.513c-0.087,0.15-0.197,0.266-0.33,0.347
				c-0.1,0.061-0.209,0.103-0.328,0.126c-0.119,0.024-0.261,0.036-0.424,0.036h-0.722v-2.047h0.742c0.167,0,0.311,0.015,0.432,0.042
				c0.121,0.028,0.223,0.068,0.306,0.119c0.141,0.086,0.252,0.202,0.333,0.349C47.973,33.117,48.014,33.29,48.014,33.487z
				 M47.468,33.483c0-0.135-0.024-0.25-0.073-0.346c-0.05-0.096-0.127-0.171-0.233-0.225c-0.054-0.026-0.109-0.045-0.166-0.055
				c-0.056-0.009-0.141-0.014-0.255-0.014h-0.133v1.28h0.133c0.126,0,0.218-0.006,0.276-0.017c0.059-0.012,0.116-0.032,0.172-0.062
				c0.097-0.056,0.167-0.129,0.212-0.221S47.468,33.619,47.468,33.483z"/>
			<path fill="#7F7F7F" d="M50.054,33.865c0,0.202-0.085,0.365-0.256,0.491c-0.171,0.127-0.403,0.189-0.696,0.189
				c-0.17,0-0.317-0.015-0.443-0.045c-0.126-0.029-0.244-0.067-0.354-0.113v-0.49h0.059c0.108,0.087,0.23,0.153,0.366,0.2
				c0.135,0.047,0.265,0.07,0.39,0.07c0.031,0,0.074-0.003,0.126-0.008c0.053-0.006,0.095-0.015,0.128-0.028
				c0.04-0.017,0.073-0.037,0.1-0.062s0.039-0.062,0.039-0.11c0-0.045-0.019-0.083-0.057-0.115
				c-0.038-0.033-0.094-0.058-0.167-0.075c-0.077-0.019-0.158-0.036-0.244-0.052s-0.166-0.036-0.241-0.062
				c-0.173-0.056-0.296-0.131-0.372-0.228c-0.075-0.096-0.113-0.214-0.113-0.356c0-0.19,0.086-0.346,0.257-0.467
				c0.171-0.12,0.39-0.181,0.658-0.181c0.135,0,0.269,0.014,0.399,0.039c0.132,0.026,0.245,0.06,0.342,0.099v0.472h-0.057
				c-0.082-0.066-0.184-0.121-0.303-0.166c-0.119-0.044-0.242-0.066-0.366-0.066c-0.044,0-0.088,0.003-0.132,0.009
				c-0.043,0.006-0.085,0.018-0.125,0.034c-0.036,0.014-0.066,0.034-0.093,0.062c-0.025,0.027-0.038,0.06-0.038,0.095
				c0,0.055,0.021,0.096,0.062,0.125c0.042,0.028,0.119,0.055,0.234,0.079c0.075,0.016,0.146,0.03,0.216,0.045
				s0.144,0.035,0.224,0.061c0.156,0.052,0.272,0.121,0.347,0.21C50.017,33.609,50.054,33.725,50.054,33.865z"/>
		</g>
	</g>
</g>
</svg>
