<?xml version="1.0" encoding="utf-8"?>
<!-- Generator: Adobe Illustrator 16.0.0, SVG Export Plug-In . SVG Version: 6.00 Build 0)  -->
<!DOCTYPE svg PUBLIC "-//W3C//DTD SVG 1.1//EN" "http://www.w3.org/Graphics/SVG/1.1/DTD/svg11.dtd">
<svg version="1.1" id="Layer_1" xmlns="http://www.w3.org/2000/svg" xmlns:xlink="http://www.w3.org/1999/xlink" x="0px" y="0px"
	 width="200px" height="30px" viewBox="0 0 200 30" enable-background="new 0 0 200 30" xml:space="preserve">
<g>
	<linearGradient id="SVGID_1_" gradientUnits="userSpaceOnUse" x1="0" y1="15" x2="200" y2="15">
		<stop  offset="0" style="stop-color:#A8AC2E"/>
		<stop  offset="1" style="stop-color:#A8AC2E"/>
	</linearGradient>
	<path fill="url(#SVGID_1_)" d="M200,15c0,8.285-6.955,15-15.537,15H15.539C6.955,30,0,23.285,0,15l0,0C0,6.716,6.955,0,15.539,0
		h168.924C193.045,0,200,6.716,200,15L200,15z"/>
</g>
<g>
	<g>
		<path fill="#FFFFFF" d="M57.474,15.924h-4.438v5.475h-0.475V8.602h4.078c1.283,0,2.304,0.332,3.063,0.994s1.138,1.561,1.138,2.697
			c0,0.873-0.271,1.637-0.813,2.29s-1.232,1.06-2.07,1.218l3.419,5.475v0.123h-0.501L57.474,15.924z M53.036,15.449h4.034
			c0.984,0,1.78-0.299,2.386-0.896s0.91-1.352,0.91-2.26c0-0.996-0.335-1.781-1.006-2.355s-1.589-0.861-2.755-0.861h-3.568V15.449z"
			/>
		<path fill="#FFFFFF" d="M61.376,21.898h-0.501c-0.173,0-0.333-0.089-0.425-0.236l-3.254-5.238h-3.661v4.975
			c0,0.276-0.224,0.5-0.5,0.5h-0.475c-0.276,0-0.5-0.224-0.5-0.5V8.602c0-0.276,0.224-0.5,0.5-0.5h4.078
			c1.401,0,2.542,0.376,3.392,1.117c0.869,0.759,1.31,1.793,1.31,3.074c0,0.989-0.312,1.867-0.928,2.609
			c-0.461,0.557-1.023,0.958-1.676,1.2l3.065,4.908c0.049,0.079,0.076,0.171,0.076,0.265v0.123
			C61.876,21.675,61.653,21.898,61.376,21.898z M53.536,14.949h3.534c0.855,0,1.521-0.246,2.035-0.753
			c0.512-0.504,0.761-1.127,0.761-1.903c0-0.851-0.272-1.497-0.832-1.976c-0.575-0.492-1.392-0.741-2.43-0.741h-3.068V14.949z"/>
	</g>
	<g>
		<path fill="#FFFFFF" d="M71.273,15.053h-6.416v5.871h7.312v0.475h-7.787V8.602h7.787v0.475h-7.312v5.502h6.416V15.053z"/>
		<path fill="#FFFFFF" d="M72.169,21.898h-7.787c-0.276,0-0.5-0.224-0.5-0.5V8.602c0-0.276,0.224-0.5,0.5-0.5h7.787
			c0.276,0,0.5,0.224,0.5,0.5v0.475c0,0.276-0.224,0.5-0.5,0.5h-6.812v4.502h5.916c0.276,0,0.5,0.224,0.5,0.5v0.475
			c0,0.276-0.224,0.5-0.5,0.5h-5.916v4.871h6.812c0.276,0,0.5,0.224,0.5,0.5v0.475C72.669,21.675,72.446,21.898,72.169,21.898z"/>
	</g>
	<g>
		<path fill="#FFFFFF" d="M81.372,17.576h-6.267l-1.424,3.822h-0.519l4.79-12.797h0.58l4.79,12.797h-0.519L81.372,17.576z
			 M75.281,17.102h5.915l-2.953-7.928L75.281,17.102z"/>
		<path fill="#FFFFFF" d="M83.343,21.898c-0.007,0-0.013,0-0.02,0h-0.519c-0.208,0-0.395-0.129-0.468-0.324l-1.311-3.498h-5.573
			l-1.302,3.497c-0.073,0.195-0.26,0.325-0.469,0.325h-0.519c-0.164,0-0.317-0.08-0.411-0.215c-0.094-0.135-0.115-0.307-0.058-0.46
			l4.79-12.797c0.073-0.195,0.26-0.325,0.468-0.325h0.58c0.208,0,0.395,0.13,0.468,0.325l4.745,12.676
			c0.061,0.083,0.097,0.186,0.097,0.296C83.843,21.675,83.619,21.898,83.343,21.898z M76.001,16.602h4.475l-2.234-5.997
			L76.001,16.602z"/>
	</g>
	<g>
		<path fill="#FFFFFF" d="M85.379,21.398V8.602h3.542c0.99,0,1.887,0.234,2.689,0.703s1.433,1.127,1.89,1.974
			s0.691,1.794,0.703,2.843v1.662c0,1.066-0.224,2.027-0.672,2.883s-1.074,1.523-1.876,2.004s-1.699,0.723-2.689,0.729H85.379z
			 M85.854,9.076v11.848h3.067c0.896,0,1.712-0.218,2.448-0.654s1.311-1.046,1.727-1.828s0.627-1.65,0.633-2.605v-1.645
			c0-0.955-0.204-1.822-0.611-2.602s-0.976-1.39-1.705-1.832s-1.537-0.67-2.421-0.682H85.854z"/>
		<path fill="#FFFFFF" d="M88.965,21.898h-3.586c-0.276,0-0.5-0.224-0.5-0.5V8.602c0-0.276,0.224-0.5,0.5-0.5h3.542
			c1.075,0,2.065,0.26,2.941,0.771c0.879,0.514,1.578,1.242,2.078,2.168c0.494,0.915,0.75,1.949,0.763,3.074v1.668
			c0,1.144-0.246,2.191-0.729,3.115c-0.489,0.934-1.184,1.675-2.062,2.2c-0.875,0.524-1.866,0.793-2.943,0.8
			C88.967,21.898,88.966,21.898,88.965,21.898z M86.354,20.424h2.567c0.802,0,1.54-0.196,2.192-0.584
			c0.652-0.388,1.17-0.937,1.541-1.633c0.375-0.707,0.569-1.506,0.574-2.374v-1.642c0-0.869-0.187-1.667-0.554-2.37
			c-0.367-0.703-0.865-1.238-1.521-1.636c-0.649-0.394-1.379-0.599-2.169-0.609h-2.631V20.424z"/>
	</g>
	<g>
		<path fill="#FFFFFF" d="M102.141,8.602l5.264,12.104l5.283-12.104h0.693v12.797h-0.475V9.305l-5.309,12.094h-0.377l-5.283-12.031
			v12.031h-0.475V8.602H102.141z"/>
		<path fill="#FFFFFF" d="M113.381,21.898h-0.475c-0.276,0-0.5-0.224-0.5-0.5v-9.711l-4.351,9.912
			c-0.08,0.182-0.26,0.299-0.458,0.299h-0.377c-0.198,0-0.378-0.117-0.458-0.299l-4.325-9.851v9.649c0,0.276-0.224,0.5-0.5,0.5
			h-0.475c-0.276,0-0.5-0.224-0.5-0.5V8.602c0-0.276,0.224-0.5,0.5-0.5h0.678c0.199,0,0.379,0.118,0.459,0.301l4.806,11.051
			l4.824-11.052c0.079-0.182,0.259-0.3,0.458-0.3h0.693c0.276,0,0.5,0.224,0.5,0.5v12.797
			C113.881,21.675,113.657,21.898,113.381,21.898z"/>
	</g>
	<g>
		<path fill="#FFFFFF" d="M125.959,15.959c0,1.107-0.198,2.087-0.594,2.939s-0.959,1.512-1.691,1.978s-1.576,0.698-2.531,0.698
			c-1.441,0-2.607-0.512-3.498-1.537s-1.336-2.408-1.336-4.148v-1.846c0-1.102,0.197-2.08,0.593-2.936s0.961-1.517,1.696-1.982
			s1.578-0.699,2.527-0.699c0.955,0,1.8,0.233,2.535,0.699s1.303,1.128,1.701,1.986s0.598,1.836,0.598,2.932V15.959z
			 M125.484,14.025c0-1.547-0.393-2.788-1.178-3.723S122.461,8.9,121.125,8.9c-1.318,0-2.371,0.465-3.156,1.394
			s-1.178,2.192-1.178,3.792v1.873c0,1.02,0.178,1.92,0.532,2.702s0.86,1.384,1.517,1.806s1.424,0.633,2.303,0.633
			c1.336,0,2.393-0.465,3.172-1.396s1.17-2.203,1.17-3.814V14.025z"/>
		<path fill="#FFFFFF" d="M121.143,22.074c-1.587,0-2.891-0.575-3.876-1.709c-0.968-1.114-1.458-2.62-1.458-4.477v-1.846
			c0-1.17,0.215-2.229,0.639-3.146c0.436-0.94,1.068-1.679,1.883-2.195c0.813-0.515,1.754-0.776,2.795-0.776
			c1.046,0,1.989,0.262,2.803,0.776c0.814,0.517,1.449,1.256,1.887,2.198c0.428,0.921,0.645,1.979,0.645,3.143v1.916
			c0,1.175-0.216,2.234-0.641,3.149c-0.435,0.938-1.065,1.674-1.876,2.189S122.19,22.074,121.143,22.074z M121.125,9.4
			c-1.175,0-2.082,0.397-2.774,1.217c-0.703,0.831-1.06,1.998-1.06,3.469v1.873c0,0.942,0.164,1.782,0.487,2.496
			c0.316,0.698,0.752,1.219,1.332,1.591c0.571,0.367,1.255,0.554,2.032,0.554c1.191,0,2.104-0.398,2.788-1.217
			c0.699-0.836,1.054-2.012,1.054-3.494v-1.863c0-1.419-0.356-2.563-1.061-3.401C123.231,9.801,122.316,9.4,121.125,9.4z"/>
	</g>
	<g>
		<path fill="#FFFFFF" d="M133.754,15.924h-4.438v5.475h-0.475V8.602h4.078c1.283,0,2.304,0.332,3.062,0.994
			s1.139,1.561,1.139,2.697c0,0.873-0.271,1.637-0.813,2.29s-1.231,1.06-2.069,1.218l3.418,5.475v0.123h-0.5L133.754,15.924z
			 M129.316,15.449h4.033c0.984,0,1.78-0.299,2.387-0.896s0.91-1.352,0.91-2.26c0-0.996-0.336-1.781-1.007-2.355
			s-1.589-0.861-2.755-0.861h-3.568V15.449z"/>
		<path fill="#FFFFFF" d="M137.656,21.898h-0.5c-0.173,0-0.333-0.089-0.425-0.236l-3.256-5.238h-3.659v4.975
			c0,0.276-0.224,0.5-0.5,0.5h-0.475c-0.276,0-0.5-0.224-0.5-0.5V8.602c0-0.276,0.224-0.5,0.5-0.5h4.078
			c1.4,0,2.542,0.376,3.392,1.117c0.869,0.759,1.31,1.793,1.31,3.074c0,0.988-0.312,1.866-0.929,2.609
			c-0.462,0.557-1.023,0.958-1.676,1.2l3.063,4.908c0.05,0.079,0.076,0.171,0.076,0.265v0.123
			C138.156,21.675,137.933,21.898,137.656,21.898z M129.816,14.949h3.533c0.856,0,1.521-0.246,2.036-0.753
			c0.512-0.505,0.761-1.127,0.761-1.903c0-0.851-0.272-1.496-0.832-1.976c-0.574-0.492-1.392-0.741-2.43-0.741h-3.068V14.949z"/>
	</g>
	<g>
		<path fill="#FFFFFF" d="M147.553,15.053h-6.416v5.871h7.312v0.475h-7.787V8.602h7.787v0.475h-7.312v5.502h6.416V15.053z"/>
		<path fill="#FFFFFF" d="M148.449,21.898h-7.787c-0.276,0-0.5-0.224-0.5-0.5V8.602c0-0.276,0.224-0.5,0.5-0.5h7.787
			c0.276,0,0.5,0.224,0.5,0.5v0.475c0,0.276-0.224,0.5-0.5,0.5h-6.812v4.502h5.916c0.276,0,0.5,0.224,0.5,0.5v0.475
			c0,0.276-0.224,0.5-0.5,0.5h-5.916v4.871h6.812c0.276,0,0.5,0.224,0.5,0.5v0.475C148.949,21.675,148.726,21.898,148.449,21.898z"
			/>
	</g>
</g>
</svg>
