<?xml version="1.0" encoding="utf-8"?>
<!-- Generator: Adobe Illustrator 16.0.0, SVG Export Plug-In . SVG Version: 6.00 Build 0)  -->
<!DOCTYPE svg PUBLIC "-//W3C//DTD SVG 1.1//EN" "http://www.w3.org/Graphics/SVG/1.1/DTD/svg11.dtd">
<svg version="1.1" id="Layer_1" xmlns="http://www.w3.org/2000/svg" xmlns:xlink="http://www.w3.org/1999/xlink" x="0px" y="0px"
	 width="300.062px" height="30px" viewBox="0 0 300.062 30" enable-background="new 0 0 300.062 30" xml:space="preserve">
<g>
	<linearGradient id="SVGID_1_" gradientUnits="userSpaceOnUse" x1="0.0615" y1="15" x2="300.0615" y2="15">
		<stop  offset="0" style="stop-color:#A8AC2E"/>
		<stop  offset="1" style="stop-color:#A8AC2E"/>
	</linearGradient>
	<path fill="url(#SVGID_1_)" d="M300.062,15c0,8.285-6.955,15-15.537,15H15.601C7.017,30,0.062,23.285,0.062,15l0,0
		c0-8.284,6.955-15,15.539-15h268.924C293.106,0,300.062,6.716,300.062,15L300.062,15z"/>
</g>
<g>
	<g>
		<path fill="#FFFFFF" d="M36.467,18.331c0-0.545-0.127-1.007-0.382-1.384c-0.255-0.379-0.656-0.713-1.204-1.002
			c-0.548-0.291-1.375-0.588-2.483-0.893s-1.938-0.612-2.492-0.923s-0.959-0.671-1.217-1.081s-0.387-0.908-0.387-1.494
			c0-0.932,0.393-1.686,1.178-2.264c0.785-0.576,1.808-0.865,3.067-0.865c0.82,0,1.557,0.16,2.21,0.479
			c0.653,0.32,1.159,0.768,1.516,1.346c0.357,0.576,0.536,1.229,0.536,1.955h-0.475c0-0.955-0.352-1.744-1.055-2.369
			C34.577,9.213,33.666,8.9,32.547,8.9c-1.125,0-2.035,0.25-2.729,0.752c-0.694,0.5-1.042,1.129-1.042,1.885
			c0,0.768,0.302,1.386,0.905,1.854s1.6,0.884,2.988,1.243c1.389,0.361,2.405,0.778,3.05,1.253c0.82,0.604,1.23,1.412,1.23,2.426
			c0,0.645-0.182,1.214-0.545,1.71c-0.363,0.494-0.879,0.877-1.547,1.146s-1.418,0.404-2.25,0.404c-0.926,0-1.758-0.154-2.496-0.461
			c-0.738-0.309-1.293-0.746-1.666-1.314s-0.558-1.239-0.558-2.013h0.475c0,1.049,0.393,1.863,1.178,2.443s1.808,0.87,3.067,0.87
			c1.119,0,2.042-0.256,2.769-0.77C36.104,19.818,36.467,19.151,36.467,18.331z"/>
		<path fill="#FFFFFF" d="M32.608,22.074c-0.986,0-1.891-0.168-2.688-0.499c-0.83-0.348-1.466-0.853-1.892-1.503
			c-0.424-0.648-0.64-1.417-0.64-2.286c0-0.276,0.224-0.5,0.5-0.5h0.475c0.276,0,0.5,0.224,0.5,0.5c0,0.889,0.319,1.557,0.975,2.041
			c0.694,0.513,1.626,0.772,2.771,0.772c1.009,0,1.844-0.229,2.48-0.678c0.591-0.417,0.878-0.937,0.878-1.591
			c0-0.441-0.1-0.812-0.296-1.104c-0.208-0.309-0.552-0.591-1.023-0.84c-0.512-0.271-1.312-0.559-2.382-0.853
			c-1.157-0.318-2.009-0.636-2.604-0.969c-0.625-0.351-1.094-0.771-1.396-1.252c-0.308-0.488-0.463-1.081-0.463-1.76
			c0-1.095,0.465-1.991,1.381-2.666c0.871-0.64,2.002-0.963,3.364-0.963c0.892,0,1.709,0.178,2.43,0.529
			c0.738,0.361,1.317,0.877,1.722,1.532c0.405,0.653,0.611,1.399,0.611,2.218c0,0.276-0.224,0.5-0.5,0.5h-0.475
			c-0.276,0-0.5-0.224-0.5-0.5c0-0.812-0.29-1.465-0.887-1.995c-0.614-0.545-1.4-0.81-2.401-0.81c-1.013,0-1.833,0.221-2.436,0.657
			c-0.562,0.404-0.834,0.889-0.834,1.479c0,0.61,0.233,1.088,0.712,1.46c0.548,0.425,1.492,0.813,2.807,1.153
			c1.466,0.382,2.52,0.818,3.221,1.335c0.952,0.7,1.434,1.651,1.434,2.828c0,0.749-0.216,1.424-0.642,2.005
			c-0.418,0.57-1.012,1.012-1.763,1.315C34.321,21.926,33.501,22.074,32.608,22.074z"/>
	</g>
	<g>
		<path fill="#FFFFFF" d="M47.963,9.076h-4.658v12.322H42.83V9.076h-4.658V8.602h9.791V9.076z"/>
		<path fill="#FFFFFF" d="M43.305,21.898H42.83c-0.276,0-0.5-0.224-0.5-0.5V9.576h-4.158c-0.276,0-0.5-0.224-0.5-0.5V8.602
			c0-0.276,0.224-0.5,0.5-0.5h9.791c0.276,0,0.5,0.224,0.5,0.5v0.475c0,0.276-0.224,0.5-0.5,0.5h-4.158v11.822
			C43.805,21.675,43.581,21.898,43.305,21.898z"/>
	</g>
	<g>
		<path fill="#FFFFFF" d="M56.251,17.575h-6.267l-1.424,3.823h-0.519l4.79-12.797h0.58l4.79,12.797h-0.519L56.251,17.575z
			 M50.16,17.101h5.915l-2.953-7.928L50.16,17.101z"/>
		<path fill="#FFFFFF" d="M58.222,21.898c-0.007,0-0.013,0-0.02,0h-0.519c-0.208,0-0.395-0.129-0.468-0.324l-1.311-3.499h-5.573
			l-1.302,3.498c-0.073,0.195-0.26,0.325-0.469,0.325h-0.519c-0.164,0-0.317-0.08-0.411-0.215c-0.094-0.135-0.115-0.307-0.058-0.46
			l4.79-12.797c0.073-0.195,0.26-0.325,0.468-0.325h0.58c0.208,0,0.395,0.13,0.468,0.325l4.745,12.676
			c0.061,0.083,0.097,0.186,0.097,0.296C58.722,21.675,58.498,21.898,58.222,21.898z M50.881,16.601h4.475l-2.234-5.997
			L50.881,16.601z"/>
	</g>
	<g>
		<path fill="#FFFFFF" d="M65.128,15.923h-4.438v5.476h-0.475V8.602h4.078c1.283,0,2.304,0.331,3.063,0.993s1.138,1.562,1.138,2.698
			c0,0.873-0.271,1.637-0.813,2.289c-0.542,0.654-1.232,1.06-2.07,1.218l3.419,5.476v0.123h-0.501L65.128,15.923z M60.689,15.448
			h4.034c0.984,0,1.78-0.299,2.386-0.896s0.91-1.351,0.91-2.259c0-0.996-0.335-1.781-1.006-2.355s-1.589-0.861-2.755-0.861h-3.568
			V15.448z"/>
		<path fill="#FFFFFF" d="M69.03,21.898h-0.501c-0.173,0-0.333-0.089-0.425-0.236l-3.254-5.239h-3.661v4.976
			c0,0.276-0.224,0.5-0.5,0.5h-0.475c-0.276,0-0.5-0.224-0.5-0.5V8.602c0-0.276,0.224-0.5,0.5-0.5h4.078
			c1.401,0,2.543,0.376,3.392,1.116c0.869,0.759,1.31,1.793,1.31,3.075c0,0.989-0.312,1.867-0.928,2.608
			c-0.461,0.557-1.023,0.958-1.676,1.201l3.065,4.908c0.049,0.079,0.076,0.171,0.076,0.265v0.123
			C69.53,21.675,69.307,21.898,69.03,21.898z M61.189,14.948h3.534c0.855,0,1.521-0.246,2.035-0.753
			c0.512-0.504,0.761-1.126,0.761-1.902c0-0.851-0.272-1.497-0.832-1.976c-0.575-0.492-1.392-0.741-2.43-0.741h-3.068V14.948z"/>
	</g>
	<g>
		<path fill="#FFFFFF" d="M79.85,9.076h-4.658v12.322h-0.475V9.076h-4.658V8.602h9.791V9.076z"/>
		<path fill="#FFFFFF" d="M75.191,21.898h-0.475c-0.276,0-0.5-0.224-0.5-0.5V9.576h-4.158c-0.276,0-0.5-0.224-0.5-0.5V8.602
			c0-0.276,0.224-0.5,0.5-0.5h9.791c0.276,0,0.5,0.224,0.5,0.5v0.475c0,0.276-0.224,0.5-0.5,0.5h-4.158v11.822
			C75.691,21.675,75.468,21.898,75.191,21.898z"/>
	</g>
	<g>
		<path fill="#FFFFFF" d="M89.641,16.107l4.482-7.506h0.58l-4.825,7.937v4.86h-0.475v-4.86l-4.825-7.937h0.633L89.641,16.107z"/>
		<path fill="#FFFFFF" d="M89.878,21.898h-0.475c-0.276,0-0.5-0.224-0.5-0.5v-4.721l-4.752-7.816
			c-0.094-0.154-0.097-0.348-0.009-0.505c0.089-0.157,0.255-0.255,0.436-0.255h0.633c0.177,0,0.341,0.094,0.431,0.246l4.001,6.78
			l4.051-6.783c0.09-0.15,0.253-0.243,0.429-0.243h0.58c0.181,0,0.347,0.098,0.436,0.255c0.088,0.157,0.085,0.351-0.009,0.505
			l-4.752,7.816v4.721C90.378,21.675,90.154,21.898,89.878,21.898z"/>
	</g>
	<g>
		<path fill="#FFFFFF" d="M105.602,15.958c0,1.107-0.197,2.087-0.594,2.94c-0.395,0.852-0.959,1.512-1.691,1.977
			c-0.732,0.467-1.576,0.699-2.531,0.699c-1.441,0-2.607-0.513-3.498-1.538s-1.336-2.408-1.336-4.148v-1.846
			c0-1.102,0.198-2.08,0.593-2.936s0.961-1.517,1.696-1.981c0.735-0.467,1.578-0.699,2.527-0.699c0.955,0,1.801,0.232,2.535,0.699
			c0.736,0.465,1.303,1.127,1.701,1.986c0.398,0.857,0.598,1.835,0.598,2.931V15.958z M105.127,14.024
			c0-1.547-0.393-2.788-1.178-3.722c-0.785-0.936-1.846-1.402-3.182-1.402c-1.318,0-2.37,0.465-3.155,1.393
			c-0.785,0.93-1.178,2.193-1.178,3.793v1.872c0,1.02,0.177,1.921,0.532,2.702c0.354,0.783,0.86,1.385,1.516,1.807
			s1.424,0.633,2.303,0.633c1.336,0,2.394-0.466,3.173-1.397s1.169-2.203,1.169-3.814V14.024z"/>
		<path fill="#FFFFFF" d="M100.785,22.074c-1.586,0-2.89-0.575-3.875-1.71c-0.968-1.114-1.458-2.62-1.458-4.477v-1.846
			c0-1.169,0.215-2.228,0.64-3.146c0.435-0.941,1.068-1.68,1.883-2.194c0.812-0.515,1.752-0.776,2.794-0.776
			c1.049,0,1.992,0.262,2.804,0.777c0.813,0.514,1.448,1.253,1.887,2.198c0.427,0.919,0.644,1.976,0.644,3.141v1.916
			c0,1.177-0.216,2.236-0.641,3.151c-0.434,0.937-1.065,1.673-1.877,2.188C102.775,21.812,101.834,22.074,100.785,22.074z
			 M100.768,9.4c-1.174,0-2.082,0.397-2.773,1.216c-0.703,0.832-1.06,2-1.06,3.47v1.872c0,0.943,0.164,1.783,0.487,2.495
			c0.317,0.7,0.752,1.221,1.332,1.593c0.571,0.367,1.255,0.554,2.032,0.554c1.191,0,2.104-0.398,2.789-1.218
			c0.698-0.835,1.053-2.011,1.053-3.494v-1.863c0-1.419-0.356-2.563-1.061-3.399C102.875,9.801,101.96,9.4,100.768,9.4z"/>
	</g>
	<g>
		<path fill="#FFFFFF" d="M117.142,8.602v8.666c0,1.354-0.393,2.41-1.178,3.168c-0.785,0.76-1.849,1.139-3.19,1.139
			s-2.405-0.379-3.19-1.139c-0.785-0.758-1.181-1.803-1.187-3.133V8.602h0.475v8.648c0,1.184,0.355,2.121,1.068,2.812
			c0.711,0.691,1.656,1.037,2.834,1.037s2.121-0.346,2.83-1.037s1.063-1.632,1.063-2.821v-8.64H117.142z"/>
		<path fill="#FFFFFF" d="M112.773,22.074c-1.471,0-2.661-0.431-3.538-1.279c-0.882-0.852-1.332-2.025-1.339-3.49V8.602
			c0-0.276,0.224-0.5,0.5-0.5h0.475c0.276,0,0.5,0.224,0.5,0.5v8.648c0,1.053,0.3,1.855,0.916,2.453
			c0.62,0.604,1.434,0.896,2.486,0.896c1.052,0,1.863-0.293,2.481-0.896c0.613-0.599,0.912-1.404,0.912-2.463v-8.64
			c0-0.276,0.224-0.5,0.5-0.5h0.475c0.276,0,0.5,0.224,0.5,0.5v8.666c0,1.488-0.447,2.676-1.33,3.527
			C115.435,21.644,114.244,22.074,112.773,22.074z"/>
	</g>
	<g>
		<path fill="#FFFFFF" d="M125.395,15.923h-4.438v5.476h-0.475V8.602h4.078c1.283,0,2.304,0.331,3.063,0.993
			c0.758,0.662,1.138,1.562,1.138,2.698c0,0.873-0.271,1.637-0.813,2.289c-0.541,0.654-1.231,1.06-2.069,1.218l3.419,5.476v0.123
			h-0.501L125.395,15.923z M120.956,15.448h4.034c0.984,0,1.779-0.299,2.387-0.896c0.605-0.598,0.909-1.351,0.909-2.259
			c0-0.996-0.335-1.781-1.007-2.355c-0.67-0.574-1.589-0.861-2.755-0.861h-3.568V15.448z"/>
		<path fill="#FFFFFF" d="M129.297,21.898h-0.501c-0.173,0-0.334-0.089-0.425-0.236l-3.255-5.239h-3.66v4.976
			c0,0.276-0.224,0.5-0.5,0.5h-0.475c-0.276,0-0.5-0.224-0.5-0.5V8.602c0-0.276,0.224-0.5,0.5-0.5h4.078
			c1.4,0,2.542,0.376,3.392,1.116c0.869,0.759,1.31,1.794,1.31,3.075c0,0.99-0.312,1.868-0.929,2.609
			c-0.46,0.556-1.021,0.957-1.676,1.2l3.064,4.908c0.05,0.079,0.076,0.171,0.076,0.265v0.123
			C129.797,21.675,129.573,21.898,129.297,21.898z M121.456,14.948h3.534c0.855,0,1.521-0.246,2.036-0.753
			c0.511-0.505,0.76-1.127,0.76-1.902c0-0.851-0.272-1.497-0.832-1.976c-0.574-0.492-1.392-0.741-2.43-0.741h-3.068V14.948z"/>
	</g>
	<g>
		<path fill="#FFFFFF" d="M137.084,15.993v5.405h-0.475V8.602h3.999c1.307,0,2.321,0.33,3.046,0.988
			c0.723,0.66,1.085,1.575,1.085,2.747c0,1.16-0.353,2.057-1.06,2.689c-0.705,0.633-1.709,0.955-3.01,0.967H137.084z
			 M137.084,15.519h3.524c1.154,0,2.052-0.278,2.694-0.835c0.641-0.557,0.962-1.333,0.962-2.329c0-1.031-0.321-1.835-0.962-2.413
			c-0.643-0.576-1.54-0.865-2.694-0.865h-3.524V15.519z"/>
		<path fill="#FFFFFF" d="M137.084,21.898h-0.475c-0.276,0-0.5-0.224-0.5-0.5V8.602c0-0.276,0.224-0.5,0.5-0.5h3.999
			c1.428,0,2.565,0.376,3.382,1.118c0.829,0.757,1.249,1.806,1.249,3.117c0,1.304-0.412,2.334-1.227,3.062
			c-0.794,0.713-1.918,1.081-3.338,1.094h-3.091v4.905C137.584,21.675,137.36,21.898,137.084,21.898z M137.584,15.019h3.024
			c1.024,0,1.821-0.24,2.367-0.713c0.53-0.461,0.789-1.1,0.789-1.951c0-0.89-0.261-1.558-0.797-2.042
			c-0.545-0.488-1.339-0.736-2.359-0.736h-3.024V15.019z"/>
	</g>
	<g>
		<path fill="#FFFFFF" d="M156.481,15.958c0,1.107-0.198,2.087-0.593,2.94c-0.396,0.852-0.96,1.512-1.692,1.977
			c-0.732,0.467-1.576,0.699-2.531,0.699c-1.441,0-2.607-0.513-3.498-1.538s-1.336-2.408-1.336-4.148v-1.846
			c0-1.102,0.198-2.08,0.593-2.936c0.396-0.855,0.961-1.517,1.697-1.981c0.734-0.467,1.577-0.699,2.526-0.699
			c0.955,0,1.8,0.232,2.536,0.699c0.734,0.465,1.302,1.127,1.7,1.986c0.398,0.857,0.598,1.835,0.598,2.931V15.958z M156.007,14.024
			c0-1.547-0.393-2.788-1.178-3.722c-0.785-0.936-1.846-1.402-3.182-1.402c-1.318,0-2.37,0.465-3.155,1.393
			c-0.785,0.93-1.178,2.193-1.178,3.793v1.872c0,1.02,0.178,1.921,0.531,2.702c0.355,0.783,0.86,1.385,1.517,1.807
			s1.424,0.633,2.303,0.633c1.336,0,2.394-0.466,3.173-1.397s1.169-2.203,1.169-3.814V14.024z"/>
		<path fill="#FFFFFF" d="M151.665,22.074c-1.586,0-2.89-0.575-3.876-1.71c-0.968-1.114-1.458-2.62-1.458-4.477v-1.846
			c0-1.168,0.215-2.226,0.639-3.145c0.438-0.943,1.071-1.682,1.885-2.195c0.81-0.515,1.75-0.776,2.793-0.776
			c1.047,0,1.99,0.262,2.804,0.777c0.814,0.515,1.449,1.255,1.887,2.198c0.427,0.919,0.644,1.976,0.644,3.141v1.916
			c0,1.173-0.215,2.233-0.639,3.15c-0.438,0.939-1.069,1.675-1.879,2.188C153.655,21.812,152.714,22.074,151.665,22.074z
			 M151.647,9.4c-1.174,0-2.081,0.397-2.773,1.216c-0.703,0.832-1.06,2-1.06,3.47v1.872c0,0.942,0.164,1.782,0.486,2.496
			c0.317,0.699,0.754,1.221,1.332,1.592c0.571,0.367,1.255,0.554,2.032,0.554c1.191,0,2.104-0.398,2.789-1.218
			c0.698-0.835,1.053-2.011,1.053-3.494v-1.863c0-1.419-0.356-2.563-1.061-3.399C153.755,9.801,152.84,9.4,151.647,9.4z"/>
	</g>
	<g>
		<path fill="#FFFFFF" d="M164.277,15.923h-4.438v5.476h-0.475V8.602h4.078c1.283,0,2.304,0.331,3.063,0.993
			c0.758,0.662,1.138,1.562,1.138,2.698c0,0.873-0.271,1.637-0.813,2.289c-0.541,0.654-1.231,1.06-2.069,1.218l3.419,5.476v0.123
			h-0.501L164.277,15.923z M159.839,15.448h4.034c0.984,0,1.779-0.299,2.387-0.896c0.605-0.598,0.909-1.351,0.909-2.259
			c0-0.996-0.335-1.781-1.007-2.355c-0.67-0.574-1.589-0.861-2.755-0.861h-3.568V15.448z"/>
		<path fill="#FFFFFF" d="M168.18,21.898h-0.501c-0.173,0-0.334-0.089-0.425-0.236l-3.255-5.239h-3.66v4.976
			c0,0.276-0.224,0.5-0.5,0.5h-0.475c-0.276,0-0.5-0.224-0.5-0.5V8.602c0-0.276,0.224-0.5,0.5-0.5h4.078
			c1.4,0,2.542,0.376,3.392,1.116c0.869,0.759,1.31,1.794,1.31,3.075c0,0.99-0.312,1.868-0.929,2.609
			c-0.46,0.556-1.021,0.957-1.676,1.2l3.064,4.908c0.05,0.079,0.076,0.171,0.076,0.265v0.123
			C168.68,21.675,168.456,21.898,168.18,21.898z M160.339,14.948h3.534c0.855,0,1.521-0.246,2.036-0.753
			c0.511-0.505,0.76-1.127,0.76-1.902c0-0.851-0.272-1.497-0.832-1.976c-0.574-0.492-1.392-0.741-2.43-0.741h-3.068V14.948z"/>
	</g>
	<g>
		<path fill="#FFFFFF" d="M178.999,9.076h-4.658v12.322h-0.475V9.076h-4.658V8.602h9.791V9.076z"/>
		<path fill="#FFFFFF" d="M174.341,21.898h-0.475c-0.276,0-0.5-0.224-0.5-0.5V9.576h-4.158c-0.276,0-0.5-0.224-0.5-0.5V8.602
			c0-0.276,0.224-0.5,0.5-0.5h9.791c0.276,0,0.5,0.224,0.5,0.5v0.475c0,0.276-0.224,0.5-0.5,0.5h-4.158v11.822
			C174.841,21.675,174.617,21.898,174.341,21.898z"/>
	</g>
	<g>
		<path fill="#FFFFFF" d="M188.271,15.105h-6.557v6.293h-0.475V8.602h7.928v0.475h-7.453v5.537h6.557V15.105z"/>
		<path fill="#FFFFFF" d="M181.715,21.898h-0.475c-0.276,0-0.5-0.224-0.5-0.5V8.602c0-0.276,0.224-0.5,0.5-0.5h7.928
			c0.276,0,0.5,0.224,0.5,0.5v0.475c0,0.276-0.224,0.5-0.5,0.5h-6.953v4.537h6.057c0.276,0,0.5,0.224,0.5,0.5v0.492
			c0,0.276-0.224,0.5-0.5,0.5h-6.057v5.793C182.215,21.675,181.991,21.898,181.715,21.898z"/>
	</g>
	<g>
		<path fill="#FFFFFF" d="M200.603,15.958c0,1.107-0.198,2.087-0.593,2.94c-0.396,0.852-0.96,1.512-1.692,1.977
			c-0.732,0.467-1.576,0.699-2.531,0.699c-1.441,0-2.607-0.513-3.498-1.538s-1.336-2.408-1.336-4.148v-1.846
			c0-1.102,0.198-2.08,0.593-2.936c0.396-0.855,0.961-1.517,1.697-1.981c0.734-0.467,1.577-0.699,2.526-0.699
			c0.955,0,1.8,0.232,2.536,0.699c0.734,0.465,1.302,1.127,1.7,1.986c0.398,0.857,0.598,1.835,0.598,2.931V15.958z M200.128,14.024
			c0-1.547-0.393-2.788-1.178-3.722c-0.785-0.936-1.846-1.402-3.182-1.402c-1.318,0-2.37,0.465-3.155,1.393
			c-0.785,0.93-1.178,2.193-1.178,3.793v1.872c0,1.02,0.178,1.921,0.531,2.702c0.355,0.783,0.86,1.385,1.517,1.807
			s1.424,0.633,2.303,0.633c1.336,0,2.394-0.466,3.173-1.397s1.169-2.203,1.169-3.814V14.024z"/>
		<path fill="#FFFFFF" d="M195.786,22.074c-1.586,0-2.89-0.575-3.876-1.71c-0.968-1.114-1.458-2.62-1.458-4.477v-1.846
			c0-1.168,0.215-2.226,0.639-3.145c0.438-0.943,1.071-1.682,1.885-2.195c0.81-0.515,1.75-0.776,2.793-0.776
			c1.047,0,1.99,0.262,2.804,0.777c0.814,0.515,1.449,1.255,1.887,2.198c0.427,0.919,0.644,1.976,0.644,3.141v1.916
			c0,1.173-0.215,2.233-0.639,3.15c-0.438,0.939-1.069,1.675-1.879,2.188C197.776,21.812,196.835,22.074,195.786,22.074z
			 M195.769,9.4c-1.174,0-2.081,0.397-2.773,1.216c-0.703,0.832-1.06,2-1.06,3.47v1.872c0,0.942,0.164,1.782,0.486,2.496
			c0.317,0.699,0.754,1.221,1.332,1.592c0.571,0.367,1.255,0.554,2.032,0.554c1.191,0,2.104-0.398,2.789-1.218
			c0.698-0.835,1.053-2.011,1.053-3.494v-1.863c0-1.419-0.356-2.563-1.061-3.399C197.876,9.801,196.961,9.4,195.769,9.4z"/>
	</g>
	<g>
		<path fill="#FFFFFF" d="M204.013,20.924h6.565v0.475h-7.049V8.602h0.483V20.924z"/>
		<path fill="#FFFFFF" d="M210.578,21.898h-7.049c-0.276,0-0.5-0.224-0.5-0.5V8.602c0-0.276,0.224-0.5,0.5-0.5h0.483
			c0.276,0,0.5,0.224,0.5,0.5v11.822h6.065c0.276,0,0.5,0.224,0.5,0.5v0.475C211.078,21.675,210.854,21.898,210.578,21.898z"/>
	</g>
	<g>
		<path fill="#FFFFFF" d="M213.646,21.398h-0.475V8.602h0.475V21.398z"/>
		<path fill="#FFFFFF" d="M213.646,21.898h-0.475c-0.276,0-0.5-0.224-0.5-0.5V8.602c0-0.276,0.224-0.5,0.5-0.5h0.475
			c0.276,0,0.5,0.224,0.5,0.5v12.797C214.146,21.675,213.922,21.898,213.646,21.898z"/>
	</g>
	<g>
		<path fill="#FFFFFF" d="M226.574,15.958c0,1.107-0.197,2.087-0.594,2.94c-0.395,0.852-0.959,1.512-1.691,1.977
			c-0.732,0.467-1.576,0.699-2.531,0.699c-1.441,0-2.607-0.513-3.498-1.538s-1.336-2.408-1.336-4.148v-1.846
			c0-1.102,0.197-2.08,0.594-2.936c0.395-0.855,0.961-1.517,1.695-1.981c0.736-0.467,1.578-0.699,2.527-0.699
			c0.955,0,1.801,0.232,2.535,0.699c0.736,0.465,1.303,1.127,1.701,1.986c0.398,0.857,0.598,1.835,0.598,2.931V15.958z
			 M226.1,14.024c0-1.547-0.393-2.788-1.178-3.722c-0.785-0.936-1.846-1.402-3.182-1.402c-1.318,0-2.37,0.465-3.155,1.393
			c-0.785,0.93-1.178,2.193-1.178,3.793v1.872c0,1.02,0.177,1.921,0.532,2.702c0.354,0.783,0.859,1.385,1.516,1.807
			s1.424,0.633,2.303,0.633c1.336,0,2.394-0.466,3.173-1.397s1.169-2.203,1.169-3.814V14.024z"/>
		<path fill="#FFFFFF" d="M221.758,22.074c-1.586,0-2.89-0.575-3.876-1.71c-0.968-1.114-1.458-2.62-1.458-4.477v-1.846
			c0-1.171,0.216-2.229,0.64-3.146c0.434-0.939,1.066-1.678,1.882-2.194c0.813-0.515,1.754-0.776,2.795-0.776
			c1.049,0,1.992,0.262,2.804,0.777c0.813,0.514,1.448,1.253,1.887,2.198c0.427,0.919,0.644,1.976,0.644,3.141v1.916
			c0,1.177-0.216,2.236-0.641,3.151c-0.434,0.937-1.065,1.673-1.877,2.188C223.748,21.812,222.807,22.074,221.758,22.074z
			 M221.74,9.4c-1.174,0-2.081,0.397-2.773,1.216c-0.703,0.832-1.06,2-1.06,3.47v1.872c0,0.945,0.164,1.784,0.487,2.495
			c0.315,0.699,0.751,1.221,1.331,1.593c0.571,0.367,1.255,0.554,2.032,0.554c1.191,0,2.104-0.398,2.789-1.218
			c0.698-0.835,1.053-2.011,1.053-3.494v-1.863c0-1.419-0.356-2.563-1.061-3.399C223.848,9.801,222.933,9.4,221.74,9.4z"/>
	</g>
	<g>
		<path fill="#FFFFFF" d="M243.027,21.398h-0.475L234.291,9.41v11.988h-0.483V8.602h0.483l8.262,11.962V8.602h0.475V21.398z"/>
		<path fill="#FFFFFF" d="M243.027,21.898h-0.475c-0.164,0-0.318-0.081-0.412-0.216l-7.35-10.666v10.382c0,0.276-0.224,0.5-0.5,0.5
			h-0.483c-0.276,0-0.5-0.224-0.5-0.5V8.602c0-0.276,0.224-0.5,0.5-0.5h0.483c0.164,0,0.318,0.081,0.411,0.216l7.351,10.643V8.602
			c0-0.276,0.224-0.5,0.5-0.5h0.475c0.276,0,0.5,0.224,0.5,0.5v12.797C243.527,21.675,243.304,21.898,243.027,21.898z"/>
	</g>
	<g>
		<path fill="#FFFFFF" d="M255.604,15.958c0,1.107-0.198,2.087-0.593,2.94c-0.396,0.852-0.96,1.512-1.692,1.977
			c-0.732,0.467-1.576,0.699-2.531,0.699c-1.441,0-2.607-0.513-3.498-1.538s-1.336-2.408-1.336-4.148v-1.846
			c0-1.102,0.198-2.08,0.593-2.936c0.396-0.855,0.961-1.517,1.697-1.981c0.734-0.467,1.577-0.699,2.526-0.699
			c0.955,0,1.8,0.232,2.536,0.699c0.734,0.465,1.302,1.127,1.7,1.986c0.398,0.857,0.598,1.835,0.598,2.931V15.958z M255.13,14.024
			c0-1.547-0.393-2.788-1.178-3.722c-0.785-0.936-1.846-1.402-3.182-1.402c-1.318,0-2.37,0.465-3.155,1.393
			c-0.785,0.93-1.178,2.193-1.178,3.793v1.872c0,1.02,0.178,1.921,0.531,2.702c0.355,0.783,0.86,1.385,1.517,1.807
			s1.424,0.633,2.303,0.633c1.336,0,2.394-0.466,3.173-1.397s1.169-2.203,1.169-3.814V14.024z"/>
		<path fill="#FFFFFF" d="M250.788,22.074c-1.586,0-2.89-0.575-3.876-1.71c-0.968-1.114-1.458-2.62-1.458-4.477v-1.846
			c0-1.168,0.215-2.226,0.639-3.145c0.438-0.943,1.071-1.682,1.885-2.195c0.81-0.515,1.75-0.776,2.793-0.776
			c1.047,0,1.99,0.262,2.804,0.777c0.814,0.515,1.449,1.255,1.887,2.198c0.427,0.919,0.644,1.976,0.644,3.141v1.916
			c0,1.173-0.215,2.233-0.639,3.15c-0.438,0.939-1.069,1.675-1.879,2.188C252.778,21.812,251.837,22.074,250.788,22.074z
			 M250.771,9.4c-1.174,0-2.081,0.397-2.773,1.216c-0.703,0.832-1.06,2-1.06,3.47v1.872c0,0.942,0.164,1.782,0.486,2.496
			c0.317,0.699,0.754,1.221,1.332,1.592c0.571,0.367,1.255,0.554,2.032,0.554c1.191,0,2.104-0.398,2.789-1.218
			c0.698-0.835,1.053-2.011,1.053-3.494v-1.863c0-1.419-0.356-2.563-1.061-3.399C252.878,9.801,251.963,9.4,250.771,9.4z"/>
	</g>
	<g>
		<path fill="#FFFFFF" d="M261.071,20.607l0.58-2.109l3.023-9.896h0.527l3.006,9.896l0.571,2.109l0.598-2.109l2.637-9.896h0.519
			l-3.445,12.797h-0.536l-3.173-10.67l-0.448-1.354l-0.431,1.354l-3.199,10.67h-0.536L257.31,8.602h0.527l2.654,9.896
			L261.071,20.607z"/>
		<path fill="#FFFFFF" d="M269.087,21.898h-0.536c-0.222,0-0.416-0.146-0.479-0.357l-3.133-10.537l-3.16,10.538
			c-0.063,0.212-0.258,0.356-0.479,0.356h-0.536c-0.226,0-0.424-0.151-0.482-0.37l-3.454-12.797
			c-0.041-0.149-0.009-0.311,0.086-0.434c0.094-0.124,0.241-0.196,0.396-0.196h0.527c0.227,0,0.425,0.152,0.483,0.37l2.751,10.25
			l0.098-0.356l3.027-9.91c0.064-0.21,0.259-0.354,0.479-0.354h0.527c0.22,0,0.414,0.144,0.479,0.354l3.109,10.279l0.105-0.374
			l2.635-9.889c0.059-0.219,0.257-0.371,0.483-0.371h0.519c0.155,0,0.302,0.072,0.396,0.196c0.095,0.123,0.127,0.283,0.086,0.434
			l-3.445,12.797C269.511,21.747,269.313,21.898,269.087,21.898z"/>
	</g>
</g>
</svg>
