<?xml version="1.0" encoding="utf-8"?>
<!-- Generator: Adobe Illustrator 16.0.0, SVG Export Plug-In . SVG Version: 6.00 Build 0)  -->
<!DOCTYPE svg PUBLIC "-//W3C//DTD SVG 1.1//EN" "http://www.w3.org/Graphics/SVG/1.1/DTD/svg11.dtd">
<svg version="1.1" id="Layer_1" xmlns="http://www.w3.org/2000/svg" xmlns:xlink="http://www.w3.org/1999/xlink" x="0px" y="0px"
	 width="200px" height="200px" viewBox="0 0 200 200" enable-background="new 0 0 200 200" xml:space="preserve">
<linearGradient id="SVGID_1_" gradientUnits="userSpaceOnUse" x1="144.0029" y1="193.9434" x2="144.0029" y2="-2.1485">
	<stop  offset="0" style="stop-color:#F2453F"/>
	<stop  offset="1" style="stop-color:#F2B730"/>
</linearGradient>
<rect x="142.57" y="183.821" fill="url(#SVGID_1_)" width="2.865" height="2.872"/>
<g>
	<path opacity="0.5" fill="#707070" enable-background="new    " d="M183.281,96.334c0-1.095-0.892-1.982-1.988-1.982
		c-1.099,0-1.989,0.888-1.989,1.982c0,1.098,0.891,1.988,1.989,1.988C182.39,98.322,183.281,97.432,183.281,96.334z"/>
	<path opacity="0.5" fill="#707070" enable-background="new    " d="M173,64.787c0,0.869-0.185,1.716-0.285,2.55
		c1.926,4.488,3.377,9.196,4.428,14.07c1.342-0.282,2.726-0.411,4.179-0.411c1.594,0,3.198,0.311,4.642,0.763
		C183.771,70.17,179,59.396,173,49.951V64.787z"/>
	<path opacity="0.5" fill="#707070" enable-background="new    " d="M181.293,111.239c-1.24,0-2.441-0.139-3.607-0.364
		c-1.014,5.853-2.553,11.488-4.808,16.817c0,0.065,0.122,0.129,0.122,0.194v17.555c7-10.344,11.62-22.281,13.524-35.141
		C184.919,110.871,183.096,111.239,181.293,111.239z"/>
	<path opacity="0.5" fill="#707070" enable-background="new    " d="M92,21.074c4-0.358,6.023-0.562,9.123-0.562
		c2.33,0,5.877,0.122,6.877,0.325v-6.801v-1.734c-1-0.184-4.551-0.303-6.877-0.303C98.031,12,96,12.175,92,12.494V21.074z"/>
	<path opacity="0.5" fill="#707070" enable-background="new    " d="M138,29.353v-9.483c-6-2.358-11-4.225-17-5.546v8.761
		C127,24.575,132,26.695,138,29.353z"/>
	<path opacity="0.5" fill="#707070" enable-background="new    " d="M160,148.211c-3,3.388-6,6.521-10,9.351v10.629
		c4-2.353,7-4.939,10-7.747V148.211z"/>
	<path opacity="0.5" fill="#707070" enable-background="new    " d="M158.25,45.413c0.533,0.579,0.75,1.173,1.75,1.769V34.949
		c-3-2.804-6-5.395-10-7.745v9.515C155,38.546,157.162,41.678,158.25,45.413z"/>
	<path opacity="0.5" fill="#707070" enable-background="new    " d="M121,172.306v8.767c6-1.32,11-3.187,17-5.545v-9.488
		C132,168.695,127,170.815,121,172.306z"/>
	<path opacity="0.5" fill="#707070" enable-background="new    " d="M29,127.887c0-1.564-0.165-3.099,0.199-4.582
		c-1.448-4.108-2.748-8.377-3.486-12.771c-1.539,0.441-3.261,0.674-4.958,0.674c-1.303,0-2.213-0.207-3.42-0.505
		C19.06,121.975,22,132.532,29,141.916V127.887z"/>
	<path opacity="0.5" fill="#707070" enable-background="new    " d="M50,155.648c-3-3.087-6-6.48-9-10.147v12.8
		c3,2.996,7,5.763,9,8.29V155.648z"/>
	<path opacity="0.5" fill="#707070" enable-background="new    " d="M79,171.669c-5-1.685-10-3.999-15-6.862v9.647
		c5,2.534,10,4.579,15,6.065V171.669z"/>
	<path opacity="0.5" fill="#707070" enable-background="new    " d="M108,174.552c-1,0.204-4.547,0.326-6.877,0.326
		c-3.1,0-5.123-0.204-9.123-0.562v8.584c4,0.323,6.031,0.496,9.123,0.496c2.326,0,5.877-0.119,6.877-0.301V174.552z"/>
	<path opacity="0.5" fill="#707070" enable-background="new    " d="M20.661,80.996c1.902,0,3.735,0.242,5.447,0.737
		c0.512-2.421,1.113-4.805,1.848-7.136C26.107,71.769,25,68.413,25,64.787v-5.464c-4,6.865-5.999,14.252-7.508,22.016
		C18.511,81.119,19.578,80.996,20.661,80.996z"/>
	<path opacity="0.5" fill="#707070" enable-background="new    " d="M38,40.495v13.738c2-2.218,2.728-4.346,4.463-6.39
		C43.617,42.951,48,38.717,50,36.628v-7.824C46,32.26,41,36.182,38,40.495z"/>
	<path opacity="0.5" fill="#707070" enable-background="new    " d="M79,23.723v-8.848c-5,1.488-10,3.534-15,6.067v9.643
		C69,27.724,74,25.406,79,23.723z"/>
	<path opacity="0.5" fill="#707070" enable-background="new    " d="M18.678,96.334c0,1.098,0.888,1.988,1.983,1.988
		c1.1,0,1.994-0.891,1.994-1.988c0-1.095-0.895-1.982-1.994-1.982C19.565,94.352,18.678,95.239,18.678,96.334z"/>
</g>
<linearGradient id="SVGID_2_" gradientUnits="userSpaceOnUse" x1="57.957" y1="193.9434" x2="57.957" y2="-2.1485">
	<stop  offset="0" style="stop-color:#F2453F"/>
	<stop  offset="1" style="stop-color:#F2B730"/>
</linearGradient>
<rect x="56.523" y="5.987" fill="url(#SVGID_2_)" width="2.867" height="2.87"/>
<linearGradient id="SVGID_3_" gradientUnits="userSpaceOnUse" x1="144.0029" y1="193.9434" x2="144.0029" y2="-2.1485">
	<stop  offset="0" style="stop-color:#F2453F"/>
	<stop  offset="1" style="stop-color:#F2B730"/>
</linearGradient>
<rect x="142.57" y="5.987" fill="url(#SVGID_3_)" width="2.865" height="2.87"/>
<linearGradient id="SVGID_4_" gradientUnits="userSpaceOnUse" x1="115.3223" y1="193.9434" x2="115.3223" y2="-2.1485">
	<stop  offset="0" style="stop-color:#F2453F"/>
	<stop  offset="1" style="stop-color:#F2B730"/>
</linearGradient>
<rect x="113.889" y="5.987" fill="url(#SVGID_4_)" width="2.867" height="2.87"/>
<linearGradient id="SVGID_5_" gradientUnits="userSpaceOnUse" x1="115.3223" y1="193.9434" x2="115.3223" y2="-2.1485">
	<stop  offset="0" style="stop-color:#F2453F"/>
	<stop  offset="1" style="stop-color:#F2B730"/>
</linearGradient>
<rect x="113.889" y="17.458" fill="url(#SVGID_5_)" width="2.867" height="2.873"/>
<linearGradient id="SVGID_6_" gradientUnits="userSpaceOnUse" x1="162.6484" y1="193.9434" x2="162.6484" y2="-2.1485">
	<stop  offset="0" style="stop-color:#F2453F"/>
	<stop  offset="1" style="stop-color:#F2B730"/>
</linearGradient>
<path fill="url(#SVGID_6_)" d="M176.988,16.021c0,4.654-3.154,8.77-7.502,9.798l-1.109,0.257v38.711
	c0,7.232-5.665,12.91-12.898,12.91h-7.17v-2.873h7.17c5.628,0,10.037-4.407,10.037-10.037V26.14l-1.028-0.304
	c-4.535-1.337-7.578-5.273-7.578-9.814c0-5.533,4.504-10.034,10.043-10.034C172.479,5.987,176.988,10.488,176.988,16.021z
	 M174.123,16.021c0-3.952-3.219-7.164-7.171-7.164c-3.958,0-7.177,3.212-7.177,7.164c0,3.958,3.219,7.176,7.177,7.176
	C170.904,23.197,174.123,19.979,174.123,16.021z"/>
<linearGradient id="SVGID_7_" gradientUnits="userSpaceOnUse" x1="144" y1="193.9434" x2="144" y2="-2.1485">
	<stop  offset="0" style="stop-color:#F2453F"/>
	<stop  offset="1" style="stop-color:#F2B730"/>
</linearGradient>
<path fill="url(#SVGID_7_)" d="M146.458,40.636c4.542,1.33,7.585,5.276,7.585,9.806c0,5.535-4.504,10.043-10.043,10.043
	c-5.533,0-10.044-4.508-10.044-10.043c0-4.649,3.155-8.764,7.503-9.786l1.111-0.264V17.458h2.865v22.877L146.458,40.636z
	 M151.176,50.441c0-3.952-3.225-7.171-7.176-7.171c-3.959,0-7.171,3.219-7.171,7.171c0,3.958,3.212,7.176,7.171,7.176
	C147.951,57.617,151.176,54.399,151.176,50.441z"/>
<linearGradient id="SVGID_8_" gradientUnits="userSpaceOnUse" x1="115.3223" y1="193.9434" x2="115.3223" y2="-2.1485">
	<stop  offset="0" style="stop-color:#F2453F"/>
	<stop  offset="1" style="stop-color:#F2B730"/>
</linearGradient>
<rect x="113.889" y="28.934" fill="url(#SVGID_8_)" width="2.867" height="20.077"/>
<linearGradient id="SVGID_9_" gradientUnits="userSpaceOnUse" x1="86.6367" y1="193.9434" x2="86.6367" y2="-2.1485">
	<stop  offset="0" style="stop-color:#F2453F"/>
	<stop  offset="1" style="stop-color:#F2B730"/>
</linearGradient>
<rect x="85.203" y="5.987" fill="url(#SVGID_9_)" width="2.867" height="31.547"/>
<linearGradient id="SVGID_10_" gradientUnits="userSpaceOnUse" x1="86.6367" y1="193.9434" x2="86.6367" y2="-2.1485">
	<stop  offset="0" style="stop-color:#F2453F"/>
	<stop  offset="1" style="stop-color:#F2B730"/>
</linearGradient>
<rect x="85.203" y="46.141" fill="url(#SVGID_10_)" width="2.867" height="2.873"/>
<linearGradient id="SVGID_11_" gradientUnits="userSpaceOnUse" x1="57.9531" y1="193.9434" x2="57.9531" y2="-2.1485">
	<stop  offset="0" style="stop-color:#F2453F"/>
	<stop  offset="1" style="stop-color:#F2B730"/>
</linearGradient>
<path fill="url(#SVGID_11_)" d="M60.419,40.636c4.521,1.33,7.571,5.276,7.571,9.806c0,5.535-4.498,10.043-10.037,10.043
	c-5.538,0-10.037-4.508-10.037-10.043c0-4.649,3.155-8.764,7.49-9.786l1.117-0.264V17.458h2.867v22.877L60.419,40.636z
	 M65.117,50.441c0-3.952-3.212-7.171-7.164-7.171c-3.951,0-7.17,3.219-7.17,7.171c0,3.958,3.219,7.176,7.17,7.176
	C61.905,57.617,65.117,54.399,65.117,50.441z"/>
<linearGradient id="SVGID_12_" gradientUnits="userSpaceOnUse" x1="37.877" y1="193.9434" x2="37.8769" y2="-2.1485">
	<stop  offset="0" style="stop-color:#F2453F"/>
	<stop  offset="1" style="stop-color:#F2B730"/>
</linearGradient>
<path fill="url(#SVGID_12_)" d="M53.649,74.824v2.873H43.613c-7.246,0-12.91-5.678-12.91-12.91V26.14l-1.028-0.304
	c-4.529-1.337-7.571-5.273-7.571-9.814c0-5.533,4.498-10.034,10.036-10.034c5.533,0,10.044,4.501,10.044,10.034
	c0,4.654-3.162,8.77-7.503,9.798l-1.11,0.257v38.711c0,5.63,4.403,10.037,10.043,10.037H53.649z M39.31,16.021
	c0-3.952-3.211-7.164-7.17-7.164c-3.958,0-7.169,3.212-7.169,7.164c0,3.958,3.211,7.176,7.169,7.176
	C36.099,23.197,39.31,19.979,39.31,16.021z"/>
<linearGradient id="SVGID_13_" gradientUnits="userSpaceOnUse" x1="52.2168" y1="193.9434" x2="52.2168" y2="-2.1485">
	<stop  offset="0" style="stop-color:#F2453F"/>
	<stop  offset="1" style="stop-color:#F2B730"/>
</linearGradient>
<rect x="50.783" y="94.9" fill="url(#SVGID_13_)" width="2.866" height="2.873"/>
<linearGradient id="SVGID_14_" gradientUnits="userSpaceOnUse" x1="29.2734" y1="193.9434" x2="29.2734" y2="-2.1485">
	<stop  offset="0" style="stop-color:#F2453F"/>
	<stop  offset="1" style="stop-color:#F2B730"/>
</linearGradient>
<path fill="url(#SVGID_14_)" d="M47.916,94.9v2.873H30.779l-0.308,1.032c-1.33,4.528-5.27,7.568-9.811,7.568
	c-5.54,0-10.031-4.501-10.031-10.04c0-5.529,4.491-10.034,10.031-10.034c4.653,0,8.77,3.152,9.792,7.5l0.263,1.101H47.916z
	 M27.836,96.334c0-3.951-3.211-7.163-7.175-7.163c-3.953,0-7.165,3.212-7.165,7.163c0,3.958,3.212,7.17,7.165,7.17
	C24.625,103.504,27.836,100.292,27.836,96.334z"/>
<linearGradient id="SVGID_15_" gradientUnits="userSpaceOnUse" x1="39.3105" y1="193.9434" x2="39.3105" y2="-2.1485">
	<stop  offset="0" style="stop-color:#F2453F"/>
	<stop  offset="1" style="stop-color:#F2B730"/>
</linearGradient>
<path fill="url(#SVGID_15_)" d="M53.649,114.977v2.874h-7.176c-5.62,0-10.03,4.409-10.03,10.036v38.654l1.022,0.301
	c4.528,1.33,7.584,5.275,7.584,9.811c0,5.533-4.517,10.04-10.05,10.04c-5.539,0-10.029-4.507-10.029-10.04
	c0-4.654,3.154-8.77,7.489-9.798l1.11-0.257v-38.711c0-7.238,5.671-12.91,12.903-12.91H53.649z M42.184,176.652
	c0-3.957-3.219-7.169-7.184-7.169c-3.952,0-7.164,3.212-7.164,7.169c0,3.952,3.212,7.168,7.164,7.168
	C38.965,183.82,42.184,180.604,42.184,176.652z"/>
<linearGradient id="SVGID_16_" gradientUnits="userSpaceOnUse" x1="86.6367" y1="193.9434" x2="86.6367" y2="-2.1485">
	<stop  offset="0" style="stop-color:#F2453F"/>
	<stop  offset="1" style="stop-color:#F2B730"/>
</linearGradient>
<path fill="url(#SVGID_16_)" d="M96.676,153.706c0,4.649-3.154,8.77-7.502,9.792l-1.104,0.258v22.937h-2.867v-22.874l-1.029-0.304
	c-4.529-1.333-7.577-5.279-7.577-9.809c0-5.539,4.504-10.043,10.036-10.043C92.173,143.663,96.676,148.167,96.676,153.706z
	 M93.811,153.706c0-3.958-3.226-7.169-7.178-7.169c-3.945,0-7.164,3.211-7.164,7.169c0,3.952,3.219,7.164,7.164,7.164
	C90.585,160.87,93.811,157.658,93.811,153.706z"/>
<linearGradient id="SVGID_17_" gradientUnits="userSpaceOnUse" x1="57.957" y1="193.9434" x2="57.957" y2="-2.1485">
	<stop  offset="0" style="stop-color:#F2453F"/>
	<stop  offset="1" style="stop-color:#F2B730"/>
</linearGradient>
<rect x="56.523" y="155.137" fill="url(#SVGID_17_)" width="2.867" height="31.556"/>
<linearGradient id="SVGID_18_" gradientUnits="userSpaceOnUse" x1="57.957" y1="193.9434" x2="57.957" y2="-2.1485">
	<stop  offset="0" style="stop-color:#F2453F"/>
	<stop  offset="1" style="stop-color:#F2B730"/>
</linearGradient>
<rect x="56.523" y="143.663" fill="url(#SVGID_18_)" width="2.867" height="2.874"/>
<linearGradient id="SVGID_19_" gradientUnits="userSpaceOnUse" x1="57.957" y1="193.9434" x2="57.957" y2="-2.1485">
	<stop  offset="0" style="stop-color:#F2453F"/>
	<stop  offset="1" style="stop-color:#F2B730"/>
</linearGradient>
<rect x="56.523" y="132.189" fill="url(#SVGID_19_)" width="2.867" height="2.874"/>
<linearGradient id="SVGID_20_" gradientUnits="userSpaceOnUse" x1="149.7422" y1="193.9434" x2="149.7422" y2="-2.1485">
	<stop  offset="0" style="stop-color:#F2453F"/>
	<stop  offset="1" style="stop-color:#F2B730"/>
</linearGradient>
<rect x="148.309" y="94.9" fill="url(#SVGID_20_)" width="2.867" height="2.873"/>
<linearGradient id="SVGID_21_" gradientUnits="userSpaceOnUse" x1="172.6826" y1="193.9434" x2="172.6826" y2="-2.1485">
	<stop  offset="0" style="stop-color:#F2453F"/>
	<stop  offset="1" style="stop-color:#F2B730"/>
</linearGradient>
<path fill="url(#SVGID_21_)" d="M181.293,86.3c5.532,0,10.029,4.505,10.029,10.034c0,5.539-4.497,10.04-10.029,10.04
	c-4.655,0-8.771-3.146-9.793-7.493l-0.264-1.107h-17.193V94.9h17.131l0.301-1.025C172.805,89.346,176.757,86.3,181.293,86.3z
	 M188.463,96.334c0-3.951-3.219-7.163-7.17-7.163c-3.959,0-7.17,3.212-7.17,7.163c0,3.958,3.211,7.17,7.17,7.17
	C185.244,103.504,188.463,100.292,188.463,96.334z"/>
<linearGradient id="SVGID_22_" gradientUnits="userSpaceOnUse" x1="162.6484" y1="193.9434" x2="162.6484" y2="-2.1485">
	<stop  offset="0" style="stop-color:#F2453F"/>
	<stop  offset="1" style="stop-color:#F2B730"/>
</linearGradient>
<path fill="url(#SVGID_22_)" d="M169.412,166.842c4.534,1.33,7.576,5.275,7.576,9.811c0,5.533-4.51,10.04-10.036,10.04
	c-5.539,0-10.043-4.507-10.043-10.04c0-4.654,3.149-8.77,7.503-9.798l1.104-0.257v-38.711c0-5.627-4.409-10.036-10.037-10.036h-7.17
	v-2.874h7.17c7.233,0,12.898,5.672,12.898,12.91v38.654L169.412,166.842z M174.123,176.652c0-3.957-3.219-7.169-7.171-7.169
	c-3.958,0-7.177,3.212-7.177,7.169c0,3.952,3.219,7.168,7.177,7.168C170.904,183.82,174.123,180.604,174.123,176.652z"/>
<linearGradient id="SVGID_23_" gradientUnits="userSpaceOnUse" x1="144.0029" y1="193.9434" x2="144.0029" y2="-2.1485">
	<stop  offset="0" style="stop-color:#F2453F"/>
	<stop  offset="1" style="stop-color:#F2B730"/>
</linearGradient>
<rect x="142.57" y="132.189" fill="url(#SVGID_23_)" width="2.865" height="2.874"/>
<linearGradient id="SVGID_24_" gradientUnits="userSpaceOnUse" x1="115.3223" y1="193.9434" x2="115.3223" y2="-2.1485">
	<stop  offset="0" style="stop-color:#F2453F"/>
	<stop  offset="1" style="stop-color:#F2B730"/>
</linearGradient>
<rect x="113.889" y="143.663" fill="url(#SVGID_24_)" width="2.867" height="2.874"/>
<linearGradient id="SVGID_25_" gradientUnits="userSpaceOnUse" x1="115.3223" y1="193.9434" x2="115.3223" y2="-2.1485">
	<stop  offset="0" style="stop-color:#F2453F"/>
	<stop  offset="1" style="stop-color:#F2B730"/>
</linearGradient>
<rect x="113.889" y="155.137" fill="url(#SVGID_25_)" width="2.867" height="2.873"/>
<linearGradient id="SVGID_26_" gradientUnits="userSpaceOnUse" x1="115.3223" y1="193.9434" x2="115.3223" y2="-2.1485">
	<stop  offset="0" style="stop-color:#F2453F"/>
	<stop  offset="1" style="stop-color:#F2B730"/>
</linearGradient>
<rect x="113.889" y="166.613" fill="url(#SVGID_26_)" width="2.867" height="20.079"/>
<linearGradient id="SVGID_27_" gradientUnits="userSpaceOnUse" x1="144.0029" y1="193.9434" x2="144.0029" y2="-2.1485">
	<stop  offset="0" style="stop-color:#F2453F"/>
	<stop  offset="1" style="stop-color:#F2B730"/>
</linearGradient>
<rect x="142.57" y="143.663" fill="url(#SVGID_27_)" width="2.865" height="31.557"/>
<linearGradient id="SVGID_28_" gradientUnits="userSpaceOnUse" x1="105.7314" y1="193.9434" x2="105.7314" y2="-2.1485">
	<stop  offset="0" style="stop-color:#F2453F"/>
	<stop  offset="1" style="stop-color:#F2B730"/>
</linearGradient>
<path fill="url(#SVGID_28_)" d="M126.896,98.749v-4.972l5.664,2.271c0,0.071-0.019,0.141-0.019,0.216v0.038
	c0,0.056,0.007,0.112,0.019,0.157L126.896,98.749z M123.252,117.151c-1.537,0.552-2.748,1.76-3.3,3.293H82.848l18.982-7.663
	c0.996,1.13,2.446,1.848,4.064,1.848c3.029,0,5.476-2.462,5.476-5.479c0-0.072-0.019-0.128-0.03-0.201l11.912-4.805V117.151z
	 M114.03,84.697c0.013-0.082,0.038-0.157,0.038-0.232c0-0.689-0.145-1.349-0.383-1.957l8.645-7.401
	c0.281,0.166,0.596,0.308,0.922,0.424v12.862L114.03,84.697z M105.895,103.686c-0.658,0-1.292,0.139-1.889,0.352l-6.988-8.343
	c0.483-0.818,0.791-1.764,0.791-2.779c0-3.011-2.459-5.457-5.464-5.457c-0.677,0-1.323,0.138-1.913,0.363L79.498,74.771
	l23.668,9.488c-0.007,0.062-0.02,0.131-0.02,0.206v0.041c0,3.018,2.428,5.436,5.458,5.436c1.625,0,3.073-0.728,4.077-1.869
	l10.57,4.241v7.903l-13.248,5.345C109,104.419,107.545,103.686,105.895,103.686 M91.078,98.24c0.407,0.095,0.828,0.164,1.267,0.164
	c0.665,0,1.305-0.145,1.901-0.367l6.975,8.34c-0.482,0.812-0.777,1.753-0.777,2.772v0.037c0,0.082,0.013,0.151,0.025,0.227
	l-22.458,9.055L91.078,98.24z M75.357,75.495l12.295,14.676c-0.482,0.815-0.771,1.737-0.771,2.744v0.047
	c0,1.245,0.438,2.384,1.141,3.29L75.27,116.019V75.526C75.288,75.514,75.326,75.508,75.357,75.495 M119.965,72.333l-8.65,7.419
	c-0.804-0.462-1.713-0.75-2.71-0.75c-1.644,0-3.093,0.728-4.09,1.879l-21.548-8.636h36.961
	C119.945,72.264,119.952,72.302,119.965,72.333 M138,90.805c-1.631,0-3.081,0.728-4.078,1.859l-7.025-2.816V75.514
	c2.107-0.759,3.619-2.772,3.619-5.144c0-3.011-2.439-5.461-5.464-5.461c-2.384,0-4.397,1.553-5.137,3.687H78.594
	c-0.733-2.134-2.741-3.687-5.137-3.687c-3.006,0-5.464,2.45-5.464,5.461v0.044c0,2.371,1.524,4.356,3.639,5.106v41.643
	c-2.102,0.763-3.614,2.754-3.614,5.116v0.043c0,3.018,2.441,5.442,5.452,5.442c2.383,0,4.391-1.546,5.138-3.679h41.32
	c0.733,2.139,2.753,3.679,5.144,3.679c3.011,0,5.47-2.469,5.47-5.485c0-2.372-1.537-4.379-3.645-5.128V102.67l6.988-2.817
	c1.004,1.148,2.465,1.889,4.115,1.889c3.01,0,5.47-2.459,5.47-5.477C143.47,93.244,141.01,90.805,138,90.805"/>
</svg>
