<?xml version="1.0" encoding="utf-8"?>
<!-- Generator: Adobe Illustrator 16.0.0, SVG Export Plug-In . SVG Version: 6.00 Build 0)  -->
<!DOCTYPE svg PUBLIC "-//W3C//DTD SVG 1.1//EN" "http://www.w3.org/Graphics/SVG/1.1/DTD/svg11.dtd">
<svg version="1.1" id="Layer_1" xmlns="http://www.w3.org/2000/svg" xmlns:xlink="http://www.w3.org/1999/xlink" x="0px" y="0px"
	 width="200px" height="200px" viewBox="0 0 200 200" enable-background="new 0 0 200 200" xml:space="preserve">
<path id="Path_94" opacity="0.5" fill="#CFCFCF" enable-background="new    " d="M50.891,154.233l0.223,0.213l0.04-0.121
	L50.891,154.233z"/>
<linearGradient id="Path_98_1_" gradientUnits="userSpaceOnUse" x1="-2291.9805" y1="471.3936" x2="-2292.0981" y2="478.4882" gradientTransform="matrix(22.481 0 0 -22.479 51677.3438 10778.7578)">
	<stop  offset="0" style="stop-color:#F2453F"/>
	<stop  offset="1" style="stop-color:#F2B730"/>
</linearGradient>
<path id="Path_98" fill="url(#Path_98_1_)" d="M183.119,138.678h-66.14V72.541h66.14V138.678z M118.667,136.982h62.765v-11.504
	c0-0.15-0.023-0.265-0.023-0.368c0-0.108,0-0.229,0-0.327v-18.791c0-0.154-0.018-0.265-0.018-0.373c0-0.115,0-0.207,0-0.316v-18.81
	c0-0.155-0.017-0.265-0.017-0.362c0-0.104,0-0.218,0-0.333V74.222h-11.528c-0.247,0.017-0.499,0.017-0.746,0h-18.698
	c-0.241,0.02-0.479,0.02-0.72,0H130.92c-0.246,0.026-0.494,0.026-0.735,0h-11.518V136.982z"/>
<linearGradient id="Path_99_1_" gradientUnits="userSpaceOnUse" x1="-2270.4521" y1="465.8281" x2="-2270.5698" y2="472.9297" gradientTransform="matrix(18.537 0 0 -15.471 42238.4453 7360.7441)">
	<stop  offset="0" style="stop-color:#F2453F"/>
	<stop  offset="1" style="stop-color:#F2B730"/>
</linearGradient>
<path id="Path_99" fill="url(#Path_99_1_)" d="M174.489,81.167v22.05l-7.74-8.299l-2.351-2.541l-2.011,2.846l-13.981,19.975
	l-7.987-6.976l-1.845-1.587l-1.839,1.581l-11.147,9.539V81.167H174.489z M177.306,78.355h-54.533v45.52l15.785-13.515l10.383,9.004
	l15.757-22.534l12.612,13.534L177.306,78.355z"/>
<linearGradient id="Path_100_1_" gradientUnits="userSpaceOnUse" x1="-2020.7202" y1="438.2676" x2="-2020.8379" y2="445.3646" gradientTransform="matrix(6.084 0 0 -6.084 12431.3848 2782.7751)">
	<stop  offset="0" style="stop-color:#F2453F"/>
	<stop  offset="1" style="stop-color:#F2B730"/>
</linearGradient>
<path id="Path_100" fill="url(#Path_100_1_)" d="M136.983,104.539c-4.943,0.005-8.948-4.007-8.953-8.949
	c0-4.942,4.004-8.948,8.946-8.953c4.941,0,8.953,4.005,8.953,8.947c0,0.006,0,0.006,0,0.012
	C145.919,100.532,141.918,104.525,136.983,104.539z M136.983,89.66c-3.27,0-5.926,2.653-5.926,5.93c0,3.275,2.656,5.926,5.926,5.926
	c3.274,0,5.924-2.65,5.93-5.92c-0.006-3.275-2.655-5.924-5.93-5.931V89.66z"/>
<g>
	<linearGradient id="SVGID_1_" gradientUnits="userSpaceOnUse" x1="150.1611" y1="198" x2="150.1611" y2="0.8554">
		<stop  offset="0" style="stop-color:#F2453F"/>
		<stop  offset="1" style="stop-color:#F2B730"/>
	</linearGradient>
	<path fill="url(#SVGID_1_)" d="M196.049,86.125c0-3.735-2.763-6.767-6.763-6.767v-5.961c4,0,6.648-3.031,6.648-6.77
		c0-3.735-3.085-6.767-6.82-6.767l-0.116,0.202c-3.729,0-6.785,2.937-6.797,6.937h-5.982c-0.224-4-3.425-6.577-7.154-6.359
		C165.641,60.846,162.909,63,162.71,67h-5.978c0-4-3.034-6.766-6.769-6.76c-3.735,0-6.76,2.76-6.764,6.76h-5.901
		c-0.172-4-3.339-6.618-7.074-6.445c-3.487,0.164-6.28,2.445-6.448,6.445h-5.97c-0.007-4-3.045-6.954-6.78-6.946
		c-3.734,0.009-6.764,2.749-6.753,6.489c0.007,3.73,3.035,6.457,6.764,6.457h0.249v6h-0.243c-3.734,0-6.77,3.263-6.77,6.999
		c0,3.742,3.035,7.001,6.77,7.001h0.243v6h-0.243c-3.734,0-6.62,3.084-6.442,6.814c0.162,3.492,2.954,6.186,6.442,6.186h0.243v6
		h-0.243c-3.734,0-6.763,3.262-6.763,6.998c0,3.74,3.028,7.002,6.763,7.002h0.243v6h-0.243c-3.734,0-6.763,2.966-6.763,6.705
		c0,3.736,3.266,6.732,7,6.732c3.74,0,7.006-3.06,7.006-6.796V145h5v-0.358c0,3.736,2.961,6.902,6.695,7.075
		c3.736,0.172,7.019-2.713,7.189-6.441c0.013-0.214,0.115-0.426,0.115-0.634V145h6v-0.358c0,3.736,3.268,6.765,7.002,6.759
		c3.735,0,6.998-3.029,6.998-6.759V145h5v-0.358c0,3.736,2.958,6.902,6.693,7.075c3.734,0.172,7.02-2.713,7.189-6.441
		c0.012-0.214,0.117-0.426,0.117-0.634V145h6v-0.358c0,3.736,3.02,6.765,6.762,6.765c3.734,0,6.874-3.028,6.874-6.765
		c0-3.729-3.636-6.756-6.636-6.769v-5.965c4,0,6.763-3.027,6.763-6.769c0-3.735-2.763-6.764-6.763-6.764v-5.977
		c3-0.172,6.614-3.344,6.442-7.073c-0.161-3.495-3.442-6.283-6.442-6.449v-5.981C193.286,92.896,196.049,89.867,196.049,86.125z
		 M189.022,102c2.178,0,3.947,1.815,3.947,4c0,2.184-1.77,4-3.947,4h-2.736v11h2.736c2.178,0,3.947,1.822,3.947,4
		c0,2.182-1.77,4-3.947,4h-2.736v12h2.736c2.178,0,3.942,1.586,3.936,3.764c-0.005,2.178-1.667,3.847-3.844,3.847
		c-2.149-0.006-3.828-1.824-3.828-3.979V142h-12v2.62c0,2.177-1.824,3.947-4.008,3.942c-2.17,0-3.992-1.766-3.992-3.942V142h-11
		v2.607c0,2.185-1.894,3.92-4.077,3.874c-2.104-0.041-3.923-1.718-3.923-3.816V142h-12v2.604c0,2.177-1.816,3.947-3.998,3.947
		c-2.18,0-4.002-1.771-4.002-3.947V142h-11v2.59c0,2.18-1.963,3.92-4.141,3.892c-2.18-0.028-3.996-1.618-3.962-3.795
		c0.029-2.133,1.676-3.687,3.813-3.687h3.289v-12h-3.295c-2.178,0-3.953-1.806-3.959-3.989c-0.006-2.178,1.752-4.011,3.937-4.011
		h3.317v-11h-3.278c-2.184,0-3.912-1.905-3.866-4.083c0.045-2.104,1.725-3.917,3.827-3.917h3.317V90h-3.295
		c-2.178,0-3.953-1.803-3.965-3.986C107.02,83.831,108.784,82,110.969,82h3.317V71h-3.203h-0.086c-2.178,0-3.919-2.036-3.885-4.214
		s1.971-4.024,4.146-3.99c2.156,0.035,4.027,1.683,4.027,3.834V69h11v-2.378c0-2.179,1.822-3.948,4-3.948c2.184,0,4,1.769,4,3.948
		V69h12v-2.37c0-2.18,1.818-3.951,3.998-3.951c2.184,0,4.002,1.771,4.002,3.951V69h11v-2.378c0-2.179,1.821-3.942,3.999-3.942
		s4.001,1.764,4.001,3.942V69h12v-2.378c0-2.176,1.641-3.934,3.818-3.931l-0.01,0.003c2.179,0.006,3.903,1.983,3.903,4.161
		C192.991,69.027,191.2,71,189.027,71h-2.741v11h2.736c2.178,0,3.947,1.813,3.947,3.998c0,2.183-1.77,4.002-3.947,4.002h-2.736v12
		H189.022z"/>
	<linearGradient id="SVGID_2_" gradientUnits="userSpaceOnUse" x1="44.7031" y1="198" x2="44.7031" y2="0.8554">
		<stop  offset="0" style="stop-color:#F2453F"/>
		<stop  offset="1" style="stop-color:#F2B730"/>
	</linearGradient>
	<path fill="url(#SVGID_2_)" d="M31.961,104.199l-0.115,1.7c-0.109,1.594,1.091,2.977,2.684,3.092
		c0.315,0.023,0.626-0.005,0.925-0.086l38.387-9.815c0.908-0.236,1.649-0.891,1.988-1.771c0.356-0.868,0.258-1.862-0.259-2.644
		l-0.914-1.419l1.235-2.098l4.867-0.264c1.599-0.093,2.822-1.46,2.736-3.063c-0.012-0.189-0.041-0.374-0.086-0.557L80.317,75.21
		c-0.219-0.844-0.806-1.549-1.593-1.922c-0.792-0.365-1.706-0.356-2.488,0.023l-4.613,2.224l-3.327-0.819
		c0.24-0.331,0.447-0.681,0.667-1.042c2.975,1.155,6.326-0.322,7.48-3.305c0.265-0.685,0.397-1.414,0.392-2.146
		c0.154-0.018,0.292-0.044,0.465-0.073l6.505-1.669c1.188-0.301,2.202-1.091,2.776-2.174c0.58-1.074,0.688-2.338,0.304-3.5
		l-2.608-7.335c-0.574-1.598-1.701-2.937-3.172-3.772c0.144-0.178,0.275-0.368,0.386-0.569c0.573-1.068,0.683-2.322,0.292-3.471
		C74.307,24.345,50.964,13.134,29.655,20.61C10.924,27.185-0.386,46.263,2.843,65.847c0.207,1.2,0.908,2.258,1.938,2.907
		c0.189,0.132,0.396,0.235,0.609,0.316c-0.897,1.442-1.241,3.161-0.959,4.833l1.229,7.712c0.391,2.379,2.644,4,5.022,3.609
		c0.127-0.023,0.247-0.046,0.367-0.081l6.523-1.672c0.149-0.041,0.292-0.104,0.441-0.156c1.512,2.816,5.022,3.879,7.844,2.362
		c0.638-0.345,1.213-0.805,1.686-1.362c0.343,0.218,0.7,0.413,1.068,0.591l-2.518,2.316l-5.12,0.265
		c-0.868,0.051-1.673,0.482-2.194,1.176c-0.513,0.702-0.69,1.598-0.467,2.443l3.087,12.063c0.402,1.551,1.977,2.487,3.534,2.104
		c0.184-0.058,0.373-0.127,0.545-0.202l4.391-2.108L31.961,104.199z M77.523,75.983l3.092,12.067l-4.442,0.23l-2.654-10.407
		L77.523,75.983z M73.996,70.051C73.99,70.057,73.984,70,73.984,70h-0.006c-1.097,2-3.293,2.1-4.908,1.004
		c-1.608-1.098-2.028-3.26-0.931-4.872c1.094-1.604,3.276-2.046,4.884-0.966C74.646,66.252,75.082,68.43,73.996,70.051z
		 M16.036,64.263l-2.855,0.732C9.843,48.449,20.555,32.33,37.098,28.994c15.349-3.097,30.562,5.914,35.221,20.86l-2.851,0.729
		c-4.511-14.567-19.975-22.721-34.541-18.21C21.37,36.574,13.204,50.359,16.036,64.263z M70.686,56.936l0.322,1.945
		c-0.247-0.316-0.534-0.598-0.862-0.839c-1.045-0.733-2.362-0.965-3.598-0.632l-1.763,0.442c-0.019-0.985-0.099-1.968-0.237-2.942
		l6.546-1.681C70.629,54.405,70.485,55.687,70.686,56.936z M38.409,34.591c12.308-2.388,24.455,4.81,28.277,16.751l-4.183,1.065
		l-8.563,2.189c-2.338-5.979-9.079-8.933-15.061-6.594c-4.971,1.942-7.982,7.025-7.299,12.321L18.83,63.6
		C16.227,50.182,24.99,37.195,38.409,34.591z M59.286,74.54v-0.011c0,1.086-0.73,2.121-1.327,3.075
		c-0.059,0.069-0.097,0.152-0.153,0.213c-0.23,0.178-0.44,0.344-0.683,0.5c0.426-1.632,0.163-3.345,0.163-5v-0.034
		c0-1.023-0.432-2.006-0.655-2.833c-0.265-1.161-1.05-2.135-2.118-2.649c-0.414-0.185-0.844-0.319-1.285-0.402l-7.323-7.74
		l2.319-0.604c1.839,2.246,4.811,3.242,7.631,2.557c1.223-0.148,2.31-0.841,2.959-1.884c0.65-1.04,0.805-2.315,0.414-3.482
		l2.512-0.644c0.172,1.315,0.229,2.643,0.189,3.971c-0.012,0.028-0.052,0.061-0.052,0.092C61.693,64.714,61.286,69.719,59.286,74.54
		z M61.618,84.183l-1.73,0.448c0.253-0.339,0.506-0.689,0.729-1.04c0.134-0.258,0.254-0.494,0.375-0.729
		c0.045-0.109,0.126-0.207,0.166-0.316l0.017-0.045L61.618,84.183z M40.115,75.857c-0.391-0.995,0.091-2.119,1.086-2.512
		c0.029-0.011,0.057-0.022,0.092-0.034c1.103-0.339,2.287-0.311,3.374,0.081c1.171,0.451,2.251,1.091,3.233-0.156
		c0.346-0.442,0.438-1.022,0.835-1.437c0.372-0.401,0.861-0.678,1.396-0.801c0.885-0.33,1.81-0.537,2.747-0.623
		c1.149,0.022,1.068,1.028,1.259,1.936l-7.045,2.068c-1.052,0.271-2.127,0.511-3.179,0.831c-0.775,0.238-1.598,0.296-2.351,0.543
		C41.064,75.911,40.471,76.465,40.115,75.857z M40.261,86l-0.012,0.062c-0.063-0.044-0.115-0.058-0.167-0.062H40.261z
		 M34.426,59.583c-0.407-4.804,3.154-9.027,7.959-9.436c3.712-0.313,7.219,1.764,8.724,5.169l-13.987,3.612L34.426,59.583z
		 M35.362,62.347c-0.569,1.109-1.586,1.918-2.798,2.217c-0.495,0.192-1.047,0.167-1.522-0.075c-0.248-0.247-0.414-0.569-0.466-0.918
		l3.039-0.768L35.362,62.347z M41.67,69.478l2.119-7.717l5.339,5.804c-1.27,0.282-1.842,0.678-3.842,1.19v-0.043
		C44.286,68.857,42.91,69.116,41.67,69.478z M54.573,75.477c0.086,2.581-1.046,4.771-5.672,5.949
		c-4.632,1.171-6.666-0.19-7.844-2.489L54.573,75.477z M51.286,58.22v-0.04l1.904-0.447l3.129-0.782
		c0.113,0.328,0.166,0.681,0.086,1.017c-0.311,0.443-0.93,0.735-1.459,0.811C53.745,59.106,52.286,58.904,51.286,58.22z
		 M27.771,64.289c0.214,1.212,0.961,2.265,2.036,2.862c1.062,0.6,2.339,0.701,3.481,0.27l0.006-0.035
		c2.805-0.752,4.931-3.052,5.466-5.907l2.332-0.586L38.385,71.19c-0.327,0.299-0.639,0.621-0.919,0.966
		c-2.351,2.498-0.092,8.363,1.188,10.186c-0.882-0.531-1.684-1.179-2.378-1.941c-3.609-3.505-6.735-7.481-9.286-11.82
		c-0.023-0.032,0-0.046-0.029-0.081c-0.666-1.137-1.246-2.327-1.723-3.557L27.771,64.289z M38.713,82.557
		c-0.049-0.013,0.008-0.039,0.054-0.064c0.059,0.076,0.117,0.153,0.17,0.208C38.639,82.684,38.995,82.614,38.713,82.557z
		 M38.685,88.274c0.097,0.075,0.195,0.127,0.292,0.195c0.23,0.143,0.449,0.294,0.701,0.448c0.356,0.201,0.736,0.396,1.121,0.569
		l-1.729,0.442l-0.437-1.685L38.685,88.274z M40.334,86c0.143,0,0.281,0,0.448,0h0.293h0.511h0.281c0.185-1,0.374-0.277,0.558-0.294
		c0.086,0,0.172-0.307,0.248-0.33C42.901,85.359,43.126,85,43.338,85H43.5c0.556,0,1.114,0.04,1.644-0.04l0.155,0.062l0.626-0.069
		l0.212-0.011c0.173-0.023,0.352-0.052,0.524-0.081l0.229-0.046l0.46-0.094l0.212-0.04l0.397-0.085l0.218-0.052l0.322-0.068
		l2.218-0.568l0.328-0.099l0.201-0.057l0.39-0.115l0.214-0.069l0.466-0.132l0.212-0.069c0.161-0.059,0.315-0.104,0.5-0.178
		l0.206-0.069l0.593-0.207l0.138-0.046c0.517-0.173,1.039-0.374,1.557-0.586l0.156-0.081c0.2-0.075,0.396-0.166,0.586-0.253
		c0.081-0.029,0.16-0.069,0.235-0.109c0.172-0.081,0.345-0.149,0.5-0.23l0.265-0.132c0.155-0.075,0.298-0.138,0.453-0.218
		l0.265-0.138c0.133-0.086,0.271-0.16,0.401-0.241l0.26-0.144c0.022-0.023,0.052-0.047,0.081-0.064
		c-0.042,0.15-0.093,0.293-0.15,0.437L58.55,81.16c-0.168,0.374-0.369,0.73-0.587,1.069c-0.017,0.034-0.04,0.069-0.062,0.098
		c-0.23,0.346-0.482,0.678-0.765,0.989c-0.017,0.017-0.034,0.035-0.046,0.052c-0.993,1.058-2.189,1.914-3.512,2.517
		c-0.188,0.092-0.425,0.173-0.631,0.253c-0.294,0.121-0.593,0.258-0.886,0.368c-0.552,0.196-1.115,0.368-1.735,0.523
		c-0.58,0.154-1.172,0.275-1.764,0.368c-0.322,0.062-0.639,0.08-0.966,0.114c-0.218,0.023-0.46,0.07-0.673,0.081
		c-1.453,0.109-2.912-0.069-4.292-0.522l-0.045-0.023c-0.421-0.138-0.806-0.305-1.174-0.5c-0.027-0.017-0.07-0.034-0.105-0.046
		C41.015,86.343,40.489,86.179,40.334,86z M59.664,87.637l4.092-1.041c0.77-0.207,1.229-0.988,1.046-1.764l-1.528-5.957
		c-0.127-0.465-0.472-0.839-0.925-1c-0.019-0.002-0.035-0.002-0.052,0c0.052-0.927,0.022-1.853-0.086-2.772
		c0-0.047,0.021-0.087,0.028-0.126c1.366-4.448,2.2-9.036,2.482-13.678c0.018-0.16,0.028-0.333,0.028-0.493l2.512-0.632
		c0.414-0.109,0.861-0.029,1.212,0.224c0.345,0.23,0.562,0.609,0.603,1.023c0.046,0.43,0.075,0.856,0.075,1.287
		c-0.119,0.046-0.235,0.109-0.34,0.161c-0.16,0.071-0.321,0.138-0.471,0.218c-0.184,0.092-0.355,0.202-0.527,0.319
		c-0.127,0.095-0.271,0.181-0.397,0.295c-0.16,0.139-0.305,0.293-0.437,0.455l-0.018-0.04c-0.12,0.109-0.234,0.232-0.334,0.362
		c-0.125,0.144-0.252,0.316-0.367,0.477c-0.109,0.158-0.184,0.259-0.264,0.402c-0.092,0.19-0.173,0.368-0.259,0.558
		c-0.069,0.141-0.132,0.29-0.179,0.442c-0.081,0.199-0.137,0.402-0.172,0.612c-0.029,0.158-0.081,0.295-0.098,0.445
		c-0.029,0.242-0.04,0.482-0.04,0.73c0,0.126-0.023,0.252,0,0.391c0.046,0.811,0.259,1.598,0.632,2.316
		c0.023,0.074,0.092,0.148,0.127,0.223c0.172,0.305,0.367,0.59,0.586,0.856c0,0.017,0.028,0.046,0.04,0.052
		c-0.562,0.93-1.2,1.81-1.913,2.632c-0.254,0.292-0.38,0.673-0.356,1.057c0.04,0.759,0.672,1.345,1.431,1.316l2.184,8.534
		c0.396,1.557-0.545,3.138-2.098,3.533l-5.644,1.443c-0.787,0.188-1.585-0.294-1.775-1.086c-0.017-0.076-0.028-0.149-0.034-0.225
		C58.423,88.44,58.94,87.792,59.664,87.637z M81.501,54.371l2.614,7.335c0.166,0.402,0.143,0.859-0.063,1.241l-0.012-0.049
		c-0.188,0.362-0.522,0.626-0.919,0.73L76.605,65.3c-0.168,0.035-0.345,0.043-0.519,0.029c-0.017-0.035-0.062-0.078-0.08-0.121
		c-0.148-0.246-0.31-0.48-0.488-0.704l-0.161-0.17c-0.177-0.212-0.373-0.411-0.592-0.586l-0.029-0.028l-1.178-7.32
		c-0.344-2.248,1.195-4.351,3.443-4.696C78.948,51.403,80.834,52.521,81.501,54.371z M6.36,66.3
		c-0.339-0.215-0.573-0.563-0.649-0.959C2.229,44.653,16.175,25.07,36.863,21.587c18.268-3.071,36.086,7.488,42.171,24.986
		c0.122,0.385,0.087,0.799-0.103,1.155c-0.194,0.365-0.535,0.632-0.937,0.738l-2.833,0.716
		c-5.419-17.676-24.14-27.614-41.816-22.196c-16.515,5.063-26.468,21.863-22.968,38.78l-2.84,0.726
		C7.136,66.593,6.711,66.524,6.36,66.3z M17.722,78.402c-0.092,0.259-0.173,0.522-0.242,0.787c-0.018,0.086-0.041,0.167-0.052,0.242
		c-0.052,0.275-0.079,0.552-0.086,0.833c0,0.052,0,0.115-0.023,0.156c-0.136,0.103-0.293,0.173-0.453,0.212l-6.523,1.672
		c-0.787,0.19-1.585-0.292-1.774-1.08c-0.012-0.035-0.018-0.069-0.023-0.098l-1.24-7.7c-0.363-2.247,1.171-4.356,3.418-4.712
		c1.954-0.316,3.851,0.811,4.523,2.672l2.487,6.982L17.722,78.402z M19.015,71.136c-0.162,0.368-0.283,0.752-0.363,1.146
		l-0.648-1.864c-0.42-1.188-1.161-2.239-2.133-3.043l2.236-0.586l4.31-1.103c0.35,0.919,0.759,1.821,1.212,2.694l-1.764,0.455
		C20.622,69.153,19.583,69.992,19.015,71.136z M26.513,82.872c-1.211,1.771-3.625,2.224-5.396,1.012
		c-1.769-1.207-2.217-3.625-1.011-5.392c1.213-1.768,3.621-2.221,5.39-1.015C27.267,78.687,27.719,81.103,26.513,82.872z
		 M28.34,77.931c-0.058-0.098-0.126-0.195-0.188-0.292c-0.115-0.225-0.248-0.44-0.391-0.644c-0.063-0.058-0.167-0.155-0.259-0.264
		l-0.018-0.045c-0.138-0.165-0.293-0.322-0.442-0.483c-0.121-0.107-0.241-0.208-0.367-0.296c-0.162-0.132-0.329-0.256-0.501-0.368
		c-0.148-0.087-0.293-0.153-0.425-0.225c-0.179-0.1-0.367-0.186-0.559-0.261c-0.148-0.058-0.31-0.104-0.465-0.145
		c-0.189-0.057-0.391-0.1-0.592-0.148c-0.2-0.053-0.327-0.043-0.488-0.056c-0.2-0.025-0.408-0.034-0.609-0.031
		c-0.172,0.006-0.345,0.017-0.511,0.04c-0.133-0.006-0.259,0.006-0.385,0.029c-0.213-0.403-0.391-0.79-0.563-1.177
		c-0.16-0.389-0.144-0.829,0.052-1.199c0.184-0.382,0.528-0.664,0.942-0.766l2.517-0.65l0.241,0.413
		c2.506,3.966,5.477,7.621,8.844,10.884c0.339,0.868,0.758,1.695,1.259,2.478c-0.012,0.017-0.028,0.028-0.046,0.034
		c-0.334,0.357-0.459,0.862-0.339,1.334l1.54,5.958c0.195,0.776,0.982,1.248,1.764,1.052l4.08-1.056
		c0.719-0.208,1.482,0.114,1.844,0.77c0.179,0.396,0.168,0.844-0.017,1.235c-0.188,0.386-0.533,0.673-0.942,0.787l-5.575,1.437
		c-1.552,0.396-3.454-0.54-3.454-2.091c0-0.007,0-0.007,0-0.007l-2.263-8.551c0.292-0.155,0.491-0.413,0.618-0.724
		c0.133-0.362,0.096-0.759-0.059-1.109c-0.166-0.351-0.47-0.62-0.832-0.759c-1.018-0.379-2.009-0.844-2.945-1.39
		c0.006-0.023,0.003-0.045-0.003-0.069c0.057-0.339,0.09-0.678,0.102-1.023c-0.006-0.086-0.006-0.178,0-0.264
		c-0.012-0.426-0.069-0.845-0.173-1.259C28.64,78.649,28.506,78.282,28.34,77.931z M24.215,102.464L21.135,90.4l4.446-0.235
		l2.645,10.378L24.215,102.464z M29.536,87.964l1.781,6.895C32.11,97.973,35.276,100,38.391,99h0.012l5.637-1.385
		c2.345-0.607,3.747-2.969,3.139-5.308c-0.059-0.224-0.133-0.433-0.225-0.646c-0.104-0.224-0.224-0.435-0.368-0.636
		c-0.04-0.063-0.079,0.116-0.148,0.03c-0.03-0.039-0.066-0.051-0.104-0.056c0.107,0,0.211,0,0.34,0c0.178,0,0.361-0.233,0.546-0.251
		c0.506-0.029,1.022-0.208,1.551-0.294c0.139-0.02,0.293-0.101,0.449-0.128c0.587-0.104,1.189-0.254,1.839-0.414
		c0.648-0.167,1.229-0.366,1.786-0.562c0.149-0.052,0.3-0.104,0.432-0.163c0.505-0.188,0.988-0.382,1.431-0.589
		c0.172-0.069,0.34-0.157,0.5-0.254c0.138-0.052,0.293-0.122,0.426-0.19c-0.035,0.12-0.059,0.246-0.075,0.371
		c0,0.081-0.028,0.156-0.041,0.237c-0.017,0.246-0.017,0.5,0,0.74c0.104,1.282,0.771,2.441,1.816,3.183
		c1.046,0.748,2.368,0.996,3.614,0.686l5.638-1.448c3.115-0.782,5.005-3.943,4.224-7.058l-0.006-0.005l-0.012-0.047l-1.78-6.964
		l1.607,0.394l2.88,11.272l-1.334,2.253c-0.568,0.942-0.546,2.132,0.058,3.052l0.914,1.42l-38.386,9.815l0.12-1.673
		c0.08-1.103-0.471-2.148-1.419-2.712l-2.247-1.341l-2.89-11.257L29.536,87.964z"/>
	<linearGradient id="SVGID_3_" gradientUnits="userSpaceOnUse" x1="24.7217" y1="198" x2="24.7217" y2="0.8554">
		<stop  offset="0" style="stop-color:#F2453F"/>
		<stop  offset="1" style="stop-color:#F2B730"/>
	</linearGradient>
	<path fill="url(#SVGID_3_)" d="M25.082,58.304c0.78-0.201,1.247-0.994,1.052-1.77c-0.207-0.782-0.995-1.247-1.776-1.059
		c-0.775,0.208-1.241,1-1.046,1.782C23.513,58.034,24.306,58.504,25.082,58.304z"/>
	<linearGradient id="SVGID_4_" gradientUnits="userSpaceOnUse" x1="26.0928" y1="198" x2="26.0928" y2="0.8554">
		<stop  offset="0" style="stop-color:#F2453F"/>
		<stop  offset="1" style="stop-color:#F2B730"/>
	</linearGradient>
	<path fill="url(#SVGID_4_)" d="M26.438,51.977c0.787-0.189,1.275-0.982,1.085-1.775c-0.005-0.012-0.005-0.023-0.011-0.035
		c-0.195-0.775-0.988-1.246-1.764-1.052c-0.788,0.19-1.276,0.988-1.087,1.775C24.853,51.684,25.645,52.167,26.438,51.977z"/>
	<linearGradient id="SVGID_5_" gradientUnits="userSpaceOnUse" x1="30.665" y1="198" x2="30.665" y2="0.8554">
		<stop  offset="0" style="stop-color:#F2453F"/>
		<stop  offset="1" style="stop-color:#F2B730"/>
	</linearGradient>
	<path fill="url(#SVGID_5_)" d="M31.024,46.271c0.775-0.201,1.245-0.988,1.052-1.77l-0.007-0.006
		c-0.201-0.771-0.988-1.235-1.764-1.041c-0.775,0.196-1.247,0.988-1.052,1.764C29.454,46,30.247,46.465,31.024,46.271z"/>
	<linearGradient id="SVGID_6_" gradientUnits="userSpaceOnUse" x1="38.6533" y1="198" x2="38.6533" y2="0.8554">
		<stop  offset="0" style="stop-color:#F2453F"/>
		<stop  offset="1" style="stop-color:#F2B730"/>
	</linearGradient>
	<path fill="url(#SVGID_6_)" d="M38.725,42.788c0.137-0.017,0.27-0.045,0.396-0.097c0.771-0.189,1.241-0.971,1.052-1.747
		c0-0.005,0-0.011-0.005-0.022c-0.202-0.776-0.989-1.247-1.765-1.058c-0.811,0.093-1.391,0.817-1.299,1.627
		C37.189,42.294,37.92,42.88,38.725,42.788z"/>
	<linearGradient id="SVGID_7_" gradientUnits="userSpaceOnUse" x1="58.5732" y1="198" x2="58.5732" y2="0.8554">
		<stop  offset="0" style="stop-color:#F2453F"/>
		<stop  offset="1" style="stop-color:#F2B730"/>
	</linearGradient>
	<path fill="url(#SVGID_7_)" d="M58.933,49.638c0.777-0.195,1.249-0.988,1.048-1.77c-0.202-0.776-0.989-1.247-1.771-1.057
		c-0.775,0.212-1.241,1-1.046,1.781C57.358,49.374,58.153,49.839,58.933,49.638z"/>
	<linearGradient id="SVGID_8_" gradientUnits="userSpaceOnUse" x1="54.3115" y1="198" x2="54.3115" y2="0.8554">
		<stop  offset="0" style="stop-color:#F2453F"/>
		<stop  offset="1" style="stop-color:#F2B730"/>
	</linearGradient>
	<path fill="url(#SVGID_8_)" d="M54.682,44.713c0.776-0.207,1.235-0.994,1.04-1.764c-0.212-0.776-1-1.241-1.781-1.046
		c-0.775,0.208-1.242,1-1.035,1.776C53.113,44.455,53.905,44.92,54.682,44.713z"/>
	<linearGradient id="SVGID_9_" gradientUnits="userSpaceOnUse" x1="47.6904" y1="198" x2="47.6904" y2="0.8554">
		<stop  offset="0" style="stop-color:#F2453F"/>
		<stop  offset="1" style="stop-color:#F2B730"/>
	</linearGradient>
	<path fill="url(#SVGID_9_)" d="M48.001,41.932c0.776-0.201,1.248-0.994,1.047-1.77c-0.201-0.77-0.994-1.241-1.766-1.04
		c-0.774,0.196-0.996,0.983-0.996,1.758c0,0.007,0,0.007,0,0.007C46.286,41.662,47.226,42.133,48.001,41.932z"/>
	<linearGradient id="SVGID_10_" gradientUnits="userSpaceOnUse" x1="58.6123" y1="198" x2="58.6123" y2="0.8554">
		<stop  offset="0" style="stop-color:#F2453F"/>
		<stop  offset="1" style="stop-color:#F2B730"/>
	</linearGradient>
	<path fill="url(#SVGID_10_)" d="M47.407,133.639l-20.912,6.091l22.458,38.979l41.776-16.665l-12.654-17.745L47.407,133.639z
		 M72.829,145.758l-13.343,3.482l-8.74-11.153L72.829,145.758z M47.315,136.896l0.195,0.069l9.539,12.176l-23.635-8.2
		L47.315,136.896z M31.518,142.252l25.975,9.01l-7.81,22.486L31.518,142.252z M51.441,174.363l7.815-22.491l25.974,9.021
		L51.441,174.363z M61.452,150.665l14.543-3.827l0.155,0.058l8.407,11.785L61.452,150.665z"/>
</g>
<g>
	<path opacity="0.5" fill="#707070" enable-background="new    " d="M77.65,32.021c7.044-2.291,14.552-3.545,22.35-3.545
		c25.696,0,48.292,13.46,61.149,33.688c1.354-2.341,3.547-3.784,6.153-4.307C153.081,35.694,128.238,20.966,100,20.966
		c-9.866,0-19.313,1.808-28.046,5.09C74.028,27.855,75.937,29.851,77.65,32.021z"/>
	<path opacity="0.5" fill="#707070" enable-background="new    " d="M160.143,148h-0.804c-1.267,4-4.955,6.682-9.295,6.682
		c-0.496-0.005-0.985-0.06-1.469-0.14c-12.856,11.646-29.9,18.75-48.575,18.75c-7.421,0-14.584-1.126-21.33-3.208l-10.384,4.142
		c9.729,4.222,20.449,6.575,31.714,6.575c24.932,0,47.226-11.475,61.895-29.413C161.102,150.415,160.499,149.274,160.143,148z"/>
	<path opacity="0.5" fill="#707070" enable-background="new    " d="M35.604,133.951c-4.194-8.133-6.893-17.152-7.729-26.703
		l-1.195,0.572c-0.268,0.117-0.562,0.227-0.849,0.316l-0.181,0.051c-0.466,0.114-0.944,0.173-1.423,0.173
		c-1.484,0-2.854-0.566-3.909-1.499c0.774,10.422,3.543,20.293,7.946,29.228L35.604,133.951z"/>
</g>
</svg>
